<svg viewBox="0 0 512 512" xmlns="http://www.w3.org/2000/svg"><path d="m512 100c0-44.113281-35.886719-80-80-80h-237c0-11.046875-8.953125-20-20-20h-63c-11.046875 0-20 8.953125-20 20 0 .136719.019531.265625.019531.398438-40.378906 4.019531-72.019531 38.183593-72.019531 79.601562v10c-11.046875 0-20 8.953125-20 20v63c0 11.046875 8.953125 20 20 20v37c-11.046875 0-20 8.953125-20 20v63c0 11.046875 8.953125 20 20 20v79c0 44.113281 35.886719 80 80 80h332c44.113281 0 80-35.886719 80-80 0-11.046875-8.953125-20-20-20s-20 8.953125-20 20c0 22.054688-17.945312 40-40 40h-332c-22.054688 0-40-17.945312-40-40v-332c0-22.054688 17.945312-40 40-40h119.761719c-6.828125 11.777344-10.761719 25.433594-10.761719 40v143c0 44.113281 35.886719 80 80 80h143c14.566406 0 28.222656-3.933594 40-10.761719v19.761719c0 11.046875 8.953125 20 20 20s20-8.953125 20-20zm-80 183h-143c-22.054688 0-40-17.945312-40-40v-143c0-22.054688 17.945312-40 40-40h143c22.054688 0 40 17.945312 40 40v143c0 22.054688-17.945312 40-40 40zm-20 110c11.046875 0 20 8.953125 20 20s-8.953125 20-20 20h-93c-11.046875 0-20-8.953125-20-20s8.953125-20 20-20zm-51-296c-41.355469 0-75 33.644531-75 75s33.644531 75 75 75 75-33.644531 75-75-33.644531-75-75-75zm0 110c-19.300781 0-35-15.699219-35-35s15.699219-35 35-35 35 15.699219 35 35-15.699219 35-35 35zm-242-107c11.046875 0 20 8.953125 20 20s-8.953125 20-20 20-20-8.953125-20-20 8.953125-20 20-20zm0 0"/></svg>