<?xml version="1.0" encoding="iso-8859-1"?>
<!-- Generator: Adobe Illustrator 16.0.0, SVG Export Plug-In . SVG Version: 6.00 Build 0)  -->
<!DOCTYPE svg PUBLIC "-//W3C//DTD SVG 1.1//EN" "http://www.w3.org/Graphics/SVG/1.1/DTD/svg11.dtd">
<svg version="1.1" id="Capa_1" xmlns="http://www.w3.org/2000/svg" xmlns:xlink="http://www.w3.org/1999/xlink" x="0px" y="0px"
	 viewBox="0 0 31.759 31.759" style="enable-background:new 0 0 31.759 31.759;"
	 xml:space="preserve">
<g>
	<g>
		<path d="M8.779,16.363H8.055c-1.548,0-2.803,1.255-2.803,2.803v0.777c0,0.488,0.396,0.885,0.885,0.885h9.353
			c0.489,0,0.885-0.396,0.885-0.885v-0.777c0-1.548-1.255-2.803-2.803-2.803h-0.724c-0.376,0-0.68-0.304-0.68-0.68
			c0-0.14,0.056-0.273,0.156-0.37c0.421-0.41,0.775-0.96,1.031-1.554c0.052,0.039,0.108,0.066,0.171,0.066
			c0.407,0,0.884-0.898,0.884-1.51c0-0.612-0.055-1.108-0.462-1.108c-0.048,0-0.099,0.008-0.151,0.021
			c-0.029-1.66-0.448-3.731-2.982-3.731c-2.644,0-2.953,2.067-2.982,3.725c-0.038-0.007-0.076-0.015-0.11-0.015
			c-0.407,0-0.463,0.496-0.463,1.108c0,0.612,0.477,1.51,0.884,1.51c0.05,0,0.097-0.014,0.14-0.039
			c0.255,0.583,0.605,1.123,1.019,1.527c0.1,0.097,0.156,0.231,0.156,0.37C9.459,16.059,9.155,16.363,8.779,16.363z"/>
		<path d="M22.621,9.329c0-0.362-0.295-0.656-0.656-0.656h-7.844c0.226,0.501,0.388,1.117,0.455,1.88
			c0.168,0.103,0.293,0.27,0.396,0.472h6.992c0.362,0,0.655-0.294,0.655-0.656v-1.04H22.621z"/>
		<path d="M22.545,14.947c0.045-0.089,0.076-0.185,0.076-0.291v-1.04c0-0.362-0.295-0.656-0.656-0.656h-6.832
			c-0.185,0.701-0.643,1.433-1.274,1.63c-0.019,0.035-0.041,0.065-0.06,0.099v0.623h7.927C21.99,15.174,22.264,15.054,22.545,14.947
			z"/>
		<path d="M17.9,19.595c0.33-0.865,0.801-1.658,1.392-2.352h-2.66c0.351,0.557,0.558,1.215,0.558,1.921v0.431H17.9z"/>
		<path d="M4.588,25.036c-1.523,0-2.762-1.677-2.762-3.735V8.222c0-2.06,1.239-3.736,2.762-3.736h19.927
			c1.522,0,2.763,1.676,2.763,3.736v6.409c0.642,0.151,1.254,0.378,1.826,0.672V8.222c0-3.067-2.059-5.562-4.588-5.562H4.588
			C2.058,2.66,0,5.155,0,8.222V21.3c0,3.066,2.059,5.562,4.588,5.562h14.085c-0.368-0.563-0.665-1.177-0.884-1.827L4.588,25.036
			L4.588,25.036z"/>
		<path d="M25.423,16.428c-3.499,0-6.336,2.837-6.336,6.335c0,3.5,2.837,6.336,6.336,6.336s6.336-2.836,6.336-6.336
			C31.759,19.265,28.923,16.428,25.423,16.428z M28.979,23.058c0,0.291-0.236,0.525-0.525,0.525h-2.211v2.21
			c0,0.291-0.235,0.526-0.525,0.526H25.13c-0.291,0-0.526-0.236-0.526-0.526v-2.21h-2.21c-0.291,0-0.526-0.236-0.526-0.525V22.47
			c0-0.291,0.236-0.525,0.526-0.525h2.21v-2.211c0-0.29,0.236-0.525,0.526-0.525h0.587c0.291,0,0.525,0.236,0.525,0.525v2.211h2.211
			c0.291,0,0.525,0.236,0.525,0.525V23.058z"/>
	</g>
</g>
<g>
</g>
<g>
</g>
<g>
</g>
<g>
</g>
<g>
</g>
<g>
</g>
<g>
</g>
<g>
</g>
<g>
</g>
<g>
</g>
<g>
</g>
<g>
</g>
<g>
</g>
<g>
</g>
<g>
</g>
</svg>
