<svg viewBox="0 0 511.99981 511" xmlns="http://www.w3.org/2000/svg"><path d="m296.464844 336.097656c-12.519532-8.734375-25.898438-15.851562-39.890625-21.289062 18.613281-16.917969 30.960937-40.617188 33.109375-67.148438 28.226562-27.503906 65.226562-42.582031 104.890625-42.582031 30.964843 0 60.695312 9.324219 85.984375 26.960937 9.0625 6.320313 21.523437 4.101563 27.84375-4.960937 6.316406-9.058594 4.097656-21.523437-4.960938-27.839844-12.519531-8.734375-25.902344-15.847656-39.894531-21.289062 20.539063-18.667969 33.453125-45.585938 33.453125-75.460938 0-56.238281-45.75-101.988281-101.988281-101.988281-56.234375 0-101.984375 45.75-101.984375 101.988281 0 29.753907 12.808594 56.574219 33.207031 75.234375-2.792969 1.074219-5.570313 2.210938-8.320313 3.421875-12.515624 5.507813-24.28125 12.28125-35.222656 20.234375-15.089844-37.488281-51.828125-64.019531-94.652344-64.019531-56.234374 0-101.988281 45.75-101.988281 101.984375 0 29.671875 12.738281 56.417969 33.027344 75.070312-54.246094 20.324219-98.230469 63.976563-116.136719 119.648438-5.9375 18.460938-2.792968 38.039062 8.628906 53.714844 11.421876 15.671875 29.09375 24.660156 48.484376 24.660156h173.980468c11.042969 0 19.996094-8.953125 19.996094-20 0-11.042969-8.953125-19.996094-19.996094-19.996094h-173.980468c-6.464844 0-12.355469-2.996094-16.164063-8.222656s-4.855469-11.753906-2.878906-17.910156c19.765625-61.453125 80.046875-104.371094 146.589843-104.371094 30.960938 0 60.695313 9.324219 85.984376 26.960938 9.058593 6.320312 21.523437 4.097656 27.84375-4.960938 6.316406-9.058594 4.097656-21.523438-4.964844-27.839844zm98.546875-295.601562c34.183593 0 61.992187 27.808594 61.992187 61.992187 0 34.179688-27.808594 61.992188-61.992187 61.992188-34.179688 0-61.992188-27.8125-61.992188-61.992188 0-34.183593 27.8125-61.992187 61.992188-61.992187zm-206.972657 136.855468c34.183594 0 61.992188 27.8125 61.992188 61.992188 0 34.183594-27.808594 61.992188-61.992188 61.992188-34.183593 0-61.992187-27.808594-61.992187-61.992188 0-34.179688 27.808594-61.992188 61.992187-61.992188zm323.960938 240.097657c0 11.042969-8.953125 19.996093-20 19.996093h-54.992188v54.992188c0 11.046875-8.953124 20-19.996093 20-11.046875 0-20-8.953125-20-20v-54.992188h-54.992188c-11.042969 0-19.996093-8.953124-19.996093-19.996093 0-11.046875 8.953124-20 19.996093-20h54.992188v-54.992188c0-11.042969 8.953125-19.996093 20-19.996093 11.042969 0 19.996093 8.953124 19.996093 19.996093v54.992188h54.992188c11.046875 0 20 8.953125 20 20zm0 0"/></svg>