<svg viewBox="0 0 512.00069 512" xmlns="http://www.w3.org/2000/svg"><path d="m316 260c-5.519531 0-10 4.480469-10 10s4.480469 10 10 10 10-4.480469 10-10-4.480469-10-10-10zm0 0"/><path d="m102.167969 369.785156-100 126c-2.386719 3.003906-2.839844 7.109375-1.171875 10.5625 1.667968 3.457032 5.167968 5.652344 9.003906 5.652344h492c3.835938 0 7.335938-2.195312 9.003906-5.652344 1.671875-3.453125 1.214844-7.558594-1.171875-10.5625l-100-126c-1.894531-2.390625-4.78125-3.785156-7.832031-3.785156h-87.597656l74.785156-117.296875c17.542969-26.300781 26.8125-56.972656 26.8125-88.703125 0-88.222656-71.773438-160-160-160s-160 71.777344-160 160c0 31.730469 9.269531 62.398438 26.8125 88.703125l74.785156 117.296875h-87.597656c-3.050781 0-5.933594 1.394531-7.832031 3.785156zm-37.335938 79.214844h60.464844l-34.125 43h-60.46875zm145.519531-63 27.414063 43h-71.0625l34.128906-43zm91.300782 0h9.519531l34.125 43h-71.058594zm59.519531 63 34.125 43h-278.59375l34.128906-43zm59.660156 43-34.128906-43h60.46875l34.125 43zm10.464844-63h-60.464844l-34.128906-43h60.46875zm-291.789063-191.3125c-15.378906-23.023438-23.507812-49.886719-23.507812-77.6875 0-77.195312 62.804688-140 140-140s140 62.804688 140 140c0 27.800781-8.128906 54.664062-23.503906 77.6875-.042969.058594-.078125.117188-.117188.175781-6.566406 10.300781-111.320312 174.605469-116.378906 182.535157-12.722656-19.957032-103.421875-162.214844-116.378906-182.535157-.035156-.058593-.074219-.117187-.113282-.175781zm35.789063 148.3125-34.125 43h-60.46875l34.128906-43zm0 0"/><path d="m256 260c54.898438 0 100-44.457031 100-100 0-55.140625-44.859375-100-100-100s-100 44.859375-100 100c0 55.558594 45.117188 100 100 100zm0-180c44.113281 0 80 35.886719 80 80 0 44.523438-36.175781 80-80 80-43.835938 0-80-35.476562-80-80 0-44.113281 35.886719-80 80-80zm0 0"/><path d="m298.121094 294.125c-4.726563-2.851562-10.875-1.328125-13.726563 3.402344l-36.960937 61.320312c-2.851563 4.730469-1.328125 10.875 3.402344 13.726563 4.75 2.863281 10.886718 1.308593 13.726562-3.402344l36.960938-61.320313c2.851562-4.730468 1.328124-10.875-3.402344-13.726562zm0 0"/></svg>