<svg id="Capa_1" enable-background="new 0 0 512 512" viewBox="0 0 512 512" xmlns="http://www.w3.org/2000/svg"><g><path d="m489.5 325.775c12.406 0 22.5-10.093 22.5-22.5v-153.343c-.095-1.314.088-.507-.604-2.951l-28.127-66.968c-3.518-8.375-11.66-13.787-20.745-13.787h-413.047c-9.085 0-17.228 5.412-20.745 13.787l-28.128 66.968c-.2.743-.203-.073-.604 2.95v33.171c0 4.142 3.357 7.5 7.5 7.5s7.5-3.358 7.5-7.5v-25.671h72.566l-24.551 15.729c-4.758 3.048-7.599 8.242-7.599 13.893v8.623c0 6.034 3.288 11.581 8.582 14.477 2.474 1.353 5.197 2.024 7.917 2.024 3.101 0 6.195-.874 8.901-2.608l2.058-1.318v102.524h-60.374c-4.136 0-7.5-3.364-7.5-7.5v-93.735c0-4.142-3.357-7.5-7.5-7.5s-7.5 3.358-7.5 7.5v93.735c0 12.407 10.094 22.5 22.5 22.5h2.147v75.356c-3.727 1.99-7.189 4.339-10.285 7.047-9.261 8.101-14.362 18.666-14.362 29.749v.348c0 4.142 3.357 7.5 7.5 7.5s7.5-3.358 7.5-7.5v-.348c0-8.578 5.023-14.772 9.238-18.459 18.555-16.945 42.082-7.443 69.133-10.201 24.421-3.004 32.919-16.014 61.858-13.51 50.014 4.329 72.52 36.439 132.008 11.189 54.263-23.032 92.769 1.402 120.549 3.604 29.167 3.291 58.432-10.616 79.521 8.112 4.422 3.737 9.693 10.044 9.693 18.866v.746c0 4.142 3.357 7.5 7.5 7.5s7.5-3.358 7.5-7.5v-.746c0-11.373-5.331-22.141-15.011-30.322-6.867-5.804-15.327-9.924-24.554-12.165v-69.267h17.065zm-432.153 67.744c-6.066-.084-12.027.586-17.699 1.959v-69.702h17.699zm-38.562-251.087 23.777-56.611c1.172-2.792 3.887-4.596 6.915-4.596h413.047c3.028 0 5.743 1.804 6.915 4.596l23.777 56.611h-311.387l-26.524-16.993c-5.406-3.464-12.394-3.463-17.802 0l-26.523 16.993zm53.941 54.507c-.551.313-2.056.451-2.309-1.263v-8.623c0-.514.258-.986.69-1.263l74.486-47.721c.492-.315 1.128-.315 1.62 0l74.487 47.722c.433.277.69.749.69 1.263v8.623c0 .59-.263 1.033-.78 1.316s-1.031.265-1.528-.053l-64.778-41.501c-2.703-1.732-5.802-2.598-8.9-2.598s-6.197.866-8.901 2.598zm35.093 143.836h-7.5c-4.143 0-7.5 3.358-7.5 7.5s3.357 7.5 7.5 7.5h7.5v34.881c-7.621 2.393-15.661 4.304-26.767 4.418-2.888.027-5.798-.081-8.706-.296v-69.003h35.473zm-9.944-30v-112.134l47.719-30.572c.492-.315 1.128-.315 1.62 0l47.72 30.572v112.134zm72.114 70.737c-4.436-.544-9.365-.829-14.966-.753-13.75.188-23.555 2.364-32.204 4.992v-29.976h47.17zm0-40.737h-47.17v-15h47.17zm62.161 58.609c-14.742-1.564-23.501-5.264-32.697-9.163-4.557-1.932-9.174-3.889-14.464-5.52v-28.926h7.5c4.143 0 7.5-3.358 7.5-7.5s-3.357-7.5-7.5-7.5h-7.5v-15h47.161zm32.7-1.3c-5.19 1.146-10.888 1.895-17.699 2.002v-74.312h17.699zm192.586-4.97c-4.563-.1-9.195.213-13.819.994-1.289.218-2.584.406-3.88.589v-68.922h17.699zm-57.936-82.339c-4.143 0-7.5 3.358-7.5 7.5s3.357 7.5 7.5 7.5h25.236v70.254c-.071.003-.143.008-.214.011-18.018.604-29.29-2.485-41.235-5.761-12.2-3.346-26.016-7.135-47.79-7.135-.137 0-.275 0-.413 0-25.386.056-39.95 5.149-52.8 9.643-.818.286-1.628.569-2.435.849v-67.862h89.65c4.143 0 7.5-3.358 7.5-7.5s-3.357-7.5-7.5-7.5h-159.565v-102.523l2.058 1.318c5.08 3.254 11.523 3.478 16.818.583 5.294-2.896 8.582-8.442 8.582-14.477v-8.623c0-5.651-2.841-10.845-7.599-13.893l-24.551-15.729h291.758v145.843c0 4.136-3.364 7.5-7.5 7.5h-90zm-61-120.172h-72c-9.098 0-16.5 7.402-16.5 16.5v54c0 9.098 7.402 16.5 16.5 16.5h72c9.098 0 16.5-7.402 16.5-16.5v-54c0-9.098-7.402-16.5-16.5-16.5zm1.5 70.5c0 .827-.673 1.5-1.5 1.5h-72c-.827 0-1.5-.673-1.5-1.5v-54c0-.827.673-1.5 1.5-1.5h72c.827 0 1.5.673 1.5 1.5zm125.5-70.5h-72c-9.098 0-16.5 7.402-16.5 16.5v54c0 9.098 7.402 16.5 16.5 16.5h72c9.098 0 16.5-7.402 16.5-16.5v-54c0-9.098-7.402-16.5-16.5-16.5zm1.5 70.5c0 .827-.673 1.5-1.5 1.5h-72c-.827 0-1.5-.673-1.5-1.5v-54c0-.827.673-1.5 1.5-1.5h72c.827 0 1.5.673 1.5 1.5zm-294.566-38.621c-4.143 0-7.5 3.358-7.5 7.5v13.506c0 4.142 3.357 7.5 7.5 7.5s7.5-3.358 7.5-7.5v-13.506c0-4.142-3.358-7.5-7.5-7.5z"/></g></svg>