<svg viewBox="0 0 512 512.00099" xmlns="http://www.w3.org/2000/svg"><path d="m256 352c-5.519531 0-10 4.480469-10 10s4.480469 10 10 10 10-4.480469 10-10-4.480469-10-10-10zm0 0"/><path d="m512 202.066406c.023438-3.863281-2.179688-7.398437-5.660156-9.074218l-166-80c-2.789063-1.34375-6.042969-1.320313-8.8125.0625l-35.527344 17.765624v-120.820312c0-5.523438-4.476562-10-10-10h-60c-5.523438 0-10 4.476562-10 10v120.820312l-35.527344-17.765624c-2.769531-1.382813-6.027344-1.40625-8.8125-.0625l-166 80c-3.484375 1.679687-5.6835935 5.210937-5.660156 9.074218.0273438 3.867188 2.277344 7.371094 5.785156 9l66.503906 30.933594-66.503906 30.933594c-3.503906 1.628906-5.7578122 5.132812-5.785156 8.996094-.0234375 3.867187 2.175781 7.398437 5.660156 9.078124l80.339844 38.71875v92.273438c0 3.785156 2.140625 7.25 5.527344 8.941406l160 80c.09375.046875.191406.078125.285156.121094.152344.074219.304688.136719.460938.199219.25.101562.503906.191406.757812.269531.152344.046875.300781.097656.457031.136719.277344.070312.554688.125.835938.171875.140625.023437.277343.054687.417969.074218.378906.046876.753906.074219 1.132812.078126.046875 0 .085938.007812.132812.007812.425782 0 .851563-.035156 1.277344-.089844.105469-.011718.210938-.035156.316406-.054687.3125-.050781.625-.113281.933594-.195313.140625-.035156.28125-.082031.421875-.125.269531-.082031.53125-.175781.796875-.28125.152344-.0625.304688-.125.453125-.195312.089844-.042969.179688-.070313.265625-.113282l160-80c3.386719-1.695312 5.527344-5.15625 5.527344-8.945312v-92.269531l80.339844-38.71875c3.484375-1.679688 5.6875-5.214844 5.660156-9.078125-.027344-3.867188-2.277344-7.371094-5.785156-9l-66.503906-30.933594 66.503906-30.933594c3.507812-1.628906 5.757812-5.132812 5.785156-9zm-276-182.066406h40v142c0 5.519531 4.476562 10 10 10h10.003906l-40.003906 53.335938-35.640625-47.515626-4.363281-5.820312h10.003906c5.523438 0 10-4.480469 10-10zm20 290.820312-137.640625-68.820312 91.007813-45.503906 38.632812 51.503906c1.890625 2.519531 4.851562 4 8 4s6.109375-1.480469 8-4l38.628906-51.503906 91.007813 45.503906zm-80.082031-177.679687 37.722656 18.859375h-17.640625c-3.789062 0-7.25 2.140625-8.945312 5.527344-1.691407 3.386718-1.328126 7.441406.945312 10.472656l9.171875 12.234375-101.328125 50.664063-62.476562-29.058594zm-80.074219 119.960937 137.796875 68.898438-57.722656 28.859375-142.550781-68.699219zm310.15625 162.714844-140 70v-83.816406c0-5.523438-4.476562-10-10-10s-10 4.476562-10 10v83.816406l-140-70v-76.453125l65.65625 31.644531c2.789062 1.34375 6.042969 1.320313 8.816406-.0625l75.527344-37.765624 75.527344 37.765624c2.769531 1.382813 6.023437 1.40625 8.8125.0625l65.660156-31.644531zm-69.917969-64.957031-57.722656-28.859375 137.796875-68.898438 62.476562 29.058594zm80.074219-119.960937-101.332031-50.667969 9.175781-12.234375c2.269531-3.027344 2.636719-7.082032.941406-10.472656-1.691406-3.386719-5.15625-5.523438-8.941406-5.523438h-17.640625l37.71875-18.863281 142.550781 68.703125zm0 0"/></svg>