<svg id="Layer_1" enable-background="new 0 0 512 512"  viewBox="0 0 512 512"  xmlns="http://www.w3.org/2000/svg"><g><circle cx="470.342" cy="176.934" r="10"/><path d="m502.51 211.014c-1.72-3.35-5.13-5.44-8.9-5.44-1.6 0-3.13.38-4.56 1.11-2.37 1.22-4.13 3.29-4.95 5.83s-.6 5.25.62 7.63c2.72 5.3 7.29 16.19 7.28 29.52 0 1.41-.06 2.84-.15 4.25-.585 7.674-1.641 12.748-2.915 16.72l-125.484-13.394 2.19-31.578c.192-2.766-.773-5.473-2.664-7.5s-4.539-3.164-7.311-3.164h-27.176l9.801-103.668c1.024.276 2.09.399 3.163.335l17.18-.971c3.48-.19 6.65-2.23 8.28-5.31.79-1.51 7.84-15.86 10.33-53.13.7-10.76 2.12-17.65 3.2-21.57 2.26 4.26 5.1 10.88 5.92 18.38.72 6.38 1.33 10.55 1.98 13.52.34 1.48 1.28 4.706 3.08 6.84.479.568 1.32 1.448 2.65 2.208 1.45.83 3.24 1.367 4.92 1.367h.06.06c.73 0 1.49-.157 2.23-.327l1.1-.104c.74 1.6 1.76 4.283 2.4 8.063 1.1 6.47 2.71 11.302 5.05 15.241 1.92 3.29 4.45 5.626 6.23 7.016.22.39 12.87 27.256 16.82 34.406 1.76 3.18 5.12 5.16 8.76 5.16 1.68 0 3.35-.44 4.84-1.26 4.82-2.67 6.57-8.77 3.9-13.59-3.54-6.38-7.32-14.54-10.65-21.74 0 0-3.58-7.7-4.92-10.32-.61-1.19-1.27-2.46-2.04-3.7-.4-.64-.77-1.2-1.27-1.84-.06-.08-1.3-1.58-2.7-2.59 0 0-1.17-.87-1.8-1.81-.57-.94-1.65-3.27-2.51-8.35-1-5.91-2.85-11.38-5.34-15.82-1.04-1.86-2.11-3.41-3.25-4.73-.6-.69-1.17-1.28-1.99-1.96-.47-.37-2.05-1.33-2.19-1.41-1.91-1.21-4.8-1.09-4.89-1.09-.22-1.66-.44-3.47-.65-5.39-.97-8.65-3.76-17.34-8.29-25.83-3.61-6.74-7.19-11.217-8.55-12.838-2.16-2.58-5.71-4.188-9.13-4.188-3.67 0-7.15 1.478-10.17 4.298-3.56 3.42-6.14 8.059-8.35 15.059-2.25 7.26-3.71 16.279-4.47 27.569-1.19 17.97-3.49 29.68-5.21 36.34-.34 1.35-.71 2.64-1.07 3.829l-6.79.38c-5.11-4.19-15.47-12.67-27.509-22.47-5.73-4.7-11.68-8.35-17.67-10.86.69-1.1 1.25-2.26 1.6-3.38.44-1.36.7-2.75.79-4.25 1.62-.62 7.23-2.46 7.31-2.5.56-.23 1.25-.52 2.4-1.3.71-.52 1.55-1.18 2.49-2.46.95-1.27 1.95-3.5 1.93-5.97-.01-.6-.26-2.83-.45-4.02-.33-2.13-.67-4.02-1-5.63-.22-1.02-1.01-3.87-1.35-4.67-.18-.39-.96-1.75-1.02-1.83-.46-.68-1.09-1.61-2.82-2.82-1.73-1.09-2.71-1.31-3.43-1.47-.14-.03-.27-.06-.39-.1-1.08-.19-4.01-.28-4.91-.28-1.5-.01-3.37-.02-5.96-.11-5.31-.19-10.98-.608-17.31-1.328-6.24-.71-11.38-1.028-16.16-1.028h-.11c-13.24 0-25.12 2.708-41.159 7.418-8.62 2.5-15.49 6.779-19.86 12.389-5.13 6.5-5.86 13.394-5.84 16.925 0 1.91.19 3.797.56 5.627-.48-.27-.86-.641-1.63-1.831-1.83-3.2-4.66-5.833-7.78-7.413-2.85-1.47-6.1-2.113-9.65-2.113h-.05c-7.64 0-14.4 2.762-20.94 5.433-5.1 2.2-9.05 5.506-12.56 8.806-4.46 4.26-9.09 9.603-14.14 16.383-3.72 5-6.13 8.736-6.15 8.767-1.25 1.95-1.79 4.283-1.52 6.583l.41 3.527c-.45.15-.89.298-1.3.448-2.72 1.01-5.91 2.389-9.03 4.939-1.82 1.52-3.23 3.17-4.31 5.05-1.35 2.34-2.08 5.09-2.07 7.759 0 .23-.07 1.13-.28 1.67-.89 2.56-4.21 7.25-8.21 10.68-4.32 3.83-9.48 6.49-13.81 7.14-2.84.46-5.12 1.08-7.2 1.95-1.97.82-3.78 1.95-5.25 3.26-2.4 2.14-3.64 4.44-4.3 5.67-.08.14-.15.27-.21.38-.45.84-.6 1.07-.68 1.16-.02.01-.04.03-.06.06-.12.14-.44.49-2.18 1.27-1.48.64-5.01 1.86-12.02 2.94-18.85 2.88-29.4 10.17-34.939 15.78-4.45 4.48-6.7 8.78-7.79 11.58-1.04 1.47-2.01 3.1-2.87 4.86-1.74 3.56-3.82 9.34-3.83 16.62-.01 6.71 1.83 13.76 5.32 20.38 1.86 3.5 2.49 5.81 2.7 6.89-2.61 1.05-4.362 3.16-5.342 5.8-1.172 3.151-.793 6.602 1.405 9.282.278.339 6.446 7.598 10.016 12.158 1.75 2.22 4.528 6.58 4.648 6.8.16 2.44 1.402 5.64 1.472 5.82 1.23 2.85 2.835 5.52 4.855 8.65 4.15 6.37 10.318 14.65 18.347 24.63 3.9 4.72 6.679 12.45 6.589 18.38 0 .57-.021 1.12-.061 1.64-.1 1.11-.255 1.48-.325 1.63-.07.16-.185.34-1.785 2.1-.84.96-1.91 2.29-2.81 4.12-.96 1.93-1.56 4.31-1.64 6.55-.01.32-.02.6-.02.88-.01 2.31.45 5.71 2.72 8.75 1.36 1.85 3.47 3.45 5.63 4.28 2.47.94 4.27 1.05 5.58 1.14.17.01.33.02.48.03.31.01 1.14.05 1.14.05.07.1 1.27 1.79 1.27 1.79.24.32 1.31 1.47 1.41 1.57.6.57 1.51 1.462 3.7 2.312 6.82 2.4 13.485 3.652 19.685 3.652 6.22 0 12.385-1.232 18.735-3.692 5.24-2.05 9.82-4.516 14.24-6.896 2.55-1.36 4.96-2.668 7.42-3.848 6.1-2.93 13.07-5.734 22.77-6.364 9.55-.61 15.93-1.722 21.32-3.692 3.89-1.42 7.42-3.551 10.22-6.161 2.52-2.39 4.21-4.59 5.71-6.53.85-1.11 1.66-2.15 2.54-3.14 2.4-2.74 5.5-5.743 11.94-9.663 8.631-5.184 17.387-7.723 27.421-7.989.592-.016 3.019-.016 3.594 0 10.253.273 20.395 2.924 29.863 5.85.99.22 3.54 1.826 6.2 5.276 3.39 4.23 7.2 11.323 10.21 18.993 1.36 3.42 2.33 6.291 2.91 8.112.06.19.11.365.17.536.11.79.28 1.557.52 2.318.14.45.46 1.348.46 1.348.07.19 1.07 2.149 1.1 2.199.23.33.53.79 1.25 1.54.38.37.95.847 2.02 1.497 1.59.92 3.29 1.307 5.14 1.307 1.57 0 3.36-.367 4.72-1.127 2.46-1.37 3.56-3.079 4.18-4.269.71-1.5.84-2.319.94-2.93.01-.1.12-1.244.12-1.534-.01-.84-.12-1.546-.12-1.606-.13-.75-.35-1.619-.38-1.71.25-.97.8-2.59 1.59-4.24.55-1.2 1.22-2.49 2-3.86 1.79 4.79 3.93 9.66 6.21 14.09 1.7 3.28 3.2 5.81 4.73 7.99.71.99 4.322 5.632 6.97 6.45.18.48 3.4 10.39 4.38 13.32 1.82 5.47 5.52 10.42 10.72 14.31 7.43 5.53 15.93 8.16 22.51 9.84 8.07 2.01 15.7 2.93 20.74 3.45 3.34.34 6.93.51 10.68.51 6.09 0 12.3-.45 17.95-1.31 2.82-.42 5.3-.92 7.56-1.5 1.73-.45 3.76-.958 5.84-1.898.36-.03 10.38.022 10.38.022 4.02 0 8.57-.147 13.67-2.237 2.16-.91 5.21-2.699 7.5-5.929 1.98-2.77 3.1-6.464 3.07-10.134 0-.61.957-7.164 3.157-11.884 2.84-6.35 7.731-14.85 13.571-23.33 2.4-3.49 4.871-6.95 7.23-10 2.35-3.04 4.155-5.17 5.005-6.07 1.49-1.58 4.541-4.23 4.711-4.37.95-.81 1.927-1.65 3.027-2.74 2.33-2.28 4.268-5.28 5.298-8.22 1.12-3.12 1.659-6.56 1.749-11.17.07-1.98.34-3.03.94-4.63.36-.99 4.07-8.62 5.409-12.1 2.7-7.1 4.34-15.23 5.01-24.86.13-1.89.2-3.8.2-5.66-.021-16.64-5.171-30.2-9.491-38.649zm-312.964 79.809c-6.27 3.77-11.33 7.82-15.5 12.37-1.94 2.13-5.4 6.58-5.74 7-2.14 2.57-2.61 3.09-4.91 4.2-1.75.79-6.22 2.22-16.5 2.84-7.35.44-14.4 1.95-21.56 4.59-6.01 2.23-25 12.33-28.82 13.79-4.22 1.62-7.67 2.31-11.56 2.32-3.25 0-6.62-.53-10.3-1.61-.67-.89-1.73-2.21-3.32-3.58-1.23-1.07-2.6-1.94-4.05-2.59.05-.09 2.121-3.343 2.59-9.39.082-1.061.13-2.16.13-3.26-.04-5.48-1.02-10.95-2.9-16.26-1.9-5.34-4.63-10.28-8.12-14.67-2.87-3.56-8.4-10.51-13.14-17.15-2.48-3.45-6.86-10.58-7.15-11.21-.14-2.75-.81-4.28-1.45-5.76-.07-.17-3.03-5.48-5.1-8.33-1.73-2.37-3.82-5.01-6.21-7.86l.01-.02c1.43-2.63 2.21-5.88 2.19-9.14-.03-5.18-1.66-10.68-5.11-17.31-2.05-3.92-3.01-7.45-3.02-11.08 0-2.76.6-5.4 1.79-7.85.47-.96 5.02-9.61 8.25-12.38 5.12-4.33 12.67-7.31 22.44-8.84 8.36-1.31 14.15-2.92 18.77-5.23 3.27-1.61 6.14-3.87 8.1-6.38 1.26-1.59 2.82-4.49 2.89-4.6.04-.01 1.12-.32 2.23-.5 5.22-.87 10.33-2.75 15.2-5.59 4.18-2.44 8.18-5.58 11.9-9.34 3.42-3.5 6.22-7.19 8.32-10.97 1.73-3.2 3.36-6.78 3.69-11.28 1.04-.55 2.85-1.33 4.57-1.74 1.41-.4 4.43-.96 4.47-.97 2.62-.35 4.95-1.69 6.57-3.78 1.63-2.08 2.35-4.68 2.04-7.3l-1.02-8.66c1.84-2.65 4.72-6.64 8.04-10.68 2.76-3.36 5.45-6.28 7.8-8.46 2.45-2.32 4.91-4 5.98-4.4 4.398-1.904 8.072-3.037 10.516-3.551 1.073-.226 2.904-.322 2.994-.312 2.68 4.657 7.047 8.382 11.829 10.298l14.352 208.664c-4.184 1.612-8.25 3.576-12.181 5.961zm17.939-213.75c1.581-.708 3.072-1.65 4.431-2.847 1.54-1.38 2.74-2.901 3.67-4.671 1.11-2.12 1.67-4.36 1.68-6.67.05-2.91-1.11-6.17-3.04-8.5-.06-.18-.47-1.41-.44-2.65.03-1.36.23-2.85 1.59-4.61 1.81-2.3 5.09-4.16 9.74-5.54 17.13-5 25.79-6.61 35.639-6.63 4 0 8.41.3 13.9.92 3.75.43 7.39.77 10.82 1.03-.88.9-1.343 1.89-1.913 2.94-1.84 3.3-1.562 6.45-1.562 7.63v.54c-3 2.52-9.093 11.16-9.093 11.16-2 3.25-1.996 7.43.064 10.64 1.82 2.84 5.032 4.412 8.412 4.412.3 0 1.112-.228 1.112-.228 3.56 1 11.1 1.848 21.579 10.328 5.805 4.724 11.112 9.148 15.47 12.711l-11.144 117.96h-91.426zm129.934 266.471c-.476-.63-1.014-1.263-1.645-1.871-1.22-1.2-2.72-2.221-4.43-3.031-.32-.43-1.4-1.95-2.48-3.96-2.22-3.98-4.71-9.5-6.51-14.41-.92-2.51-1.402-4.91-1.912-6.93-.53-2.01-.443-3.62-.443-4.04v-.02c0-1.71-.497-3.82-2.208-6.64-.97-1.54-2.743-2.92-4.353-3.77-1.53-.84-3.439-1.315-5.439-1.315-2 .02-3.626.545-4.916 1.105-2.12.99-3.294 2-4.704 3.23-1.97 1.78-3.807 3.88-6.027 6.81-.62.82-1.214 1.67-1.814 2.54-2.83-5.47-5.721-9.95-8.841-13.7-3.28-3.87-7.956-8.542-15.086-10.803-11.29-3.44-23.568-6.743-37.617-6.743-2.512 0-5.083.057-7.537.289l-3.104-45.289h126.597zm142.302-41.941-.03.05c-.1.17-2.63 2.45-2.63 2.45-1.54 1.31-11.26 11.72-14.79 16.46-3.59 4.83-10.49 14.52-16.31 25.03-2.77 5.01-4.663 9.42-6.213 13.48-1.5 4.05-2.752 8.5-2.752 13.57v.08c-1 .1-11.445.099-12.875.099-1.37 0-2.87.026-4.54.226-1.81.24-3.5.7-5.72 1.77 0 0-1.24.589-2.63.939-4.11 1.08-12.09 2.241-20.39 2.241-3.06 0-6.09-.297-8.77-.567-6.65-.66-16.2-2.099-23.929-4.809-.905-.312-1.779-.684-2.62-1.03l6.544-94.365 119.18 12.71c-.49 2.185-1.455 11.566-1.525 11.666z"/><path d="m431.543 427.495c-5.217.738-10.43 2.93-15.949 5.25-5.563 2.339-11.857 5.013-16.054 4.875-8.678-.237-22.441-11.327-27.749-16.662-3.885-3.918-10.211-3.948-14.135-.066-2.146 2.124-3.129 4.979-2.944 7.772-.902 5.203-3.879 28.106 8.413 51.716 8.72 16.749 17.074 25.123 27.088 27.152 1.574.319 3.121.467 4.641.467 10.163 0 19.118-6.617 26.856-13.017 12.79-10.578 41.227-37.474 29.096-58.722-2.267-3.971-7.784-10.393-19.263-8.765zm-22.578 52.076c-2.728 2.256-11.025 9.118-14.78 8.36-1.54-.312-5.92-2.572-13.32-16.786-4.19-8.048-6.029-16.063-6.736-22.738 7.323 4.746 16.207 8.968 24.865 9.205 8.503.235 16.922-3.308 24.352-6.431 3.21-1.35 7.766-3.265 10.384-3.805.178 4.503-6.174 16.819-24.765 32.195z"/></g></svg>