<svg id="Capa_1" enable-background="new 0 0 511.71 511.71" viewBox="0 0 511.71 511.71"  xmlns="http://www.w3.org/2000/svg"><g><g><path d="m504.842 231.942-20.813-31.461c-2.285-3.455-6.94-4.402-10.393-2.117-3.455 2.286-4.403 6.939-2.117 10.394l20.813 31.46c4.021 6.08 5.357 13.633 3.664 20.724l-14.595 61.115c-.114.478-.313.926-.595 1.334l-25.645 37.246c-12.562 18.244-32.403 29.992-54.439 32.233-18.245 1.856-36.452-1.688-52.665-10.246l-9.123-4.815c-1.738-.917-2.997-2.54-3.455-4.453l-6.494-27.157c-1.647-6.89-6.56-12.572-13.139-15.198-6.579-2.627-14.055-1.889-19.993 1.971-1.292.839-2.973.858-4.282.049l-53.507-33.078c-4.183-2.585-9.135-3.446-13.943-2.422l-47.313 10.066c-2.757.587-5.396 1.805-7.631 3.524l-25.381 19.525c-.6.46-1.313.742-2.065.812l-28.757 2.696c-3.354.314-6.582 1.235-9.596 2.735-3.708 1.847-5.217 6.349-3.371 10.057 1.848 3.708 6.352 5.217 10.057 3.37 1.354-.673 2.804-1.087 4.311-1.228l28.758-2.696c3.572-.335 6.965-1.669 9.81-3.857l25.381-19.524c.471-.362 1.026-.619 1.606-.742l47.314-10.067c1.015-.216 2.054-.034 2.934.51l53.508 33.078c6.222 3.847 14.207 3.757 20.343-.23 1.887-1.227 4.167-1.452 6.258-.617 2.09.834 3.589 2.568 4.112 4.756l6.493 27.156c1.461 6.111 5.486 11.299 11.043 14.231l9.122 4.814c15.581 8.223 32.748 12.46 50.21 12.46 3.649 0 7.312-.185 10.975-.558 26.423-2.688 50.215-16.774 65.277-38.649l25.643-37.244c1.335-1.938 2.288-4.08 2.832-6.363l14.594-61.11c2.651-11.115.558-22.955-5.746-32.484z"/><path d="m34.3 191.673 34.019-16.73c16.164-7.95 29.951-20.098 39.872-35.13l3.045-4.614c3.695-5.599 8.046-10.766 12.933-15.359l39.793-37.406c1.509-1.418 3.892-1.439 5.425-.048l8.518 7.729c3.504 3.178 8.037 4.928 12.766 4.928 8.191 0 15.435-5.221 18.023-12.99l4.647-13.941c.433-1.299 1.483-2.275 2.811-2.612l16.143-4.096c7.938-2.014 14.438-7.443 17.833-14.897l1.402-3.079c1.92-4.215 6.153-6.939 10.785-6.939h21.217c6.317 0 11.517 4.942 11.836 11.254.092 1.802-.238 3.63-.953 5.288l-5.954 13.814c-4.995 11.587-1.002 25.081 9.494 32.083l24.626 16.432c6.592 4.398 14.711 5.569 22.277 3.212 7.565-2.357 13.583-7.932 16.512-15.295l5.896-14.829c.698-1.753 1.13-3.599 1.284-5.489l2.372-29.287c.225-2.779 2.585-4.956 5.372-4.956 2.235 0 4.265 1.407 5.049 3.5l9.19 24.54c1.59 4.245 4.595 7.884 8.462 10.247l12.116 7.404c1.07.654 1.779 1.791 1.896 3.042l2.551 27.417c1.156 12.438 6.658 24.151 15.49 32.984l14.287 14.287c2.448 2.448 4.764 5.081 6.88 7.825 2.529 3.28 7.24 3.886 10.52 1.357 3.279-2.53 3.888-7.24 1.357-10.52-2.508-3.25-5.25-6.369-8.15-9.27l-14.286-14.287c-6.365-6.364-10.329-14.805-11.162-23.767l-2.551-27.417c-.552-5.939-3.921-11.342-9.01-14.452l-12.115-7.404c-1.022-.625-1.817-1.587-2.237-2.709l-9.19-24.54c-2.966-7.918-10.641-13.239-19.096-13.239-10.545 0-19.472 8.234-20.323 18.745l-2.372 29.284c-.032.399-.123.788-.271 1.158l-5.897 14.832c-1.247 3.137-3.811 5.512-7.033 6.516s-6.683.505-9.491-1.368l-24.626-16.432c-4.472-2.983-6.172-8.731-4.044-13.667l5.953-13.813c1.62-3.757 2.367-7.902 2.159-11.986-.723-14.296-12.502-25.495-26.816-25.495h-21.217c-10.494 0-20.085 6.171-24.436 15.722l-1.402 3.079c-1.498 3.29-4.367 5.686-7.872 6.575l-16.143 4.096c-6.303 1.599-11.294 6.237-13.352 12.407l-4.647 13.943c-.545 1.635-2.069 2.733-3.793 2.733-.995 0-1.949-.369-2.687-1.037l-8.517-7.728c-7.287-6.613-18.611-6.511-25.778.227l-39.793 37.405c-5.734 5.391-10.842 11.456-15.179 18.026l-3.045 4.614c-8.453 12.809-20.2 23.159-33.972 29.933l-34.019 16.73c-10.395 5.112-18.709 13.756-23.412 24.339-5.762 12.962-5.688 27.797.204 40.702l37.131 81.334c1.416 3.103 1.47 6.686.146 9.83l-.746 1.773c-4.316 10.253-2.022 21.961 5.844 29.829 5.249 5.249 12.243 7.958 19.287 7.957 5.232 0 10.492-1.496 15.08-4.554 3.446-2.297 4.378-6.954 2.08-10.4-2.297-3.447-6.955-4.377-10.4-2.08-4.836 3.223-11.33 2.582-15.44-1.529-3.534-3.534-4.564-8.795-2.626-13.401l.746-1.772c2.947-6.999 2.829-14.974-.325-21.881l-37.131-81.334c-4.107-8.998-4.159-19.342-.142-28.38 3.277-7.382 9.075-13.409 16.322-16.973z"/><path d="m433.426 427.167c-11.373-5.173-33.318-2.384-45.386-.262-5.947 1.046-19.875 3.495-25.131 14.888-3.717 8.054-1.263 18.265 5.709 23.751 3.599 2.832 7.566 3.991 11.066 5.014 2.308.674 4.486 1.311 5.846 2.276 1.493 1.06 2.939 3.14 4.471 5.342 2.874 4.135 6.452 9.282 13.014 11.271 1.841.558 3.646.776 5.395.776 3.03 0 5.891-.655 8.472-1.333 7.025-1.846 14.022-4.113 20.796-6.739 2.26-.876 6.465-2.507 9.034-6.618 4.946-7.912 3.945-19.905 1.358-28.491-1.723-5.719-5.917-15.906-14.644-19.875zm.713 40.159c-.315.194-.948.475-1.886.839-6.248 2.423-12.702 4.514-19.184 6.217-1.506.396-4.311 1.132-5.704.71-1.571-.476-3.26-2.905-5.048-5.478-2.097-3.017-4.474-6.436-8.105-9.013-3.414-2.423-7.083-3.495-10.319-4.441-2.408-.704-4.682-1.368-5.998-2.404-1.558-1.226-2.196-3.88-1.365-5.679 1.743-3.779 8.455-5.404 14.108-6.398 9.231-1.624 17.875-2.45 24.64-2.45 5.394 0 9.593.526 11.938 1.593 1.85.841 4.67 4.5 6.491 10.547 2.052 6.808 1.828 13.328.432 15.957z"/></g></g></svg>