<svg id="Capa_1" enable-background="new 0 0 512 512" viewBox="0 0 512 512" xmlns="http://www.w3.org/2000/svg"><g><path d="m256 71c-43.626 0-85.99 15.486-119.288 43.607-3.165 2.672-3.563 7.404-.892 10.569 2.673 3.165 7.403 3.563 10.569.891 30.595-25.838 69.523-40.067 109.611-40.067 93.738 0 170 76.262 170 170s-76.262 170-170 170-170-76.262-170-170c0-40.087 14.229-79.015 40.067-109.611 2.672-3.165 2.273-7.896-.892-10.569s-7.897-2.274-10.569.891c-28.12 33.299-43.606 75.664-43.606 119.289 0 102.009 82.99 185 185 185s185-82.991 185-185-82.99-185-185-185z"/><path d="m491.768 281.914c11.912-2.978 20.232-13.635 20.232-25.914s-8.32-22.936-20.232-25.914l-23.097-5.774c-1.017-6.86-2.372-13.698-4.048-20.432l19.114-14.163c9.866-7.311 13.476-20.34 8.776-31.684-4.699-11.346-16.466-18.007-28.61-16.199l-23.545 3.503c-3.573-5.939-7.449-11.73-11.578-17.299l12.257-20.428c6.317-10.529 4.665-23.948-4.018-32.63-8.682-8.683-22.1-10.335-32.631-4.018l-20.427 12.258c-5.571-4.13-11.361-8.006-17.299-11.579l3.503-23.544c1.809-12.146-4.853-23.911-16.198-28.61-11.343-4.698-24.374-1.09-31.685 8.776l-14.162 19.114c-6.737-1.677-13.575-3.032-20.432-4.048l-5.774-23.096c-2.977-11.913-13.634-20.233-25.914-20.233s-22.937 8.32-25.914 20.233l-5.774 23.097c-6.856 1.016-13.694 2.371-20.432 4.048l-14.162-19.114c-7.31-9.866-20.336-13.476-31.685-8.776-11.346 4.699-18.007 16.464-16.198 28.609l3.503 23.545c-5.938 3.572-11.728 7.448-17.299 11.579l-20.428-12.257c-10.531-6.317-23.948-4.665-32.631 4.018s-10.335 22.101-4.018 32.631l12.257 20.427c-4.13 5.571-8.006 11.362-11.578 17.299l-23.544-3.503c-12.152-1.809-23.913 4.854-28.61 16.198-4.7 11.344-1.091 24.374 8.775 31.685l19.114 14.162c-1.677 6.736-3.032 13.575-4.048 20.432l-23.097 5.774c-11.911 2.977-20.231 13.634-20.231 25.913s8.32 22.936 20.232 25.914l23.097 5.774c1.016 6.856 2.371 13.696 4.048 20.431l-19.114 14.163c-9.866 7.311-13.476 20.34-8.776 31.684 4.699 11.346 16.467 18.008 28.61 16.199l23.545-3.503c3.573 5.939 7.448 11.729 11.578 17.298l-12.257 20.428c-6.317 10.529-4.665 23.948 4.018 32.63 8.684 8.683 22.103 10.335 32.631 4.017l20.428-12.256c5.571 4.131 11.361 8.006 17.299 11.579l-3.503 23.544c-1.809 12.146 4.853 23.911 16.198 28.61 11.344 4.698 24.374 1.091 31.685-8.776l14.162-19.114c6.735 1.677 13.575 3.032 20.432 4.048l5.774 23.096c2.976 11.914 13.633 20.234 25.913 20.234s22.937-8.32 25.914-20.233l5.774-23.097c6.856-1.016 13.695-2.371 20.432-4.048l14.162 19.114c7.312 9.867 20.344 13.475 31.685 8.776 11.346-4.699 18.007-16.464 16.198-28.609l-3.503-23.545c5.938-3.573 11.728-7.448 17.299-11.579l20.428 12.256c10.528 6.317 23.947 4.667 32.631-4.017 8.683-8.683 10.335-22.101 4.018-32.631l-12.258-20.427c4.13-5.569 8.005-11.359 11.578-17.298l23.544 3.503c12.154 1.805 23.912-4.854 28.61-16.198 4.7-11.344 1.091-24.374-8.775-31.685l-19.114-14.163c1.677-6.733 3.031-13.571 4.048-20.431zm-40.15 35.238 23.189 17.182c4.325 3.206 5.908 8.918 3.847 13.893-2.06 4.974-7.208 7.898-12.544 7.102l-28.559-4.25c-3.063-.452-6.09 1.018-7.621 3.708-4.765 8.37-10.185 16.467-16.109 24.066-1.906 2.445-2.111 5.812-.517 8.47l14.869 24.782c2.771 4.617 2.046 10.5-1.762 14.307-3.807 3.808-9.688 4.532-14.307 1.761l-24.782-14.869c-2.657-1.595-6.023-1.389-8.47.516-7.603 5.927-15.7 11.347-24.065 16.109-2.691 1.532-4.164 4.56-3.708 7.622l4.249 28.56c.792 5.325-2.128 10.483-7.103 12.543s-10.687.478-13.892-3.848l-17.182-23.189c-1.844-2.488-5.022-3.585-8.015-2.767-9.302 2.557-18.861 4.451-28.412 5.628-3.078.38-5.605 2.615-6.358 5.625l-7.007 28.026c-1.303 5.223-5.975 8.871-11.359 8.871s-10.056-3.648-11.361-8.872l-7.007-28.025c-.753-3.009-3.28-5.245-6.358-5.625-9.553-1.177-19.112-3.071-28.412-5.627-.658-.181-1.327-.269-1.988-.269-2.337 0-4.589 1.096-6.026 3.036l-17.182 23.189c-3.205 4.326-8.919 5.908-13.892 3.848-4.975-2.06-7.895-7.218-7.103-12.544l4.249-28.559c.456-3.062-1.017-6.09-3.708-7.622-8.365-4.762-16.463-10.182-24.065-16.109-2.445-1.906-5.812-2.111-8.47-.516l-24.782 14.869c-4.615 2.771-10.499 2.046-14.307-1.761s-4.532-9.69-1.762-14.307l14.869-24.782c1.595-2.659 1.39-6.025-.517-8.47-5.925-7.6-11.345-15.697-16.109-24.066-1.531-2.69-4.564-4.163-7.621-3.708l-28.56 4.25c-5.318.792-10.483-2.127-12.544-7.103-2.061-4.974-.478-10.686 3.848-13.892l23.189-17.182c2.488-1.844 3.588-5.028 2.767-8.014-2.557-9.3-4.45-18.859-5.628-28.411-.379-3.079-2.615-5.606-5.624-6.358l-28.025-7.006c-5.224-1.308-8.871-5.98-8.871-11.364s3.647-10.056 8.871-11.362l28.025-7.006c3.009-.752 5.245-3.28 5.624-6.358 1.178-9.552 3.071-19.111 5.628-28.412.821-2.987-.278-6.17-2.767-8.015l-23.189-17.181c-4.325-3.206-5.908-8.918-3.847-13.893 2.06-4.974 7.213-7.895 12.544-7.102l28.559 4.25c3.066.455 6.09-1.018 7.621-3.708 4.763-8.367 10.183-16.464 16.109-24.067 1.906-2.445 2.111-5.811.517-8.47l-14.869-24.781c-2.771-4.617-2.046-10.5 1.762-14.307 3.807-3.807 9.69-4.531 14.307-1.762l24.782 14.869c2.658 1.596 6.024 1.391 8.47-.516 7.603-5.927 15.7-11.347 24.066-16.11 2.69-1.531 4.163-4.559 3.707-7.621l-4.249-28.559c-.792-5.325 2.128-10.483 7.103-12.543 4.975-2.061 10.686-.479 13.892 3.848l17.182 23.189c1.844 2.489 5.027 3.586 8.014 2.767 9.304-2.557 18.863-4.45 28.413-5.627 3.078-.38 5.605-2.615 6.358-5.625l7.007-28.026c1.304-5.224 5.976-8.872 11.36-8.872s10.056 3.648 11.361 8.872l7.007 28.025c.753 3.009 3.28 5.245 6.358 5.625 9.55 1.177 19.109 3.07 28.413 5.627 2.986.82 6.17-.278 8.014-2.767l17.182-23.189c3.205-4.325 8.918-5.908 13.892-3.848 4.975 2.06 7.895 7.218 7.103 12.544l-4.249 28.559c-.456 3.062 1.017 6.09 3.707 7.621 8.366 4.763 16.464 10.183 24.066 16.11 2.444 1.906 5.81 2.111 8.47.516l24.782-14.869c4.616-2.769 10.5-2.046 14.307 1.762 3.808 3.807 4.532 9.69 1.762 14.307l-14.869 24.782c-1.595 2.659-1.39 6.025.517 8.47 5.924 7.599 11.344 15.696 16.109 24.067 1.531 2.69 4.563 4.16 7.621 3.708l28.56-4.25c5.315-.796 10.483 2.127 12.544 7.103 2.061 4.974.478 10.686-3.848 13.891l-23.189 17.182c-2.488 1.844-3.588 5.028-2.767 8.015 2.555 9.295 4.448 18.854 5.628 28.413.38 3.078 2.615 5.605 5.624 6.357l28.025 7.006c5.223 1.305 8.87 5.977 8.87 11.361s-3.647 10.056-8.871 11.362l-28.025 7.006c-3.009.752-5.244 3.279-5.624 6.357-1.18 9.559-3.073 19.118-5.628 28.412-.822 2.988.278 6.172 2.766 8.015z"/><path d="m218.5 256c0 20.678 16.822 37.5 37.5 37.5s37.5-16.822 37.5-37.5-16.822-37.5-37.5-37.5-37.5 16.822-37.5 37.5zm60 0c0 12.407-10.094 22.5-22.5 22.5s-22.5-10.093-22.5-22.5 10.094-22.5 22.5-22.5 22.5 10.093 22.5 22.5z"/><path d="m239.364 139.823c-5.741-4.256-12.936-5.512-19.741-3.445-39.981 12.143-71.101 43.263-83.244 83.244-2.067 6.805-.813 14 3.443 19.741 4.305 5.807 10.914 9.137 18.134 9.137h39.935c3.422 0 6.41-2.316 7.264-5.63 4.762-18.502 19.214-32.954 37.715-37.716 3.314-.853 5.631-3.841 5.631-7.263v-39.934c-.001-7.22-3.331-13.83-9.137-18.134zm-5.864 52.518c-19.229 6.781-34.378 21.929-41.159 41.159h-34.385c-2.42 0-4.638-1.119-6.084-3.07-1.397-1.885-1.813-4.235-1.141-6.448 10.686-35.182 38.069-62.566 73.251-73.251.694-.211 1.401-.314 2.104-.314 1.537 0 3.05.497 4.344 1.456 1.95 1.446 3.069 3.664 3.069 6.083v34.385z"/><path d="m375.622 219.623c-12.145-39.982-43.264-71.102-83.245-83.245-6.807-2.066-14-.812-19.741 3.445-5.806 4.304-9.136 10.914-9.136 18.133v39.934c0 3.422 2.316 6.41 5.631 7.263 18.501 4.762 32.953 19.214 37.715 37.716.854 3.314 3.842 5.63 7.264 5.63h39.935c7.22 0 13.829-3.33 18.134-9.137 4.255-5.739 5.509-12.935 3.443-19.739zm-15.494 10.807c-1.446 1.951-3.664 3.07-6.084 3.07h-34.385c-6.781-19.23-21.93-34.378-41.159-41.159v-34.385c0-2.42 1.119-4.637 3.069-6.083 1.886-1.398 4.235-1.813 6.448-1.142 35.182 10.686 62.565 38.069 73.252 73.252.672 2.212.256 4.562-1.141 6.447z"/><path d="m136.378 292.377c12.145 39.982 43.264 71.102 83.245 83.245 2.15.653 4.338.974 6.508.974 4.698 0 9.307-1.507 13.233-4.419 5.806-4.304 9.136-10.914 9.136-18.133v-39.935c0-3.422-2.316-6.41-5.631-7.263-18.501-4.762-32.953-19.214-37.715-37.716-.854-3.314-3.842-5.63-7.264-5.63h-39.935c-7.22 0-13.829 3.33-18.134 9.137-4.255 5.74-5.509 12.936-3.443 19.74zm15.494-10.807c1.446-1.951 3.664-3.07 6.084-3.07h34.385c6.781 19.23 21.93 34.377 41.159 41.159v34.385c0 2.42-1.119 4.637-3.069 6.083-1.886 1.398-4.236 1.813-6.448 1.142-35.182-10.686-62.565-38.069-73.252-73.252-.672-2.212-.256-4.562 1.141-6.447z"/><path d="m354.044 263.5h-39.935c-3.422 0-6.41 2.316-7.264 5.63-4.762 18.502-19.214 32.954-37.715 37.716-3.314.853-5.631 3.841-5.631 7.263v39.935c0 7.219 3.33 13.829 9.136 18.133 3.928 2.912 8.535 4.419 13.233 4.419 2.169 0 4.358-.321 6.508-.974 39.981-12.143 71.101-43.263 83.244-83.244 2.067-6.805.813-14-3.443-19.741-4.304-5.807-10.913-9.137-18.133-9.137zm7.225 24.518c-10.686 35.182-38.069 62.566-73.251 73.251-2.212.672-4.563.256-6.448-1.142-1.95-1.446-3.069-3.664-3.069-6.083v-34.385c19.229-6.781 34.378-21.929 41.159-41.159h34.385c2.42 0 4.638 1.119 6.084 3.07 1.396 1.885 1.812 4.235 1.14 6.448z"/></g></svg>