<?xml version="1.0" encoding="iso-8859-1"?>
<!-- Generator: Adobe Illustrator 19.0.0, SVG Export Plug-In . SVG Version: 6.00 Build 0)  -->
<svg version="1.1" id="Capa_1" xmlns="http://www.w3.org/2000/svg" xmlns:xlink="http://www.w3.org/1999/xlink" x="0px" y="0px"
	 viewBox="0 0 480.032 480.032" style="enable-background:new 0 0 480.032 480.032;" xml:space="preserve">
<g>
	<g>
		<path d="M240.032,288.017c-8.837,0-16-7.163-16-16s7.163-16,16-16s16,7.163,16,16h16c-0.055-14.547-9.914-27.227-24-30.864v-9.136
			h-16v9.136c-17.081,4.396-27.364,21.807-22.968,38.888c3.636,14.126,16.381,23.994,30.968,23.976c8.837,0,16,7.163,16,16
			s-7.163,16-16,16s-16-7.163-16-16h-16c0.055,14.547,9.915,27.227,24,30.864v9.136h16v-9.136
			c17.081-4.396,27.364-21.807,22.968-38.888C267.364,297.866,254.619,287.999,240.032,288.017z"/>
	</g>
</g>
<g>
	<g>
		<path d="M240.032,192.017c-57.438,0-104,46.562-104,104s46.562,104,104,104s104-46.562,104-104
			C343.966,238.607,297.442,192.083,240.032,192.017z M240.032,384.017c-48.601,0-88-39.399-88-88c0-48.601,39.399-88,88-88
			s88,39.399,88,88C327.975,344.594,288.609,383.96,240.032,384.017z"/>
	</g>
</g>
<g>
	<g>
		<path d="M472.032,176.017c4.418,0,8-3.582,8-8v-32c0-0.104-0.056-0.184-0.056-0.288c-0.031-0.874-0.206-1.736-0.52-2.552
			c0-0.096,0-0.208-0.072-0.304c-0.389-0.873-0.93-1.67-1.6-2.352c-0.237-0.21-0.486-0.408-0.744-0.592
			c-0.358-0.339-0.746-0.644-1.16-0.912l-232-128c-2.403-1.336-5.325-1.336-7.728,0l-232,128c-0.414,0.268-0.802,0.573-1.16,0.912
			c-0.258,0.184-0.507,0.382-0.744,0.592c-0.67,0.682-1.211,1.479-1.6,2.352c0,0.096,0,0.208-0.072,0.304
			c-0.314,0.816-0.489,1.678-0.52,2.552c0,0.104-0.056,0.184-0.056,0.288v32c0,4.418,3.582,8,8,8h24.032v240h-24
			c-4.418,0-8,3.582-8,8v48c0,4.418,3.582,8,8,8h464c4.418,0,8-3.582,8-8v-48c0-4.418-3.582-8-8-8h-24v-240H472.032z
			 M240.032,17.153l200.936,110.864H39.096L240.032,17.153z M464.032,432.017v32h-448v-32H464.032z M48.032,416.017v-240h32v240
			H48.032z M96.032,416.017v-240h288v240H96.032z M400.032,416.017v-240h32v240H400.032z M16.032,160.017v-16h448v16H16.032z"/>
	</g>
</g>
<g>
</g>
<g>
</g>
<g>
</g>
<g>
</g>
<g>
</g>
<g>
</g>
<g>
</g>
<g>
</g>
<g>
</g>
<g>
</g>
<g>
</g>
<g>
</g>
<g>
</g>
<g>
</g>
<g>
</g>
</svg>
