<svg id="Layer_3" enable-background="new 0 0 64 64" viewBox="0 0 64 64" xmlns="http://www.w3.org/2000/svg"><g><path d="m62.64 11.231-12-10c-.371-.309-.909-.309-1.28 0l-12 10c-.323.27-.443.713-.3 1.109s.519.66.94.66h1v10 8 11.34c-2.53-5.236-7.264-9.197-13-10.682v-6.658h1.188c.377 0 .753.089 1.091.258 1.061.529 2.264.616 3.388.24l1.649-.55c.409-.136.684-.517.684-.948v-7c0-.321-.154-.623-.416-.812-.262-.188-.596-.24-.901-.137l-1.648.549c-.619.208-1.279.159-1.861-.132-.612-.306-1.299-.468-1.986-.468h-2.188c-.552 0-1 .447-1 1v14.25c-.981-.149-1.978-.25-3-.25s-2.019.101-3 .25v-14.25c0-.553-.448-1-1-1h-2.188c-.686 0-1.373.162-1.984.469-.583.291-1.245.338-1.862.133l-1.649-.55c-.306-.104-.64-.051-.901.137-.262.188-.416.49-.416.811v7c0 .431.275.812.684.948l1.649.551c1.125.373 2.327.287 3.389-.241.336-.169.713-.258 1.09-.258h1.188v6.658c-8.612 2.229-15 10.043-15 19.342v11c0 .553.448 1 1 1h38 4c.552 0 1-.447 1-1v-6.425l5-2.917 5 2.917v6.425c0 .553.448 1 1 1h4c.552 0 1-.447 1-1v-31-8-10h1c.421 0 .797-.264.94-.659.143-.397.023-.84-.3-1.11zm-36.64 6.769h1.188c.377 0 .753.089 1.091.258 1.061.529 2.264.617 3.388.24l.333-.11v4.892l-.965.321c-.619.208-1.279.159-1.861-.132-.612-.307-1.299-.469-1.986-.469h-1.188zm-11.188 5c-.686 0-1.373.162-1.984.469-.583.291-1.245.337-1.862.133l-.966-.323v-4.892l.333.111c1.125.374 2.327.288 3.389-.241.336-.168.713-.257 1.09-.257h1.188v5zm35.188-19.698 9.238 7.698h-18.476zm9 26.698h-18v-6h18zm-14 12.742 3.015 1.758-3.015 1.758zm.985-1.742 4.015-2.342 4.015 2.342-4.015 2.342zm-.985-1.742v-3.517l3.015 1.758zm5 6.4 4.015 2.342-4.015 2.342-4.015-2.342zm1.985-1.158 3.015-1.758v3.517zm0-7 3.015-1.758v3.517zm3.015-4.075-5 2.917-5-2.917v-1.425h10zm-10-11.425v-9h10v9zm-2-9v9h-2v-9zm-40 38c0-9.925 8.075-18 18-18s18 8.075 18 18v10h-2v-10c0-8.822-7.178-16-16-16s-16 7.178-16 16v10h-2zm21 10h-6v-7c0-1.654 1.346-3 3-3s3 1.346 3 3zm-3-12c-2.757 0-5 2.243-5 5v7h-9v-10c0-7.72 6.28-14 14-14s14 6.28 14 14v10h-9v-7c0-2.757-2.243-5-5-5zm20 12v-10-19h2v29zm4-7.742v-3.517l3.015 1.758zm6.985-1.758 3.015-1.758v3.517zm5.015 9.5v-29h2v29zm2-39h-2v-9h2z"/><path d="m32 48v-4c0-.553-.448-1-1-1h-6c-.552 0-1 .447-1 1v4c0 .553.448 1 1 1h6c.552 0 1-.447 1-1zm-2-1h-4v-2h4z"/><path d="m17 43h-6c-.552 0-1 .447-1 1v4c0 .553.448 1 1 1h6c.552 0 1-.447 1-1v-4c0-.553-.448-1-1-1zm-1 4h-4v-2h4z"/><path d="m43 25h6v2h-6z"/><path d="m51 27h6v2h-6z"/><path d="m19 55h2v2h-2z"/><path d="m26 41v-2h-2c-1.029 0-1.939.655-2.265 1.633l-.367 1.103c-.105.316-.63.315-.735.001l-.367-1.104c-.327-.978-1.237-1.633-2.266-1.633h-2v2h2c.167 0 .315.106.368.264l.367 1.104c.326.977 1.236 1.632 2.265 1.632s1.939-.655 2.265-1.633l.367-1.103c.053-.158.201-.264.368-.264z"/></g></svg>