<?xml version="1.0"?>
<svg xmlns="http://www.w3.org/2000/svg" id="outline" viewBox="0 0 512 512" ><path d="M464,48H256a32.036,32.036,0,0,0-32,32v40a64.0727,64.0727,0,0,0,64,64h32v32a7.95411,7.95411,0,0,0,.85059,3.57471l-.00586.00293L335.05591,248l-9.21411,18.42822L204.99756,169.75293a8.00131,8.00131,0,0,0-9.99512,0l-160,128A8.00022,8.00022,0,0,0,32,304V417.37256a46.32359,46.32359,0,0,1-13.65674,32.9707A7.99981,7.99981,0,0,0,24,464H176a7.99977,7.99977,0,0,0,8-8v-8h32v8a7.99977,7.99977,0,0,0,8,8H392a7.99977,7.99977,0,0,0,8-8V403.99976l23.70679-17.78016L432,401.97656V456a7.99977,7.99977,0,0,0,8,8h24a7.99977,7.99977,0,0,0,8-8V392a7.99583,7.99583,0,0,0-.84473-3.57764L400.94409,248l12-24H448v8a7.99977,7.99977,0,0,0,8,8h32a7.99977,7.99977,0,0,0,8-8V200a7.99977,7.99977,0,0,0-8-8H456a7.99977,7.99977,0,0,0-8,8v8H421.41626l-9.6001-24H432a64.0727,64.0727,0,0,0,64-64V80A32.036,32.036,0,0,0,464,48Zm0,160h16v16H464ZM320,168V144h80v24Zm80-40H320V104h80Zm0-40H320V64h80ZM280,167.32062V104H264v57.54236A48.017,48.017,0,0,1,240,120V80a16.01833,16.01833,0,0,1,16-16h8V88h16V64h24V168H288A48.079,48.079,0,0,1,280,167.32062ZM362.5835,184l9.60009,24H336V184Zm-13.63941,72h6.22583l3.78967,7.20044L347.95142,284.116l-9.3324-7.46582ZM307.808,296l-54.57324-67.167L337.19348,296ZM40.03223,448A62.27847,62.27847,0,0,0,48,417.37256V307.84521L146.76526,228.833,89.791,298.95508A8.00049,8.00049,0,0,0,88,304v48h16V306.84033l96-118.15362L287.19214,296H136a7.99977,7.99977,0,0,0-8,8V432a16.01833,16.01833,0,0,1-16,16ZM144,328V312H256v16Zm12.42188,77.2666A20.8316,20.8316,0,0,1,168,424v24H139.69507A31.794,31.794,0,0,0,144,432V344h24v28.22314a20.83075,20.83075,0,0,1-11.57764,18.73291,7.99991,7.99991,0,0,0-.00048,14.31055ZM216,424v8H184v-8a36.74659,36.74659,0,0,0-10.55225-25.88867A36.74459,36.74459,0,0,0,184,372.22314V344h32v28.22314a36.74459,36.74459,0,0,0,10.55225,25.88819A36.74659,36.74659,0,0,0,216,424Zm16,0a20.8316,20.8316,0,0,1,11.57812-18.7334,7.99991,7.99991,0,0,0-.00048-14.31055A20.83075,20.83075,0,0,1,232,372.22314V344h24v88a31.794,31.794,0,0,0,4.30493,16H232Zm56,24a16.01833,16.01833,0,0,1-16-16V312h24v88h16V312h40V417.37256A62.27847,62.27847,0,0,0,359.96777,448Zm91.48364,0A46.27493,46.27493,0,0,1,368,417.37256V304a8.00022,8.00022,0,0,0-3.00244-6.24707l-4.323-3.45837,7.3252-13.91773L384,310.777V448ZM400,384.00024V341.17688l16.15991,30.70349ZM373.25122,256h13.80469l65.66357,131.32764-8.80395,2.93457ZM448,448V405.76587l8-2.6665V448ZM387.05566,240H348.94434l-8.00013-16h54.11158Zm17.12818-32H389.41626l-9.6001-24h14.76758ZM480,120a48.017,48.017,0,0,1-24,41.54236V136H440v31.32062A48.079,48.079,0,0,1,432,168H416V64h24v56h16V64h8a16.01833,16.01833,0,0,1,16,16Z"/></svg>
