<?xml version="1.0"?>
<svg xmlns="http://www.w3.org/2000/svg" viewBox="0 0 128 128"><g><path d="M121.25,14.748H6.75A6.758,6.758,0,0,0,0,21.5v85.528a6.233,6.233,0,0,0,6.226,6.226H121.774A6.233,6.233,0,0,0,128,107.026V21.5A6.758,6.758,0,0,0,121.25,14.748ZM3.5,21.5a3.254,3.254,0,0,1,3.25-3.25h114.5a3.254,3.254,0,0,1,3.25,3.25V33.623H3.5Zm121,85.528a2.729,2.729,0,0,1-2.726,2.726H6.226A2.729,2.729,0,0,1,3.5,107.026v-69.9h121Z"/><path d="M118.25,24.186H49.687a1.75,1.75,0,0,0,0,3.5H118.25a1.75,1.75,0,0,0,0-3.5Z"/><path d="M14.377,24.186H9.75a1.75,1.75,0,0,0,0,3.5h4.627a1.75,1.75,0,0,0,0-3.5Z"/><path d="M27.689,24.186H23.062a1.75,1.75,0,0,0,0,3.5h4.627a1.75,1.75,0,0,0,0-3.5Z"/><path d="M41,24.186H36.375a1.75,1.75,0,0,0,0,3.5H41a1.75,1.75,0,0,0,0-3.5Z"/><path d="M29.773,59.451h4.358a3.755,3.755,0,0,0,3.75-3.75V47.373a3.755,3.755,0,0,0-3.75-3.75H29.773a3.755,3.755,0,0,0-3.75,3.75V55.7A3.755,3.755,0,0,0,29.773,59.451Zm-.25-12.078a.251.251,0,0,1,.25-.25h4.358a.25.25,0,0,1,.25.25V55.7a.251.251,0,0,1-.25.25H29.773a.251.251,0,0,1-.25-.25Z"/><path d="M45.8,59.451h4.356A3.754,3.754,0,0,0,53.9,55.7V47.373a3.754,3.754,0,0,0-3.75-3.75H45.8a3.754,3.754,0,0,0-3.75,3.75V55.7A3.754,3.754,0,0,0,45.8,59.451Zm-.25-12.078a.25.25,0,0,1,.25-.25h4.356a.25.25,0,0,1,.25.25V55.7a.251.251,0,0,1-.25.25H45.8a.251.251,0,0,1-.25-.25Z"/><path d="M77.846,59.451H82.2a3.754,3.754,0,0,0,3.75-3.75V47.373a3.754,3.754,0,0,0-3.75-3.75H77.846a3.754,3.754,0,0,0-3.75,3.75V55.7A3.754,3.754,0,0,0,77.846,59.451ZM77.6,47.373a.25.25,0,0,1,.25-.25H82.2a.25.25,0,0,1,.25.25V55.7a.251.251,0,0,1-.25.25H77.846a.251.251,0,0,1-.25-.25Z"/><path d="M109.894,59.451h4.356A3.755,3.755,0,0,0,118,55.7V47.373a3.755,3.755,0,0,0-3.75-3.75h-4.356a3.754,3.754,0,0,0-3.75,3.75V55.7A3.754,3.754,0,0,0,109.894,59.451Zm-.25-12.078a.25.25,0,0,1,.25-.25h4.356a.25.25,0,0,1,.25.25V55.7a.251.251,0,0,1-.25.25h-4.356a.251.251,0,0,1-.25-.25Z"/><path d="M13.75,81.351h4.356a3.754,3.754,0,0,0,3.75-3.75V69.274a3.754,3.754,0,0,0-3.75-3.75H13.75A3.755,3.755,0,0,0,10,69.274V77.6A3.755,3.755,0,0,0,13.75,81.351ZM13.5,69.274a.25.25,0,0,1,.25-.25h4.356a.25.25,0,0,1,.25.25V77.6a.25.25,0,0,1-.25.25H13.75a.25.25,0,0,1-.25-.25Z"/><path d="M29.773,81.351h4.358a3.755,3.755,0,0,0,3.75-3.75V69.274a3.755,3.755,0,0,0-3.75-3.75H29.773a3.755,3.755,0,0,0-3.75,3.75V77.6A3.755,3.755,0,0,0,29.773,81.351Zm-.25-12.077a.251.251,0,0,1,.25-.25h4.358a.25.25,0,0,1,.25.25V77.6a.25.25,0,0,1-.25.25H29.773a.251.251,0,0,1-.25-.25Z"/><path d="M61.821,81.351h4.358a3.755,3.755,0,0,0,3.75-3.75V69.274a3.755,3.755,0,0,0-3.75-3.75H61.821a3.755,3.755,0,0,0-3.75,3.75V77.6A3.755,3.755,0,0,0,61.821,81.351Zm-.25-12.077a.251.251,0,0,1,.25-.25h4.358a.251.251,0,0,1,.25.25V77.6a.251.251,0,0,1-.25.25H61.821a.251.251,0,0,1-.25-.25Z"/><path d="M77.846,81.351H82.2a3.754,3.754,0,0,0,3.75-3.75V69.274a3.754,3.754,0,0,0-3.75-3.75H77.846a3.754,3.754,0,0,0-3.75,3.75V77.6A3.754,3.754,0,0,0,77.846,81.351ZM77.6,69.274a.25.25,0,0,1,.25-.25H82.2a.25.25,0,0,1,.25.25V77.6a.25.25,0,0,1-.25.25H77.846a.25.25,0,0,1-.25-.25Z"/><path d="M93.869,81.351h4.358a3.755,3.755,0,0,0,3.75-3.75V69.274a3.755,3.755,0,0,0-3.75-3.75H93.869a3.755,3.755,0,0,0-3.75,3.75V77.6A3.755,3.755,0,0,0,93.869,81.351Zm-.25-12.077a.25.25,0,0,1,.25-.25h4.358a.251.251,0,0,1,.25.25V77.6a.251.251,0,0,1-.25.25H93.869a.25.25,0,0,1-.25-.25Z"/><path d="M13.75,103.252h4.356a3.754,3.754,0,0,0,3.75-3.75V91.174a3.754,3.754,0,0,0-3.75-3.75H13.75A3.755,3.755,0,0,0,10,91.174V99.5A3.755,3.755,0,0,0,13.75,103.252ZM13.5,91.174a.251.251,0,0,1,.25-.25h4.356a.251.251,0,0,1,.25.25V99.5a.25.25,0,0,1-.25.25H13.75a.25.25,0,0,1-.25-.25Z"/><path d="M29.773,103.252h4.358a3.755,3.755,0,0,0,3.75-3.75V91.174a3.755,3.755,0,0,0-3.75-3.75H29.773a3.755,3.755,0,0,0-3.75,3.75V99.5A3.755,3.755,0,0,0,29.773,103.252Zm-.25-12.078a.251.251,0,0,1,.25-.25h4.358a.251.251,0,0,1,.25.25V99.5a.25.25,0,0,1-.25.25H29.773a.251.251,0,0,1-.25-.25Z"/><path d="M45.8,103.252h4.356A3.754,3.754,0,0,0,53.9,99.5V91.174a3.754,3.754,0,0,0-3.75-3.75H45.8a3.754,3.754,0,0,0-3.75,3.75V99.5A3.754,3.754,0,0,0,45.8,103.252Zm-.25-12.078a.251.251,0,0,1,.25-.25h4.356a.251.251,0,0,1,.25.25V99.5a.25.25,0,0,1-.25.25H45.8a.25.25,0,0,1-.25-.25Z"/><path d="M93.869,103.252h4.358a3.755,3.755,0,0,0,3.75-3.75V91.174a3.755,3.755,0,0,0-3.75-3.75H93.869a3.755,3.755,0,0,0-3.75,3.75V99.5A3.755,3.755,0,0,0,93.869,103.252Zm-.25-12.078a.251.251,0,0,1,.25-.25h4.358a.251.251,0,0,1,.25.25V99.5a.251.251,0,0,1-.25.25H93.869a.25.25,0,0,1-.25-.25Z"/><path d="M109.894,103.252h4.356A3.755,3.755,0,0,0,118,99.5V91.174a3.755,3.755,0,0,0-3.75-3.75h-4.356a3.754,3.754,0,0,0-3.75,3.75V99.5A3.754,3.754,0,0,0,109.894,103.252Zm-.25-12.078a.251.251,0,0,1,.25-.25h4.356a.251.251,0,0,1,.25.25V99.5a.25.25,0,0,1-.25.25h-4.356a.25.25,0,0,1-.25-.25Z"/><path d="M11.75,55.951a1.75,1.75,0,1,0,0,3.5h8.356a1.75,1.75,0,0,0,0-3.5H17.679V45.373A1.749,1.749,0,0,0,14.846,44l-4.179,3.293a1.75,1.75,0,0,0,2.166,2.749l1.346-1.061v6.971Z"/><path d="M43.8,81.351h8.356a1.75,1.75,0,0,0,0-3.5H49.727V67.274A1.75,1.75,0,0,0,46.894,65.9l-4.179,3.294a1.75,1.75,0,0,0,2.166,2.749l1.346-1.061v6.97H43.8a1.75,1.75,0,0,0,0,3.5Z"/><path d="M59.821,103.252h8.358a1.75,1.75,0,0,0,0-3.5H65.75V89.174A1.75,1.75,0,0,0,62.917,87.8l-4.179,3.294A1.75,1.75,0,0,0,60.9,93.843l1.346-1.061v6.97H59.821a1.75,1.75,0,1,0,0,3.5Z"/><path d="M75.846,103.252H84.2a1.75,1.75,0,0,0,0-3.5H81.773V89.174A1.75,1.75,0,0,0,78.939,87.8l-4.177,3.294a1.75,1.75,0,0,0,2.168,2.748l1.343-1.059v6.969H75.846a1.75,1.75,0,0,0,0,3.5Z"/><path d="M107.894,81.351h8.356a1.75,1.75,0,0,0,0-3.5h-2.429V67.274a1.75,1.75,0,0,0-2.833-1.375l-4.177,3.294a1.75,1.75,0,0,0,2.166,2.749l1.344-1.06v6.969h-2.427a1.75,1.75,0,0,0,0,3.5Z"/><path d="M59.821,55.951a1.75,1.75,0,0,0,0,3.5h8.358a1.75,1.75,0,0,0,0-3.5H65.75V45.373A1.749,1.749,0,0,0,62.917,44l-4.179,3.293A1.75,1.75,0,0,0,60.9,50.041L62.25,48.98v6.971Z"/><path d="M91.869,55.951a1.75,1.75,0,0,0,0,3.5h8.358a1.75,1.75,0,0,0,0-3.5H97.8V45.373A1.749,1.749,0,0,0,94.965,44l-4.179,3.293a1.75,1.75,0,0,0,2.166,2.749L94.3,48.98v6.971Z"/></g></svg>
