<?xml version="1.0" encoding="iso-8859-1"?>
<!-- Generator: Adobe Illustrator 19.0.0, SVG Export Plug-In . SVG Version: 6.00 Build 0)  -->
<svg version="1.1" id="Capa_1" xmlns="http://www.w3.org/2000/svg" xmlns:xlink="http://www.w3.org/1999/xlink" x="0px" y="0px"
	 viewBox="0 0 512 512" style="enable-background:new 0 0 512 512;" xml:space="preserve">
<g>
	<g>
		<path d="M458.667,0H53.333C23.893,0.035,0.035,23.893,0,53.333v405.333C0.035,488.107,23.893,511.965,53.333,512h405.333
			c29.441-0.035,53.298-23.893,53.333-53.333V53.333C511.965,23.893,488.107,0.035,458.667,0z M490.667,458.667
			c0,17.673-14.327,32-32,32H53.333c-17.673,0-32-14.327-32-32V53.333c0-17.673,14.327-32,32-32h405.333c17.673,0,32,14.327,32,32
			V458.667z"/>
	</g>
</g>
<g>
	<g>
		<rect x="42.667" y="85.333" width="426.667" height="21.333"/>
	</g>
</g>
<g>
	<g>
		<rect x="53.333" y="42.667" width="21.333" height="21.333"/>
	</g>
</g>
<g>
	<g>
		<rect x="96" y="42.667" width="21.333" height="21.333"/>
	</g>
</g>
<g>
	<g>
		<rect x="437.333" y="42.667" width="21.333" height="21.333"/>
	</g>
</g>
<g>
	<g>
		<path d="M416,149.333H96c-11.782,0-21.333,9.551-21.333,21.333v42.667c0,11.782,9.551,21.333,21.333,21.333h320
			c11.782,0,21.333-9.551,21.333-21.333v-42.667C437.333,158.885,427.782,149.333,416,149.333z M416,213.333H96v-42.667h320V213.333
			z"/>
	</g>
</g>
<g>
	<g>
		<path d="M416,266.667H96c-11.782,0-21.333,9.551-21.333,21.333v42.667C74.667,342.449,84.218,352,96,352h320
			c11.782,0,21.333-9.551,21.333-21.333V288C437.333,276.218,427.782,266.667,416,266.667z M416,330.667H96V288h320V330.667z"/>
	</g>
</g>
<g>
	<g>
		<path d="M170.667,384H85.333c-5.891,0-10.667,4.776-10.667,10.667v32C74.667,438.449,84.218,448,96,448h64
			c11.782,0,21.333-9.551,21.333-21.333v-32C181.333,388.776,176.558,384,170.667,384z M160,426.667H96v-21.333h64V426.667z"/>
	</g>
</g>
<g>
	<g>
		<path d="M298.667,384h-85.333c-5.891,0-10.667,4.776-10.667,10.667v32c0,11.782,9.551,21.333,21.333,21.333h64
			c11.782,0,21.333-9.551,21.333-21.333v-32C309.333,388.776,304.558,384,298.667,384z M288,426.667h-64v-21.333h64V426.667z"/>
	</g>
</g>
<g>
	<g>
		<rect x="416" y="384" width="21.333" height="21.333"/>
	</g>
</g>
<g>
	<g>
		<rect x="373.333" y="384" width="21.333" height="21.333"/>
	</g>
</g>
<g>
	<g>
		<rect x="341.333" y="426.667" width="96" height="21.333"/>
	</g>
</g>
<g>
</g>
<g>
</g>
<g>
</g>
<g>
</g>
<g>
</g>
<g>
</g>
<g>
</g>
<g>
</g>
<g>
</g>
<g>
</g>
<g>
</g>
<g>
</g>
<g>
</g>
<g>
</g>
<g>
</g>
</svg>
