<?xml version="1.0" encoding="iso-8859-1"?>
<!-- Generator: Adobe Illustrator 16.0.0, SVG Export Plug-In . SVG Version: 6.00 Build 0)  -->
<!DOCTYPE svg PUBLIC "-//W3C//DTD SVG 1.1//EN" "http://www.w3.org/Graphics/SVG/1.1/DTD/svg11.dtd">
<svg version="1.1" id="Capa_1" xmlns="http://www.w3.org/2000/svg" xmlns:xlink="http://www.w3.org/1999/xlink" x="0px" y="0px"
	 viewBox="0 0 31.944 31.944" style="enable-background:new 0 0 31.944 31.944;"
	 xml:space="preserve">
<g>
	<g>
		<path d="M12.912,18.333h-0.777c-0.403,0-0.73-0.326-0.73-0.729c0-0.149,0.06-0.293,0.167-0.397
			c0.452-0.438,0.832-1.028,1.107-1.666c0.056,0.041,0.116,0.07,0.184,0.07c0.436,0,0.949-0.964,0.949-1.621
			c0-0.657-0.06-1.19-0.497-1.19c-0.052,0-0.106,0.009-0.162,0.023c-0.031-1.782-0.481-4.005-3.202-4.005
			c-2.839,0-3.17,2.219-3.202,3.999c-0.04-0.008-0.08-0.017-0.117-0.017c-0.437,0-0.497,0.533-0.497,1.19
			c0,0.657,0.512,1.621,0.949,1.621c0.054,0,0.104-0.015,0.151-0.041c0.274,0.625,0.649,1.205,1.094,1.641
			c0.107,0.104,0.167,0.246,0.167,0.396c0,0.403-0.327,0.729-0.73,0.729H6.988c-1.662,0-3.009,1.348-3.009,3.01v0.834
			c0,0.523,0.425,0.95,0.95,0.95H14.97c0.525,0,0.95-0.427,0.95-0.95v-0.834C15.921,19.681,14.575,18.333,12.912,18.333z"/>
		<path d="M22.094,9.882c-3.385,0-5.937,2.598-5.937,6.042c0,3.307,2.512,5.036,4.991,5.036c1.166,0,1.976-0.159,2.886-0.569
			c0.114-0.052,0.174-0.183,0.136-0.302l-0.273-0.881c-0.021-0.07-0.072-0.127-0.144-0.156c-0.067-0.028-0.146-0.025-0.212,0.009
			c-0.546,0.287-1.326,0.458-2.087,0.458c-2.246,0-3.642-1.431-3.642-3.732c0-2.938,2.065-4.476,4.109-4.476
			c2.057,0,3.385,1.28,3.385,3.261c0,1.599-0.707,2.317-1.219,2.317c-0.091-0.003-0.113-0.033-0.127-0.047
			c-0.056-0.068-0.132-0.287-0.015-0.984l0.481-2.984l-0.149-0.085c-0.429-0.239-1.238-0.412-1.935-0.412
			c-2.473,0-3.807,1.953-3.807,3.791c0,1.332,0.785,2.227,1.953,2.227c0.742,0,1.381-0.298,1.869-0.868
			c0.229,0.552,0.734,0.868,1.429,0.868c1.849,0,3.138-1.59,3.138-3.867C26.932,11.834,24.896,9.882,22.094,9.882z M22.119,15.292
			c-0.127,0.814-0.652,1.384-1.045,1.384c-0.338,0-0.51-0.231-0.51-0.691c0-1.052,0.689-1.908,1.543-1.908
			c0.066,0,0.133,0.004,0.188,0.011L22.119,15.292z"/>
		<path d="M27.615,3.058H4.325C1.936,3.058,0,4.994,0,7.383v17.176c0,1.979,1.339,3.631,3.155,4.146
			c0.375,0.105,0.762,0.183,1.171,0.183h0.81c0.069-1.076,0.955-1.935,2.048-1.935c1.093,0,1.979,0.857,2.048,1.935h2.001h1.329
			h2.001c0.069-1.076,0.955-1.935,2.047-1.935c1.094,0,1.979,0.857,2.049,1.935h2.001h1.027h2c0.068-1.076,0.955-1.935,2.05-1.935
			c1.087,0,1.969,0.851,2.046,1.916c0.704-0.024,1.359-0.226,1.939-0.551c1.317-0.74,2.222-2.136,2.222-3.757V7.383
			C31.939,4.995,30.002,3.058,27.615,3.058z M29.896,24.56c0,0.796-0.409,1.496-1.028,1.905c-0.744-0.915-1.864-1.513-3.135-1.513
			c-1.438,0-2.694,0.758-3.414,1.891h-2.296c-0.721-1.133-1.977-1.891-3.413-1.891c-1.439,0-2.695,0.758-3.417,1.891h-2.595
			c-0.721-1.133-1.976-1.891-3.415-1.891c-1.412,0-2.652,0.729-3.379,1.822c-1.007-0.234-1.762-1.139-1.762-2.217V7.383
			c0-1.259,1.024-2.283,2.283-2.283h23.29c1.259,0,2.281,1.024,2.281,2.283V24.56L29.896,24.56z"/>
	</g>
</g>
<g>
</g>
<g>
</g>
<g>
</g>
<g>
</g>
<g>
</g>
<g>
</g>
<g>
</g>
<g>
</g>
<g>
</g>
<g>
</g>
<g>
</g>
<g>
</g>
<g>
</g>
<g>
</g>
<g>
</g>
</svg>
