<svg viewBox="0 0 512 512.001" xmlns="http://www.w3.org/2000/svg"><path d="m246 110c5.523438 0 10-4.476562 10-10v-40c0-5.523438-4.476562-10-10-10s-10 4.476562-10 10v40c0 5.523438 4.476562 10 10 10zm0 0"/><path d="m136 300c16.542969 0 30-13.457031 30-30s-13.457031-30-30-30-30 13.457031-30 30 13.457031 30 30 30zm0-40c5.515625 0 10 4.484375 10 10s-4.484375 10-10 10c-5.511719 0-10-4.484375-10-10s4.488281-10 10-10zm0 0"/><path d="m186 200h80c5.523438 0 10-4.476562 10-10s-4.476562-10-10-10h-80c-5.523438 0-10 4.476562-10 10s4.476562 10 10 10zm0 0"/><path d="m306 180c5.519531 0 10 4.480469 10 10s-4.480469 10-10 10-10-4.480469-10-10 4.480469-10 10-10zm0 0"/><path d="m31.261719 366h29.78125c10.339843 22.835938 25.738281 43.273438 44.957031 59.621094v55.121094c0 17.234374 14.023438 31.257812 31.261719 31.257812h17.480469c17.234374 0 31.257812-14.023438 31.257812-31.257812v-17.402344c9.863281 1.753906 19.90625 2.660156 30 2.660156h60c10.09375 0 20.136719-.90625 30-2.660156v17.402344c0 17.234374 14.023438 31.257812 31.261719 31.257812h17.480469c17.234374 0 31.257812-14.023438 31.257812-31.257812v-55.144532c32.683594-28.109375 55.304688-73.933594 59.363281-120.726562.167969-1.925782.292969-3.875.390625-5.828125 15.582032-1.945313 34.121094-8.335938 45.652344-19.855469 20.941406-20.960938 25.664062-51.539062 14.988281-76.75-3.527343-8.339844-8.570312-15.828125-14.992187-22.25-3.902344-3.902344-10.234375-3.90625-14.140625 0s-3.90625 10.238281 0 14.144531c4.589843 4.589844 8.191406 9.9375 10.710937 15.898438 7.617188 17.988281 4.253906 39.839843-10.707031 54.816406-6.507813 6.5-19.269531 11.886719-31.734375 13.847656-5.390625-72.722656-60.195312-135.234375-133.683594-153.519531 9.109375-13.246094 14.15625-29.066406 14.15625-45.375 0-44.113281-35.890625-80-80-80-44.113281 0-80 35.886719-80 80 0 15.699219 4.710938 31.015625 13.234375 43.988281-14.136719 3.101563-27.734375 7.984375-40.652343 14.621094-11.476563-22.886719-34.839844-38.003906-60.949219-38.585937-3.015625-.09375-6.019531 1.085937-8.199219 3.210937-2.183594 2.121094-3.433594 5.078125-3.433594 8.105469v98.582031c-8.417968 15.746094-14.242187 32.550781-17.367187 50.078125h-17.375c-17.238281 0-31.261719 14.023438-31.261719 31.261719v43.476562c0 17.238281 14.023438 31.261719 31.261719 31.261719zm214.738281-346c33.085938 0 60 26.914062 60 60 0 33.199219-26.921875 60-60 60-32.640625 0-60-26.320312-60-60 0-33.085938 26.917969-60 60-60zm-226 271.261719c0-6.210938 5.050781-11.261719 11.261719-11.261719h24.910156c5.605469 0 10.382813-4.199219 11.113281-9.761719 2.445313-18.539062 8.261719-36.238281 17.289063-52.609375.933593-1.660156 1.425781-3.539062 1.425781-5.449218v-91.167969c17.421875 3.550781 31.957031 16.230469 37.578125 33.582031 1.070313 3.25 3.503906 5.796875 6.683594 6.996094 3.167969 1.191406 6.667969.882812 9.597656-.851563 17.003906-10.050781 35.480469-16.511719 54.980469-19.25 14.363281 11.960938 32.339844 18.511719 51.160156 18.511719 18.273438 0 35.835938-6.210938 49.992188-17.558594 73.941406 13 129.503906 75.582032 129.980468 147.3125.027344 4.503906-.152344 9.003906-.535156 13.382813-3.738281 43.113281-24.921875 85.125-55.347656 109.6875-2.597656 2.136719-4.089844 5.292969-4.089844 8.65625v59.257812c0 6.210938-5.050781 11.261719-11.257812 11.261719h-17.480469c-6.210938 0-11.261719-5.050781-11.261719-11.261719v-49.777343c0-5.523438-4.476562-10-10-10s-10 4.476562-10 10v12.023437c-9.824219 1.992187-19.882812 3.015625-30 3.015625h-60c-10.117188 0-20.175781-1.023438-30-3.015625v-12.023437c0-5.523438-4.476562-10-10-10s-10 4.476562-10 10v49.777343c0 6.210938-5.050781 11.261719-11.257812 11.261719h-17.480469c-6.210938 0-11.261719-5.050781-11.261719-11.261719v-59.257812c0-3.4375-1.542969-6.632813-4.167969-8.710938-19.648437-15.871093-35.085937-36.554687-44.679687-59.90625-1.757813-4.167969-5.8125-6.863281-10.332032-6.863281h-35.558593c-6.210938 0-11.261719-5.050781-11.261719-11.261719zm0 0"/></svg>