<?xml version="1.0" encoding="iso-8859-1"?>
<!-- Generator: Adobe Illustrator 16.0.0, SVG Export Plug-In . SVG Version: 6.00 Build 0)  -->
<!DOCTYPE svg PUBLIC "-//W3C//DTD SVG 1.1//EN" "http://www.w3.org/Graphics/SVG/1.1/DTD/svg11.dtd">
<svg version="1.1" id="Capa_1" xmlns="http://www.w3.org/2000/svg" xmlns:xlink="http://www.w3.org/1999/xlink" x="0px" y="0px"
	 viewBox="0 0 31.882 31.882" style="enable-background:new 0 0 31.882 31.882;"
	 xml:space="preserve">
<g>
	<g>
		<path d="M15.553,21.395h-0.772c-0.401,0-0.726-0.324-0.726-0.726c0-0.149,0.06-0.291,0.166-0.396
			c0.449-0.438,0.827-1.024,1.1-1.658c0.056,0.041,0.115,0.07,0.182,0.07c0.434,0,0.943-0.957,0.943-1.611
			c0-0.652-0.06-1.181-0.494-1.181c-0.051,0-0.106,0.009-0.162,0.023c-0.031-1.771-0.478-3.981-3.183-3.981
			c-2.822,0-3.151,2.205-3.183,3.975c-0.04-0.007-0.08-0.016-0.117-0.016c-0.434,0-0.494,0.529-0.494,1.182
			c0,0.652,0.509,1.611,0.943,1.611c0.054,0,0.103-0.016,0.15-0.043c0.272,0.623,0.645,1.199,1.088,1.631
			c0.106,0.104,0.166,0.246,0.166,0.395c0,0.4-0.325,0.727-0.726,0.727H9.666c-1.652,0-2.991,1.338-2.991,2.99v0.829
			c0,0.522,0.423,0.944,0.944,0.944h9.98c0.522,0,0.945-0.424,0.945-0.944v-0.829C18.544,22.734,17.206,21.395,15.553,21.395z"/>
		<path d="M24.509,13.19h-8.371c0.242,0.535,0.414,1.193,0.486,2.007c0.179,0.11,0.313,0.288,0.423,0.503h7.461
			c0.387,0,0.699-0.313,0.699-0.7v-1.11C25.208,13.503,24.895,13.19,24.509,13.19z"/>
		<path d="M24.509,17.763h-7.291c-0.197,0.748-0.686,1.53-1.359,1.739c-0.02,0.037-0.043,0.07-0.064,0.105v0.666h8.712
			c0.388,0,0.701-0.313,0.701-0.701v-1.109C25.208,18.076,24.895,17.763,24.509,17.763z"/>
		<path d="M24.509,22.336h-5.691c0.375,0.595,0.595,1.296,0.595,2.05v0.46h5.095c0.388,0,0.701-0.312,0.701-0.699v-1.11
			C25.208,22.648,24.895,22.336,24.509,22.336z"/>
		<path d="M27.515,6.212h-7.199V0h-8.204v6.212H4.366c-2.374,0-4.299,1.925-4.299,4.299v17.072c0,2.374,1.925,4.299,4.299,4.299
			h23.148c2.375,0,4.3-1.925,4.3-4.299V10.511C31.814,8.136,29.89,6.212,27.515,6.212z M14.14,2.03h4.145v6.344H14.14V2.03z
			 M29.785,27.583c0,1.251-1.019,2.269-2.269,2.269H4.366c-1.251,0-2.269-1.018-2.269-2.269V10.511c0-1.251,1.018-2.269,2.269-2.269
			h7.744v2.162h8.205V8.242h7.199c1.252,0,2.27,1.018,2.27,2.269L29.785,27.583L29.785,27.583z"/>
		<circle cx="16.286" cy="4.689" r="0.888"/>
	</g>
</g>
<g>
</g>
<g>
</g>
<g>
</g>
<g>
</g>
<g>
</g>
<g>
</g>
<g>
</g>
<g>
</g>
<g>
</g>
<g>
</g>
<g>
</g>
<g>
</g>
<g>
</g>
<g>
</g>
<g>
</g>
</svg>
