<?xml version="1.0" encoding="iso-8859-1"?>
<!-- Generator: Adobe Illustrator 16.0.0, SVG Export Plug-In . SVG Version: 6.00 Build 0)  -->
<!DOCTYPE svg PUBLIC "-//W3C//DTD SVG 1.1//EN" "http://www.w3.org/Graphics/SVG/1.1/DTD/svg11.dtd">
<svg version="1.1" id="Capa_1" xmlns="http://www.w3.org/2000/svg" xmlns:xlink="http://www.w3.org/1999/xlink" x="0px" y="0px"
	 viewBox="0 0 31.875 31.875" style="enable-background:new 0 0 31.875 31.875;"
	 xml:space="preserve">
<g>
	<g>
		<path d="M27.296,6.498h-7.497V0h-7.724v6.498H4.579c-2.393,0-4.333,1.94-4.333,4.333v16.711c0,2.394,1.94,4.333,4.333,4.333
			h22.718c2.393,0,4.333-1.939,4.333-4.333V10.831C31.629,8.438,29.689,6.498,27.296,6.498z M14.038,1.962h3.8v6.367l-3.8,0.008
			V1.962z M19.111,26.596c0,0.635-0.516,1.151-1.151,1.151H5.789c-0.636,0-1.152-0.517-1.152-1.151v-1.012
			c0-2.014,1.633-3.646,3.647-3.646h0.942c0.489,0,0.885-0.396,0.885-0.885c0-0.183-0.073-0.355-0.203-0.482
			c-0.539-0.526-0.994-1.229-1.326-1.988c-0.056,0.033-0.117,0.051-0.183,0.051c-0.529,0-1.15-1.169-1.15-1.965
			c0-0.797,0.073-1.441,0.602-1.441c0.045,0,0.094,0.01,0.142,0.02c0.038-2.158,0.44-4.847,3.881-4.847
			c3.298,0,3.844,2.695,3.881,4.855c0.068-0.018,0.135-0.027,0.197-0.027c0.528,0,0.603,0.646,0.603,1.441s-0.622,1.965-1.151,1.965
			c-0.082,0-0.154-0.035-0.222-0.086c-0.333,0.771-0.794,1.489-1.341,2.021c-0.13,0.127-0.203,0.301-0.203,0.482
			c0,0.489,0.396,0.885,0.885,0.885h0.942c2.014,0,3.646,1.633,3.646,3.647V26.596z M27.238,25.291c0,0.471-0.381,0.854-0.852,0.854
			h-6.215v-0.561c0-0.919-0.27-1.775-0.727-2.5h6.941c0.471,0,0.852,0.382,0.852,0.854V25.291z M27.238,19.714
			c0,0.472-0.381,0.853-0.852,0.853H15.758v-0.811c0.025-0.044,0.053-0.084,0.078-0.129c0.821-0.255,1.417-1.209,1.658-2.121h8.892
			c0.471,0,0.852,0.383,0.852,0.854V19.714z M27.238,14.137c0,0.471-0.381,0.853-0.852,0.853h-9.1
			c-0.135-0.262-0.297-0.479-0.516-0.614c-0.088-0.993-0.299-1.795-0.593-2.447h10.208c0.471,0,0.852,0.382,0.852,0.854V14.137z"/>
		<circle cx="16.062" cy="4.209" r="0.875"/>
	</g>
</g>
<g>
</g>
<g>
</g>
<g>
</g>
<g>
</g>
<g>
</g>
<g>
</g>
<g>
</g>
<g>
</g>
<g>
</g>
<g>
</g>
<g>
</g>
<g>
</g>
<g>
</g>
<g>
</g>
<g>
</g>
</svg>
