<svg viewBox="-51 0 512 512" xmlns="http://www.w3.org/2000/svg"><path d="m130 206c-5.46875 0-9.921875 4.398438-10 9.859375v.140625c0 5.519531 4.480469 10 10 10s10-4.480469 10-10c0-.050781 0-.089844 0-.140625-.078125-5.460937-4.53125-9.859375-10-9.859375zm0 0"/><path d="m130 0c-64.601562 0-130 17.175781-130 50v312c0 32.824219 65.398438 50 130 50 1.949219 0 3.882812-.019531 5.796875-.046875 17.613281 59.078125 72.0625 100.046875 134.203125 100.046875 77.195312 0 140-62.804688 140-140s-62.804688-140-140-140c-3.355469 0-6.722656.132812-10.085938.371094.007813-6.566406.050782-105.671875.054688-118.554688.011719-.273437.03125-.546875.03125-.816406 0-.195312-.019531-.382812-.027344-.574219l.027344-62.421875v-.003906c0-32.824219-65.398438-50-130-50zm6.785156 328.933594c-2.296875.042968-4.566406.066406-6.785156.066406-31.003906 0-60.015625-3.980469-81.6875-11.203125-22.394531-7.464844-28.3125-15.558594-28.3125-18.796875v-35.058594c24.285156 14.558594 67.3125 22.058594 110 22.058594 10.355469 0 20.652344-.4375 30.617188-1.285156-10.507813 13.183594-18.640626 28.21875-23.832032 44.21875zm47.199219-67.371094c-16.496094 2.894531-35.089844 4.4375-53.984375 4.4375-31.003906 0-60.015625-3.980469-81.6875-11.203125-22.394531-7.464844-28.3125-15.558594-28.3125-18.796875v-31.972656c5.585938 3.328125 11.554688 5.992187 17.683594 8.234375 16.3125 6.117187 46.1875 11.46875 52.386718 11.46875 5.011719 0 9.335938-3.757813 9.921876-8.851563.636718-5.488281-3.300782-10.449218-8.785157-11.082031-3.199219-.523437-38.457031-4.054687-59.953125-16.347656-8.5625-4.863281-9.609375-7.792969-11.144531-10.570313-.261719-1.414062-.011719 1.386719-.109375-35.9375 24.285156 14.558594 67.3125 22.058594 110 22.058594 32.683594 0 63.65625-4.25 87.210938-11.964844 9.460937-3.097656 17.003906-6.484375 22.847656-9.976562-.023438 36.695312-.007813 35.507812-.023438 35.605468-.402344 1.875-1.988281 3.695313-3.355468 5.039063-.101563.039063-15.652344 16.144531-67.765626 22.078125l-.121093.015625c-5.488281.632813-9.421875 5.59375-8.789063 11.082031.589844 5.09375 4.910156 8.851563 9.921875 8.851563 11.988281 0 51.214844-8.449219 70.101563-19.65625l-.015625 31.175781c-20.3125 4.460938-39.550781 13.457031-56.027344 26.3125zm56.046875-84.84375c0-.007812.003906-.015625.003906-.023438-.007812.03125-.003906.023438-.003906.023438zm.039062-63.375c-.34375 3.371094-6.867187 11.410156-29.085937 18.6875-21.597656 7.074219-50.359375 10.96875-80.984375 10.96875-31.003906 0-60.015625-3.980469-81.6875-11.203125-22.394531-7.464844-28.3125-15.558594-28.3125-18.796875v-35.058594c24.285156 14.558594 67.3125 22.058594 110 22.058594 42.679688 0 85.800781-7.5 110.085938-22.050781zm-191.757812-82.140625c21.671875-7.222656 50.683594-11.203125 81.6875-11.203125s60.015625 3.980469 81.6875 11.203125c22.394531 7.464844 28.3125 15.558594 28.3125 18.796875s-5.917969 11.332031-28.3125 18.796875c-21.671875 7.222656-50.683594 11.203125-81.6875 11.203125s-60.015625-3.980469-81.6875-11.203125c-22.394531-7.464844-28.3125-15.558594-28.3125-18.796875s5.917969-11.332031 28.3125-18.796875zm0 349.59375c-22.394531-7.464844-28.3125-15.558594-28.3125-18.796875v-35.058594c24.285156 14.558594 67.3125 22.058594 110 22.058594.625 0 1.261719-.007812 1.890625-.007812-1.25 7.570312-1.890625 15.269531-1.890625 23.007812 0 6.710938.476562 13.398438 1.421875 19.992188-.476563.003906-.945313.007812-1.421875.007812-31.003906 0-60.015625-3.980469-81.6875-11.203125zm341.6875-8.796875c0 66.167969-53.832031 120-120 120-56.042969 0-104.089844-38.050781-116.84375-92.53125-.007812-.027344-.011719-.050781-.015625-.078125-.003906-.011719-.007813-.027344-.011719-.042969-2.074218-8.894531-3.128906-18.09375-3.128906-27.347656 0-10.363281 1.316406-20.632812 3.914062-30.523438 13.382813-51.039062 59.957032-89.476562 116.085938-89.476562 66.167969 0 120 53.832031 120 120zm0 0"/><path d="m240 352c0 16.542969 13.457031 30 30 30 5.515625 0 10 4.484375 10 10s-4.484375 10-10 10c-4.273438 0-8.886719-2.6875-12.984375-7.5625-3.554687-4.230469-9.863281-4.777344-14.089844-1.222656-4.230469 3.554687-4.773437 9.863281-1.21875 14.089844 5.34375 6.359374 11.632813 10.792968 18.292969 13.023437v11.671875c0 5.523438 4.476562 10 10 10s10-4.476562 10-10v-11.71875c11.640625-4.128906 20-15.246094 20-28.28125 0-16.542969-13.457031-30-30-30-5.515625 0-10-4.484375-10-10s4.484375-10 10-10c3.542969 0 7.28125 1.808594 10.816406 5.226562 3.96875 3.839844 10.300782 3.734376 14.140625-.230468 3.839844-3.972656 3.734375-10.300782-.234375-14.140625-5.074218-4.914063-10.152344-7.691407-14.722656-9.207031v-11.648438c0-5.523438-4.476562-10-10-10s-10 4.476562-10 10v11.71875c-11.640625 4.128906-20 15.246094-20 28.28125zm0 0"/></svg>