<svg viewBox="0 0 512 512" xmlns="http://www.w3.org/2000/svg"><path d="m370 246c-5.519531 0-10 4.480469-10 10s4.480469 10 10 10 10-4.480469 10-10-4.480469-10-10-10zm0 0"/><path d="m270 66h-200c-5.523438 0-10 4.476562-10 10v100c0 5.523438 4.476562 10 10 10h200c5.523438 0 10-4.476562 10-10v-100c0-5.523438-4.476562-10-10-10zm-10 100h-180v-80h180zm0 0"/><path d="m230 146c5.523438 0 10-4.476562 10-10v-20c0-5.523438-4.476562-10-10-10s-10 4.476562-10 10v20c0 5.523438 4.476562 10 10 10zm0 0"/><path d="m190 146c5.523438 0 10-4.476562 10-10v-20c0-5.523438-4.476562-10-10-10s-10 4.476562-10 10v20c0 5.523438 4.476562 10 10 10zm0 0"/><path d="m482 66h-142v-16c0-27.570312-22.429688-50-50-50h-240c-27.570312 0-50 22.429688-50 50v412c0 27.570312 22.429688 50 50 50h240c27.570312 0 50-22.429688 50-50v-136h142c16.542969 0 30-13.457031 30-30v-200c0-16.542969-13.457031-30-30-30zm-142 80h152v40h-152zm152-50v30h-152v-40h142c5.515625 0 10 4.484375 10 10zm-172 366c0 16.542969-13.457031 30-30 30h-240c-16.542969 0-30-13.457031-30-30v-412c0-16.542969 13.457031-30 30-30h240c16.542969 0 30 13.457031 30 30zm162-156h-142v-100h152v90c0 5.515625-4.484375 10-10 10zm0 0"/><path d="m462 246h-52c-5.523438 0-10 4.476562-10 10s4.476562 10 10 10h52c5.523438 0 10-4.476562 10-10s-4.476562-10-10-10zm0 0"/><path d="m110 226h-40c-5.523438 0-10 4.476562-10 10v40c0 5.523438 4.476562 10 10 10h40c5.523438 0 10-4.476562 10-10v-40c0-5.523438-4.476562-10-10-10zm-10 40h-20v-20h20zm0 0"/><path d="m110 306h-40c-5.523438 0-10 4.476562-10 10v40c0 5.523438 4.476562 10 10 10h40c5.523438 0 10-4.476562 10-10v-40c0-5.523438-4.476562-10-10-10zm-10 40h-20v-20h20zm0 0"/><path d="m110 386h-40c-5.523438 0-10 4.476562-10 10v40c0 5.523438 4.476562 10 10 10h40c5.523438 0 10-4.476562 10-10v-40c0-5.523438-4.476562-10-10-10zm-10 40h-20v-20h20zm0 0"/><path d="m190 226h-40c-5.523438 0-10 4.476562-10 10v40c0 5.523438 4.476562 10 10 10h40c5.523438 0 10-4.476562 10-10v-40c0-5.523438-4.476562-10-10-10zm-10 40h-20v-20h20zm0 0"/><path d="m190 306h-40c-5.523438 0-10 4.476562-10 10v40c0 5.523438 4.476562 10 10 10h40c5.523438 0 10-4.476562 10-10v-40c0-5.523438-4.476562-10-10-10zm-10 40h-20v-20h20zm0 0"/><path d="m190 386h-40c-5.523438 0-10 4.476562-10 10v40c0 5.523438 4.476562 10 10 10h40c5.523438 0 10-4.476562 10-10v-40c0-5.523438-4.476562-10-10-10zm-10 40h-20v-20h20zm0 0"/><path d="m270 226h-40c-5.523438 0-10 4.476562-10 10v40c0 5.523438 4.476562 10 10 10h40c5.523438 0 10-4.476562 10-10v-40c0-5.523438-4.476562-10-10-10zm-10 40h-20v-20h20zm0 0"/><path d="m270 306h-40c-5.523438 0-10 4.476562-10 10v40c0 5.523438 4.476562 10 10 10h40c5.523438 0 10-4.476562 10-10v-40c0-5.523438-4.476562-10-10-10zm-10 40h-20v-20h20zm0 0"/><path d="m270 386h-40c-5.523438 0-10 4.476562-10 10v40c0 5.523438 4.476562 10 10 10h40c5.523438 0 10-4.476562 10-10v-40c0-5.523438-4.476562-10-10-10zm-10 40h-20v-20h20zm0 0"/></svg>