<?xml version="1.0" encoding="iso-8859-1"?>
<!-- Generator: Adobe Illustrator 16.0.0, SVG Export Plug-In . SVG Version: 6.00 Build 0)  -->
<!DOCTYPE svg PUBLIC "-//W3C//DTD SVG 1.1//EN" "http://www.w3.org/Graphics/SVG/1.1/DTD/svg11.dtd">
<svg version="1.1" id="Capa_1" xmlns="http://www.w3.org/2000/svg" xmlns:xlink="http://www.w3.org/1999/xlink" x="0px" y="0px"
	 viewBox="0 0 31.93 31.93" style="enable-background:new 0 0 31.93 31.93;" xml:space="preserve"
	>
<g>
	<g>
		<path d="M22.776,26.061c0-1.824-1.479-3.303-3.303-3.303h-0.853c-0.443,0-0.802-0.359-0.802-0.802
			c0-0.164,0.066-0.321,0.185-0.437c0.496-0.482,0.913-1.131,1.215-1.83c0.062,0.046,0.128,0.078,0.202,0.078
			c0.479,0,1.041-1.059,1.041-1.779s-0.066-1.307-0.545-1.307c-0.057,0-0.117,0.011-0.178,0.025
			c-0.034-1.956-0.528-4.396-3.515-4.396c-3.116,0-3.48,2.435-3.515,4.389c-0.044-0.008-0.088-0.019-0.129-0.019
			c-0.479,0-0.545,0.586-0.545,1.307s0.562,1.779,1.041,1.779c0.059,0,0.114-0.018,0.165-0.047c0.301,0.688,0.713,1.324,1.201,1.801
			c0.117,0.115,0.184,0.271,0.184,0.436c0,0.443-0.359,0.801-0.801,0.801h-0.853c-1.824,0-3.303,1.479-3.303,3.303v0.916
			c0,0.576,0.467,1.043,1.043,1.043h11.021c0.576,0,1.043-0.467,1.043-1.043V26.061z"/>
		<path d="M27.796,10.527c0-2.378-1.928-4.305-4.305-4.305h-3.145V0h-8.218v6.221h-3.69c-2.378,0-4.305,1.928-4.305,4.305v17.098
			c0,2.378,1.927,4.306,4.305,4.306h15.05c2.379,0,4.306-1.928,4.306-4.305L27.796,10.527L27.796,10.527z M14.162,2.033h4.151v6.353
			h-4.151V2.033z M25.763,27.625c0,1.254-1.019,2.273-2.273,2.273H8.439c-1.253,0-2.272-1.02-2.272-2.273V10.527
			c0-1.253,1.019-2.273,2.272-2.273h3.69v2.165h8.218V8.254h3.145c1.253,0,2.273,1.019,2.273,2.273v17.098H25.763z"/>
		<circle cx="16.31" cy="4.697" r="0.889"/>
	</g>
</g>
<g>
</g>
<g>
</g>
<g>
</g>
<g>
</g>
<g>
</g>
<g>
</g>
<g>
</g>
<g>
</g>
<g>
</g>
<g>
</g>
<g>
</g>
<g>
</g>
<g>
</g>
<g>
</g>
<g>
</g>
</svg>
