<?xml version="1.0" encoding="iso-8859-1"?>
<!-- Generator: Adobe Illustrator 16.0.0, SVG Export Plug-In . SVG Version: 6.00 Build 0)  -->
<!DOCTYPE svg PUBLIC "-//W3C//DTD SVG 1.1//EN" "http://www.w3.org/Graphics/SVG/1.1/DTD/svg11.dtd">
<svg version="1.1" id="Capa_1" xmlns="http://www.w3.org/2000/svg" xmlns:xlink="http://www.w3.org/1999/xlink" x="0px" y="0px"
	 viewBox="0 0 31.93 31.93" style="enable-background:new 0 0 31.93 31.93;" xml:space="preserve"
	>
<g>
	<g>
		<path d="M23.491,6.221h-1.898v5.398H10.936V6.221H8.439c-2.378,0-4.305,1.928-4.305,4.305v17.098c0,2.378,1.928,4.306,4.305,4.306
			H23.49c2.378,0,4.306-1.928,4.306-4.305V10.527C27.796,8.149,25.869,6.221,23.491,6.221z M22.778,28.102
			c0,0.576-0.467,1.043-1.043,1.043H10.712c-0.576,0-1.043-0.467-1.043-1.043v-0.916c0-1.823,1.479-3.303,3.303-3.303h0.853
			c0.443,0,0.801-0.359,0.801-0.801c0-0.164-0.066-0.322-0.184-0.436c-0.489-0.477-0.901-1.112-1.201-1.801
			c-0.051,0.03-0.106,0.047-0.165,0.047c-0.479,0-1.041-1.059-1.041-1.779s0.066-1.307,0.545-1.307c0.041,0,0.085,0.011,0.129,0.019
			c0.035-1.954,0.399-4.389,3.515-4.389c2.987,0,3.481,2.441,3.515,4.396c0.062-0.016,0.121-0.025,0.178-0.025
			c0.479,0,0.545,0.586,0.545,1.307s-0.562,1.779-1.041,1.779c-0.074,0-0.141-0.032-0.201-0.078c-0.303,0.699-0.72,1.348-1.216,1.83
			c-0.118,0.115-0.185,0.272-0.185,0.437c0,0.442,0.359,0.802,0.802,0.802h0.853c1.824,0,3.303,1.479,3.303,3.303v0.916H22.778z"/>
		<path d="M20.347,0h-8.218v10.419h8.218V0z M18.313,8.386h-4.151V2.033h4.151V8.386z"/>
		<circle cx="16.311" cy="4.697" r="0.889"/>
	</g>
</g>
<g>
</g>
<g>
</g>
<g>
</g>
<g>
</g>
<g>
</g>
<g>
</g>
<g>
</g>
<g>
</g>
<g>
</g>
<g>
</g>
<g>
</g>
<g>
</g>
<g>
</g>
<g>
</g>
<g>
</g>
</svg>
