<?xml version="1.0" encoding="iso-8859-1"?>
<!-- Generator: Adobe Illustrator 16.0.0, SVG Export Plug-In . SVG Version: 6.00 Build 0)  -->
<!DOCTYPE svg PUBLIC "-//W3C//DTD SVG 1.1//EN" "http://www.w3.org/Graphics/SVG/1.1/DTD/svg11.dtd">
<svg version="1.1" id="Capa_1" xmlns="http://www.w3.org/2000/svg" xmlns:xlink="http://www.w3.org/1999/xlink" x="0px" y="0px"
	 viewBox="0 0 32.037 32.037" style="enable-background:new 0 0 32.037 32.037;"
	 xml:space="preserve">
<g>
	<g>
		<path d="M8.781,18.508c0.082,0.662,0.697,1.606,1.122,1.606c0.052,0,0.1-0.015,0.142-0.041c0.309,0.565,0.698,1.071,1.127,1.463
			h3.213c0.389-0.397,0.724-0.915,0.967-1.491c0.055,0.04,0.114,0.068,0.18,0.068c0.425,0,0.93-0.945,0.935-1.606
			c0.005-0.677-0.053-1.237-0.499-1.237c-0.053,0-0.109,0.01-0.166,0.024c-0.041-1.952-0.549-4.572-3.54-4.572
			c-2.789,0-3.191,2.615-3.004,4.565c-0.042-0.008-0.084-0.018-0.122-0.018C8.69,17.271,8.698,17.831,8.781,18.508z"/>
		<path d="M25.637,16.301l0.195-1.249c0.07-0.447-0.211-0.814-0.629-0.814h-9.04c0.257,0.624,0.436,1.375,0.503,2.279
			c0.185,0.121,0.321,0.314,0.431,0.547h7.699C25.195,17.062,25.572,16.725,25.637,16.301z"/>
		<path d="M24.14,21.612c0.368,0,0.713-0.29,0.77-0.651l0.166-1.064c0.059-0.381-0.204-0.692-0.588-0.692H17.23
			c-0.209,0.739-0.695,1.492-1.348,1.69c-0.019,0.035-0.042,0.065-0.061,0.1l0.003,0.619L24.14,21.612L24.14,21.612z"/>
		<path d="M3.999,21.225L2.517,11.34c0-1.216,0.989-2.206,2.206-2.206h22.501c1.216,0,2.205,0.989,2.205,2.206l-1.317,9.772h1.973
			l1.318-9.772c0-2.308-1.871-4.179-4.179-4.179H4.723c-2.308,0-4.179,1.871-4.179,4.179l1.482,9.885H3.999z"/>
		<path d="M1.69,22.52c-0.409,0-0.797,0.179-1.065,0.487c-0.268,0.31-0.387,0.72-0.328,1.124l1.151,7.906h29.14l1.151-7.907
			c0.059-0.403-0.062-0.815-0.328-1.124s-0.656-0.486-1.065-0.486H1.69L1.69,22.52z"/>
		<path d="M25.843,5.585L26.2,4.042c0.036-0.156-0.001-0.321-0.101-0.446c-0.101-0.126-0.251-0.199-0.412-0.199H5.469
			c-0.165,0-0.32,0.076-0.422,0.205c-0.102,0.13-0.138,0.299-0.098,0.459l0.377,1.523L25.843,5.585L25.843,5.585z"/>
		<path d="M23.818,2.187l0.29-1.565c0.028-0.154-0.014-0.312-0.113-0.432C23.895,0.07,23.747,0,23.589,0H7.551
			C7.394,0,7.245,0.071,7.145,0.192c-0.1,0.122-0.14,0.282-0.109,0.436l0.309,1.559H23.818z"/>
	</g>
</g>
<g>
</g>
<g>
</g>
<g>
</g>
<g>
</g>
<g>
</g>
<g>
</g>
<g>
</g>
<g>
</g>
<g>
</g>
<g>
</g>
<g>
</g>
<g>
</g>
<g>
</g>
<g>
</g>
<g>
</g>
</svg>
