<svg id="Capa_1" enable-background="new 0 0 512 512" viewBox="0 0 512 512" xmlns="http://www.w3.org/2000/svg"><g><path d="m503 315.44v-213.44c0-24.813-20.187-45-45-45h-59v-17c0-8.284-6.716-15-15-15s-15 6.716-15 15v17h-98v-17c0-8.284-6.716-15-15-15s-15 6.716-15 15v17h-98v-17c0-8.284-6.716-15-15-15s-15 6.716-15 15v17h-68c-24.813 0-45 20.187-45 45v276c0 24.813 20.187 45 45 45h232.93c21.425 38.157 62.283 64 109.07 64 68.925 0 125-56.075 125-125 0-16.449-3.2-32.162-9-46.56zm-101-47.252c40.393 6.435 72.377 38.418 78.812 78.812h-78.812zm-357 124.812c-8.271 0-15-6.729-15-15v-276c0-8.271 6.729-15 15-15h68v18c0 8.284 6.716 15 15 15s15-6.716 15-15v-18h98v18c0 8.284 6.716 15 15 15s15-6.716 15-15v-18h98v18c0 8.284 6.716 15 15 15s15-6.716 15-15v-18h59c8.271 0 15 6.729 15 15v169.371c-22.424-21.289-52.712-34.371-86-34.371-68.925 0-125 56.075-125 125 0 10.697 1.353 21.083 3.893 31zm342 64c-52.383 0-95-42.617-95-95 0-47.279 34.719-86.598 80-93.812v93.812c0 8.284 6.716 15 15 15h93.812c-7.214 45.28-46.533 80-93.812 80z"/><path d="m104 185h-24c-8.284 0-15 6.716-15 15s6.716 15 15 15h24c8.284 0 15-6.716 15-15s-6.716-15-15-15z"/><path d="m192 185h-24c-8.284 0-15 6.716-15 15s6.716 15 15 15h24c8.284 0 15-6.716 15-15s-6.716-15-15-15z"/><path d="m192 249h-24c-8.284 0-15 6.716-15 15s6.716 15 15 15h24c8.284 0 15-6.716 15-15s-6.716-15-15-15z"/><path d="m104 249h-24c-8.284 0-15 6.716-15 15s6.716 15 15 15h24c8.284 0 15-6.716 15-15s-6.716-15-15-15z"/><path d="m104 313h-24c-8.284 0-15 6.716-15 15s6.716 15 15 15h24c8.284 0 15-6.716 15-15s-6.716-15-15-15z"/><path d="m192 313h-24c-8.284 0-15 6.716-15 15s6.716 15 15 15h24c8.284 0 15-6.716 15-15s-6.716-15-15-15z"/></g></svg>