<?xml version="1.0"?>
<svg xmlns="http://www.w3.org/2000/svg" id="outline" viewBox="0 0 512 512" ><path d="M480,369.37305V240a7.99812,7.99812,0,0,0-3.7373-6.76953l-216-136a7.99883,7.99883,0,0,0-8.5254,0l-216,136A7.99812,7.99812,0,0,0,32,240v129.373a46.32371,46.32371,0,0,1-13.65723,32.9707A7.99981,7.99981,0,0,0,24,416H232a8.00008,8.00008,0,0,0,8-8v-8h32v8a8.00008,8.00008,0,0,0,8,8H488a7.99981,7.99981,0,0,0,5.65723-13.65625A46.32371,46.32371,0,0,1,480,369.37305ZM312,280H200V264H312Zm-99.57812,77.2666A20.83106,20.83106,0,0,1,224,376v24H195.69489A31.79273,31.79273,0,0,0,200,384V296h24v28.22266a20.82953,20.82953,0,0,1-11.57764,18.73339,7.99991,7.99991,0,0,0-.00048,14.31055ZM272,376v8H240v-8a36.74787,36.74787,0,0,0-10.55176-25.88867A36.74444,36.74444,0,0,0,240,324.22266V296h32v28.22266a36.74444,36.74444,0,0,0,10.55176,25.88867A36.74787,36.74787,0,0,0,272,376Zm16,0a20.83106,20.83106,0,0,1,11.57812-18.7334,7.99991,7.99991,0,0,0-.00048-14.31055A20.82953,20.82953,0,0,1,288,324.22266V296h24v88a31.79273,31.79273,0,0,0,4.30511,16H288Zm56,24a16.01833,16.01833,0,0,1-16-16V256a8.00008,8.00008,0,0,0-8-8H192a8.00008,8.00008,0,0,0-8,8V384a16.01833,16.01833,0,0,1-16,16H40.03223A62.2846,62.2846,0,0,0,48,369.37305V244.417L256,113.4541,302.59369,142.791l-.88959,1.06738A111.26107,111.26107,0,0,1,216,184v16a127.21923,127.21923,0,0,0,97.99561-45.89844l2.25836-2.70971,16.43921,10.35058-2.29328,3.05737A128.61287,128.61287,0,0,1,228,216H168v16h60a144.6868,144.6868,0,0,0,115.19971-57.60059l3.07806-4.10376,15.78192,9.93677-16.84143,20.209A43.12462,43.12462,0,0,1,312,216v16a59.08054,59.08054,0,0,0,45.50977-21.31641l18.20929-21.85083L464,244.417V369.37305A62.2846,62.2846,0,0,0,471.96777,400Z"/><path d="M160,280H147.31348a3.31353,3.31353,0,0,1-2.34327-5.65625l12.68653-12.68652A8.0001,8.0001,0,0,0,152,248H88a8.00035,8.00035,0,0,0-5.65674,2.34277l-12.686,12.68653A19.31354,19.31354,0,0,0,83.31348,296H88v56a8.00008,8.00008,0,0,0,8,8h64a8.00008,8.00008,0,0,0,8-8V288A8.00008,8.00008,0,0,0,160,280Zm-8,16v16H136V296h16Zm-32,16H104V296h16ZM80,276.68652a3.28787,3.28787,0,0,1,.97021-2.34277L91.31348,264h41.436a19.0853,19.0853,0,0,0-4.44427,16H83.31348A3.31712,3.31712,0,0,1,80,276.68652ZM104,328h16v16H104Zm32,16V328h16v16Z"/><path d="M440,280H427.31348a3.31353,3.31353,0,0,1-2.34327-5.65625l12.68653-12.68652A8.0001,8.0001,0,0,0,432,248H368a8.00035,8.00035,0,0,0-5.65674,2.34277l-12.686,12.68653A19.31354,19.31354,0,0,0,363.31348,296H368v56a8.00008,8.00008,0,0,0,8,8h64a8.00008,8.00008,0,0,0,8-8V288A8.00008,8.00008,0,0,0,440,280Zm-8,16v16H416V296h16Zm-32,16H384V296h16Zm-40-35.31348a3.28787,3.28787,0,0,1,.97021-2.34277L371.31348,264h41.436a19.0853,19.0853,0,0,0-4.44427,16H363.31348A3.31712,3.31712,0,0,1,360,276.68652ZM384,328h16v16H384Zm32,16V328h16v16Z"/><rect x="184" y="184" width="16" height="16"/><rect x="136" y="216" width="16" height="16"/></svg>
