<svg id="outline" viewBox="0 0 512 512" xmlns="http://www.w3.org/2000/svg"><path d="m472 16h-432a24.0275 24.0275 0 0 0 -24 24v432a24.0275 24.0275 0 0 0 24 24h432a24.0275 24.0275 0 0 0 24-24v-432a24.0275 24.0275 0 0 0 -24-24zm8 456a8.00917 8.00917 0 0 1 -8 8h-432a8.00917 8.00917 0 0 1 -8-8v-432a8.00917 8.00917 0 0 1 8-8h432a8.00917 8.00917 0 0 1 8 8z"/><circle cx="56" cy="56" r="8"/><circle cx="80" cy="56" r="8"/><circle cx="104" cy="56" r="8"/><path d="m248 216h-32a7.99977 7.99977 0 0 0 -8 8v32a7.99977 7.99977 0 0 0 8 8h32a7.99977 7.99977 0 0 0 8-8v-32a7.99977 7.99977 0 0 0 -8-8zm-8 32h-16v-16h16z"/><path d="m280 232h24v16h-24z"/><path d="m320 232h112v16h-112z"/><path d="m248 280h-32a7.99977 7.99977 0 0 0 -8 8v32a7.99977 7.99977 0 0 0 8 8h32a7.99977 7.99977 0 0 0 8-8v-32a7.99977 7.99977 0 0 0 -8-8zm-8 32h-16v-16h16z"/><path d="m280 296h24v16h-24z"/><path d="m320 296h112v16h-112z"/><path d="m248 344h-32a7.99977 7.99977 0 0 0 -8 8v32a7.99977 7.99977 0 0 0 8 8h32a7.99977 7.99977 0 0 0 8-8v-32a7.99977 7.99977 0 0 0 -8-8zm-8 32h-16v-16h16z"/><path d="m280 360h24v16h-24z"/><path d="m320 360h112v16h-112z"/><path d="m248 408h-32a7.99977 7.99977 0 0 0 -8 8v32a7.99977 7.99977 0 0 0 8 8h32a7.99977 7.99977 0 0 0 8-8v-32a7.99977 7.99977 0 0 0 -8-8zm-8 32h-16v-16h16z"/><path d="m280 424h24v16h-24z"/><path d="m320 424h112v16h-112z"/><path d="m448 96h-384a7.99977 7.99977 0 0 0 -8 8v344a7.99977 7.99977 0 0 0 8 8h112a7.99977 7.99977 0 0 0 8-8v-256h264a7.99977 7.99977 0 0 0 8-8v-80a7.99977 7.99977 0 0 0 -8-8zm-280 344h-96v-248h96zm272-264h-368v-64h368z"/></svg>