<svg viewBox="0 -37 511.99933 511" xmlns="http://www.w3.org/2000/svg"><path d="m505.871094 140.699219-376.863282-139.621094c-4.820312-1.78125-10.175781.683594-11.953124 5.507813-.003907.003906-.003907.007812-.007813.011718l-41.71875 113.558594c-1.773437 4.824219.699219 10.175781 5.523437 11.949219h.007813l43.683594 16.039062-9.625 26.222657c-1.769531 4.824218.703125 10.167968 5.527343 11.941406l87.382813 32.082031-6.421875 17.480469c-5.835938 15.65625-.390625 33.28125 13.265625 42.910156v47.5h-125.242187c-6.0625-13.859375-18.46875-23.921875-33.285157-26.992188v-19.546874c0-5.140626-4.164062-9.308594-9.308593-9.308594h-37.527344c-5.140625 0-9.308594 4.167968-9.308594 9.308594v148.925781c0 5.144531 4.167969 9.308593 9.308594 9.308593h37.527344c5.144531 0 9.308593-4.164062 9.308593-9.308593v-19.542969c14.816407-3.074219 27.222657-13.132812 33.285157-26.996094h125.242187v9.308594c0 15.421875 12.5 27.925781 27.921875 27.925781s27.925781-12.503906 27.925781-27.925781v-103.113281c8.460938-4.195313 14.996094-11.472657 18.253907-20.339844l6.421874-17.480469 78.640626 28.855469c1.027343.378906 2.109374.570313 3.203124.570313 3.902344 0 7.394532-2.433594 8.742188-6.097657l3.488281-9.503906c30.289063 5.699219 59.460938-14.234375 65.15625-44.519531 2.105469-11.191406.738281-22.757813-3.917969-33.148438l56.425782-28.972656c4.574218-2.34375 6.382812-7.953125 4.039062-12.527344-1.0625-2.078125-2.867187-3.679687-5.054687-4.488281zm-272.585938 146.5625 7.707032 2.792969c3.507812 1.257812 7.1875 1.980468 10.910156 2.140624v34.085938h-18.617188zm-195.753906 132.101562h-18.914062v-130.3125h18.914062zm37.230469-55.847656c-.015625 11.828125-7.46875 22.371094-18.617188 26.332031v-71.28125c11.148438 3.957032 18.601563 14.5 18.617188 26.332032zm18.90625-18.617187h158.234375v18.617187h-158.234375zm148.925781 55.847656c-5.140625 0-9.308594-4.167969-9.308594-9.308594v-9.308594h18.617188v9.308594c0 5.140625-4.167969 9.308594-9.308594 9.308594zm35.128906-156.652344-6.421875 17.480469c-3.546875 9.640625-14.238281 14.585937-23.886719 11.046875l-17.507812-6.414063c-9.648438-3.542969-14.601562-14.238281-11.058594-23.890625 0 0 0 0 0-.003906l6.425782-17.46875 47.179687 17.320312zm93.796875 14.613281-235.921875-86.632812 6.425782-17.480469 139.796874 51.335938c3.308594 1.203124 7.019532.449218 9.59375-1.957032l26.121094-24.589844 73.234375 26.898438zm62.933594-36.378906c-5.898437 15.902344-21.761719 25.839844-38.640625 24.203125l14.382812-39.179688 23.492188-12.097656c3.675781 8.601563 3.949219 18.28125.765625 27.074219zm-31.417969-32.183594c-.492187.042969-.980468.128907-1.460937.257813l-82.988281-30.472656c-3.308594-1.214844-7.019532-.460938-9.589844 1.953124l-26.152344 24.59375-186.832031-68.609374 35.289062-96.085938 348.265625 129.027344zm0 0"/><path d="m172.328125 126.054688 6.414063-17.476563 17.476562 6.417969-6.417969 17.476562zm0 0"/><path d="m207.277344 138.886719 6.414062-17.476563 17.476563 6.417969-6.417969 17.472656zm0 0"/><path d="m242.226562 151.726562 6.417969-17.476562 17.472657 6.417969-6.417969 17.476562zm0 0"/></svg>