<svg id="_x31_px" enable-background="new 0 0 24 24" viewBox="0 0 24 24" xmlns="http://www.w3.org/2000/svg"><path d="m21.5 20h-7c-1.378 0-2.5-1.122-2.5-2.5s1.122-2.5 2.5-2.5h7c1.378 0 2.5 1.122 2.5 2.5s-1.122 2.5-2.5 2.5zm-7-4c-.827 0-1.5.673-1.5 1.5s.673 1.5 1.5 1.5h7c.827 0 1.5-.673 1.5-1.5s-.673-1.5-1.5-1.5z"/><path d="m21.5 16h-7c-1.378 0-2.5-1.122-2.5-2.5s1.122-2.5 2.5-2.5h7c1.378 0 2.5 1.122 2.5 2.5s-1.122 2.5-2.5 2.5zm-7-4c-.827 0-1.5.673-1.5 1.5s.673 1.5 1.5 1.5h7c.827 0 1.5-.673 1.5-1.5s-.673-1.5-1.5-1.5z"/><path d="m15.5 14h-1c-.276 0-.5-.224-.5-.5s.224-.5.5-.5h1c.276 0 .5.224.5.5s-.224.5-.5.5z"/><path d="m15.5 18h-1c-.276 0-.5-.224-.5-.5s.224-.5.5-.5h1c.276 0 .5.224.5.5s-.224.5-.5.5z"/><path d="m18.5 14h-1c-.276 0-.5-.224-.5-.5s.224-.5.5-.5h1c.276 0 .5.224.5.5s-.224.5-.5.5z"/><path d="m18.5 18h-1c-.276 0-.5-.224-.5-.5s.224-.5.5-.5h1c.276 0 .5.224.5.5s-.224.5-.5.5z"/><path d="m21.5 24h-7c-1.378 0-2.5-1.122-2.5-2.5s1.122-2.5 2.5-2.5h7c1.378 0 2.5 1.122 2.5 2.5s-1.122 2.5-2.5 2.5zm-7-4c-.827 0-1.5.673-1.5 1.5s.673 1.5 1.5 1.5h7c.827 0 1.5-.673 1.5-1.5s-.673-1.5-1.5-1.5z"/><path d="m15.5 22h-1c-.276 0-.5-.224-.5-.5s.224-.5.5-.5h1c.276 0 .5.224.5.5s-.224.5-.5.5z"/><path d="m18.5 22h-1c-.276 0-.5-.224-.5-.5s.224-.5.5-.5h1c.276 0 .5.224.5.5s-.224.5-.5.5z"/><path d="m9.5 9h-7c-1.378 0-2.5-1.122-2.5-2.5s1.122-2.5 2.5-2.5h7c1.378 0 2.5 1.122 2.5 2.5s-1.122 2.5-2.5 2.5zm-7-4c-.827 0-1.5.673-1.5 1.5s.673 1.5 1.5 1.5h7c.827 0 1.5-.673 1.5-1.5s-.673-1.5-1.5-1.5z"/><path d="m9.5 5h-7c-1.378 0-2.5-1.122-2.5-2.5s1.122-2.5 2.5-2.5h7c1.378 0 2.5 1.122 2.5 2.5s-1.122 2.5-2.5 2.5zm-7-4c-.827 0-1.5.673-1.5 1.5s.673 1.5 1.5 1.5h7c.827 0 1.5-.673 1.5-1.5s-.673-1.5-1.5-1.5z"/><path d="m3.5 3h-1c-.276 0-.5-.224-.5-.5s.224-.5.5-.5h1c.276 0 .5.224.5.5s-.224.5-.5.5z"/><path d="m3.5 7h-1c-.276 0-.5-.224-.5-.5s.224-.5.5-.5h1c.276 0 .5.224.5.5s-.224.5-.5.5z"/><path d="m6.5 3h-1c-.276 0-.5-.224-.5-.5s.224-.5.5-.5h1c.276 0 .5.224.5.5s-.224.5-.5.5z"/><path d="m6.5 7h-1c-.276 0-.5-.224-.5-.5s.224-.5.5-.5h1c.276 0 .5.224.5.5s-.224.5-.5.5z"/><path d="m9.5 13h-7c-1.378 0-2.5-1.122-2.5-2.5s1.122-2.5 2.5-2.5h7c1.378 0 2.5 1.122 2.5 2.5s-1.122 2.5-2.5 2.5zm-7-4c-.827 0-1.5.673-1.5 1.5s.673 1.5 1.5 1.5h7c.827 0 1.5-.673 1.5-1.5s-.673-1.5-1.5-1.5z"/><path d="m3.5 11h-1c-.276 0-.5-.224-.5-.5s.224-.5.5-.5h1c.276 0 .5.224.5.5s-.224.5-.5.5z"/><path d="m6.5 11h-1c-.276 0-.5-.224-.5-.5s.224-.5.5-.5h1c.276 0 .5.224.5.5s-.224.5-.5.5z"/><path d="m18 6.5c-.128 0-.256-.049-.354-.146l-1.5-1.5c-.195-.195-.195-.512 0-.707l1.5-1.5c.195-.195.512-.195.707 0s.195.512 0 .707l-1.146 1.146 1.146 1.146c.195.195.195.512 0 .707-.097.098-.225.147-.353.147z"/><path d="m20.5 8c-.276 0-.5-.224-.5-.5v-1c0-.827-.673-1.5-1.5-1.5h-1.501c-.276 0-.5-.224-.5-.5s.224-.5.5-.5h1.501c1.378 0 2.5 1.122 2.5 2.5v1c0 .276-.224.5-.5.5z"/><path d="m6 21.5c-.128 0-.256-.049-.354-.146-.195-.195-.195-.512 0-.707l1.147-1.147-1.146-1.146c-.195-.195-.195-.512 0-.707s.512-.195.707 0l1.5 1.5c.195.195.195.512 0 .707l-1.5 1.5c-.098.097-.226.146-.354.146z"/><path d="m7.001 20h-1.501c-1.378 0-2.5-1.122-2.5-2.5v-1c0-.276.224-.5.5-.5s.5.224.5.5v1c0 .827.673 1.5 1.5 1.5h1.501c.276 0 .5.224.5.5s-.224.5-.5.5z"/></svg>