<svg id="Capa_1" enable-background="new 0 0 512 512" viewBox="0 0 512 512" xmlns="http://www.w3.org/2000/svg"><g><path d="m494.526 151.039h-69.649c-9.635 0-17.474 7.839-17.474 17.474v33.36h-38.67v-124.075c0-9.635-7.839-17.474-17.474-17.474h-192.019c-9.635 0-17.474 7.839-17.474 17.474v124.075h-40.164v-33.36c0-9.635-7.839-17.474-17.474-17.474h-66.654c-9.635 0-17.474 7.839-17.474 17.474v265.689c0 9.635 7.839 17.474 17.474 17.474h348.733c4.137 0 7.489-3.353 7.489-7.489 0-3.25-2.07-6.017-4.964-7.053v-220.283h38.67v219.847h-4.311c-4.137 0-7.489 3.353-7.489 7.489s3.353 7.489 7.489 7.489h91.434c9.635 0 17.474-7.839 17.474-17.474v-265.689c.001-9.635-7.838-17.474-17.473-17.474zm-337.782 151.27h31.728v27.148h-31.728zm-141.766-56.784h39.654v27.148h-39.654zm0 68.025h39.654v27.148h-39.654zm0 120.652v-78.526h43.149c6.332 0 11.483-5.152 11.483-11.483v-34.138c0-6.332-5.152-11.483-11.483-11.483h-43.149v-10.922h43.149c6.332 0 11.483-5.152 11.483-11.483v-34.137c0-6.332-5.152-11.483-11.483-11.483h-43.149v-62.034c0-1.377 1.119-2.496 2.496-2.496h66.653c1.377 0 2.496 1.119 2.496 2.496v200.297c0 4.137 3.353 7.489 7.489 7.489s7.489-3.353 7.489-7.489v-151.959h40.164v219.847h-40.164v-32.877c0-4.137-3.353-7.489-7.489-7.489s-7.489 3.353-7.489 7.489v32.877h-69.15c-1.375 0-2.495-1.119-2.495-2.496zm213.144 2.496v-58.241c0-1.931 1.57-3.501 3.501-3.501h49.251c1.931 0 3.501 1.57 3.501 3.501v58.241zm71.231 0v-58.241c0-10.189-8.29-18.479-18.479-18.479h-49.251c-10.189 0-18.479 8.29-18.479 18.479v58.241h-56.4v-92.263h35.223c6.332 0 11.483-5.152 11.483-11.483v-34.137c0-6.332-5.152-11.483-11.483-11.483h-35.223v-209.534c0-1.377 1.119-2.496 2.496-2.496h192.018c1.377 0 2.496 1.119 2.496 2.496v209.533h-35.223c-6.332 0-11.483 5.152-11.483 11.483v34.137c0 6.332 5.152 11.483 11.483 11.483h35.223v92.263h-54.401zm54.401-107.241h-31.728v-27.148h31.728zm143.268-56.784h-39.654v-27.148h39.654zm-2.496 164.025h-72.146v-268.185c0-1.377 1.119-2.496 2.496-2.496h69.649c1.377 0 2.496 1.119 2.496 2.496v62.034h-43.149c-6.332 0-11.483 5.152-11.483 11.483v34.137c0 6.332 5.152 11.483 11.483 11.483h43.149v10.922h-43.149c-6.332 0-11.483 5.152-11.483 11.483v34.138c0 6.332 5.152 11.483 11.483 11.483h43.149v78.526c.001 1.377-1.119 2.496-2.495 2.496zm2.496-96h-39.654v-27.148h39.654z"/><path d="m339.231 188.804c0-16.97-5.089-33.29-14.718-47.194-2.354-3.399-7.021-4.247-10.421-1.893-3.4 2.355-4.248 7.021-1.893 10.42 7.886 11.387 12.054 24.757 12.054 38.666 0 37.498-30.507 68.005-68.005 68.005s-68.005-30.507-68.005-68.005c0-37.499 30.507-68.006 68.005-68.006 11.611 0 23.068 2.974 33.132 8.602 3.609 2.018 8.174.729 10.191-2.882 2.019-3.61.728-8.173-2.882-10.191-12.294-6.874-26.278-10.507-40.442-10.507-45.757 0-82.983 37.227-82.983 82.984s37.226 82.983 82.983 82.983 82.984-37.225 82.984-82.982z"/><path d="m279.285 165.766v-14.916c0-5.671-4.614-10.286-10.286-10.286h-25.503c-5.672 0-10.287 4.614-10.287 10.286v14.916h-14.916c-5.671 0-10.286 4.614-10.286 10.286v25.503c0 5.672 4.614 10.287 10.286 10.287h14.916v14.915c0 5.672 4.614 10.287 10.287 10.287h25.504c5.671 0 10.286-4.614 10.286-10.287v-14.915h14.916c5.671 0 10.286-4.614 10.286-10.287v-25.503c0-5.671-4.614-10.286-10.286-10.286zm10.224 31.097h-16.78c-4.644 0-8.421 3.778-8.421 8.421v16.78h-16.119v-16.78c0-4.644-3.778-8.421-8.421-8.421h-16.78v-16.119h16.78c4.644 0 8.421-3.778 8.421-8.421v-16.78h16.119v16.78c0 4.644 3.778 8.421 8.421 8.421h16.78z"/><path d="m287.869 287.331h-63.242c-6.332 0-11.483 5.152-11.483 11.483v34.137c0 6.332 5.152 11.483 11.483 11.483h63.242c6.332 0 11.483-5.152 11.483-11.483v-34.137c.001-6.331-5.151-11.483-11.483-11.483zm-3.495 42.126h-56.253v-27.148h56.253z"/></g></svg>