<svg viewBox="0 -17 512 512" xmlns="http://www.w3.org/2000/svg"><path d="m46.859375 391.074219h154.011719c5.78125 0 10.484375-4.703125 10.484375-10.484375v-21.445313c0-5.78125-4.703125-10.484375-10.484375-10.484375h-154.011719c-5.78125 0-10.480469 4.703125-10.480469 10.484375v21.445313c0 5.78125 4.699219 10.484375 10.480469 10.484375zm4.519531-27.414063h144.976563v12.410156h-144.976563zm0 0"/><path d="m36.378906 433.652344c0 5.78125 4.699219 10.484375 10.480469 10.484375h154.011719c5.78125 0 10.484375-4.703125 10.484375-10.484375v-21.449219c0-5.777344-4.703125-10.480469-10.484375-10.480469h-154.011719c-5.78125 0-10.480469 4.703125-10.480469 10.480469zm15-16.929688h144.976563v12.410156h-144.976563zm0 0"/><path d="m297.730469 429.328125c26.84375 15.664063 60.976562-5.054687 58.816406-36.679687-1.972656-28.886719-33.875-45.761719-58.816406-31.203126-24.9375-14.558593-56.84375 2.3125-58.816407 31.203126-2.152343 31.550781 31.902344 52.378906 58.816407 36.679687zm-43.851563-35.65625c1.246094-18.246094 22.070313-28.820313 37.589844-18.457031 3.804688 2.542968 8.71875 2.542968 12.519531.003906 15.507813-10.355469 36.34375.183594 37.589844 18.453125 1.398437 20.488281-21.429687 33.148437-37.984375 21.617187-3.507812-2.445312-8.222656-2.445312-11.722656 0-16.601563 11.558594-39.386719-1.183593-37.992188-21.617187zm0 0"/><path d="m305.332031 128.09375v-20.140625c9.386719.757813 13.976563 8.292969 18.132813 1.25 5.75-9.773437-6.820313-13.890625-18.132813-13.890625v-3.003906c0-1.714844-2.121093-2.890625-3.894531-2.890625-1.929688 0-3.886719 1.175781-3.886719 2.859375v3.207031c-13.230469 1.742187-22.199219 8.859375-22.199219 22.3125 0 14.015625 10.4375 18.507813 22.199219 22.996094v22.769531c-12.914062-1.558594-16.265625-14.335938-22.371093-5.769531-7.378907 10.375 9.03125 19.328125 22.371093 19.328125v3.234375c0 1.699219 1.953125 2.886719 3.886719 2.886719 1.777344 0 3.894531-1.164063 3.894531-2.859376v-3.546874c11.984375-1.851563 21.625-9.453126 21.625-24.253907 0-13.820312-8.625-19.761719-21.625-24.488281zm-6.867187-2.519531c-2.671875-1.066407-4.863282-2.246094-6.578125-3.546875-3.730469-2.8125-5.0625-11.890625 6.578125-13.730469zm5.949218 37.875v-19.910157c7.125 3.121094 8.582032 6.515626 8.582032 10.527344 0 5.339844-3.539063 8.3125-8.582032 9.382813zm0 0"/><path d="m471.140625 0h-337.601563c-22.527343 0-40.859374 18.328125-40.859374 40.859375v162.507813h-64.871094c-15.332032 0-27.808594 12.476562-27.808594 27.808593v219.300781c0 15.332032 12.476562 27.808594 27.808594 27.808594h152.507812c4.144532 0 7.5-3.355468 7.5-7.5 0-4.144531-3.355468-7.5-7.5-7.5h-152.507812c-7.0625 0-12.808594-5.746094-12.808594-12.808594v-121.84375h365.632812v121.84375c0 7.0625-5.746093 12.808594-12.808593 12.808594h-152.503907c-4.144531 0-7.5 3.359375-7.5 7.5 0 4.144532 3.355469 7.5 7.5 7.5h152.503907c15.335937 0 27.8125-12.472656 27.8125-27.808594 0-3.726562 0-173.535156 0-175.558593h75.503906c22.53125 0 40.859375-18.328125 40.859375-40.855469v-82.765625c0-4.140625-3.355469-7.5-7.5-7.5s-7.5 3.359375-7.5 7.5v82.765625c0 14.257812-11.601562 25.855469-25.859375 25.855469h-75.507813v-11.945313h24.527344c6.496094 0 11.785156-5.289062 11.785156-11.785156v-12.769531c0-15.746094 12.808594-28.554688 28.550782-28.554688h12.769531c6.5 0 11.785156-5.285156 11.785156-11.78125v-91.246093c0-6.496094-5.285156-11.78125-11.785156-11.78125h-12.769531c-15.742188 0-28.550782-12.8125-28.550782-28.554688v-12.765625c0-6.5-5.289062-11.785156-11.785156-11.785156h-235.640625c-6.496093 0-11.785156 5.285156-11.785156 11.785156v12.769531c0 15.742188-12.808594 28.550782-28.550781 28.550782h-12.769532c-6.5 0-11.785156 5.285156-11.785156 11.785156v91.242187c0 6.496094 5.285156 11.785157 11.785156 11.785157h12.769532c7.714844 0 14.953125 3.195312 20.226562 8.5h-56.726562v-162.507813c0-14.257813 11.597656-25.859375 25.855468-25.859375h337.601563c14.257813 0 25.859375 11.601562 25.859375 25.859375v75.4375c0 4.140625 3.355469 7.5 7.5 7.5 4.140625 0 7.5-3.359375 7.5-7.5v-75.4375c0-22.53125-18.328125-40.859375-40.859375-40.859375zm-90.507813 313.632812h-365.632812v-38.714843h365.632812zm-236.449218-133.769531h-9.554688v-84.808593h9.554688c24.015625 0 43.554687-19.539063 43.554687-43.550782v-9.554687h229.207031v9.554687c0 24.011719 19.539063 43.550782 43.554688 43.550782h9.550781v84.808593h-9.550781c-24.015625 0-43.554688 19.539063-43.554688 43.554688v9.554687h-21.3125v-1.796875c0-15.332031-12.476562-27.808593-27.808593-27.808593h-29.457031c23.28125-12.777344 39.101562-37.527344 39.101562-65.90625 0-41.429688-33.703125-75.132813-75.128906-75.132813-41.429688 0-75.132813 33.707031-75.132813 75.132813 0 28.378906 15.820313 53.128906 39.101563 65.90625h-83.496094c-7.441406-14.246094-22.363281-23.503907-38.628906-23.503907zm158.15625 17.726563c-33.15625 0-60.128906-26.972656-60.128906-60.128906s26.972656-60.132813 60.128906-60.132813 60.128906 26.976563 60.128906 60.132813c0 33.152343-26.972656 60.128906-60.128906 60.128906zm65.484375 20.777344c7.066406 0 12.808593 5.746093 12.808593 12.808593v28.742188h-365.632812v-28.742188c0-7.0625 5.746094-12.808593 12.808594-12.808593zm0 0"/></svg>