<?xml version="1.0" encoding="iso-8859-1"?>
<!-- Generator: Adobe Illustrator 19.0.0, SVG Export Plug-In . SVG Version: 6.00 Build 0)  -->
<svg version="1.1" id="Capa_1" xmlns="http://www.w3.org/2000/svg" xmlns:xlink="http://www.w3.org/1999/xlink" x="0px" y="0px"
	 viewBox="0 0 496 496" style="enable-background:new 0 0 496 496;" xml:space="preserve">
<g>
	<g>
		<g>
			<path d="M384,288H112c-13.232,0-24,10.768-24,24v160c0,13.232,10.768,24,24,24h272c13.232,0,24-10.768,24-24V312
				C408,298.768,397.232,288,384,288z M392,472c0,4.416-3.592,8-8,8H112c-4.408,0-8-3.584-8-8V368h288V472z M392,352H104v-16h288
				V352z M392,320H104v-8c0-4.416,3.592-8,8-8h272c4.408,0,8,3.584,8,8V320z"/>
			<rect x="120" y="416" width="64" height="16"/>
			<rect x="120" y="448" width="64" height="16"/>
			<path d="M296,464c7.32,0,14.096-2.12,20-5.568c5.904,3.448,12.68,5.568,20,5.568c22.056,0,40-17.944,40-40
				c0-22.056-17.944-40-40-40c-7.32,0-14.096,2.12-20,5.568c-5.904-3.448-12.68-5.568-20-5.568c-22.056,0-40,17.944-40,40
				C256,446.056,273.944,464,296,464z M328.808,401.224c2.28-0.728,4.672-1.224,7.192-1.224c13.232,0,24,10.768,24,24
				s-10.768,24-24,24c-2.52,0-4.912-0.496-7.192-1.224C333.312,440.304,336,432.472,336,424S333.312,407.696,328.808,401.224z
				 M316,410.784c2.52,3.792,4,8.328,4,13.216s-1.48,9.424-4,13.216c-2.52-3.792-4-8.328-4-13.216S313.48,414.576,316,410.784z
				 M296,400c2.52,0,4.912,0.496,7.192,1.224C298.688,407.696,296,415.528,296,424s2.688,16.304,7.192,22.776
				C300.912,447.504,298.52,448,296,448c-13.232,0-24-10.768-24-24S282.768,400,296,400z"/>
			<path d="M248,272c74.992,0,136-61.008,136-136S322.992,0,248,0S112,61.008,112,136S173.008,272,248,272z M248,16
				c66.168,0,120,53.832,120,120s-53.832,120-120,120s-120-53.832-120-120S181.832,16,248,16z"/>
			<path d="M248,240c57.344,0,104-46.656,104-104S305.344,32,248,32S144,78.656,144,136S190.656,240,248,240z M248,48
				c48.52,0,88,39.48,88,88s-39.48,88-88,88c-48.52,0-88-39.48-88-88S199.48,48,248,48z"/>
			<path d="M240,192v16h16v-16c17.648,0,32-14.352,32-32s-14.352-32-32-32h-16c-8.824,0-16-7.176-16-16c0-8.824,7.176-16,16-16h16
				c8.824,0,16,7.176,16,16v3.432h16V112c0-17.648-14.352-32-32-32V64h-16v16c-17.648,0-32,14.352-32,32s14.352,32,32,32h16
				c8.824,0,16,7.176,16,16c0,8.824-7.176,16-16,16h-16c-8.824,0-16-7.176-16-16v-3.432h-16V160C208,177.648,222.352,192,240,192z"
				/>
			<path d="M24,0C10.768,0,0,10.768,0,24s10.768,24,24,24s24-10.768,24-24S37.232,0,24,0z M24,32c-4.408,0-8-3.584-8-8s3.592-8,8-8
				s8,3.584,8,8S28.408,32,24,32z"/>
			<rect x="16" y="72" width="16" height="16"/>
			<rect x="16" y="120" width="16" height="16"/>
			<rect x="16" y="168" width="16" height="16"/>
			<rect x="16" y="216" width="16" height="16"/>
			<path d="M472,88c-13.232,0-24,10.768-24,24s10.768,24,24,24s24-10.768,24-24S485.232,88,472,88z M472,120c-4.408,0-8-3.584-8-8
				s3.592-8,8-8c4.408,0,8,3.584,8,8S476.408,120,472,120z"/>
			<rect x="464" y="160" width="16" height="16"/>
			<rect x="464" y="208" width="16" height="16"/>
			<rect x="464" y="256" width="16" height="16"/>
			<rect x="464" y="304" width="16" height="16"/>
		</g>
	</g>
</g>
<g>
</g>
<g>
</g>
<g>
</g>
<g>
</g>
<g>
</g>
<g>
</g>
<g>
</g>
<g>
</g>
<g>
</g>
<g>
</g>
<g>
</g>
<g>
</g>
<g>
</g>
<g>
</g>
<g>
</g>
</svg>
