<?xml version="1.0" encoding="iso-8859-1"?>
<!-- Generator: Adobe Illustrator 19.0.0, SVG Export Plug-In . SVG Version: 6.00 Build 0)  -->
<svg version="1.1" id="Capa_1" xmlns="http://www.w3.org/2000/svg" xmlns:xlink="http://www.w3.org/1999/xlink" x="0px" y="0px"
	 viewBox="0 0 512 512" style="enable-background:new 0 0 512 512;" xml:space="preserve">
<g>
	<g>
		<path d="M480,0H32C14.327,0,0,14.327,0,32v298.667c0,17.673,14.327,32,32,32h117.333v-21.333H32
			c-5.891,0-10.667-4.776-10.667-10.667V32c0-5.891,4.776-10.667,10.667-10.667h448c5.891,0,10.667,4.776,10.667,10.667v192H512V32
			C512,14.327,497.673,0,480,0z"/>
	</g>
</g>
<g>
	<g>
		<path d="M128,53.333H64c-5.891,0-10.667,4.776-10.667,10.667v42.667c0,5.891,4.776,10.667,10.667,10.667h64
			c5.891,0,10.667-4.776,10.667-10.667V64C138.667,58.109,133.891,53.333,128,53.333z M117.333,96H74.667V74.667h42.667V96z"/>
	</g>
</g>
<g>
	<g>
		<path d="M352,42.667c-23.564,0-42.667,19.102-42.667,42.667S328.436,128,352,128c23.564,0,42.667-19.103,42.667-42.667
			S375.564,42.667,352,42.667z M352,106.667c-11.782,0-21.333-9.551-21.333-21.333C330.667,73.551,340.218,64,352,64
			s21.333,9.551,21.333,21.333C373.333,97.115,363.782,106.667,352,106.667z"/>
	</g>
</g>
<g>
	<g>
		<path d="M416,42.667c-23.564,0-42.667,19.102-42.667,42.667S392.436,128,416,128c23.564,0,42.667-19.103,42.667-42.667
			S439.564,42.667,416,42.667z M416,106.667c-11.782,0-21.333-9.551-21.333-21.333C394.667,73.551,404.218,64,416,64
			c11.782,0,21.333,9.551,21.333,21.333C437.333,97.115,427.782,106.667,416,106.667z"/>
	</g>
</g>
<g>
	<g>
		<path d="M224,192v-21.333H64c-5.891,0-10.667,4.776-10.667,10.667V224c0,5.891,4.776,10.667,10.667,10.667h106.667v-21.333h-96
			V192H224z"/>
	</g>
</g>
<g>
	<g>
		<rect x="53.333" y="266.667" width="21.333" height="21.333"/>
	</g>
</g>
<g>
	<g>
		<rect x="96" y="266.667" width="21.333" height="21.333"/>
	</g>
</g>
<g>
	<g>
		<path d="M341.333,170.667c-94.257,0-170.667,76.41-170.667,170.667S247.077,512,341.333,512
			c94.21-0.112,170.555-76.456,170.667-170.667C512,247.077,435.59,170.667,341.333,170.667z M341.333,490.667
			C258.859,490.667,192,423.808,192,341.333S258.859,192,341.333,192c82.438,0.088,149.245,66.895,149.333,149.333
			C490.667,423.808,423.808,490.667,341.333,490.667z"/>
	</g>
</g>
<g>
	<g>
		<path d="M384,320v-10.667c0-11.782-9.551-21.333-21.333-21.333H320c-11.782,0-21.333,9.551-21.333,21.333v21.333
			c0,11.782,9.551,21.333,21.333,21.333h42.667v21.333H320v-10.667h-21.333v10.667c0,11.782,9.551,21.333,21.333,21.333h42.667
			c11.782,0,21.333-9.551,21.333-21.333V352c0-11.782-9.551-21.333-21.333-21.333H320v-21.333h42.667V320H384z"/>
	</g>
</g>
<g>
	<g>
		<rect x="330.667" y="266.667" width="21.333" height="32"/>
	</g>
</g>
<g>
	<g>
		<rect x="330.667" y="384" width="21.333" height="32"/>
	</g>
</g>
<g>
	<g>
		<rect x="234.667" y="330.667" width="21.333" height="21.333"/>
	</g>
</g>
<g>
	<g>
		<rect x="426.667" y="330.667" width="21.333" height="21.333"/>
	</g>
</g>
<g>
</g>
<g>
</g>
<g>
</g>
<g>
</g>
<g>
</g>
<g>
</g>
<g>
</g>
<g>
</g>
<g>
</g>
<g>
</g>
<g>
</g>
<g>
</g>
<g>
</g>
<g>
</g>
<g>
</g>
</svg>
