<?xml version="1.0" encoding="iso-8859-1"?>
<!-- Generator: Adobe Illustrator 17.1.0, SVG Export Plug-In . SVG Version: 6.00 Build 0)  -->
<!DOCTYPE svg PUBLIC "-//W3C//DTD SVG 1.1//EN" "http://www.w3.org/Graphics/SVG/1.1/DTD/svg11.dtd">
<svg version="1.1" id="Capa_1" xmlns="http://www.w3.org/2000/svg" xmlns:xlink="http://www.w3.org/1999/xlink" x="0px" y="0px"
	 viewBox="0 0 191.582 191.582" style="enable-background:new 0 0 191.582 191.582;" xml:space="preserve">
<path d="M172.907,174.984H18.674C8.377,174.984,0,166.607,0,156.311V76.62c0-10.297,8.377-18.674,18.674-18.674h25.363V42.182
	c0-1.657,1.343-3,3-3h26.001c0.134-12.476,10.324-22.584,22.832-22.584s22.698,10.108,22.832,22.584h26.001c1.657,0,3,1.343,3,3
	v15.765h25.204c10.297,0,18.674,8.377,18.674,18.674v79.69C191.582,166.607,183.204,174.984,172.907,174.984z M18.674,63.946
	C11.686,63.946,6,69.632,6,76.62v79.69c0,6.988,5.686,12.674,12.674,12.674h154.233c6.989,0,12.674-5.686,12.674-12.674V76.62
	c0-6.988-5.686-12.674-12.674-12.674h-25.204v9.547c0,1.657-1.343,3-3,3H46.878c-1.657,0-3-1.343-3-3v-9.547H18.674z M50.037,70.493
	h91.667V45.182H115.49c-0.868,0-1.693-0.376-2.263-1.03c-0.57-0.655-0.828-1.524-0.708-2.383c0.125-0.903,0.184-1.646,0.184-2.337
	c0-9.282-7.551-16.833-16.833-16.833c-9.282,0-16.833,7.551-16.833,16.833c0,0.69,0.059,1.434,0.184,2.339
	c0.119,0.859-0.14,1.728-0.709,2.382s-1.395,1.03-2.262,1.03H50.037V70.493z M152.3,149.008h-45.193c-1.657,0-3-1.343-3-3
	s1.343-3,3-3H152.3c1.657,0,3,1.343,3,3S153.957,149.008,152.3,149.008z M77.556,149.008H28.868c-1.657,0-3-1.343-3-3v-16.905
	c0-7.674,6.243-13.917,13.917-13.917h4.438c-2.319-2.895-3.747-6.825-3.747-11.147c0-8.875,6.017-16.095,13.414-16.095
	c7.396,0,13.413,7.22,13.413,16.095c0,4.323-1.428,8.253-3.747,11.147h3.084c7.673,0,13.917,6.243,13.917,13.917v16.905
	C80.556,147.665,79.212,149.008,77.556,149.008z M31.868,143.008h42.688v-13.905c0-4.365-3.551-7.917-7.917-7.917H39.785
	c-4.365,0-7.917,3.552-7.917,7.917V143.008z M53.889,93.944c-4.019,0-7.414,4.623-7.414,10.095s3.395,10.094,7.414,10.094
	c4.018,0,7.413-4.623,7.413-10.094S57.907,93.944,53.889,93.944z M141.95,138.598h-34.844c-1.657,0-3-1.343-3-3s1.343-3,3-3h34.844
	c1.657,0,3,1.343,3,3S143.607,138.598,141.95,138.598z M164.955,110.342h-57.849c-1.657,0-3-1.343-3-3s1.343-3,3-3h57.849
	c1.657,0,3,1.343,3,3S166.612,110.342,164.955,110.342z M151.703,100.335h-44.597c-1.657,0-3-1.343-3-3s1.343-3,3-3h44.597
	c1.657,0,3,1.343,3,3S153.36,100.335,151.703,100.335z"/>
<g>
</g>
<g>
</g>
<g>
</g>
<g>
</g>
<g>
</g>
<g>
</g>
<g>
</g>
<g>
</g>
<g>
</g>
<g>
</g>
<g>
</g>
<g>
</g>
<g>
</g>
<g>
</g>
<g>
</g>
</svg>
