<?xml version="1.0"?>
<svg xmlns="http://www.w3.org/2000/svg" viewBox="0 0 64 64"><g id="Exchange-Currency-Credit_card-Cash-Financial" data-name="Exchange-Currency-Credit card-Cash-Financial"><path d="M60,2H32a2,2,0,0,0-2,2V24a2,2,0,0,0,2,2H60a2,2,0,0,0,2-2V4A2,2,0,0,0,60,2Zm0,19H50V20H60ZM32,20H42v1H32Zm12,0h4v4H44Zm16-2H57.142A3.993,3.993,0,0,1,60,15.143Zm0-4.909A6.006,6.006,0,0,0,55.09,18H36.91A6.008,6.008,0,0,0,32,13.09V8.91A6.008,6.008,0,0,0,36.91,4H55.09A6.007,6.007,0,0,0,60,8.91Zm0-6.233A4,4,0,0,1,57.142,4H60ZM34.858,4A4,4,0,0,1,32,6.858V4ZM32,15.126A4.007,4.007,0,0,1,34.859,18H32ZM32,23H42v1H32Zm28,1H50V23H60Z"/><path d="M46,6a5,5,0,1,0,5,5A5.006,5.006,0,0,0,46,6Zm0,8a3,3,0,1,1,3-3A3,3,0,0,1,46,14Z"/><path d="M31,40H5a3,3,0,0,0-3,3V59a3,3,0,0,0,3,3H31a3,3,0,0,0,3-3V43A3,3,0,0,0,31,40ZM5,42H31a1,1,0,0,1,1,1v9H4V43A1,1,0,0,1,5,42ZM32,54v2H4V54Zm-1,6H5a1,1,0,0,1-1-1V58H32v1A1,1,0,0,1,31,60Z"/><path d="M7,50h6a1,1,0,0,0,1-1V45a1,1,0,0,0-1-1H7a1,1,0,0,0-1,1v4A1,1,0,0,0,7,50Zm1-4h4v2H8Z"/><rect x="28" y="45" width="2" height="4"/><rect x="24" y="45" width="2" height="4"/><rect x="20" y="45" width="2" height="4"/><path d="M47.707,30.293a1,1,0,0,0-1.414,0l-4,4A1,1,0,0,0,43,36h1V50H39a1,1,0,0,0-1,1v4a1,1,0,0,0,1,1H49a1,1,0,0,0,1-1V36h1a1,1,0,0,0,.707-1.707ZM48,35V54H40V52h5a1,1,0,0,0,1-1V35a1,1,0,0,0-.649-.937L47,32.414l1.649,1.649A1,1,0,0,0,48,35Z"/><path d="M16.293,35.707a1,1,0,0,0,1.414,0l4-4A1,1,0,0,0,21,30H20V16h5a1,1,0,0,0,1-1V11a1,1,0,0,0-1-1H15a1,1,0,0,0-1,1V30H13a1,1,0,0,0-.707,1.707ZM16,31V12h8v2H19a1,1,0,0,0-1,1V31a1,1,0,0,0,.649.937L17,33.586l-1.649-1.649A1,1,0,0,0,16,31Z"/></g></svg>
