<svg viewBox="0 0 64 64" xmlns="http://www.w3.org/2000/svg"><g id="database_server" data-name="database server"><path d="m43.82 20.01a2.986 2.986 0 0 0 -2.82-2.01h-1v-2h1a3.009 3.009 0 0 0 3-3v-8a3.009 3.009 0 0 0 -3-3h-36a3.009 3.009 0 0 0 -3 3v8a3.009 3.009 0 0 0 3 3h1v2h-1a3.009 3.009 0 0 0 -3 3v8a3.009 3.009 0 0 0 3 3h1v2h-1a3.009 3.009 0 0 0 -3 3v8a3.009 3.009 0 0 0 3 3h19v8c0 3.94 9.56 6 19 6s19-2.06 19-6v-30c0-3.83-9.01-5.87-18.18-5.99zm-38.82-6.01a1 1 0 0 1 -1-1v-8a1 1 0 0 1 1-1h36a1 1 0 0 1 1 1v8a1 1 0 0 1 -1 1zm33 2v2h-4v-2zm-6 0v2h-18v-2zm-20 0v2h-4v-2zm12 30h-19a1 1 0 0 1 -1-1v-8a1 1 0 0 1 1-1h19zm-16-12v-2h4v2zm16 0h-10v-2h10zm0-8v4h-19a1 1 0 0 1 -1-1v-8a1 1 0 0 1 1-1h36a.7.7 0 0 1 .14.03c-8.8.25-17.14 2.29-17.14 5.97zm36 30c0 1.36-6 4-17 4s-17-2.64-17-4v-7.18c3.29 2.09 10.16 3.18 17 3.18s13.71-1.09 17-3.18zm0-10c0 1.36-6 4-17 4s-17-2.64-17-4v-7.18c3.29 2.09 10.16 3.18 17 3.18s13.71-1.09 17-3.18zm0-10c0 1.36-6 4-17 4s-17-2.64-17-4v-7.18c3.29 2.09 10.16 3.18 17 3.18s13.71-1.09 17-3.18zm-17-6c-11 0-17-2.64-17-4s6-4 17-4 17 2.64 17 4-6 4-17 4z"/><path d="m42 35h2v2h-2z"/><path d="m42 46h2v2h-2z"/><path d="m42 55h2v2h-2z"/><path d="m11 22h-4a1 1 0 0 0 -1 1v4a1 1 0 0 0 1 1h4a1 1 0 0 0 1-1v-4a1 1 0 0 0 -1-1zm-1 4h-2v-2h2z"/><path d="m19 22h-4a1 1 0 0 0 -1 1v4a1 1 0 0 0 1 1h4a1 1 0 0 0 1-1v-4a1 1 0 0 0 -1-1zm-1 4h-2v-2h2z"/><path d="m11 6h-4a1 1 0 0 0 -1 1v4a1 1 0 0 0 1 1h4a1 1 0 0 0 1-1v-4a1 1 0 0 0 -1-1zm-1 4h-2v-2h2z"/><path d="m19 6h-4a1 1 0 0 0 -1 1v4a1 1 0 0 0 1 1h4a1 1 0 0 0 1-1v-4a1 1 0 0 0 -1-1zm-1 4h-2v-2h2z"/><path d="m22 6h14v2h-14z"/><path d="m38 6h2v2h-2z"/><path d="m22 10h14v2h-14z"/><path d="m38 10h2v2h-2z"/><path d="m11 38h-4a1 1 0 0 0 -1 1v4a1 1 0 0 0 1 1h4a1 1 0 0 0 1-1v-4a1 1 0 0 0 -1-1zm-1 4h-2v-2h2z"/><path d="m19 38h-4a1 1 0 0 0 -1 1v4a1 1 0 0 0 1 1h4a1 1 0 0 0 1-1v-4a1 1 0 0 0 -1-1zm-1 4h-2v-2h2z"/></g></svg>