<svg id="Layer_5" enable-background="new 0 0 64 64" viewBox="0 0 64 64" xmlns="http://www.w3.org/2000/svg"><g><path d="m43 8c0-2.757 2.243-5 5-5s5 2.243 5 5v5h2v-5c0-3.86-3.141-7-7-7s-7 3.14-7 7v5h2z"/><path d="m3 24c0 .551.448 1 1 1h20c.552 0 1-.449 1-1v-5h-22zm10-3h2v2h-2zm-4 0h2v2h-2zm-4 0h2v2h-2z"/><path d="m24 3h-20c-.552 0-1 .449-1 1v5h22v-5c0-.551-.448-1-1-1zm-17 4h-2v-2h2zm4 0h-2v-2h2zm4 0h-2v-2h2z"/><path d="m3 17h22v-6h-22zm18-4h2v2h-2zm-4 0h2v2h-2zm-4 0h2v2h-2z"/><path d="m54 57h-12v4h-6v2h24v-2h-6z"/><path d="m60 37h-24c-.552 0-1 .448-1 1v11h26v-11c0-.552-.448-1-1-1z"/><path d="m35 54c0 .552.448 1 1 1h4 16 4c.552 0 1-.448 1-1v-3h-26z"/><path d="m48 29c4.411 0 8-3.589 8-8v-5c0-.551-.448-1-1-1h-14c-.552 0-1 .449-1 1v5c0 4.411 3.589 8 8 8zm0-12c1.654 0 3 1.346 3 3 0 1.302-.839 2.402-2 2.816v4.184h-2v-4.184c-1.161-.414-2-1.514-2-2.816 0-1.654 1.346-3 3-3z"/><circle cx="22" cy="36" r="3"/><path d="m17 36h-2c0 3.859 3.141 7 7 7v-2c-2.757 0-5-2.243-5-5z"/><path d="m13 36h-2c0 6.065 4.935 11 11 11v-2c-4.963 0-9-4.037-9-9z"/><path d="m9 36h-2c0 8.271 6.729 15 15 15v-2c-7.168 0-13-5.832-13-13z"/><path d="m47 30.949v4.051h2v-4.051c-.329.033-.662.051-1 .051s-.671-.018-1-.051z"/><path d="m27 19h11v2h-11z"/></g></svg>