<svg viewBox="-72 0 480 480" xmlns="http://www.w3.org/2000/svg"><path d="m312 0h-288c-13.601562 0-24 10.398438-24 24v432c0 13.601562 10.398438 24 24 24h219.199219l92.800781-92.800781v-363.199219c0-13.601562-10.398438-24-24-24zm8 380.800781-72 72v-52.800781c0-4.800781 3.199219-8 8-8h40v-16h-40c-13.601562 0-24 10.398438-24 24v64h-208c-4.800781 0-8-3.199219-8-8v-432c0-4.800781 3.199219-8 8-8h288c4.800781 0 8 3.199219 8 8zm0 0"/><path d="m120 48h96v16h-96zm0 0"/><path d="m64 264h208v16h-208zm0 0"/><path d="m64 304h208v16h-208zm0 0"/><path d="m64 344h208v16h-208zm0 0"/><path d="m64 384h136v16h-136zm0 0"/><path d="m240 212.800781v-97.601562l-72-36-72 36v97.601562l72 36zm-72-62.402343-20-12 48-27.199219 20 9.601562zm10.398438-48-45.597657 26.402343-12.800781-8 48-24zm-66.398438 32 48 29.601562v46.398438h16v-46.398438l48-29.601562v68.800781l-56 28-56-28zm0 0"/></svg>