<svg viewBox="0 0 64 64" xmlns="http://www.w3.org/2000/svg"><g id="device_setting" data-name="device setting"><path d="m61.76 54.35a1.011 1.011 0 0 0 -.76-.35h-1v-33a3.009 3.009 0 0 0 -3-3h-7v-1a1 1 0 0 0 -.84-.99l-3.95-.66a13.338 13.338 0 0 0 -.59-1.4l2.34-3.27a1 1 0 0 0 -.11-1.29l-4.24-4.24a1 1 0 0 0 -1.29-.11l-3.27 2.34a13.338 13.338 0 0 0 -1.4-.59l-.66-3.95a1 1 0 0 0 -.99-.84h-6a1 1 0 0 0 -.99.84l-.66 3.95a13.338 13.338 0 0 0 -1.4.59l-3.27-2.34a1 1 0 0 0 -1.29.11l-4.24 4.24a1 1 0 0 0 -.11 1.29l2.34 3.27a13.338 13.338 0 0 0 -.59 1.4l-3.95.66a1 1 0 0 0 -.84.99v1h-7a3.009 3.009 0 0 0 -3 3v33h-1a1 1 0 0 0 -.99 1.16l.73 4.33a2.978 2.978 0 0 0 2.95 2.51h52.62a2.978 2.978 0 0 0 2.95-2.51l.73-4.33a1 1 0 0 0 -.23-.81zm-45.76-36.5 3.72-.62a1 1 0 0 0 .79-.7 12.564 12.564 0 0 1 .91-2.2 1 1 0 0 0 -.06-1.05l-2.2-3.07 3.05-3.05 3.07 2.2a1 1 0 0 0 1.05.06 12.89 12.89 0 0 1 2.2-.91 1.012 1.012 0 0 0 .7-.79l.62-3.72h4.3l.62 3.72a1.012 1.012 0 0 0 .7.79 12.89 12.89 0 0 1 2.2.91 1 1 0 0 0 1.05-.06l3.07-2.2 3.05 3.05-2.2 3.07a1 1 0 0 0 -.06 1.05 12.564 12.564 0 0 1 .91 2.2 1 1 0 0 0 .79.7l3.72.62v4.3l-3.72.62a1 1 0 0 0 -.79.7 13.233 13.233 0 0 1 -.91 2.2 1 1 0 0 0 .06 1.05l2.2 3.07-3.05 3.05-3.07-2.2a1 1 0 0 0 -1.05-.06 12.89 12.89 0 0 1 -2.2.91 1.012 1.012 0 0 0 -.7.79l-.62 3.72h-4.3l-.62-3.72a1.012 1.012 0 0 0 -.7-.79 12.89 12.89 0 0 1 -2.2-.91 1 1 0 0 0 -1.05.06l-3.07 2.2-3.05-3.05 2.2-3.07a1 1 0 0 0 .06-1.05 13.233 13.233 0 0 1 -.91-2.2 1 1 0 0 0 -.79-.7l-3.72-.62zm-10 3.15a1 1 0 0 1 1-1h7v3a1 1 0 0 0 .84.99l3.95.66a13.338 13.338 0 0 0 .59 1.4l-2.34 3.27a1 1 0 0 0 .11 1.29l4.24 4.24a1 1 0 0 0 1.29.11l3.27-2.34a13.338 13.338 0 0 0 1.4.59l.66 3.95a1 1 0 0 0 .99.84h6a1 1 0 0 0 .99-.84l.66-3.95a13.338 13.338 0 0 0 1.4-.59l3.27 2.34a1 1 0 0 0 1.29-.11l4.24-4.24a1 1 0 0 0 .11-1.29l-2.34-3.27a13.338 13.338 0 0 0 .59-1.4l3.95-.66a1 1 0 0 0 .84-.99v-3h7a1 1 0 0 1 1 1v33h-22a1 1 0 0 0 -1 1v1h-6v-1a1 1 0 0 0 -1-1h-22zm53.29 38.16a.989.989 0 0 1 -.98.84h-52.62a.989.989 0 0 1 -.98-.84l-.53-3.16h22.82v1a1 1 0 0 0 1 1h8a1 1 0 0 0 1-1v-1h22.82z"/><path d="m26.293 26.707 1.414-1.414-5.293-5.293 5.293-5.293-1.414-1.414-6 6a1 1 0 0 0 0 1.414z"/><path d="m37.707 26.707 6-6a1 1 0 0 0 0-1.414l-6-6-1.414 1.414 5.293 5.293-5.293 5.293z"/><path d="m22.513 19h18.974v1.999h-18.974z" transform="matrix(.317 -.949 .949 .317 2.9 44.024)"/><path d="m14 46h4v2h-4z"/><path d="m8 46h4v2h-4z"/><path d="m8 50h14v2h-14z"/><path d="m8 42h6v2h-6z"/><path d="m8 38h6v2h-6z"/><path d="m46 46h4v2h-4z"/><path d="m52 46h4v2h-4z"/><path d="m42 50h14v2h-14z"/><path d="m50 42h6v2h-6z"/><path d="m50 38h6v2h-6z"/></g></svg>