<?xml version="1.0" encoding="iso-8859-1"?>
<!-- Generator: Adobe Illustrator 19.0.0, SVG Export Plug-In . SVG Version: 6.00 Build 0)  -->
<svg version="1.1" id="Capa_1" xmlns="http://www.w3.org/2000/svg" xmlns:xlink="http://www.w3.org/1999/xlink" x="0px" y="0px"
	 viewBox="0 0 408.582 408.582" style="enable-background:new 0 0 408.582 408.582;" xml:space="preserve">
<g>
	<g>
		<g>
			<path d="M243.475,132.729c-9.233,0-16.718,7.485-16.718,16.718c0,9.233,7.485,16.718,16.718,16.718
				c9.118-0.272,16.446-7.6,16.718-16.718C260.193,140.214,252.708,132.729,243.475,132.729z"/>
			<path d="M165.107,87.798c9.233,0.004,16.722-7.478,16.726-16.711s-7.478-16.722-16.711-16.726c-0.005,0-0.01,0-0.015,0
				c-9.233,0.004-16.715,7.492-16.711,16.726C148.4,80.315,155.88,87.794,165.107,87.798z"/>
			<path d="M331.768,0.027H76.813C64.305-0.571,53.62,8.953,52.781,21.447v379.82l35.526-31.869
				c2.549-2.381,5.916-3.691,9.404-3.657c3.232-0.004,6.368,1.103,8.882,3.135l44.408,39.706l44.408-39.706
				c5.183-4.717,13.103-4.717,18.286,0l43.886,39.706l44.408-39.706c5.22-4.836,13.35-4.604,18.286,0.522l35.527,31.869V21.447
				C354.962,8.953,344.276-0.571,331.768,0.027z M267.507,47.047c2.614,3.385,2.614,8.108,0,11.494L155.703,169.823
				c-1.501,1.588-3.563,2.526-5.747,2.612c-2.029-0.107-3.921-1.054-5.225-2.612c-3.03-2.672-3.32-7.294-0.648-10.324
				c0.202-0.229,0.419-0.446,0.648-0.648L256.013,47.047C259.399,44.433,264.122,44.433,267.507,47.047z M275.866,149.447
				c0,17.89-14.502,32.392-32.392,32.392s-32.392-14.502-32.392-32.392s14.502-32.392,32.392-32.392
				S275.866,131.557,275.866,149.447z M165.107,38.688c17.889,0,32.392,14.502,32.392,32.392c0,17.889-14.502,32.392-32.392,32.392
				c-17.89,0-32.392-14.502-32.392-32.392C132.715,53.19,147.218,38.688,165.107,38.688z M109.728,219.455h96.653
				c4.328,0,7.837,3.509,7.837,7.837s-3.509,7.837-7.837,7.837h-96.653c-4.328,0-7.837-3.509-7.837-7.837
				S105.4,219.455,109.728,219.455z M298.854,329.169H109.728c-4.328,0-7.837-3.509-7.837-7.837s3.509-7.837,7.837-7.837h189.127
				c4.328,0,7.837,3.509,7.837,7.837S303.182,329.169,298.854,329.169z M298.854,282.149H109.728c-4.328,0-7.837-3.509-7.837-7.837
				c0-4.328,3.509-7.837,7.837-7.837h189.127c4.328,0,7.837,3.509,7.837,7.837C306.691,278.64,303.182,282.149,298.854,282.149z"/>
		</g>
	</g>
</g>
<g>
</g>
<g>
</g>
<g>
</g>
<g>
</g>
<g>
</g>
<g>
</g>
<g>
</g>
<g>
</g>
<g>
</g>
<g>
</g>
<g>
</g>
<g>
</g>
<g>
</g>
<g>
</g>
<g>
</g>
</svg>
