<svg id="Capa_1" enable-background="new 0 0 512 512" viewBox="0 0 512 512" xmlns="http://www.w3.org/2000/svg"><g><circle cx="296" cy="180" r="10"/><circle cx="216" cy="180" r="10"/><path d="m256 280c16.919 0 32.077-10.716 37.718-26.666 1.841-5.207-.887-10.921-6.094-12.762-5.204-1.839-10.92.887-12.762 6.094-2.82 7.976-10.401 13.334-18.862 13.334s-16.042-5.358-18.862-13.334c-1.841-5.207-7.555-7.933-12.762-6.094-5.207 1.841-7.935 7.555-6.094 12.762 5.641 15.95 20.799 26.666 37.718 26.666z"/><circle cx="356" cy="502" r="10"/><path d="m401 492c-5.523 0-10 4.478-10 10s4.477 10 10 10h35c5.523 0 10-4.478 10-10v-82.62c0-44.821-32.988-82.764-77.272-89.089l-40.178-5.739c-10.884-1.564-19.804-9.758-22.017-20.775 21.077-13.864 40.294-36.153 54.946-63.777h4.521c22.056 0 40-17.944 40-40 0-14.95-8.532-28.523-21.5-35.316 0 0 1.5-34.539 1.5-34.684 0-71.683-58.318-130-130-130s-130 58.317-130 130c0 .145.003.29.009.435l1.49 34.249c-12.967 6.793-21.499 20.366-21.499 35.316 0 22.056 17.944 40 40 40h4.521c14.653 27.626 33.871 49.915 54.946 63.777-2.199 10.938-11.082 19.203-22.009 20.774l-40.182 5.74c-44.363 6.335-77.276 44.343-77.276 89.089v82.62c0 5.522 4.477 10 10 10h235c5.523 0 10-4.478 10-10s-4.477-10-10-10h-45v-78.493l55.902-69.887c1.257.288 2.526.545 3.815.729l20.283 2.898v66.473c-11.639 4.128-20 15.243-20 28.28 0 16.542 13.458 30 30 30s30-13.458 30-30c0-13.036-8.361-24.152-20-28.28v-63.613c34.213 4.939 60 34.7 60 69.273v72.62zm-145-98.009-47.404-59.263c6.955-5.527 12.147-12.932 14.975-21.327 10.672 4.377 21.533 6.599 32.429 6.599s21.756-2.223 32.428-6.598c2.83 8.402 8.023 15.811 14.974 21.334zm0-373.991c60.584 0 109.886 49.229 110 109.787l-1.241 28.512c-10.924-3.972-18.759-14.467-18.759-26.729v-1.57c0-5.522-4.477-10-10-10h-35.26c-23.785 0-45.165-13.209-55.796-34.472-2.074-4.148-6.73-6.324-11.242-5.261-4.513 1.066-7.702 5.095-7.702 9.733 0 16.542-13.458 30-30 30h-20c-5.523 0-10 4.478-10 10v1.57c0 12.268-7.844 22.768-18.756 26.735l-1.244-28.518c.114-60.558 49.416-109.787 110-109.787zm-90.41 205.559c-1.688-3.404-5.16-5.559-8.96-5.559h-10.63c-11.028 0-20-8.972-20-20 0-15.925 15.177-18.996 17.248-20.343 21.231-2.498 38.33-18.814 42.015-39.657h10.737c19.084 0 35.706-10.748 44.13-26.508 15.334 16.719 37.08 26.508 60.61 26.508h25.997c3.683 20.828 20.766 37.137 42.008 39.652 2.015 1.314 17.255 4.494 17.255 20.348 0 11.028-8.972 20-20 20h-10.63c-3.8 0-7.272 2.154-8.96 5.559-17.597 35.501-50.753 74.441-90.41 74.441-39.542 0-72.545-38.398-90.41-74.441zm-79.59 266.441v-72.62c0-34.572 25.785-64.331 60-69.272v30.898c-22.795 4.646-40 24.847-40 48.994v32c0 5.522 4.477 10 10 10h20c5.523 0 10-4.478 10-10s-4.477-10-10-10h-10v-22c0-16.542 13.458-30 30-30s30 13.458 30 30v22h-10c-5.523 0-10 4.478-10 10s4.477 10 10 10h20c5.523 0 10-4.478 10-10v-32c0-24.146-17.205-44.348-40-48.994v-33.758l20.29-2.899c1.286-.185 2.552-.44 3.805-.727l55.905 69.885v78.493zm270-40c-5.514 0-10-4.486-10-10s4.486-10 10-10 10 4.486 10 10-4.486 10-10 10z"/></g></svg>