<?xml version="1.0" encoding="iso-8859-1"?>
<!-- Generator: Adobe Illustrator 19.0.0, SVG Export Plug-In . SVG Version: 6.00 Build 0)  -->
<svg version="1.1" id="Capa_1" xmlns="http://www.w3.org/2000/svg" xmlns:xlink="http://www.w3.org/1999/xlink" x="0px" y="0px"
	 viewBox="0 0 512 512" style="enable-background:new 0 0 512 512;" xml:space="preserve">
<g>
	<g>
		<path d="M493.792,408.452l-35.125,35.125l-35.125-35.125l-15.083,15.083l42.667,42.667c2,2.001,4.713,3.125,7.541,3.125
			c2.829-0.001,5.541-1.125,7.541-3.125l42.667-42.667L493.792,408.452z"/>
	</g>
</g>
<g>
	<g>
		<path d="M437.333,351.993H330.667v21.333h106.667c0.634-0.062,1.273-0.062,1.907,0c5.365,0.526,9.287,5.302,8.76,10.667v74.667
			h21.333v-74.667c0.018-0.606,0.018-1.213,0-1.819C468.831,365.004,454.504,351.491,437.333,351.993z"/>
	</g>
</g>
<g>
	<g>
		<path d="M306.208,387.119c-4.165-4.164-10.917-4.164-15.083,0l-42.667,42.667l15.083,15.083l35.125-35.125l35.125,35.125
			l15.083-15.083L306.208,387.119z"/>
	</g>
</g>
<g>
	<g>
		<path d="M320,479.993c-0.634,0.062-1.273,0.062-1.907,0c-5.365-0.526-9.286-5.302-8.76-10.667V394.66H288v74.667
			c-0.018,0.606-0.018,1.213,0,1.819c0.502,17.171,14.829,30.684,32,30.181h106.667v-21.333H320z"/>
	</g>
</g>
<g>
	<g>
		<path d="M32,426.66c-5.891,0-10.667-4.776-10.667-10.667V117.327c0-5.891,4.776-10.667,10.667-10.667V85.327
			c-17.673,0-32,14.327-32,32v298.667c0,17.673,14.327,32,32,32h192V426.66H32z"/>
	</g>
</g>
<g>
	<g>
		<path d="M480,85.327H330.667v21.333H480c5.891,0,10.667,4.776,10.667,10.667v266.667H512V117.327
			C512,99.653,497.673,85.327,480,85.327z"/>
	</g>
</g>
<g>
	<g>
		<path d="M352,127.993v21.333c11.782,0,21.333,9.551,21.333,21.333c0,11.782-9.551,21.333-21.333,21.333v21.333
			c23.564,0,42.667-19.102,42.667-42.667S375.564,127.993,352,127.993z"/>
	</g>
</g>
<g>
	<g>
		<path d="M416,127.993c-23.564,0-42.667,19.103-42.667,42.667s19.102,42.667,42.667,42.667c23.564,0,42.667-19.102,42.667-42.667
			S439.564,127.993,416,127.993z M416,191.993c-11.782,0-21.333-9.551-21.333-21.333c0-11.782,9.551-21.333,21.333-21.333
			c11.782,0,21.333,9.551,21.333,21.333C437.333,182.442,427.782,191.993,416,191.993z"/>
	</g>
</g>
<g>
	<g>
		<path d="M448,255.993H266.667v21.333h170.667v21.333H74.667v-21.333H96v-21.333H64c-5.891,0-10.667,4.776-10.667,10.667v42.667
			c0,5.891,4.776,10.667,10.667,10.667h384c5.891,0,10.667-4.776,10.667-10.667V266.66C458.667,260.769,453.891,255.993,448,255.993
			z"/>
	</g>
</g>
<g>
	<g>
		<rect x="53.333" y="351.993" width="21.333" height="21.333"/>
	</g>
</g>
<g>
	<g>
		<rect x="96" y="351.993" width="21.333" height="21.333"/>
	</g>
</g>
<g>
	<g>
		<rect x="138.667" y="351.993" width="128" height="21.333"/>
	</g>
</g>
<g>
	<g>
		<path d="M224,117.327V106.66c0-11.782-9.551-21.333-21.333-21.333H160c-11.782,0-21.333,9.551-21.333,21.333v21.333
			c0,11.782,9.551,21.333,21.333,21.333h42.667v21.333H160v-10.667h-21.333v10.667c0,11.782,9.551,21.333,21.333,21.333h42.667
			c11.782,0,21.333-9.551,21.333-21.333v-21.333c0-11.782-9.551-21.333-21.333-21.333H160V106.66h42.667v10.667H224z"/>
	</g>
</g>
<g>
	<g>
		<rect x="170.667" y="63.993" width="21.333" height="32"/>
	</g>
</g>
<g>
	<g>
		<rect x="170.667" y="181.327" width="21.333" height="32"/>
	</g>
</g>
<g>
	<g>
		<path d="M181.333,10.66c-70.692,0-128,57.308-128,128s57.308,128,128,128c70.661-0.076,127.924-57.339,128-128
			C309.333,67.967,252.026,10.66,181.333,10.66z M181.333,245.327c-58.91,0-106.667-47.756-106.667-106.667
			c0-58.91,47.756-106.667,106.667-106.667C240.217,32.058,287.935,79.776,288,138.66C288,197.57,240.244,245.327,181.333,245.327z"
			/>
	</g>
</g>
<g>
</g>
<g>
</g>
<g>
</g>
<g>
</g>
<g>
</g>
<g>
</g>
<g>
</g>
<g>
</g>
<g>
</g>
<g>
</g>
<g>
</g>
<g>
</g>
<g>
</g>
<g>
</g>
<g>
</g>
</svg>
