<?xml version="1.0" encoding="iso-8859-1"?>
<!-- Generator: Adobe Illustrator 19.0.0, SVG Export Plug-In . SVG Version: 6.00 Build 0)  -->
<svg version="1.1" id="Layer_1" xmlns="http://www.w3.org/2000/svg" xmlns:xlink="http://www.w3.org/1999/xlink" x="0px" y="0px"
	 viewBox="0 0 485 485" style="enable-background:new 0 0 485 485;" xml:space="preserve">
<g>
	<path d="M425,218.87V27.514H0v315.542h227.015c7.458,64.327,62.261,114.43,128.555,114.43c71.368,0,129.43-58.062,129.43-129.43
		C485,282.218,461.046,241.872,425,218.87z M355.57,198.627c-19.216,0-37.464,4.215-53.877,11.76l-27.888-25.102L395,76.197v128.578
		C382.562,200.788,369.315,198.627,355.57,198.627z M212.5,200.104L54.086,57.514h316.828L212.5,200.104z M151.195,185.285
		L30,294.373V76.197L151.195,185.285z M173.616,205.467l38.884,35l38.885-35l23.684,21.318
		c-26.104,20.793-44.016,51.446-48.053,86.271H54.086L173.616,205.467z M355.57,427.486c-54.826,0-99.43-44.604-99.43-99.43
		s44.604-99.429,99.43-99.429S455,273.23,455,328.056S410.396,427.486,355.57,427.486z"/>
	<polygon points="375.878,297.389 355.57,262.098 335.263,297.389 295.423,305.797 322.712,336.016 318.397,376.503 355.57,359.889 
		392.743,376.503 388.429,336.016 415.718,305.797 	"/>
</g>
<g>
</g>
<g>
</g>
<g>
</g>
<g>
</g>
<g>
</g>
<g>
</g>
<g>
</g>
<g>
</g>
<g>
</g>
<g>
</g>
<g>
</g>
<g>
</g>
<g>
</g>
<g>
</g>
<g>
</g>
</svg>
