<?xml version="1.0" encoding="iso-8859-1"?>
<!-- Generator: Adobe Illustrator 19.0.0, SVG Export Plug-In . SVG Version: 6.00 Build 0)  -->
<svg version="1.1" id="Capa_1" xmlns="http://www.w3.org/2000/svg" xmlns:xlink="http://www.w3.org/1999/xlink" x="0px" y="0px"
	 viewBox="0 0 485 485" style="enable-background:new 0 0 485 485;" xml:space="preserve">
<g>
	<path d="M330.707,169.458l50.22-55.028H321.93V0H163.07v114.43h-58.997l50.22,55.028H30V485h425V169.458H330.707z M181.194,327.229
		L60,436.317V218.141L181.194,327.229z M203.615,347.41l38.885,35l38.884-35L400.914,455H84.086L203.615,347.41z M303.805,327.229
		L425,218.141v218.176L303.805,327.229z M193.07,30h98.859v114.43h21.003L242.5,221.607l-70.433-77.177h21.003V30z M242.5,266.111
		l60.829-66.653h97.585L242.5,342.047L84.086,199.458h97.585L242.5,266.111z"/>
</g>
<g>
</g>
<g>
</g>
<g>
</g>
<g>
</g>
<g>
</g>
<g>
</g>
<g>
</g>
<g>
</g>
<g>
</g>
<g>
</g>
<g>
</g>
<g>
</g>
<g>
</g>
<g>
</g>
<g>
</g>
</svg>
