<?xml version="1.0" encoding="iso-8859-1"?>
<!-- Generator: Adobe Illustrator 19.0.0, SVG Export Plug-In . SVG Version: 6.00 Build 0)  -->
<svg version="1.1" id="Layer_1" xmlns="http://www.w3.org/2000/svg" xmlns:xlink="http://www.w3.org/1999/xlink" x="0px" y="0px"
	 viewBox="0 0 485 485" style="enable-background:new 0 0 485 485;" xml:space="preserve">
<g>
	<path d="M449.791,286.649v-29.011c0-19.788-9.8-37.319-24.791-48.03V27.514H0v315.542h296.56v114.43H485V286.649H449.791z
		 M361.769,286.649v-29.011c0-15.997,13.014-29.011,29.011-29.011s29.012,13.014,29.012,29.011v29.011H361.769z M390.779,198.627
		c-26.364,0-48.741,17.38-56.286,41.284l-60.688-54.626L395,76.197v122.597C393.604,198.695,392.2,198.627,390.779,198.627z
		 M151.195,185.285L30,294.373V76.197L151.195,185.285z M54.086,57.514h316.828L212.5,200.104L54.086,57.514z M54.086,313.056
		l119.53-107.589l38.884,35l38.885-35l80.384,72.355v8.828H296.56v26.407H54.086z M455,427.486H326.56V316.649H455V427.486z"/>
</g>
<g>
</g>
<g>
</g>
<g>
</g>
<g>
</g>
<g>
</g>
<g>
</g>
<g>
</g>
<g>
</g>
<g>
</g>
<g>
</g>
<g>
</g>
<g>
</g>
<g>
</g>
<g>
</g>
<g>
</g>
</svg>
