<?xml version="1.0" encoding="iso-8859-1"?>
<!-- Generator: Adobe Illustrator 19.0.0, SVG Export Plug-In . SVG Version: 6.00 Build 0)  -->
<svg version="1.1" id="Layer_1" xmlns="http://www.w3.org/2000/svg" xmlns:xlink="http://www.w3.org/1999/xlink" x="0px" y="0px"
	 viewBox="0 0 496.399 496.399" style="enable-background:new 0 0 496.399 496.399;" xml:space="preserve">
<g>
	<path d="M496.399,439.776l-71.349-71.349C437.579,351.541,445,330.65,445,308.057c0-22.624-7.441-43.542-20-60.44V35.411H0v315.542
		h251.455c16.197,34.604,51.348,58.637,92.012,58.637c22.594,0,43.485-7.421,60.371-19.95l71.349,71.349L496.399,439.776z
		 M299.673,216.465l-25.867-23.283L395,84.094v136.514c-15.116-8.942-32.734-14.083-51.533-14.083
		C327.794,206.524,312.939,210.096,299.673,216.465z M151.194,193.182L30,302.269V84.094L151.194,193.182z M54.086,65.411h316.828
		L212.5,208L54.086,65.411z M241.934,308.057c0,4.368,0.277,8.672,0.815,12.896H54.086l119.53-107.589l38.884,35l38.884-35
		l22.813,20.534C254.358,252.44,241.934,278.823,241.934,308.057z M343.467,379.59c-39.443,0-71.533-32.09-71.533-71.533
		s32.089-71.533,71.533-71.533S415,268.613,415,308.057S382.91,379.59,343.467,379.59z"/>
</g>
<g>
</g>
<g>
</g>
<g>
</g>
<g>
</g>
<g>
</g>
<g>
</g>
<g>
</g>
<g>
</g>
<g>
</g>
<g>
</g>
<g>
</g>
<g>
</g>
<g>
</g>
<g>
</g>
<g>
</g>
</svg>
