<?xml version="1.0" encoding="iso-8859-1"?>
<!-- Generator: Adobe Illustrator 19.0.0, SVG Export Plug-In . SVG Version: 6.00 Build 0)  -->
<svg version="1.1" id="Layer_1" xmlns="http://www.w3.org/2000/svg" xmlns:xlink="http://www.w3.org/1999/xlink" x="0px" y="0px"
	 viewBox="0 0 485 485" style="enable-background:new 0 0 485 485;" xml:space="preserve">
<g>
	<path d="M425,199.546V27.514H0v315.542h285.592v14.726c0,54.977,44.728,99.704,99.704,99.704S485,412.759,485,357.782v-87.686
		C485,234.592,458.975,205.051,425,199.546z M345.1,249.458l-71.294-64.173L395,76.197v124.865
		C371.164,207.466,352.213,225.918,345.1,249.458z M151.195,185.285L30,294.373V76.197L151.195,185.285z M54.086,57.514h316.828
		L212.5,200.104L54.086,57.514z M455,357.782c0,38.435-31.27,69.704-69.704,69.704s-69.704-31.269-69.704-69.704v-44.726H54.086
		l119.53-107.589l38.884,35l38.885-35l90.676,81.618v70.698c0,23.839,19.396,43.234,43.235,43.234s43.234-19.395,43.234-43.234
		v-87.687h-30v87.687c0,7.297-5.937,13.234-13.234,13.234s-13.235-5.937-13.235-13.234v-87.687c0-22.866,18.604-41.469,41.47-41.469
		S455,247.23,455,270.096V357.782z"/>
</g>
<g>
</g>
<g>
</g>
<g>
</g>
<g>
</g>
<g>
</g>
<g>
</g>
<g>
</g>
<g>
</g>
<g>
</g>
<g>
</g>
<g>
</g>
<g>
</g>
<g>
</g>
<g>
</g>
<g>
</g>
</svg>
