<?xml version="1.0" encoding="iso-8859-1"?>
<!-- Generator: Adobe Illustrator 19.0.0, SVG Export Plug-In . SVG Version: 6.00 Build 0)  -->
<svg version="1.1" id="Capa_1" xmlns="http://www.w3.org/2000/svg" xmlns:xlink="http://www.w3.org/1999/xlink" x="0px" y="0px"
	 viewBox="0 0 492.252 492.252" style="enable-background:new 0 0 492.252 492.252;" xml:space="preserve">
<g>
	<path d="M325.556,176.71v-25.028h58.996L246.126,0L107.7,151.682h58.996v25.028H33.626v315.542h425V176.71H325.556z
		 M184.82,334.481L63.626,443.569V225.393L184.82,334.481z M207.241,354.662l38.885,35l38.884-35l119.53,107.589H87.712
		L207.241,354.662z M307.431,334.481l121.195-109.088v218.176L307.431,334.481z M175.693,121.682l70.433-77.178l70.433,77.178
		h-21.003v114.429h-98.859V121.682H175.693z M325.556,266.111V206.71h78.984L246.126,349.299L87.712,206.71h78.984v59.401
		L325.556,266.111L325.556,266.111z"/>
</g>
<g>
</g>
<g>
</g>
<g>
</g>
<g>
</g>
<g>
</g>
<g>
</g>
<g>
</g>
<g>
</g>
<g>
</g>
<g>
</g>
<g>
</g>
<g>
</g>
<g>
</g>
<g>
</g>
<g>
</g>
</svg>
