<svg id="Layer_1" enable-background="new 0 0 512 512" viewBox="0 0 512 512" xmlns="http://www.w3.org/2000/svg"><path d="m436 0s-359.969 0-360 0c-5.441 0-10 4.56-10 10v492c0 5.397 4.616 10 10 10h360c5.434 0 10-4.569 10-10v-48c0-5.51-4.49-10-10-10s-10 4.49-10 10v38h-340v-472h340v344c0 5.51 4.49 10 10 10s10-4.49 10-10.01c0 0 0-353.877 0-353.99 0-5-5-10-10-10z"/><circle cx="436" cy="409" r="10"/><path d="m226 422c0 5.523 4.477 10 10 10h125c5.522 0 10-4.477 10-10s-4.478-10-10-10h-125c-5.523 0-10 4.477-10 10z"/><path d="m361 312h-125c-5.523 0-10 4.477-10 10s4.477 10 10 10h125c5.522 0 10-4.477 10-10s-4.478-10-10-10z"/><path d="m236 242h20c5.51 0 10-4.49 10-10s-4.49-10-10-10h-20c-5.51 0-10 4.49-10 10s4.49 10 10 10z"/><circle cx="301" cy="232" r="10"/><path d="m361 182h-125c-5.523 0-10 4.477-10 10s4.477 10 10 10h125c5.522 0 10-4.477 10-10s-4.478-10-10-10z"/><path d="m361 72h-125c-5.523 0-10 4.477-10 10s4.477 10 10 10h125c5.522 0 10-4.477 10-10s-4.478-10-10-10z"/><path d="m166 82c0-16.542-13.458-30-30-30s-30 13.458-30 30c0 13.036 8.361 24.152 20 28.28v53.44c-11.639 4.128-20 15.243-20 28.28s8.361 24.152 20 28.28v63.44c-11.639 4.128-20 15.243-20 28.28s8.361 24.152 20 28.28v53.44c-11.639 4.128-20 15.243-20 28.28 0 16.542 13.458 30 30 30s30-13.458 30-30c0-13.036-8.361-24.152-20-28.28v-53.44c11.639-4.128 20-15.243 20-28.28s-8.361-24.152-20-28.28v-63.44c11.639-4.128 20-15.243 20-28.28s-8.361-24.152-20-28.28v-53.44c11.639-4.128 20-15.244 20-28.28zm-30-10c5.514 0 10 4.486 10 10s-4.486 10-10 10-10-4.486-10-10 4.486-10 10-10zm0 360c-5.514 0-10-4.486-10-10s4.486-10 10-10 10 4.486 10 10-4.486 10-10 10zm0-110c-5.514 0-10-4.486-10-10s4.486-10 10-10 10 4.486 10 10-4.486 10-10 10zm0-120c-5.514 0-10-4.486-10-10s4.486-10 10-10 10 4.486 10 10-4.486 10-10 10z"/></svg>