<svg id="Layer_1" enable-background="new 0 0 512.001 512.001" viewBox="0 0 512.001 512.001" xmlns="http://www.w3.org/2000/svg"><g><g><path d="m452.647 193.635 58.744-160.527c.967-2.641.776-5.566-.524-8.061-1.3-2.493-3.59-4.324-6.309-5.043-80.678-21.343-156.81-10.463-230.442.057-69.378 9.913-141.053 20.145-215.326 1.842-3.525-12.617-15.116-21.902-28.842-21.902-16.513 0-29.948 13.435-29.948 29.949v452.103c0 16.514 13.436 29.948 29.949 29.948s29.948-13.435 29.948-29.948v-111.397c29.689 6.779 58.748 9.333 87.3 9.332 44.352-.001 87.474-6.161 129.756-12.202 74.947-10.707 145.738-20.823 222.49-.521 3.605.956 7.437-.175 9.947-2.93 2.511-2.753 3.282-6.675 2.001-10.174zm-178.531 154.353c-69.034 9.864-140.34 20.049-214.219 2.119v-111.267c0-5.522-4.478-10-10-10s-10 4.478-10 10v243.213c0 5.485-4.463 9.948-9.949 9.948-5.485 0-9.948-4.463-9.948-9.948v-452.103c0-5.486 4.463-9.949 9.949-9.949 5.485 0 9.948 4.463 9.948 9.949v118.89c0 5.522 4.478 10 10 10s10-4.478 10-10v-106.128c75.811 17.308 147.555 7.078 217.056-2.853 71.467-10.211 139.147-19.883 211.826-3.157l-56.171 153.497c-.813 2.219-.813 4.654 0 6.873l53.624 146.535c-73.915-15.364-144.083-5.34-212.116 4.381z"/><path d="m252.953 83.848h-.008c-5.522 0-9.996 4.478-9.996 10s4.481 10 10.004 10 10-4.478 10-10-4.477-10-10-10z"/><path d="m199.014 98.052-.007.003c-5.076 2.176-7.424 8.053-5.249 13.129 1.625 3.792 5.317 6.063 9.198 6.063 1.314 0 2.651-.261 3.937-.812 5.076-2.176 7.428-8.055 5.252-13.131s-8.055-7.43-13.131-5.252z"/><path d="m170.288 134.653c-5.078-2.177-10.955.176-13.131 5.252l-.003.007c-2.176 5.076.178 10.952 5.254 13.128 1.283.55 2.618.811 3.932.811 3.882 0 7.575-2.274 9.2-6.066 2.176-5.077-.176-10.956-5.252-13.132z"/><path d="m162.95 193.843c0-5.522-4.478-10-10-10s-10 4.478-10 10v.008c0 5.522 4.478 9.996 10 9.996s10-4.481 10-10.004z"/><path d="m162.406 234.652c-5.076 2.176-7.428 8.055-5.252 13.131l.003.007c1.625 3.791 5.313 6.061 9.192 6.061 1.314 0 2.651-.261 3.937-.812 5.076-2.176 7.427-8.059 5.251-13.135s-8.055-7.432-13.131-5.252z"/><path d="m207.907 271.764c-4.793-2.741-10.903-1.073-13.644 3.721-2.74 4.796-1.074 10.904 3.721 13.645l.007.004c1.565.894 3.269 1.318 4.95 1.318 3.471 0 6.845-1.811 8.69-5.042 2.741-4.795 1.072-10.905-3.724-13.646z"/><path d="m252.945 283.846c-5.522 0-10 4.478-10 10s4.478 10 10 10h.008c5.522 0 9.996-4.478 9.996-10s-4.481-10-10.004-10z"/><path d="m297.984 271.768c-4.796 2.74-6.462 8.849-3.722 13.645 1.846 3.229 5.22 5.04 8.692 5.04 1.682 0 3.387-.425 4.952-1.319l.007-.004c4.795-2.74 6.457-8.847 3.717-13.642-2.737-4.796-8.85-6.461-13.646-3.72z"/><path d="m344.512 235.165c-4.793-2.743-10.904-1.071-13.646 3.725-2.74 4.795-1.074 10.903 3.721 13.644 1.565.895 3.271 1.319 4.952 1.319 3.472 0 6.847-1.811 8.692-5.04l.004-.007c2.741-4.797 1.073-10.901-3.723-13.641z"/><path d="m352.948 183.847c-5.522 0-10 4.481-10 10.004s4.478 10 10 10 10-4.478 10-10v-.008c0-5.522-4.477-9.996-10-9.996z"/><path d="m339.562 153.853c1.683 0 3.388-.425 4.953-1.319 4.795-2.74 6.461-8.849 3.721-13.645l-.004-.007c-2.741-4.794-8.848-6.46-13.642-3.717-4.796 2.74-6.46 8.852-3.72 13.646 1.846 3.232 5.22 5.042 8.692 5.042z"/><path d="m306.892 98.055-.007-.003c-5.074-2.178-10.951.177-13.128 5.254-2.175 5.076.18 10.956 5.256 13.132 1.285.551 2.62.812 3.935.812 3.88 0 7.571-2.271 9.196-6.063 2.175-5.077-.176-10.956-5.252-13.132z"/><path d="m49.897 183.84c-5.522 0-10 4.481-10 10.004s4.478 10 10 10 10-4.478 10-10v-.008c0-5.523-4.477-9.996-10-9.996z"/></g></g></svg>