<?xml version="1.0"?>
<svg xmlns="http://www.w3.org/2000/svg" viewBox="0 0 128 128"><g><path d="M25.575,83.967a1.818,1.818,0,0,0,.38-1.321A39.107,39.107,0,0,1,25.7,78.2V49.8A38.35,38.35,0,0,1,63.963,11.5,1.814,1.814,0,0,0,65.75,9.713V1.788A1.815,1.815,0,0,0,63.961,0h0A49.863,49.863,0,0,0,14.2,49.8V78.2a50.21,50.21,0,0,0,.331,5.764,1.782,1.782,0,0,0,1.786,1.585,1.615,1.615,0,0,0,.2-.011l7.836-.911A1.823,1.823,0,0,0,25.575,83.967Zm-7.731-2.106c-.1-1.215-.143-2.44-.143-3.66V49.8A46.363,46.363,0,0,1,62.25,3.532v4.5A41.86,41.86,0,0,0,22.2,49.8V78.2c0,1.045.039,2.094.116,3.14Z"/><path d="M112.011,63.083h-7.925a1.815,1.815,0,0,0-1.787,1.788V77.354a39.757,39.757,0,0,1-11.844,28.133A37.506,37.506,0,0,1,63.391,116.5a38.172,38.172,0,0,1-31.872-17.99,1.814,1.814,0,0,0-2.472-.584L22.3,102.136a1.815,1.815,0,0,0-.543,2.448,49.638,49.638,0,0,0,41.449,23.41c.256,0,.511.006.767.006a48.973,48.973,0,0,0,34.538-14.319A51.365,51.365,0,0,0,113.8,77.328V64.871A1.815,1.815,0,0,0,112.011,63.083ZM110.3,77.328a47.845,47.845,0,0,1-14.243,33.859,45.4,45.4,0,0,1-32.794,13.307,46.133,46.133,0,0,1-37.6-20.331l3.819-2.385A41.654,41.654,0,0,0,63.337,120,41.142,41.142,0,0,0,92.91,107.981,43.278,43.278,0,0,0,105.8,77.354V66.583h4.5Z"/><path d="M76.376,13.542A38.3,38.3,0,0,1,102.3,49.762a1.814,1.814,0,0,0,1.787,1.787h7.925A1.815,1.815,0,0,0,113.8,49.76a49.8,49.8,0,0,0-33.715-47.1,1.817,1.817,0,0,0-2.271,1.116L75.253,11.3A1.816,1.816,0,0,0,76.376,13.542Zm4.188-6.99a46.3,46.3,0,0,1,29.7,41.5h-4.5A41.8,41.8,0,0,0,79.114,10.814Z"/><path d="M41.914,61.587H33.989A1.815,1.815,0,0,0,32.2,63.375V77.588c0,17.434,13.365,31.659,30.427,32.383q.7.03,1.4.03A31.534,31.534,0,0,0,90.686,95.479a1.789,1.789,0,0,0-.517-2.493l-6.675-4.315a1.816,1.816,0,0,0-2.45.541,20.386,20.386,0,0,1-15.936,9.259,19.829,19.829,0,0,1-14.819-5.493A21.274,21.274,0,0,1,43.7,77.589V63.375A1.815,1.815,0,0,0,41.914,61.587Zm5.968,33.932A23.306,23.306,0,0,0,65.3,101.965,23.893,23.893,0,0,0,83,92.518l3.79,2.45a28.094,28.094,0,0,1-24.011,11.507C47.594,105.83,35.7,93.142,35.7,77.588v-12.5h4.5v12.5A24.787,24.787,0,0,0,47.882,95.519Z"/><path d="M95.8,77.087V50.474c0-17.413-13.85-31.975-30.875-32.46A31.83,31.83,0,0,0,32.2,49.76a1.817,1.817,0,0,0,1.789,1.789h7.925A1.813,1.813,0,0,0,43.7,49.765,20.323,20.323,0,0,1,64.752,29.514C75.53,29.9,84.3,39.264,84.3,50.376V77.087a1.815,1.815,0,0,0,1.787,1.788h7.925A1.815,1.815,0,0,0,95.8,77.087Zm-3.5-1.712H87.8v-25c0-12.974-10.282-23.9-22.92-24.36A23.829,23.829,0,0,0,40.264,48.049h-4.51A28.336,28.336,0,0,1,64.825,21.512C79.974,21.944,92.3,34.937,92.3,50.474Z"/><path d="M68.086,71.417h7.925A1.815,1.815,0,0,0,77.8,69.629V49.8a13.834,13.834,0,0,0-4.505-10.192,13.686,13.686,0,0,0-10.583-3.548A14.1,14.1,0,0,0,50.2,50.186v7.151a1.815,1.815,0,0,0,1.788,1.788h7.925A1.815,1.815,0,0,0,61.7,57.337V49.8a2.3,2.3,0,0,1,2.514-2.289,2.436,2.436,0,0,1,2.084,2.5V69.629A1.815,1.815,0,0,0,68.086,71.417ZM64.529,44.023A5.8,5.8,0,0,0,58.2,49.8v5.826H53.7V50.186A10.579,10.579,0,0,1,63.03,39.545a10.2,10.2,0,0,1,7.905,2.647A10.327,10.327,0,0,1,74.3,49.8V67.917H69.8v-17.9A5.958,5.958,0,0,0,64.529,44.023Z"/><path d="M50.2,77.815a13.985,13.985,0,0,0,12.275,14.1h0A13.932,13.932,0,0,0,64.012,92a13.738,13.738,0,0,0,12.682-8.389,1.817,1.817,0,0,0-.948-2.347l-7.3-3.094a1.814,1.814,0,0,0-2.331.936,2.3,2.3,0,0,1-2.685,1.324,2.422,2.422,0,0,1-1.727-2.4V72.538a1.815,1.815,0,0,0-1.787-1.788H51.989A1.815,1.815,0,0,0,50.2,72.538Zm3.5-3.565h4.5v3.78a5.953,5.953,0,0,0,4.4,5.8,5.825,5.825,0,0,0,5.808-1.874l4.258,1.8a10.284,10.284,0,0,1-9.815,4.675h0A10.622,10.622,0,0,1,53.7,77.815Z"/></g></svg>
