<?xml version="1.0" encoding="iso-8859-1"?>
<!-- Generator: Adobe Illustrator 21.0.0, SVG Export Plug-In . SVG Version: 6.00 Build 0)  -->
<svg version="1.1" id="Capa_1" xmlns="http://www.w3.org/2000/svg" xmlns:xlink="http://www.w3.org/1999/xlink" x="0px" y="0px"
	 viewBox="0 0 512 512" style="enable-background:new 0 0 512 512;" xml:space="preserve">
<g>
	<g>
		<path d="M320.129,360.726c-35.646,0-64.645-29-64.645-64.645c0-4.142-3.358-7.5-7.5-7.5c-4.142,0-7.5,3.358-7.5,7.5
			c0,43.917,35.729,79.645,79.645,79.645c4.142,0,7.5-3.358,7.5-7.5C327.629,364.084,324.271,360.726,320.129,360.726z"/>
	</g>
</g>
<g>
	<g>
		<path d="M247.984,224.452c-39.496,0-71.629,32.133-71.629,71.629c0,42.421,18.664,82.491,51.206,109.933
			c1.407,1.187,3.124,1.767,4.831,1.767c2.134,0,4.254-0.906,5.737-2.665c2.67-3.167,2.268-7.898-0.898-10.568
			c-29.154-24.586-45.875-60.476-45.875-98.466c-0.001-31.227,25.403-56.63,56.628-56.63s56.629,25.404,56.629,56.629
			c0,4.142,3.358,7.5,7.5,7.5c4.142,0,7.5-3.358,7.5-7.5C319.613,256.585,287.48,224.452,247.984,224.452z"/>
	</g>
</g>
<g>
	<g>
		<path d="M247.984,271.516c13.544,0,24.564,11.02,24.564,24.564c0,21.816,17.749,39.564,39.564,39.564s39.565-17.748,39.565-39.563
			c0-57.177-46.517-103.693-103.693-103.693c-57.176,0-103.693,46.517-103.693,103.693c0,23.128,4.46,45.664,13.256,66.98
			c1.581,3.829,5.966,5.651,9.794,4.072c3.829-1.58,5.652-5.965,4.072-9.794c-8.044-19.493-12.123-40.103-12.123-61.259
			c0-48.906,39.788-88.693,88.693-88.693s88.693,39.788,88.693,88.693c0,13.545-11.02,24.564-24.564,24.564
			s-24.564-11.02-24.564-24.564c0-21.816-17.749-39.564-39.564-39.564s-39.564,17.749-39.564,39.564
			c0,61.597,50.113,111.71,111.709,111.71c4.142,0,7.5-3.358,7.5-7.5c0-4.142-3.358-7.5-7.5-7.5
			c-53.326,0-96.709-43.384-96.709-96.71C223.42,282.535,234.44,271.516,247.984,271.516z"/>
	</g>
</g>
<g>
	<g>
		<path d="M247.984,160.323c-74.857,0-135.758,60.901-135.758,135.758c0,4.142,3.358,7.5,7.5,7.5c4.142,0,7.5-3.358,7.5-7.5
			c0-66.586,54.172-120.758,120.758-120.758s120.758,54.172,120.758,120.758c0,4.142,3.358,7.5,7.5,7.5c4.142,0,7.5-3.358,7.5-7.5
			C383.742,221.224,322.841,160.323,247.984,160.323z"/>
	</g>
</g>
<g>
	<g>
		<path d="M365.436,176.312c-31.594-30.988-73.307-48.055-117.453-48.055c-48.079,0.001-93.957,20.751-125.867,56.93
			c-2.74,3.106-2.443,7.846,0.664,10.585c1.426,1.258,3.195,1.875,4.958,1.875c2.078,0,4.146-0.858,5.627-2.539
			c29.065-32.952,70.842-51.851,114.619-51.851c40.194,0,78.176,15.542,106.949,43.764c2.958,2.9,7.706,2.854,10.606-0.103
			C368.439,183.96,368.393,179.212,365.436,176.312z"/>
	</g>
</g>
<g>
	<g>
		<path d="M347.94,122.969c-30.195-17.517-64.76-26.776-99.957-26.776c-27.584,0-54.418,5.604-79.756,16.658
			c-3.796,1.656-5.532,6.077-3.875,9.874c1.657,3.797,6.076,5.532,9.874,3.876c23.435-10.224,48.25-15.407,73.758-15.407
			c32.557,0,64.518,8.559,92.429,24.75c1.185,0.688,2.479,1.014,3.757,1.014c2.586,0,5.103-1.34,6.494-3.738
			C352.743,129.637,351.523,125.048,347.94,122.969z"/>
	</g>
</g>
<g>
	<g>
		<path d="M63.613,0H7.5C3.358,0,0,3.358,0,7.5v56.113c0,4.142,3.358,7.5,7.5,7.5s7.5-3.358,7.5-7.5V15h48.613
			c4.142,0,7.5-3.358,7.5-7.5S67.755,0,63.613,0z"/>
	</g>
</g>
<g>
	<g>
		<path d="M504.5,0h-56.113c-4.142,0-7.5,3.358-7.5,7.5s3.358,7.5,7.5,7.5H497v48.613c0,4.142,3.358,7.5,7.5,7.5
			c4.142,0,7.5-3.358,7.5-7.5V7.5C512,3.358,508.642,0,504.5,0z"/>
	</g>
</g>
<g>
	<g>
		<path d="M504.5,440.887c-4.142,0-7.5,3.358-7.5,7.5V497h-48.613c-4.142,0-7.5,3.358-7.5,7.5c0,4.142,3.358,7.5,7.5,7.5H504.5
			c4.142,0,7.5-3.358,7.5-7.5v-56.113C512,444.245,508.642,440.887,504.5,440.887z"/>
	</g>
</g>
<g>
	<g>
		<path d="M63.613,497H15v-48.613c0-4.142-3.358-7.5-7.5-7.5s-7.5,3.358-7.5,7.5V504.5c0,4.142,3.358,7.5,7.5,7.5h56.113
			c4.142,0,7.5-3.358,7.5-7.5C71.113,500.358,67.755,497,63.613,497z"/>
	</g>
</g>
<g>
	<g>
		<path d="M402.146,86.407c-42.704-36.871-97.368-56.11-153.923-54.177C191.373,34.174,137.9,57.409,97.655,97.655
			c-40.246,40.246-63.481,93.719-65.425,150.568c-1.934,56.555,17.307,111.22,54.177,153.923c1.483,1.718,3.575,2.599,5.68,2.599
			c1.736,0,3.481-0.6,4.898-1.823c3.135-2.707,3.482-7.443,0.775-10.578c-34.395-39.838-52.344-90.839-50.54-143.609
			c1.813-53.038,23.491-102.926,61.04-140.475c37.549-37.549,87.437-59.227,140.475-61.04
			c52.771-1.794,103.771,16.145,143.608,50.54c3.136,2.707,7.872,2.36,10.578-0.775C405.628,93.85,405.281,89.114,402.146,86.407z"
			/>
	</g>
</g>
<g>
	<g>
		<path d="M425.594,109.854c-2.707-3.136-7.443-3.483-10.578-0.775c-3.135,2.707-3.482,7.443-0.775,10.578
			c34.395,39.837,52.344,90.838,50.54,143.608c-1.813,53.038-23.491,102.926-61.04,140.475s-87.437,59.227-140.475,61.04
			c-52.763,1.804-103.771-16.145-143.608-50.54c-3.136-2.707-7.872-2.36-10.578,0.775c-2.707,3.135-2.36,7.871,0.775,10.578
			c40.747,35.18,92.382,54.31,146.159,54.31c2.583,0,5.172-0.044,7.765-0.133c56.85-1.944,110.323-25.179,150.568-65.425
			c40.246-40.246,63.481-93.719,65.425-150.568C481.705,207.223,462.464,152.558,425.594,109.854z"/>
	</g>
</g>
<g>
</g>
<g>
</g>
<g>
</g>
<g>
</g>
<g>
</g>
<g>
</g>
<g>
</g>
<g>
</g>
<g>
</g>
<g>
</g>
<g>
</g>
<g>
</g>
<g>
</g>
<g>
</g>
<g>
</g>
</svg>
