<?xml version="1.0" encoding="iso-8859-1"?>
<!-- Generator: Adobe Illustrator 19.0.0, SVG Export Plug-In . SVG Version: 6.00 Build 0)  -->
<svg version="1.1" id="Capa_1" xmlns="http://www.w3.org/2000/svg" xmlns:xlink="http://www.w3.org/1999/xlink" x="0px" y="0px"
	 viewBox="0 0 512 512" style="enable-background:new 0 0 512 512;" xml:space="preserve">
<g>
	<g>
		<path d="M464.927,300.429L427.155,206l37.772-94.429c1.849-4.622,1.284-9.859-1.506-13.98C460.63,93.469,455.977,91,451,91H276V56
			c0-8.284-6.716-15-15-15H76V15c0-8.284-6.716-15-15-15S46,6.716,46,15c0,62.717,0,428.766,0,482c0,8.284,6.716,15,15,15
			s15-6.716,15-15V271h120v35c0,8.189,6.673,15,15,15h240c4.978,0,9.63-2.469,12.421-6.591
			C466.212,310.288,466.776,305.051,464.927,300.429z M246,241c-17.178,0-151.463,0-170,0V71h170C246,88.178,246,222.463,246,241z
			 M247.213,291l24.391-24.391C274.47,263.745,276,259.804,276,256V121h152.845l-31.772,79.429c-1.43,3.576-1.43,7.566,0,11.143
			L428.845,291H247.213z"/>
	</g>
</g>
<g>
</g>
<g>
</g>
<g>
</g>
<g>
</g>
<g>
</g>
<g>
</g>
<g>
</g>
<g>
</g>
<g>
</g>
<g>
</g>
<g>
</g>
<g>
</g>
<g>
</g>
<g>
</g>
<g>
</g>
</svg>
