<?xml version="1.0" encoding="iso-8859-1"?>
<!-- Generator: Adobe Illustrator 19.0.0, SVG Export Plug-In . SVG Version: 6.00 Build 0)  -->
<svg version="1.1" id="Capa_1" xmlns="http://www.w3.org/2000/svg" xmlns:xlink="http://www.w3.org/1999/xlink" x="0px" y="0px"
	 viewBox="0 0 512 512" style="enable-background:new 0 0 512 512;" xml:space="preserve">
<g>
	<g>
		<path d="M499.2,435.2H128V153.6h153.6v2.56c0,15.36-5.12,28.16-12.8,40.96L184.32,320c-10.24,17.92,2.56,38.4,20.48,38.4h230.4
			c20.48,0,33.28-20.48,23.04-38.4L371.2,197.12c-7.68-12.8-12.8-25.6-12.8-40.96v-2.56H448c7.68,0,12.8-5.12,12.8-12.8v-25.6
			c0-7.68-5.12-12.8-12.8-12.8h-89.6V51.2h12.8c7.68,0,12.8-5.12,12.8-12.8V12.8C384,5.12,378.88,0,371.2,0H268.8
			C261.12,0,256,5.12,256,12.8v25.6c0,7.68,5.12,12.8,12.8,12.8h12.8v51.2H128V12.8C128,5.12,122.88,0,115.2,0H89.6
			c-7.68,0-12.8,5.12-12.8,12.8v89.6H38.4c-7.68,0-12.8,5.12-12.8,12.8v25.6c0,7.68,5.12,12.8,12.8,12.8h38.4v281.6h-64
			C5.12,435.2,0,440.32,0,448v51.2c0,7.68,5.12,12.8,12.8,12.8h486.4c7.68,0,12.8-5.12,12.8-12.8V448
			C512,440.32,506.88,435.2,499.2,435.2z M307.2,232.96h25.6l53.76,74.24H253.44L307.2,232.96z"/>
	</g>
</g>
<g>
</g>
<g>
</g>
<g>
</g>
<g>
</g>
<g>
</g>
<g>
</g>
<g>
</g>
<g>
</g>
<g>
</g>
<g>
</g>
<g>
</g>
<g>
</g>
<g>
</g>
<g>
</g>
<g>
</g>
</svg>
