<?xml version="1.0" encoding="iso-8859-1"?>
<!-- Generator: Adobe Illustrator 19.0.0, SVG Export Plug-In . SVG Version: 6.00 Build 0)  -->
<svg version="1.1" id="Capa_1" xmlns="http://www.w3.org/2000/svg" xmlns:xlink="http://www.w3.org/1999/xlink" x="0px" y="0px"
	 viewBox="0 0 512 512" style="enable-background:new 0 0 512 512;" xml:space="preserve">
<g>
	<g>
		<path d="M499.1,186.205l-25.765-22.266c-3.196-2.764-8.029-2.411-10.792,0.787c-2.763,3.197-2.412,8.029,0.787,10.792
			l25.763,22.266c9.184,7.937,10.198,21.866,2.262,31.05L324.008,422.47c-2.763,3.197-2.412,8.029,0.786,10.793
			c1.447,1.251,3.228,1.863,5,1.863c2.147,0,4.28-0.898,5.793-2.648L502.933,238.84C516.388,223.272,514.668,199.659,499.1,186.205z
			"/>
	</g>
</g>
<g>
	<g>
		<path d="M453.741,147.003L334.557,44.002c-7.542-6.518-17.172-9.705-27.112-8.985c-9.942,0.723-19.006,5.276-25.524,12.817
			l-11.356,13.14c-2.763,3.198-2.412,8.03,0.786,10.793c3.199,2.765,8.03,2.411,10.793-0.786l11.356-13.14
			c3.845-4.448,9.192-7.134,15.057-7.561c5.865-0.431,11.544,1.455,15.993,5.3l119.184,103.001c1.447,1.251,3.228,1.863,5,1.863
			c2.147,0,4.28-0.898,5.793-2.648C457.289,154.598,456.938,149.766,453.741,147.003z"/>
	</g>
</g>
<g>
	<g>
		<path d="M381.099,119.952L174.911,50.794c-19.511-6.544-40.704,4.005-47.247,23.513l-2.72,8.109
			c-1.344,4.006,0.815,8.344,4.822,9.688c4.007,1.344,8.343-0.814,9.688-4.822l2.72-8.109c3.86-11.509,16.361-17.732,27.871-13.871
			l206.189,69.157c11.509,3.861,17.731,16.363,13.871,27.871l-95.933,286.02c-1.344,4.006,0.815,8.343,4.822,9.688
			c0.807,0.27,1.627,0.399,2.434,0.399c3.198,0,6.18-2.021,7.254-5.22l95.933-286.019
			C411.157,147.691,400.609,126.495,381.099,119.952z"/>
	</g>
</g>
<g>
	<g>
		<path d="M254.795,100.769H37.318C16.741,100.769,0,117.509,0,138.086v301.679c0,20.577,16.741,37.318,37.318,37.318h217.478
			c20.577,0,37.318-16.741,37.318-37.318V138.086C292.113,117.509,275.373,100.769,254.795,100.769z M276.809,439.765
			c0,12.139-9.876,22.014-22.014,22.014H37.318c-12.139,0-22.014-9.876-22.014-22.014V138.086c0-12.139,9.876-22.014,22.014-22.014
			h217.478c12.139,0,22.014,9.876,22.014,22.014V439.765z"/>
	</g>
</g>
<g>
	<g>
		<path d="M258.778,311.96H33.336c-4.226,0-7.652,3.426-7.652,7.652c0,4.226,3.426,7.652,7.652,7.652h225.443
			c4.226,0,7.652-3.426,7.652-7.652C266.43,315.386,263.004,311.96,258.778,311.96z"/>
	</g>
</g>
<g>
	<g>
		<path d="M223.106,355.718h-94.754c-4.226,0-7.652,3.426-7.652,7.652c0,4.226,3.426,7.652,7.652,7.652h94.754
			c4.226,0,7.652-3.426,7.652-7.652C230.758,359.144,227.332,355.718,223.106,355.718z"/>
	</g>
</g>
<g>
	<g>
		<path d="M102.845,355.718H69.006c-4.226,0-7.652,3.426-7.652,7.652c0,4.226,3.426,7.652,7.652,7.652h33.839
			c4.226,0,7.652-3.426,7.652-7.652C110.497,359.144,107.071,355.718,102.845,355.718z"/>
	</g>
</g>
<g>
	<g>
		<path d="M223.106,384.969h-154.1c-4.226,0-7.652,3.426-7.652,7.652c0,4.226,3.426,7.652,7.652,7.652h154.1
			c4.226,0,7.652-3.426,7.652-7.652C230.758,388.394,227.332,384.969,223.106,384.969z"/>
	</g>
</g>
<g>
	<g>
		<path d="M223.106,414.219h-154.1c-4.226,0-7.652,3.426-7.652,7.652c0,4.226,3.426,7.652,7.652,7.652h154.1
			c4.226,0,7.652-3.426,7.652-7.652C230.758,417.645,227.332,414.219,223.106,414.219z"/>
	</g>
</g>
<g>
	<g>
		<path d="M230.156,189.552c-0.9-2.77-3.294-4.789-6.176-5.207l-49.103-7.135l-21.959-44.495c-1.29-2.612-3.949-4.266-6.862-4.266
			c-2.912,0-5.572,1.654-6.862,4.266l-21.96,44.495l-49.103,7.135c-2.882,0.418-5.277,2.437-6.176,5.207
			c-0.9,2.77-0.149,5.81,1.936,7.843l35.532,34.634l-8.388,48.906c-0.492,2.87,0.688,5.771,3.044,7.483
			c1.333,0.968,2.912,1.461,4.498,1.461c1.217,0,2.44-0.291,3.56-0.878l43.919-23.091l43.919,23.091
			c2.578,1.355,5.702,1.129,8.058-0.583c2.357-1.712,3.536-4.613,3.044-7.483l-8.388-48.906l35.531-34.634
			C230.305,195.362,231.056,192.322,230.156,189.552z M179.127,223.879c-1.804,1.758-2.627,4.291-2.201,6.773l6.447,37.589
			l-33.757-17.748c-2.23-1.171-4.893-1.171-7.121,0l-33.757,17.748l6.447-37.589c0.425-2.482-0.397-5.015-2.201-6.773l-27.309-26.62
			l37.741-5.485c2.492-0.362,4.646-1.927,5.761-4.186l16.878-34.2l16.878,34.2c1.114,2.258,3.269,3.824,5.761,4.186l37.742,5.485
			L179.127,223.879z"/>
	</g>
</g>
<g>
</g>
<g>
</g>
<g>
</g>
<g>
</g>
<g>
</g>
<g>
</g>
<g>
</g>
<g>
</g>
<g>
</g>
<g>
</g>
<g>
</g>
<g>
</g>
<g>
</g>
<g>
</g>
<g>
</g>
</svg>
