<?xml version="1.0" encoding="iso-8859-1"?>
<!-- Generator: Adobe Illustrator 19.0.0, SVG Export Plug-In . SVG Version: 6.00 Build 0)  -->
<svg version="1.1" id="Capa_1" xmlns="http://www.w3.org/2000/svg" xmlns:xlink="http://www.w3.org/1999/xlink" x="0px" y="0px"
	 viewBox="0 0 512 512" style="enable-background:new 0 0 512 512;" xml:space="preserve">
<g>
	<g>
		<path d="M497,51H277.821c-6.507,0-12.271,4.195-14.272,10.386L247.51,111H15c-8.284,0-15,6.716-15,15c0,6.762,0,309.555,0,320
			c0,8.284,6.716,15,15,15h482c8.284,0,15-6.716,15-15V66C512,57.716,505.284,51,497,51z M30,141h207.811l-9.698,30H30V141z
			 M482,431H30V201h209.028c6.507,0,12.271-4.195,14.273-10.386C256.637,180.295,285.419,91.26,288.736,81H482V431z"/>
	</g>
</g>
<g>
</g>
<g>
</g>
<g>
</g>
<g>
</g>
<g>
</g>
<g>
</g>
<g>
</g>
<g>
</g>
<g>
</g>
<g>
</g>
<g>
</g>
<g>
</g>
<g>
</g>
<g>
</g>
<g>
</g>
</svg>
