<svg id="Capa_1" enable-background="new 0 0 512 512" viewBox="0 0 512 512" xmlns="http://www.w3.org/2000/svg"><g><path d="m451.458 368.334c-4.13 0-7.479 3.348-7.479 7.479v46.087h-308.441v-38.609h78.586c9.622 0 17.45-7.828 17.45-17.45v-100.088c0-9.622-7.828-17.45-17.45-17.45h-78.586v-14.195c0-4.13-3.348-7.479-7.479-7.479s-7.479 3.348-7.479 7.479v14.195h-50.066c-9.622 0-17.45 7.828-17.45 17.45v100.088c0 9.622 7.828 17.45 17.45 17.45h50.068v101.287c0 15.12 12.301 27.421 27.421 27.421h283.512c15.12 0 27.421-12.301 27.421-27.421v-108.765c0-4.13-3.348-7.479-7.478-7.479zm-383.437-65.063h148.597v25.053h-148.597zm2.493-40.011h143.611c1.374 0 2.493 1.118 2.493 2.493v22.56h-148.597v-22.56c0-1.374 1.118-2.493 2.493-2.493zm-2.493 102.581v-22.56h148.597v22.56c0 1.374-1.118 2.493-2.493 2.493h-143.611c-1.375 0-2.493-1.118-2.493-2.493zm363.494 131.202h-283.512c-6.873 0-12.464-5.591-12.464-12.464v-47.721h308.441v47.721c-.001 6.872-5.592 12.464-12.465 12.464z"/><path d="m431.515 0h-187.851c-4.13 0-7.479 3.348-7.479 7.479s3.348 7.479 7.479 7.479h187.851c6.873 0 12.464 5.591 12.464 12.464v309.838c0 4.13 3.348 7.479 7.479 7.479 4.13 0 7.479-3.348 7.479-7.479v-309.839c-.001-15.12-12.302-27.421-27.422-27.421z"/><path d="m313.878 461.466h-48.238c-4.13 0-7.479 3.348-7.479 7.479 0 4.13 3.348 7.479 7.479 7.479h48.238c4.13 0 7.479-3.348 7.479-7.479s-3.349-7.479-7.479-7.479z"/><path d="m70.868 197.71h143.611c9.622 0 17.45-7.828 17.45-17.45v-100.088c0-9.622-7.828-17.45-17.45-17.45h-78.94v-35.3c0-6.873 5.591-12.464 12.464-12.464h58.152c4.13 0 7.479-3.348 7.479-7.479s-3.349-7.479-7.48-7.479h-58.152c-15.12 0-27.421 12.301-27.421 27.421v35.3h-49.713c-9.622 0-17.45 7.828-17.45 17.45v100.089c0 9.622 7.828 17.45 17.45 17.45zm91.586-120.031v105.074h-39.561v-105.074zm54.518 2.493v100.088c0 1.374-1.118 2.493-2.493 2.493h-37.068v-105.074h37.068c1.374 0 2.493 1.118 2.493 2.493zm-148.597 0c0-1.374 1.118-2.493 2.493-2.493h37.068v105.074h-37.068c-1.374 0-2.493-1.118-2.493-2.493z"/><path d="m311.271 168.587c-9.211 0-18.105-3.746-23.792-10.021-2.774-3.061-7.503-3.293-10.564-.52-3.061 2.774-3.293 7.503-.52 10.563 8.475 9.352 21.512 14.935 34.875 14.935 16.001 0 29.941-10.493 32.425-24.408 1.879-10.524-3.052-24.328-22.527-31.512-10.837-3.997-20.888-8.362-23.42-9.474-2.699-1.976-4.01-5.135-3.519-8.552.617-4.297 3.918-7.746 8.83-9.226 13.508-4.069 25.708 5.701 25.973 5.917 3.162 2.633 7.861 2.218 10.511-.934 2.657-3.162 2.249-7.879-.912-10.537-.743-.625-18.449-15.224-39.885-8.767-10.474 3.155-17.878 11.363-19.322 21.422-1.344 9.364 2.711 18.37 10.584 23.503.331.215.677.404 1.038.565.483.216 11.986 5.336 24.947 10.117 9.32 3.437 14.051 8.85 12.979 14.85-1.046 5.856-7.605 12.079-17.701 12.079z"/><path d="m367.97 89.195v88.054c0 4.13 3.348 7.479 7.479 7.479 4.13 0 7.479-3.348 7.479-7.479v-88.054c0-4.13-3.348-7.479-7.479-7.479-4.13.001-7.479 3.349-7.479 7.479z"/><path d="m371.269 42.269c-1.717-3.756-6.155-5.406-9.912-3.691-3.756 1.718-5.409 6.155-3.691 9.912l7.562 16.538c1.721 3.795 6.243 5.394 9.912 3.691 3.756-1.718 5.409-6.155 3.691-9.912z"/><ellipse cx="279.508" cy="233.111" rx="7.827" ry="7.827" transform="matrix(.973 -.23 .23 .973 -46.081 70.454)"/><path d="m279.508 259.09c-4.13 0-7.479 3.348-7.479 7.479v131.411c0 4.13 3.348 7.479 7.479 7.479 4.13 0 7.479-3.348 7.479-7.479v-131.411c0-4.131-3.348-7.479-7.479-7.479z"/><path d="m306.425 311.63c0 25.048 20.378 45.426 45.426 45.426 11.713 0 22.404-4.458 30.468-11.764v9.331c0 4.13 3.348 7.479 7.479 7.479s7.479-3.348 7.479-7.479v-85.986c0-4.13-3.348-7.479-7.479-7.479s-7.479 3.348-7.479 7.479v9.331c-8.064-7.306-18.755-11.764-30.468-11.764-25.048 0-45.426 20.378-45.426 45.426zm75.894 0c0 16.801-13.668 30.468-30.468 30.468s-30.468-13.668-30.468-30.468c0-16.801 13.668-30.468 30.468-30.468s30.468 13.667 30.468 30.468z"/></g></svg>