<svg id="Capa_1" enable-background="new 0 0 479.058 479.058" viewBox="0 0 479.058 479.058" xmlns="http://www.w3.org/2000/svg"><path d="m254.499 449.118c-2.018 0-4.064-.409-5.979-1.243-5.468-2.383-8.991-7.778-8.991-13.728v-104.793h-224.558c-8.275 0-14.971-6.696-14.971-14.97v-149.706c0-8.275 6.696-14.971 14.971-14.971h224.558v-104.793c0-5.95 3.523-11.345 8.991-13.728 5.409-2.368 11.813-1.316 16.169 2.763l209.588 194.617c3.041 2.822 4.781 6.798 4.781 10.965s-1.74 8.143-4.781 10.965l-209.588 194.617c-2.821 2.631-6.491 4.005-10.19 4.005zm-224.558-149.705h224.558c8.275 0 14.971 6.696 14.971 14.971v85.438l172.615-160.29-172.615-160.292v85.438c0 8.275-6.696 14.971-14.971 14.971h-224.558z"/></svg>