<?xml version="1.0" encoding="iso-8859-1"?>
<!-- Generator: Adobe Illustrator 19.0.0, SVG Export Plug-In . SVG Version: 6.00 Build 0)  -->
<svg version="1.1" id="Capa_1" xmlns="http://www.w3.org/2000/svg" xmlns:xlink="http://www.w3.org/1999/xlink" x="0px" y="0px"
	 viewBox="0 0 512 512" style="enable-background:new 0 0 512 512;" xml:space="preserve">
<g>
	<g>
		<path d="M351.902,347.719c-4.142,0-7.501,3.357-7.501,7.501v17.663c0,4.143,3.358,7.501,7.501,7.501
			c4.143,0,7.501-3.357,7.501-7.501V355.22C359.403,351.076,356.046,347.719,351.902,347.719z"/>
	</g>
</g>
<g>
	<g>
		<path d="M380.625,347.719c-4.142,0-7.501,3.357-7.501,7.501v17.663c0,4.143,3.358,7.501,7.501,7.501
			c4.143,0,7.501-3.357,7.501-7.501V355.22C388.126,351.076,384.769,347.719,380.625,347.719z"/>
	</g>
</g>
<g>
	<g>
		<path d="M351.902,397.141c-4.142,0-7.501,3.357-7.501,7.501v17.664c0,4.143,3.358,7.501,7.501,7.501
			c4.143,0,7.501-3.357,7.501-7.501v-17.664C359.403,400.498,356.046,397.141,351.902,397.141z"/>
	</g>
</g>
<g>
	<g>
		<path d="M380.625,397.141c-4.142,0-7.501,3.357-7.501,7.501v17.664c0,4.143,3.358,7.501,7.501,7.501
			c4.143,0,7.501-3.357,7.501-7.501v-17.664C388.126,400.498,384.769,397.141,380.625,397.141z"/>
	</g>
</g>
<g>
	<g>
		<path d="M131.384,347.719c-4.143,0-7.501,3.357-7.501,7.501v17.663c0,4.143,3.357,7.501,7.501,7.501
			c4.143,0,7.501-3.357,7.501-7.501V355.22C138.885,351.076,135.528,347.719,131.384,347.719z"/>
	</g>
</g>
<g>
	<g>
		<path d="M160.108,347.719c-4.143,0-7.501,3.357-7.501,7.501v17.663c0,4.142,3.358,7.501,7.501,7.501
			c4.143,0,7.501-3.357,7.501-7.501V355.22C167.608,351.076,164.251,347.719,160.108,347.719z"/>
	</g>
</g>
<g>
	<g>
		<path d="M131.384,397.141c-4.143,0-7.501,3.357-7.501,7.501v17.664c0,4.143,3.357,7.501,7.501,7.501
			c4.143,0,7.501-3.357,7.501-7.501v-17.664C138.885,400.498,135.528,397.141,131.384,397.141z"/>
	</g>
</g>
<g>
	<g>
		<path d="M160.108,397.141c-4.143,0-7.501,3.357-7.501,7.501v17.664c0,4.143,3.357,7.501,7.501,7.501
			c4.143,0,7.501-3.357,7.501-7.501v-17.664C167.608,400.498,164.251,397.141,160.108,397.141z"/>
	</g>
</g>
<g>
	<g>
		<path d="M238.351,347.719c-4.143,0-7.501,3.357-7.501,7.501v17.663c0,4.143,3.357,7.501,7.501,7.501
			c4.143,0,7.501-3.357,7.501-7.501V355.22C245.852,351.076,242.494,347.719,238.351,347.719z"/>
	</g>
</g>
<g>
	<g>
		<path d="M267.074,347.719c-4.143,0-7.501,3.357-7.501,7.501v17.663c0,4.142,3.358,7.501,7.501,7.501
			c4.143,0,7.501-3.357,7.501-7.501V355.22C274.575,351.076,271.218,347.719,267.074,347.719z"/>
	</g>
</g>
<g>
	<g>
		<path d="M452.952,469.995h-36.435v-39.02c0-4.142-3.357-7.501-7.501-7.501c-4.143,0-7.501,3.358-7.501,7.501v39.021h-55.585
			c0.569-1.903,0.885-3.915,0.885-6.002c0-9.979-7.003-18.337-16.347-20.464V326.532h71.048v69.44c0,4.143,3.357,7.501,7.501,7.501
			c4.143,0,7.501-3.357,7.501-7.501v-76.94v-19.504c0.101,0,1.397,0,1.296,0c10.039,0,18.071-8.102,18.071-18.07
			c0-23.176,0.028-26.856-0.078-30.565c-0.023-3.823-1.883-7.438-4.986-9.679l-126.433-91.255
			c-11.309-8.162-21.866-5.512-27.38-6.037V97.273h69.627c6.19,0,11.227-5.036,11.227-11.227V31.651
			c0-5.729-4.661-10.39-10.391-10.39h-70.463v-0.268c0-12.675-11.666-23.697-25.937-20.404
			c-9.882,2.514-16.068,11.086-16.068,20.404v20.773c0,4.143,3.357,7.501,7.501,7.501c4.143,0,7.501-3.357,7.501-7.501V20.993
			c0-3.106,2.428-5.855,5.86-5.987c3.518-0.071,6.143,2.748,6.143,5.987v7.769c0,11.582,0,102.015,0,115.159h-12.003V76.768
			c0-4.143-3.357-7.501-7.501-7.501c-4.143,0-7.501,3.357-7.501,7.501v67.152c-7.594,0.623-17.584-2.237-28.354,5.539
			L82.696,238.925c-4.077,2.94-6.512,7.699-6.512,12.727c-0.032,31.427-0.413,31.495,0.736,35.175
			c4.3,13.831,18.461,12.666,18.571,12.701c0,33.667,0,130.158,0,170.467H59.058c-11.845,0-21.052,9.921-20.988,20.491
			C37.5,501.508,46.812,512,59.058,512h393.895c11.581,0,21.003-9.422,21.003-21.003
			C473.955,479.569,464.659,469.995,452.952,469.995z M342.86,36.262v46.01h-65.852v-46.01H342.86z M331.815,463.993
			c0,3.309-2.692,6.001-6.001,6.001h-33.001c-3.308,0-6.001-2.692-6.001-6c0-3.308,2.693-6.001,6.001-6.001
			c6.304,0,26.669,0,33.001,0C329.122,457.993,331.815,460.685,331.815,463.993z M272.683,469.995h-11.949v-58.854h27.424v32.37
			C276.354,446.193,269.219,458.402,272.683,469.995z M218.308,443.512v-32.37h27.424v58.854h-11.95
			C237.286,458.27,229.95,446.156,218.308,443.512z M160.535,469.995h-50.041V326.532h65.504V443.53
			C164.337,446.182,157.01,458.203,160.535,469.995z M110.494,311.531v-12.003h65.504v12.003H110.494z M180.652,457.993
			c0.103,0,33.095-0.022,33.614,0.031c2.817,0.287,5.07,2.537,5.357,5.357c0.363,3.535-2.424,6.614-5.971,6.614h-33.001
			c-3.309,0-6.002-2.692-6.002-6.001C174.651,460.685,177.343,457.993,180.652,457.993z M190.999,442.992
			c0-21.411,0-125.844,0-143.463h12.309c0,22.519,0,80.769,0,104.112v39.351H190.999z M218.308,396.141v-69.609h69.85v69.609
			C269.343,396.141,229.269,396.141,218.308,396.141z M218.308,311.531v-12.003h69.85v12.003H218.308z M303.159,442.992V403.64
			c0-23.43,0-81.681,0-104.112h12.309c0,17.595,0,122.1,0,143.463H303.159z M401.517,311.531h-71.048v-12.003h71.048V311.531z
			 M94.178,284.527c-1.563,0-2.6-1.082-2.936-2.162c-0.229-0.727-0.06-0.812-0.075-9.841h74.829c4.143,0,7.501-3.357,7.501-7.501
			c0-4.142-3.357-7.501-7.501-7.501H91.185c0.093-5.459-0.247-6.045,0.288-6.434c129.995-92.667,123.707-92.167,132.314-92.167
			c22.882,0,39.904,0,61.921,0c9.994,0,3.597,0.015,135.119,93.578c0.001,0.101,0.061,5.356,0.058,5.021H201
			c-4.143,0-7.501,3.358-7.501,7.501c0,4.143,3.357,7.501,7.501,7.501h219.885c-0.044,9.242,0.103,9.08-0.137,9.848
			c-0.375,1.204-1.495,2.155-2.935,2.155c-72.716,0-144.791,0-234.315,0C167.598,284.527,104.84,284.527,94.178,284.527z
			 M452.952,496.999H59.058c-3.835,0-6.726-3.586-5.839-7.342c0.067-0.1,1.061-4.661,5.839-4.661c105.241,0,328.913,0,393.895,0
			c2.999,0,5.776,2.158,6,6.158C458.869,494.392,456.21,496.999,452.952,496.999z"/>
	</g>
</g>
<g>
</g>
<g>
</g>
<g>
</g>
<g>
</g>
<g>
</g>
<g>
</g>
<g>
</g>
<g>
</g>
<g>
</g>
<g>
</g>
<g>
</g>
<g>
</g>
<g>
</g>
<g>
</g>
<g>
</g>
</svg>
