<svg viewBox="0 -1 512 511" xmlns="http://www.w3.org/2000/svg"><path d="m73.765625 211.945312h49.703125v201.96875h-49.703125zm0 0" fill="#e6f1fa"/><path d="m101.46875 211.945312h22v201.96875h-22zm0 0" fill="#cee4f7"/><path d="m471.367188 157.101562-211.953126-146.738281c-2.054687-1.421875-4.773437-1.421875-6.828124 0l-211.949219 146.738281v16.566407h430.730469zm0 0" fill="#e6f1fa"/><path d="m259.414062 10.363281c-2.054687-1.421875-4.773437-1.421875-6.828124 0l-7.585938 5.253907 204.367188 141.484374v16.566407h22v-16.566407zm0 0" fill="#cee4f7"/><path d="m272.566406 107.402344c0 9.148437-7.414062 16.566406-16.566406 16.566406-9.148438 0-16.566406-7.417969-16.566406-16.566406 0-9.152344 7.417968-16.570313 16.566406-16.570313 9.152344 0 16.566406 7.417969 16.566406 16.570313zm0 0" fill="#feda43"/><path d="m134.035156 223.367188h-70.835937c-3.3125 0-6-2.6875-6-6v-37.921876h82.835937v37.921876c0 3.3125-2.6875 6-6 6zm0 0" fill="#537d91"/><path d="m118.035156 179.445312v37.921876c0 3.3125-2.6875 6-6 6h22c3.3125 0 6-2.6875 6-6v-37.921876zm0 0" fill="#45738a"/><path d="m134.035156 402.496094h-70.835937c-3.3125 0-6 2.683594-6 6v37.917968h82.835937v-37.917968c0-3.316406-2.6875-6-6-6zm0 0" fill="#537d91"/><path d="m118.035156 446.414062v-37.921874c0-3.3125-2.6875-6-6-6h22c3.3125 0 6 2.6875 6 6v37.921874zm0 0" fill="#45738a"/><path d="m231.148438 211.945312h49.703124v201.96875h-49.703124zm0 0" fill="#e6f1fa"/><path d="m258.851562 211.945312h22v201.96875h-22zm0 0" fill="#cee4f7"/><path d="m291.417969 223.367188h-70.832031c-3.316407 0-6-2.6875-6-6v-37.921876h82.832031v37.921876c0 3.3125-2.6875 6-6 6zm0 0" fill="#537d91"/><path d="m275.417969 179.445312v37.921876c0 3.3125-2.6875 6-6 6h22c3.3125 0 6-2.6875 6-6v-37.921876zm0 0" fill="#45738a"/><path d="m291.417969 402.496094h-70.832031c-3.316407 0-6 2.683594-6 6v37.917968h82.832031v-37.917968c0-3.316406-2.6875-6-6-6zm0 0" fill="#537d91"/><path d="m275.417969 446.414062v-37.921874c0-3.3125-2.6875-6-6-6h22c3.3125 0 6 2.6875 6 6v37.921874zm0 0" fill="#45738a"/><path d="m388.53125 211.945312h49.703125v201.96875h-49.703125zm0 0" fill="#e6f1fa"/><path d="m416.234375 211.945312h22v201.96875h-22zm0 0" fill="#cee4f7"/><path d="m448.800781 223.367188h-70.835937c-3.3125 0-6-2.6875-6-6v-37.921876h82.835937v37.921876c0 3.3125-2.6875 6-6 6zm0 0" fill="#537d91"/><path d="m432.800781 179.445312v37.921876c0 3.3125-2.6875 6-6 6h22c3.3125 0 6-2.6875 6-6v-37.921876zm0 0" fill="#45738a"/><path d="m448.800781 402.496094h-70.835937c-3.3125 0-6 2.683594-6 6v37.917968h82.835937v-37.917968c0-3.316406-2.6875-6-6-6zm0 0" fill="#537d91"/><path d="m432.800781 446.414062v-37.921874c0-3.3125-2.6875-6-6-6h22c3.3125 0 6 2.6875 6 6v37.921874zm0 0" fill="#45738a"/><path d="m481.933594 190.234375h-451.867188c-3.3125 0-6-2.6875-6-6v-21.132813c0-3.316406 2.6875-6 6-6h451.867188c3.3125 0 6 2.683594 6 6v21.132813c0 3.3125-2.6875 6-6 6zm0 0" fill="#feda43"/><path d="m481.933594 157.101562h-22c3.3125 0 6 2.683594 6 6v21.132813c0 3.3125-2.6875 6-6 6h22c3.3125 0 6-2.6875 6-6v-21.132813c0-3.316406-2.6875-6-6-6zm0 0" fill="#fdb53e"/><path d="m487.933594 485.328125h-463.867188v-43.699219c0-3.3125 2.6875-6 6-6h451.867188c3.3125 0 6 2.6875 6 6zm0 0" fill="#feda43"/><path d="m481.933594 435.628906h-22c3.3125 0 6 2.6875 6 6v43.699219h22v-43.699219c0-3.3125-2.6875-6-6-6zm0 0" fill="#fdb53e"/><path d="m498.5 501.894531h-485c-3.3125 0-6-2.6875-6-6v-21.132812c0-3.3125 2.6875-6 6-6h485c3.3125 0 6 2.6875 6 6v21.132812c0 3.3125-2.6875 6-6 6zm0 0" fill="#e6f1fa"/><path d="m498.5 468.761719h-22c3.3125 0 6 2.6875 6 6v21.132812c0 3.3125-2.6875 6-6 6h22c3.3125 0 6-2.6875 6-6v-21.132812c0-3.3125-2.6875-6-6-6zm0 0" fill="#cee4f7"/><path d="m256 131.46875c13.273438 0 24.066406-10.796875 24.066406-24.066406 0-13.273438-10.796875-24.070313-24.066406-24.070313s-24.066406 10.796875-24.066406 24.070313c0 13.269531 10.796875 24.066406 24.066406 24.066406zm0-33.136719c5 0 9.066406 4.070313 9.066406 9.070313 0 4.996094-4.066406 9.066406-9.066406 9.066406s-9.066406-4.066406-9.066406-9.066406 4.066406-9.070313 9.066406-9.070313zm0 0"/><path d="m504.5 461.261719h-9.066406v-25.632813c0-4.140625-3.359375-7.5-7.5-7.5h-25.632813v-25.632812c0-4.140625-3.355469-7.5-7.5-7.5h-9.0625v-164.128906h9.0625c4.144531 0 7.5-3.359376 7.5-7.5v-25.632813h25.632813c4.144531 0 7.5-3.359375 7.5-7.5v-33.132813c0-4.140624-3.355469-7.5-7.5-7.5h-14.222656l-213.441407-147.769531c-2.566406-1.7773435-5.96875-1.7773435-8.539062 0l-213.4375 147.769531h-14.226563c-4.140625 0-7.5 3.355469-7.5 7.5v33.132813c0 4.140625 3.359375 7.5 7.5 7.5h25.632813v25.632813c0 4.140624 3.359375 7.5 7.5 7.5h9.066406v164.128906h-9.066406c-4.140625 0-7.5 3.355468-7.5 7.5v25.632812h-25.632813c-4.140625 0-7.5 3.359375-7.5 7.5v25.632813h-9.066406c-4.144531 0-7.5 3.355469-7.5 7.5v33.128906c0 4.144531 3.355469 7.5 7.5 7.5h497c4.144531 0 7.5-3.355469 7.5-7.5v-33.128906c0-4.140625-3.355469-7.5-7.5-7.5zm-57.199219-33.132813h-67.832031v-18.132812h67.832031zm-51.269531-33.132812v-164.128906h34.703125v164.128906zm51.269531-179.128906h-67.832031v-18.132813h67.832031zm-75.332031 15h9.0625v164.128906h-9.0625c-4.144531 0-7.5 3.355468-7.5 7.5v25.632812h-59.550781v-25.632812c0-4.144532-3.359375-7.5-7.5-7.5h-9.066407v-164.128906h9.066407c4.140625 0 7.5-3.359376 7.5-7.5v-25.632813h59.550781v25.632813c0 4.140624 3.355469 7.5 7.5 7.5zm-149.882812-33.132813h67.832031v18.132813h-67.832031zm16.5625 33.132813h34.703124v164.128906h-34.703124zm51.269531 179.128906v18.132812h-67.832031v-18.132812zm-258.351563-245.394532h9.070313.007812.003907 121.800781c4.144531 0 7.5-3.359374 7.5-7.5 0-4.144531-3.355469-7.5-7.5-7.5h-97.804688l191.355469-132.480468 191.359375 132.480468h-254.910156c-4.140625 0-7.5 3.355469-7.5 7.5 0 4.140626 3.359375 7.5 7.5 7.5h278.816406.023437 9.144532v18.132813h-448.867188zm33.132813 33.132813h67.835937v18.132813h-67.835937zm51.269531 33.132813v164.128906h-34.703125v-164.128906zm-51.269531 179.128906h67.835937v18.132812h-67.835937zm75.335937-15h-9.066406v-164.128906h9.066406c4.140625 0 7.5-3.359376 7.5-7.5v-25.632813h59.550782v25.632813c0 4.140624 3.355468 7.5 7.5 7.5h9.0625v164.128906h-9.0625c-4.144532 0-7.5 3.355468-7.5 7.5v25.632812h-59.550782v-25.632812c0-4.144532-3.359375-7.5-7.5-7.5zm-108.46875 48.132812h448.867188v18.132813h-448.867188zm465.433594 51.265625h-482v-18.132812h482zm0 0"/></svg>