<svg viewBox="0 0 64 64" xmlns="http://www.w3.org/2000/svg"><path d="m11.08 24.151a2 2 0 0 0 0 2.828 2.049 2.049 0 0 0 2.828 0l7.071-7.071a2 2 0 0 0 -2.829-2.828z"/><path d="m20.163 23.49h3.996v9.343h-3.996z" transform="matrix(.707 -.707 .707 .707 -13.422 23.918)"/><path d="m57.31 22.584-2.487.5a1 1 0 0 1 -.9-.273l-2.123-2.125a1 1 0 0 1 0-1.414l2.122-2.121-5.638-5.637a8.979 8.979 0 0 0 -4.6-2.462l-14.184-2.837-.055.055 7.937 3.969a5 5 0 0 1 1.3 8.008l-1.734 1.732 7.071 7.071 2.122-2.121a1 1 0 0 1 1.414 0l2.121 2.121a1 1 0 0 1 .273.9l-.5 2.485a1 1 0 0 0 .274.9l1.364 1.364 8.485-8.485-1.364-1.365a1 1 0 0 0 -.898-.265z"/><path d="m49.408 55.408-3.769-6.606-11.691-11.68-2.826 2.827 11.681 11.689z"/><path d="m6.2 57.8a3.07 3.07 0 0 0 4.242 0l30.75-30.75-4.242-4.242-30.75 30.748a3 3 0 0 0 0 4.243z"/></svg>