<svg viewBox="1 -1 511.999 511" xmlns="http://www.w3.org/2000/svg"><path d="m99.710938 383.789062c-2.746094 0-5.101563 1.160157-7.027344 3.144532-1.867188 1.953125-2.972656 4.304687-2.972656 7.054687v18.132813h-26.210938v-18.132813c0-2.75-.964844-5.1875-2.890625-7.167969-1.898437-1.984374-4.25-3.03125-7-3.03125-2.804687 0-5.183594 1.132813-7.140625 3.144532-1.871094 1.953125-2.976562 4.304687-2.976562 7.054687v56.773438c0 2.75 1.023437 5.15625 2.976562 7.082031 1.957031 1.929688 4.390625 2.917969 7.140625 2.917969 2.71875 0 5.128906-.960938 7.054687-2.945313 1.902344-1.925781 2.835938-4.332031 2.835938-7.054687v-20.113281h26.210938v20.113281c0 2.722656.960937 5.128906 2.917968 7.085937 1.925782 1.925782 4.335938 2.917969 7.085938 2.917969 2.773437 0 5.210937-1.050781 7.109375-3.0625 1.871093-1.925781 2.890625-4.25 2.890625-6.941406v-56.773438c0-2.804687-.960938-5.269531-2.945313-7.253906-1.929687-1.925781-4.308593-2.945313-7.058593-2.945313zm0 0"/><path d="m307.699219 383.304688c-10.371094 0-19.382813 3.371093-26.550781 10.9375-7.28125 7.707031-10.3125 17.253906-10.3125 27.792968 0 10.597656 3.03125 20.285156 10.371093 28.078125 7.109375 7.535157 16.035157 11.019531 26.378907 11.019531 10.398437 0 19.355468-3.511718 26.46875-11.132812 7.195312-7.765625 10.285156-17.253906 10.285156-27.765625 0-10.566406-3.03125-20.144531-10.316406-27.878906-7.082032-7.5625-16.007813-11.050781-26.324219-11.050781zm11.417969 54.113281c-2.972657 3.710937-6.769532 5.527343-11.53125 5.527343-4.761719 0-8.585938-1.730468-11.5625-5.46875-3.457032-4.363281-4.503907-9.945312-4.503907-15.355468 0-5.382813 1.132813-10.738282 4.621094-14.960938 3.003906-3.625 6.742187-5.464844 11.445313-5.464844 4.761718 0 8.613281 1.726563 11.5625 5.464844 3.429687 4.308594 4.503906 9.773438 4.503906 15.160156 0 5.410157-1.105469 10.792969-4.535156 15.097657zm0 0"/><path d="m469.160156 383.875c-3.457031 0-6.234375 1.5-8.191406 4.332031l-12.269531 17.480469-12.183594-17.480469c-1.871094-2.859375-4.675781-4.332031-8.160156-4.332031-2.804688 0-5.328125.960938-7.339844 2.972656-1.898437 1.898438-2.949219 4.222656-2.949219 6.941406 0 2.238282.851563 4.25 2.183594 6.035157l18.363281 25.214843v25.414063c0 2.832031 1.019531 5.296875 3.085938 7.28125 1.957031 1.867187 4.308593 2.917969 7 2.917969 2.804687 0 5.214843-1.050782 7.140625-3.089844 1.871094-1.984375 2.863281-4.390625 2.863281-7.109375v-25.414063l18.558594-25.242187c1.332031-1.757813 1.984375-3.796875 1.984375-6.007813 0-2.777343-1.078125-5.15625-3.089844-7.027343-1.953125-1.839844-4.304688-2.886719-6.996094-2.886719zm0 0"/><path d="m396.421875 429.429688c2.292969-.625 4.589844-1.472657 6.402344-2.691407 6.207031-4.222656 8.785156-10.566406 8.785156-17.933593 0-6.941407-2.464844-12.863282-7.652344-17.453126-5.328125-4.730468-11.871093-6.683593-18.957031-6.683593h-18.363281c-2.804688 0-5.242188.992187-7.226563 2.972656-2.011718 1.984375-2.972656 4.507813-2.972656 7.339844v55.472656c0 2.804687.992188 5.269531 2.972656 7.25l.085938.085937c2.011718 1.785157 4.421875 2.863282 7.140625 2.863282 2.722656 0 5.128906-.9375 7.058593-2.863282 1.925782-1.925781 2.859376-4.304687 2.859376-7.027343v-16.035157l17.882812 21.84375c2.011719 2.464844 4.617188 4.082032 7.847656 4.082032 2.75 0 5.1875-.9375 7.195313-2.804688l.058593-.058594.058594-.054687c1.839844-1.984375 2.886719-4.363281 2.886719-7.085937 0-2.464844-.933594-4.644532-2.605469-6.488282zm-6.71875-15.921876c-1.304687 1.246094-2.804687 1.871094-4.589844 1.871094h-8.472656v-12.097656h8.273437c1.816407 0 3.402344.507812 4.703126 1.785156l.058593.054688.027344.027344c1.246094 1.105468 1.898437 2.382812 1.898437 4.023437 0 1.757813-.652343 3.144531-1.898437 4.335937zm0 0"/><path d="m200.984375 417.046875c-4.136719-2.632813-9.773437-4.417969-14.507813-5.75-1.898437-.507813-3.796874-1.078125-5.636718-1.753906-.625-.226563-1.8125-.652344-2.378906-1.050781-.625-.507813-1.304688-1.214844-1.304688-2.066407 0-1.191406.59375-2.011719 1.53125-2.691406 1.300781-.992187 2.859375-1.332031 4.476562-1.332031 1.558594 0 3.539063.480468 5.042969.90625l2.804688.964844c1.730469.566406 4.050781 1.273437 5.867187 1.273437 2.578125 0 4.757813-.992187 6.488282-2.859375 1.671874-1.871094 2.523437-4.109375 2.523437-6.628906 0-4.363282-2.976563-7.339844-6.632813-9.320313-4.503906-2.4375-9.71875-3.230469-14.820312-3.230469-7.394531 0-14.367188 1.925782-20.0625 6.769532-5.382812 4.617187-8.101562 10.539062-8.101562 17.621094 0 6.742187 2.492187 12.382812 8.214843 16.09375 1.730469 1.132812 3.796875 2.011718 5.726563 2.746093 2.804687 1.078125 5.722656 1.984375 8.640625 2.835938 2.691406.792969 5.867187 1.699219 8.417969 2.859375.707031.3125 1.671874.851562 2.066406 1.53125.367187.707031.511718 1.5.511718 2.265625 0 1.644531-.652343 2.863281-1.957031 3.855469-1.640625 1.214843-3.597656 1.671874-5.609375 1.671874-3.144531 0-6.800781-1.105468-9.691406-2.15625-2.039062-.734374-5.554688-2.011718-7.707031-2.011718-2.523438 0-4.703125.964844-6.40625 2.835937-1.726563 1.898438-2.492188 4.21875-2.492188 6.769531v.511719c0 4.84375 3.824219 7.902344 7.847657 9.800781 5.441406 2.550782 11.703124 3.34375 17.652343 3.34375 7.738281 0 15.21875-1.871093 21.113281-7.054687 5.550782-4.898437 8.132813-11.191406 8.132813-18.527344 0-7.796875-3.003906-14.140625-9.75-18.222656zm0 0"/><path d="m133.972656 383.789062c-2.777344 0-5.1875 1.132813-7.113281 3.144532-1.871094 1.953125-2.976563 4.304687-2.976563 7.054687v56.660157c0 2.75.964844 5.15625 2.921876 7.085937 1.925781 1.953125 4.332031 2.917969 7.082031 2.917969s5.15625-.964844 7.085937-2.917969c1.925782-1.898437 2.917969-4.28125 2.917969-6.972656v-56.773438c0-2.746093-.964844-5.183593-2.890625-7.167969-1.902344-1.984374-4.253906-3.03125-7.027344-3.03125zm0 0"/><path d="m259.78125 384.582031h-37.117188c-2.523437 0-4.734374.960938-6.488281 2.777344-1.703125 1.78125-2.609375 3.964844-2.609375 6.429687 0 2.578126.90625 4.871094 2.777344 6.683594 1.726562 1.644532 3.824219 2.609375 6.234375 2.609375h8.644531v47.566407c0 2.75 1.046875 5.128906 2.972656 7.054687l.085938.085937c2.011719 1.785157 4.417969 2.859376 7.140625 2.859376 2.691406 0 5.042969-1.046876 6.914063-2.976563 1.898437-1.925781 2.890624-4.304687 2.890624-7.023437v-47.453126h8.558594c2.519532 0 4.730469-.9375 6.515625-2.722656 1.785157-1.785156 2.691407-3.964844 2.691407-6.488281 0-2.550781-.90625-4.816406-2.691407-6.628906-1.757812-1.8125-3.96875-2.773438-6.519531-2.773438zm0 0"/><path d="m389.25 276.554688c21.167969 0 32.242188-32.4375 32.242188-64.480469 0-32.058594-11.074219-64.507813-32.242188-64.507813-21.148438 0-32.214844 32.449219-32.214844 64.507813 0 32.042969 11.066406 64.480469 32.214844 64.480469zm.007812-108.769532c3.503907 1.503906 12.066407 16.65625 12.066407 44.289063 0 27.632812-8.566407 42.765625-12.066407 44.261719-3.5-1.515626-12.054687-16.675782-12.054687-44.261719 0-27.585938 8.550781-42.761719 12.054687-44.289063zm0 0"/><path d="m489.957031 337.894531h-23.976562v-318.5c0-10.417969-9.277344-18.894531-20.679688-18.894531h-112.097656c-3.867187 0-7.480469.996094-10.578125 2.695312-3.101562-1.699218-6.71875-2.695312-10.589844-2.695312h-112.097656c-3.867188 0-7.472656.992188-10.570312 2.691406-3.097657-1.699218-6.703126-2.691406-10.570313-2.691406h-112.125c-11.390625 0-20.65625 8.476562-20.65625 18.894531v318.5h-24c-12.140625 0-22.015625 9.886719-22.015625 22.039063v126.554687c0 12.136719 9.875 22.011719 22.015625 22.011719h467.941406c12.152344 0 22.042969-9.875 22.042969-22.011719v-126.554687c0-12.152344-9.886719-22.039063-22.042969-22.039063zm-157.238281-317.175781c.136719-.027344.296875-.050781.484375-.050781h112.097656c.195313 0 .367188.019531.511719.050781v26.382812h-113.09375zm0 46.554688h113.09375v23.316406h-113.09375zm-133.265625-46.558594c.136719-.027344.300781-.046875.484375-.046875h112.097656c.195313 0 .367188.019531.511719.050781v26.382812h-113.09375zm0 46.558594h113.09375v23.316406h-113.09375zm0 43.488281h113.09375v100.40625c0 5.566406 4.515625 10.082031 10.085937 10.082031 5.566407 0 10.082032-4.515625 10.082032-10.082031v-100.40625h113.097656v227.132812h-113.09375v-46.917969c0-5.570312-4.515625-10.085937-10.085938-10.085937-5.570312 0-10.082031 4.515625-10.082031 10.085937v46.917969h-113.097656zm-133.265625-90.046875c.136719-.027344.300781-.046875.484375-.046875h112.128906c.183594 0 .34375.019531.484375.046875v26.386718h-113.097656zm0 46.558594h113.09375v23.316406h-113.09375zm0 43.488281h113.09375v227.132812h-113.09375zm425.644531 375.726562c0 .980469-.878906 1.84375-1.875 1.84375h-467.941406c-.984375 0-1.847656-.863281-1.847656-1.84375v-126.554687c0-.996094.863281-1.871094 1.847656-1.871094h467.941406c.996094 0 1.871094.875 1.871094 1.871094v126.554687zm0 0"/><path d="m253.320312 148.613281c-21.167968 0-32.242187 32.453125-32.242187 64.507813 0 32.058594 11.074219 64.507812 32.242187 64.507812 21.167969 0 32.246094-32.449218 32.246094-64.507812 0-32.054688-11.074218-64.507813-32.246094-64.507813zm0 108.789063c-3.527343-1.609375-12.074218-16.816406-12.074218-44.28125s8.546875-42.671875 12.074218-44.28125c3.53125 1.609375 12.078126 16.816406 12.078126 44.28125s-8.546876 42.671875-12.078126 44.28125zm0 0"/><path d="m122.722656 147.566406c-21.152344 0-32.214844 32.449219-32.214844 64.507813 0 32.042969 11.0625 64.480469 32.214844 64.480469 21.167969 0 32.242188-32.4375 32.242188-64.480469 0-32.058594-11.074219-64.507813-32.242188-64.507813zm.003906 108.761719c-3.515624-1.589844-12.050781-16.789063-12.050781-44.253906 0-27.46875 8.53125-42.679688 12.050781-44.285157 3.519532 1.582032 12.070313 16.773438 12.070313 44.285157s-8.550781 42.6875-12.070313 44.253906zm0 0"/><path d="m322.632812 261.140625c5.570313 0 10.085938-4.515625 10.085938-10.082031v-.171875c0-5.566407-4.515625-10.082031-10.085938-10.082031-5.570312 0-10.082031 4.515624-10.082031 10.082031v.171875c-.003906 5.566406 4.511719 10.082031 10.082031 10.082031zm0 0"/></svg>