<svg id="Capa_1" enable-background="new 0 0 512 512" viewBox="0 0 512 512" xmlns="http://www.w3.org/2000/svg"><g><path d="m354.32 152.519c-8.289-5.526-81.705-54.47-90-60-5.039-3.358-11.602-3.358-16.641 0-8.291 5.528-81.713 54.476-90 60-6.894 4.596-8.756 13.909-4.16 20.801 4.596 6.894 13.911 8.756 20.801 4.161l6.68-4.453v82.972c0 8.284 6.716 15 15 15h120c8.284 0 15-6.716 15-15v-82.972l6.68 4.453c6.882 4.586 16.198 2.744 20.801-4.161 4.595-6.892 2.733-16.205-4.161-20.801zm-53.32 88.481h-90v-87.972l45-30 45 30z"/><path d="m256 0c-90.981 0-165 74.019-165 165 0 95.322 91.256 218.623 154.323 282.536 2.819 2.856 6.664 4.464 10.677 4.464s7.858-1.608 10.677-4.464c63.983-64.841 154.323-187.696 154.323-282.536 0-90.981-74.019-165-165-165zm-.004 415.075c-33.626-36.834-134.996-155.721-134.996-250.075 0-74.439 60.561-135 135-135s135 60.561 135 135c0 94.248-101.388 213.223-135.004 250.075z"/><path d="m166 482c-8.284 0-15 6.716-15 15s6.716 15 15 15h180c8.284 0 15-6.716 15-15s-6.716-15-15-15z"/></g></svg>