<svg id="Layer_1" viewBox="0 0 512 512" xmlns="http://www.w3.org/2000/svg" data-name="Layer 1"><path d="m495.5 29.007h-110.528a75.573 75.573 0 0 0 -97.944 0h-109.528a6 6 0 0 0 -6 6v36a6 6 0 0 0 6 6h22v57h-183a6 6 0 0 0 -6 6v37a6 6 0 0 0 6 6h9v312a6 6 0 0 0 6 6h436a6 6 0 0 0 6-6v-418h22a6 6 0 0 0 6-6v-36a6 6 0 0 0 -6-6zm-296 460h-162v-61.5h132a6 6 0 0 0 6-6v-73a6 6 0 0 0 -6-6h-132v-25h132a6 6 0 0 0 6-6v-73a6 6 0 0 0 -6-6h-132v-49.5h162zm-131-98v24.5h-31v-24.5zm-31-12v-24.5h31v24.5zm81 12v24.5h-38v-24.5zm-38-12v-24.5h38v24.5zm83 12v24.5h-33v-24.5zm-33-12v-24.5h33v24.5zm-62-98v24.5h-31v-24.5zm-31-12v-24.5h31v24.5zm81 12v24.5h-38v-24.5zm-38-12v-24.5h38v24.5zm83 12v24.5h-33v-24.5zm-33-12v-24.5h33v24.5zm69-98h-177v-25h177zm136.5-148.014a63.79 63.79 0 1 1 -63.789 63.79 63.861 63.861 0 0 1 63.789-63.79zm-152.5 42.014v-24h92.147a75.6 75.6 0 0 0 -12.233 24zm147 424h-37v-89h37zm50 0h-38v-89h38zm81 0h-69v-95a6 6 0 0 0 -6-6h-99a6 6 0 0 0 -6 6v95h-70v-412h49.362a75.789 75.789 0 1 0 150.276 0h50.362zm28-424h-80.914a75.6 75.6 0 0 0 -12.233-24h93.147z"/><path d="m431.5 283.507h-190a6 6 0 0 0 -6 6v73a6 6 0 0 0 6 6h190a6 6 0 0 0 6-6v-73a6 6 0 0 0 -6-6zm-151 73h-33v-24.5h33zm0-36.5h-33v-24.5h33zm50 36.5h-38v-24.5h38zm0-36.5h-38v-24.5h38zm50 36.5h-38v-24.5h38zm0-36.5h-38v-24.5h38zm45 36.5h-33v-24.5h33zm0-36.5h-33v-24.5h33z"/><path d="m235.5 179.507v73a6 6 0 0 0 6 6h190a6 6 0 0 0 6-6v-73a6 6 0 0 0 -6-6h-190a6 6 0 0 0 -6 6zm157 6h33v24.5h-33zm0 36.5h33v24.5h-33zm-50-36.5h38v24.5h-38zm0 36.5h38v24.5h-38zm-50-36.5h38v24.5h-38zm0 36.5h38v24.5h-38zm-45-36.5h33v24.5h-33zm0 36.5h33v24.5h-33z"/><path d="m296.794 102.7h23.292v23.291a6 6 0 0 0 6 6h19.828a6 6 0 0 0 6-6v-24.291h23.292a6 6 0 0 0 6-6v-18.831a6 6 0 0 0 -6-6h-23.292v-23.292a6 6 0 0 0 -6-6h-19.828a6 6 0 0 0 -6 6v23.292h-23.292a6 6 0 0 0 -6 6v19.831a6 6 0 0 0 6 6zm6-19.828h23.292a6 6 0 0 0 6-6v-23.295h7.828v23.292a6 6 0 0 0 6 6h23.292v6.831h-23.292a6 6 0 0 0 -6 6v24.291h-7.828v-23.291a6 6 0 0 0 -6-6h-23.292z"/></svg>