<svg id="Capa_1" enable-background="new 0 0 512 512" viewBox="0 0 512 512" xmlns="http://www.w3.org/2000/svg"><g><g><path d="m7.5 222.02c4.143 0 7.5-3.357 7.5-7.5v-186.82c0-7.003 5.697-12.7 12.7-12.7h222.24c7.002 0 12.699 5.697 12.699 12.7v59.08c0 4.143 3.357 7.5 7.5 7.5s7.5-3.357 7.5-7.5v-59.08c0-15.274-12.426-27.7-27.699-27.7h-222.24c-15.274 0-27.7 12.426-27.7 27.7v186.82c0 4.142 3.357 7.5 7.5 7.5z"/><path d="m118.618 237.235h40.406c4.143 0 7.5-3.357 7.5-7.5v-53.109h53.109c4.143 0 7.5-3.357 7.5-7.5v-40.406c0-4.143-3.357-7.5-7.5-7.5h-53.109v-53.11c0-4.143-3.357-7.5-7.5-7.5h-40.406c-4.143 0-7.5 3.357-7.5 7.5v53.11h-53.11c-4.143 0-7.5 3.357-7.5 7.5v40.406c0 4.143 3.357 7.5 7.5 7.5h53.11v53.109c0 4.143 3.358 7.5 7.5 7.5zm-53.11-75.609v-25.406h53.11c4.143 0 7.5-3.357 7.5-7.5v-53.11h25.406v53.11c0 4.143 3.357 7.5 7.5 7.5h53.109v25.406h-53.109c-4.143 0-7.5 3.357-7.5 7.5v53.109h-25.406v-53.109c0-4.143-3.357-7.5-7.5-7.5z"/><path d="m366.688 345.561c-3.911-1.368-8.188.691-9.557 4.602-4.045 11.559-10.522 21.842-19.255 30.564-15.375 15.376-35.815 23.844-57.556 23.844s-42.182-8.468-57.557-23.844c-15.371-15.37-23.836-35.81-23.836-57.551 0-21.742 8.465-42.182 23.836-57.552 15.375-15.376 35.815-23.844 57.557-23.844 21.74 0 42.181 8.468 57.557 23.844 14.132 14.131 22.547 32.896 23.695 52.838.238 4.135 3.782 7.312 7.919 7.056 4.135-.238 7.294-3.783 7.056-7.919-1.36-23.62-11.327-45.846-28.063-62.581-18.209-18.21-42.416-28.237-68.163-28.237-25.748 0-49.955 10.027-68.164 28.236-37.582 37.583-37.582 98.734 0 136.317 18.209 18.208 42.416 28.236 68.164 28.236 25.747 0 49.954-10.028 68.16-28.234 10.338-10.328 18.013-22.514 22.809-36.219 1.367-3.91-.693-8.188-4.602-9.556z"/><path d="m509.804 499.196-68.465-68.465c-2.93-2.928-7.678-2.928-10.607 0l-3.269 3.269-15.108-15.107 3.268-3.269c2.929-2.93 2.929-7.678 0-10.607l-21.525-21.525c9.76-18.356 14.94-38.937 14.94-60.315 0-34.382-13.39-66.706-37.701-91.019-24.312-24.312-56.637-37.7-91.019-37.7-.895 0-1.788.014-2.68.033v-72.661c0-4.143-3.357-7.5-7.5-7.5s-7.5 3.357-7.5 7.5v73.834c-27.677 3.779-53.245 16.401-73.339 36.494-14.719 14.719-25.114 32.146-31.199 50.691h-130.4c-7.003 0-12.7-5.701-12.7-12.71v-20.569c0-4.143-3.357-7.5-7.5-7.5s-7.5 3.357-7.5 7.5v20.569c0 15.279 12.426 27.71 27.7 27.71h126.463c-8.125 40.794 3.583 84.791 35.138 116.347 24.312 24.312 56.637 37.7 91.019 37.7 21.378 0 41.96-5.18 60.316-14.94l21.524 21.525c1.407 1.407 3.314 2.197 5.304 2.197s3.896-.79 5.304-2.196l3.269-3.269 15.107 15.107-3.268 3.268c-2.929 2.93-2.929 7.678 0 10.607l25.606 25.606c2.93 2.928 7.678 2.928 10.607 0 2.929-2.93 2.929-7.678 0-10.607l-20.304-20.303 32.251-32.251 63.161 63.162c1.465 1.464 3.385 2.196 5.304 2.196s3.839-.732 5.304-2.196c2.927-2.928 2.927-7.676-.001-10.606zm-309.896-95.607c-44.339-44.339-44.339-116.484 0-160.823 22.169-22.17 51.29-33.255 80.411-33.255s58.242 11.085 80.411 33.255c21.479 21.479 33.309 50.036 33.309 80.411 0 30.376-11.829 58.934-33.309 80.412-22.172 22.173-51.286 33.258-80.411 33.255-29.117-.003-58.245-11.088-80.411-33.255zm153.885 25.313c6.207-4.333 12.08-9.241 17.545-14.706s10.373-11.338 14.706-17.545l13.67 13.669-32.251 32.252zm32.849 15.705 15.107-15.108 15.108 15.107-15.108 15.108z"/></g></g></svg>