<?xml version="1.0" encoding="iso-8859-1"?>
<!-- Generator: Adobe Illustrator 19.0.0, SVG Export Plug-In . SVG Version: 6.00 Build 0)  -->
<svg version="1.1" id="Capa_1" xmlns="http://www.w3.org/2000/svg" xmlns:xlink="http://www.w3.org/1999/xlink" x="0px" y="0px"
	 viewBox="0 0 512 512" style="enable-background:new 0 0 512 512;" xml:space="preserve">
<g>
	<g>
		<path d="M507.752,213.72c-0.001-0.003-0.002-0.006-0.003-0.01c-6.24-30.812-19.03-59.258-38.016-84.543
			c-0.003-0.003-0.005-0.007-0.007-0.011c-5.957-7.944-12.567-15.562-19.647-22.642c-39.94-39.929-93.028-61.92-149.484-61.92
			c-33.868,0-66.197,7.743-96.083,23.015c-28.51,14.568-53.745,35.849-72.975,61.543c-0.002,0.003-0.005,0.005-0.007,0.008
			c-18.613,24.849-31.693,54.042-37.835,84.433c-0.002,0.007-0.004,0.014-0.006,0.021c-0.005,0.023-0.009,0.048-0.014,0.071
			c-0.004,0.019-0.008,0.037-0.012,0.056c-0.001,0.005-0.001,0.01-0.002,0.015c-1.659,7.855-2.397,22.56-2.717,32.421
			C40.241,249.482,0,291.772,0,343.292v114.066c0,5.544,4.495,10.039,10.039,10.039H53.69h87.301H300.4
			c0.065,0.001,0.128,0.01,0.194,0.01h201.367c5.544,0,10.039-4.496,10.039-10.039V256C512,241.79,510.57,227.564,507.752,213.72z
			 M456.599,145.218c13.172,18.493,22.772,38.768,28.637,60.465h-73.919v-60.465H456.599z M310.633,64.936
			c47.323,2.431,91.478,22.016,125.248,55.778c1.449,1.449,2.869,2.929,4.273,4.425h-38.877h-90.644V64.936z M290.555,64.928v60.212
			h-90.644h-38.896C194.74,88.897,240.634,67.466,290.555,64.928z M144.668,145.218h45.204v60.465h-73.705
			C122.006,183.952,131.559,163.678,144.668,145.218z M112.23,225.762h87.68h90.644v67.406
			c-20.048-28.526-53.203-47.207-90.643-47.207h-88.865C111.268,239.55,111.644,231.899,112.23,225.762z M130.952,447.318H63.729
			v-50.889h37.025c5.545,0,10.039-4.496,10.039-10.039c0-5.544-4.495-10.039-10.039-10.039H63.729v-13.432h37.025
			c5.545,0,10.039-4.496,10.039-10.039c0-5.544-4.495-10.039-10.039-10.039H64.309c2.912-15.588,16.611-27.427,33.031-27.427
			c8.979,0,17.417,3.496,23.766,9.853c6.349,6.341,9.845,14.779,9.845,23.758V447.318z M174.592,447.318H151.03v-98.294
			c0-14.347-5.588-27.83-15.725-37.955c-10.135-10.147-23.617-15.735-37.964-15.735c-29.605,0-53.69,24.085-53.69,53.69v98.294
			H20.078V343.292c0-42.596,34.659-77.252,77.262-77.252c42.597,0,77.252,34.655,77.252,77.252V447.318z M290.555,447.318H194.67
			v-14.125h40.749c5.545,0,10.039-4.496,10.039-10.039s-4.495-10.039-10.039-10.039H194.67v-69.823
			c0-31.444-14.992-59.446-38.198-77.252h43.439c49.981,0,90.644,40.659,90.644,90.634V447.318z M209.95,205.683v-60.465h181.288
			v60.465H209.95z M310.633,306.307h80.605v60.466h-80.605v-10.099V306.307z M491.912,447.318H310.633v-60.466h90.644h90.634
			V447.318z M491.912,366.772h-80.595v-60.465h80.595V366.772z M491.922,286.229H310.633v-60.466h90.644h88.244
			c1.586,9.969,2.4,20.106,2.4,30.238V286.229z"/>
	</g>
</g>
<g>
	<g>
		<path d="M265.035,413.114c-12.919,0-12.941,20.078,0,20.078C277.955,433.193,277.976,413.114,265.035,413.114z"/>
	</g>
</g>
<g>
</g>
<g>
</g>
<g>
</g>
<g>
</g>
<g>
</g>
<g>
</g>
<g>
</g>
<g>
</g>
<g>
</g>
<g>
</g>
<g>
</g>
<g>
</g>
<g>
</g>
<g>
</g>
<g>
</g>
</svg>
