<?xml version="1.0" encoding="iso-8859-1"?>
<!-- Generator: Adobe Illustrator 19.0.0, SVG Export Plug-In . SVG Version: 6.00 Build 0)  -->
<svg version="1.1" id="Capa_1" xmlns="http://www.w3.org/2000/svg" xmlns:xlink="http://www.w3.org/1999/xlink" x="0px" y="0px"
	 viewBox="0 0 512 512" style="enable-background:new 0 0 512 512;" xml:space="preserve">
<g>
	<g>
		<path d="M510.136,283.072c0-0.003-0.001-0.005-0.001-0.008c-3.236-24.425-10.652-47.87-22.041-69.685
			c-0.001-0.003-0.002-0.006-0.004-0.008c-13.951-26.771-33.937-50.745-57.81-69.37c-0.116-0.103-0.241-0.194-0.363-0.29
			c-0.013-0.01-0.025-0.021-0.038-0.031c-0.002-0.001-0.004-0.002-0.007-0.004c-0.112-0.086-0.218-0.18-0.335-0.26
			c-37.37-28.888-82.15-44.156-129.526-44.156c-47.519,0-92.419,15.36-129.849,44.421l-0.001,0.001
			c-24.061,18.669-44.199,42.766-58.238,69.687v0.001c-5.605,10.751-10.292,22.043-13.976,33.636h-2.381h-0.001
			c-0.014,0-0.028,0-0.042,0C42.851,247.005,0,289.856,0,342.528v62.712c0,4.142,3.358,7.5,7.5,7.5h497c4.142,0,7.5-3.358,7.5-7.5
			v-93.991C512,301.776,511.373,292.296,510.136,283.072z M300.011,114.26c36.152,0,70.671,9.563,101.087,27.845H198.939
			C229.348,123.823,263.862,114.26,300.011,114.26z M123.181,224.337h254.453c4.142,0,7.5-3.358,7.5-7.5c0-4.142-3.358-7.5-7.5-7.5
			H131.407c12.066-19.87,27.757-37.728,45.951-52.231h245.326c18.187,14.504,33.868,32.36,45.926,52.231h-61.107
			c-4.142,0-7.5,3.358-7.5,7.5c0,4.142,3.358,7.5,7.5,7.5h69.333c8.165,16.552,13.905,34.068,17.12,52.232H238.563
			c-6.365-6.662-13.608-12.305-21.464-16.823c-0.126-0.072-0.252-0.144-0.378-0.215c-14.356-8.179-30.718-12.524-47.241-12.524
			h-55.738C116.414,239.257,119.571,231.673,123.181,224.337z M134.947,397.74H56.089v-55.212c0-21.487,17.972-39.434,39.434-39.434
			c21.393,0,39.424,18.056,39.424,39.434V397.74z M176.035,397.74h-26.089v-55.212c0-3.74-0.395-7.403-1.144-10.949
			c-5.191-24.55-27.39-43.485-53.279-43.485c-29.49,0-54.434,24.98-54.434,54.434v55.212H15v-55.212
			c0-44.4,36.122-80.522,80.522-80.522c29.643,0,57.478,16.914,71.285,43.121c6.046,11.475,9.228,24.433,9.228,37.401V397.74z
			 M250,397.735h-58.964c-0.001-0.001-0.001-55.206-0.001-55.207c0-26.182-11.072-51.694-30.162-69.595
			c-0.074-0.07-0.15-0.139-0.225-0.209c-4.195-3.921-8.894-7.583-13.793-10.718h22.625c5.872,0,11.707,0.638,17.438,1.917
			c23.76,5.301,44.434,21.616,55.097,43.661c5.238,10.83,7.985,22.912,7.985,34.942V397.735z M497,397.74H265V358.8h232V397.74z
			 M497,343.8H265c-0.001-0.425-0.022-3.318-0.055-4.339c-0.519-16.394-5.352-32.623-13.889-46.629
			c-0.094-0.155-0.642-1.263-0.784-1.263h245.756c0.646,6.492,0.972,13.086,0.972,19.68V343.8z"/>
	</g>
</g>
<g>
</g>
<g>
</g>
<g>
</g>
<g>
</g>
<g>
</g>
<g>
</g>
<g>
</g>
<g>
</g>
<g>
</g>
<g>
</g>
<g>
</g>
<g>
</g>
<g>
</g>
<g>
</g>
<g>
</g>
</svg>
