<svg id="Capa_1" enable-background="new 0 0 512.676 512.676" viewBox="0 0 512.676 512.676" xmlns="http://www.w3.org/2000/svg"><g><path d="m467.749 80.856c-35.617-1.372-63.867-30.382-64.313-66.044l-.186-14.812h-293.825l-.185 14.812c-.447 35.662-28.696 64.672-64.313 66.044l-14.422.556v120.805c0 109.129 56.583 210.38 147.668 264.24l78.165 46.219 78.165-46.219c91.086-53.859 147.669-155.11 147.669-264.24v-120.805zm-15.577 121.361c0 98.574-50.939 189.93-132.938 238.417l-62.896 37.19-62.896-37.19c-81.999-48.487-132.938-139.843-132.938-238.417v-93.014c39.789-7.535 70.785-39.262 77.421-79.203h236.825c6.637 39.94 37.633 71.668 77.422 79.203z"/><path d="m271.338 171.818h-30v48.393h-48.394v30h48.394v48.394h30v-48.394h48.393v-30h-48.393z"/><path d="m256.338 104c-72.35 0-131.211 58.861-131.211 131.211s58.861 131.211 131.211 131.211 131.211-58.861 131.211-131.211-58.861-131.211-131.211-131.211zm0 232.423c-55.808 0-101.211-45.403-101.211-101.211s45.403-101.212 101.211-101.212 101.211 45.403 101.211 101.211-45.403 101.212-101.211 101.212z"/></g></svg>