<svg id="_x31_px" enable-background="new 0 0 24 24" viewBox="0 0 24 24" xmlns="http://www.w3.org/2000/svg"><path d="m19.5 24h-15c-1.379 0-2.5-1.122-2.5-2.5v-4.05c0-.276.224-.5.5-.5s.5.224.5.5v4.05c0 .827.673 1.5 1.5 1.5h15c.827 0 1.5-.673 1.5-1.5v-4.05c0-.276.224-.5.5-.5s.5.224.5.5v4.05c0 1.378-1.121 2.5-2.5 2.5z"/><path d="m21.5 7.06c-.276 0-.5-.224-.5-.5v-4.06c0-.827-.673-1.5-1.5-1.5h-15c-.827 0-1.5.673-1.5 1.5v4.05c0 .276-.224.5-.5.5s-.5-.224-.5-.5v-4.05c0-1.378 1.121-2.5 2.5-2.5h15c1.379 0 2.5 1.122 2.5 2.5v4.06c0 .276-.224.5-.5.5z"/><path d="m2 15c-.276 0-.5-.224-.5-.5v-5c0-.276.224-.5.5-.5s.5.224.5.5v5c0 .276-.224.5-.5.5z"/><path d="m7 15c-.173 0-.337-.089-.429-.243l-2.071-3.452v3.195c0 .276-.224.5-.5.5s-.5-.224-.5-.5v-5c0-.225.15-.422.366-.482.223-.06.447.032.563.225l2.071 3.452v-3.195c0-.276.224-.5.5-.5s.5.224.5.5v5c0 .225-.15.422-.366.482-.045.012-.09.018-.134.018z"/><path d="m11 15h-2c-.276 0-.5-.224-.5-.5v-5c0-.276.224-.5.5-.5h2c.827 0 1.5.673 1.5 1.5v3c0 .827-.673 1.5-1.5 1.5zm-1.5-1h1.5c.275 0 .5-.224.5-.5v-3c0-.276-.225-.5-.5-.5h-1.5z"/><path d="m17 12.5h-2.75c-.276 0-.5-.224-.5-.5s.224-.5.5-.5h2.75c.276 0 .5.224.5.5s-.224.5-.5.5z"/><path d="m17 15h-2c-.827 0-1.5-.673-1.5-1.5v-3c0-.827.673-1.5 1.5-1.5h2c.276 0 .5.224.5.5s-.224.5-.5.5h-2c-.275 0-.5.224-.5.5v3c0 .276.225.5.5.5h2c.276 0 .5.224.5.5s-.224.5-.5.5z"/><path d="m22 15c-.169 0-.335-.086-.429-.243l-3-5c-.143-.237-.065-.544.172-.686.235-.14.544-.066.686.171l3 5c.143.237.065.544-.172.686-.08.049-.169.072-.257.072z"/><path d="m19 15c-.088 0-.177-.023-.257-.071-.237-.142-.314-.449-.172-.686l3-5c.144-.238.452-.312.686-.171.237.142.314.449.172.686l-3 5c-.094.156-.26.242-.429.242z"/></svg>