<svg id="Layer_5" enable-background="new 0 0 64 64" viewBox="0 0 64 64" xmlns="http://www.w3.org/2000/svg"><g><path d="m15 47c.552 0 1 .448 1 1h2c0-1.654-1.346-3-3-3v-2h-2v2h-3v3c0 1.654 1.346 3 3 3h2c.552 0 1 .448 1 1v1h-3c-.552 0-1-.448-1-1h-2c0 1.654 1.346 3 3 3v2h2v-2h3v-3c0-1.654-1.346-3-3-3h-2c-.552 0-1-.448-1-1v-1z"/><path d="m63 14v-13h-13v2h9.586l-17.586 17.586-7-7-11.981 11.981c-.595-.352-1.279-.567-2.019-.567-1.33 0-2.036.807-2.504 1.341-.436.498-.61.659-.999.659-.39 0-.563-.161-1-.659-.468-.534-1.174-1.341-2.503-1.341-1.328 0-2.034.808-2.502 1.342-.434.497-.608.658-.996.658s-.561-.161-.995-.658c-.467-.534-1.173-1.342-2.501-1.342-2.206 0-4 1.794-4 4 0 .859.284 1.711.8 2.4l4.844 6.458-3.309 2.895c-2.755 2.411-4.335 5.893-4.335 9.554 0 6.999 5.694 12.693 12.693 12.693h.613c2.531 0 4.885-.753 6.867-2.034.405 1.179 1.513 2.034 2.827 2.034h20 16c1.654 0 3-1.346 3-3v-2c0-.771-.301-1.468-.78-2 .48-.532.78-1.229.78-2v-2c0-.771-.301-1.468-.78-2 .48-.532.78-1.229.78-2v-2c0-.771-.301-1.468-.78-2 .48-.532.78-1.229.78-2v-2c0-1.654-1.346-3-3-3h-1v-20h-8v20h-2v-10h-8v10h-1c-.352 0-.686.072-1 .184v-14.184h-8v20h-6.329c-.576-.817-1.24-1.577-2.006-2.247l-3.309-2.895 4.845-6.458c.515-.689.799-1.541.799-2.4 0-.74-.215-1.424-.567-2.019l10.567-10.567 7 7 19-19v9.586zm-39 47c-.552 0-1-.448-1-1v-.469c.762-.718 1.434-1.527 2-2.413v1.882h2v-2h2v2h2v-2h2v2h2v-2h2v2h2v-2h2v2h2v-2h1c.552 0 1 .448 1 1v2c0 .552-.448 1-1 1zm2.965-10h2.035v2h2v-2h2v2h2v-2h2v2h2v-2h2v2h2v-2h1c.552 0 1 .448 1 1v2c0 .552-.448 1-1 1h-17.91c.499-1.249.798-2.594.875-4zm24.035-4v-2h2v2h2v-2h2v2h2v-2h1c.552 0 1 .448 1 1v2c0 .552-.448 1-1 1h-13.184c.112-.314.184-.648.184-1v-2c0-.352-.072-.686-.184-1h2.184v2zm10 5v2c0 .552-.448 1-1 1h-13.184c.112-.314.184-.648.184-1v-2c0-.352-.072-.686-.184-1h2.184v2h2v-2h2v2h2v-2h2v2h2v-2h1c.552 0 1 .448 1 1zm0 8c0 .552-.448 1-1 1h-13.184c.112-.314.184-.648.184-1v-2c0-.352-.072-.686-.184-1h2.184v2h2v-2h2v2h2v-2h2v2h2v-2h1c.552 0 1 .448 1 1zm-8-41h4v18h-4zm-10 10h4v8h-4zm-3 10h1v2h2v-2h2v2h2v-2h2v2h2v-2h2v2h2v-2h2v2h2v-2h1c.552 0 1 .448 1 1v2c0 .552-.448 1-1 1h-14-2-4c-.552 0-1-.448-1-1v-2c0-.552.448-1 1-1zm-7-14h4v15 2 1h-4zm-4 20v2h2v-2h2v2h2v-2h2v2h2v-2h1 1v2h2v-2h1c.552 0 1 .448 1 1v2c0 .552-.448 1-1 1h-17.07c-.144-1.393-.517-2.743-1.096-4zm-4 5.307c0 5.896-4.797 10.693-10.693 10.693h-.613c-5.897 0-10.694-4.797-10.694-10.693 0-3.083 1.331-6.017 3.651-8.048l3.725-3.259h7.248l3.725 3.259c2.32 2.031 3.651 4.965 3.651 8.048zm-2.399-20.107-5.101 6.8h-7l-5.1-6.8c-.258-.344-.4-.77-.4-1.2 0-1.103.897-2 2-2 .388 0 .561.161.995.658.467.534 1.173 1.342 2.501 1.342s2.034-.808 2.502-1.342c.435-.497.608-.658.996-.658.389 0 .563.161.999.659.468.534 1.174 1.341 2.504 1.341 1.329 0 2.035-.807 2.503-1.341.437-.498.61-.659 1-.659 1.103 0 2 .897 2 2 0 .43-.142.856-.399 1.2z"/></g></svg>