<svg id="Layer_1" viewBox="0 0 512 512" xmlns="http://www.w3.org/2000/svg" data-name="Layer 1"><path d="m443.591 109.215-184.919-90.815a6.032 6.032 0 0 0 -5.3 0l-184.95 90.554a6.056 6.056 0 0 0 -3.422 5.388v173.247c0 42.848 28.877 97.359 64.3 121.514l123.288 84.065a6.034 6.034 0 0 0 6.782 0l123.268-84.068c17.264-11.771 33.479-30.829 45.559-53.662 12.09-22.851 18.8-46.948 18.8-67.853v-172.985a6.048 6.048 0 0 0 -3.406-5.385zm-8.591 178.374c0 39.35-26.526 89.414-59.065 111.6l-119.908 81.76-119.949-81.761c-32.539-22.188-59.078-72.249-59.078-111.599v-169.5l179-87.618 179 87.867z"/><path d="m108.4 256c0 81.388 66.214 147.6 147.6 147.6s147.6-66.212 147.6-147.6-66.213-147.6-147.6-147.6-147.6 66.212-147.6 147.6zm147.6-135.6c74.771 0 135.6 60.83 135.6 135.6s-60.829 135.6-135.6 135.6-135.6-60.829-135.6-135.6 60.829-135.6 135.6-135.6z"/><path d="m168.041 340.675c.145 0 .29-.006.436-.016l34.924-2.537a6 6 0 0 0 5.533-5.368l1.9-18.346 18.434-1.966a6 6 0 0 0 5.337-6.533l-1.535-16.172 5.355-5.354 14.981 1.682a6 6 0 0 0 5.013-1.822l11.214-11.763 10.367 10.371a21.847 21.847 0 0 0 30.861 0l32.072-32.072a37.686 37.686 0 0 0 0-53.237l-33.19-33.191a37.687 37.687 0 0 0 -53.236 0l-32.073 32.072a21.847 21.847 0 0 0 0 30.861l9.631 9.631-66.394 66.393a6.005 6.005 0 0 0 -1.7 3.395l-3.87 27.124a6 6 0 0 0 5.939 6.848zm64.877-135.767 32.072-32.072a25.673 25.673 0 0 1 36.266 0l33.191 33.191a25.672 25.672 0 0 1 0 36.266l-32.072 32.073a9.834 9.834 0 0 1 -13.891 0l-55.566-55.566a9.833 9.833 0 0 1 0-13.892zm-55.349 105.471 64.979-64.979 18.593 18.593-9.358 9.815-14.892-1.673a6 6 0 0 0 -4.913 1.72l-9.394 9.395a6 6 0 0 0 -1.731 4.809l1.241 13.08-17.369 1.852a6 6 0 0 0 -5.332 5.349l-1.878 18.178-22.482 1.633z"/><path d="m308.669 246.01a5.979 5.979 0 0 0 4.242-1.758l7.273-7.272a16.568 16.568 0 0 0 0-23.4l-26.478-26.48a16.565 16.565 0 0 0 -23.4 0l-7.272 7.272a6 6 0 0 0 0 8.485l41.395 41.4a5.981 5.981 0 0 0 4.24 1.753zm-29.881-50.425a4.554 4.554 0 0 1 6.432 0l26.48 26.478a4.552 4.552 0 0 1 0 6.432l-3.029 3.029-32.91-32.91z"/></svg>