<svg id="Capa_1" enable-background="new 0 0 510.818 510.818" viewBox="0 0 510.818 510.818" xmlns="http://www.w3.org/2000/svg"><g><path d="m475.412 277.586c4.441-1.966 7.311-6.374 7.311-11.23s-2.87-9.265-7.311-11.23l-69.766-30.879v-32.771l69.766-30.879c4.441-1.966 7.311-6.374 7.311-11.23s-2.87-9.265-7.311-11.23l-69.766-30.879v-99.758c0-4.142-3.358-7.5-7.5-7.5s-7.5 3.358-7.5 7.5v93.117l-130.267-57.657c-3.158-1.397-6.781-1.397-9.941 0l-54.536 24.138c-3.788 1.677-5.499 6.106-3.823 9.894s6.107 5.499 9.894 3.823l53.436-23.651 135.237 59.857v19.837c0 4.142 3.358 7.5 7.5 7.5s7.5-3.358 7.5-7.5v-13.198l58.078 25.706-113.629 50.293-34.026-15.06c-3.788-1.676-8.217.036-9.894 3.823-1.676 3.788.035 8.217 3.823 9.894l21.566 9.545-76.155 33.707-76.155-33.707 21.566-9.545c3.788-1.677 5.499-6.106 3.823-9.894-1.677-3.788-6.105-5.499-9.894-3.823l-34.026 15.06-113.629-50.293 59.078-26.148v13.64c0 4.142 3.358 7.5 7.5 7.5s7.5-3.358 7.5-7.5v-20.279l50.946-22.549c3.788-1.677 5.499-6.106 3.823-9.894-1.677-3.788-6.108-5.5-9.894-3.823l-44.875 19.862v-92.675c0-4.142-3.358-7.5-7.5-7.5s-7.5 3.358-7.5 7.5v99.314l-70.766 31.322c-4.441 1.966-7.311 6.374-7.311 11.23s2.87 9.265 7.311 11.23l70.766 31.322v31.886l-70.766 31.322c-4.441 1.966-7.311 6.374-7.311 11.23s2.87 9.265 7.311 11.23l70.766 31.322v37.198l-70.766 31.322c-4.441 1.966-7.311 6.374-7.311 11.23s2.87 9.265 7.311 11.23l70.766 31.322v57.28l-14.841-10.918c-3.337-2.454-8.032-1.74-10.486 1.597-2.455 3.337-1.739 8.031 1.597 10.486l26.786 19.704c1.322.972 2.883 1.458 4.444 1.458s3.123-.486 4.444-1.458l26.786-19.704c3.336-2.455 4.052-7.149 1.597-10.486-2.455-3.336-7.149-4.051-10.486-1.597l-14.841 10.918v-50.641l129.267 57.214c1.579.699 3.275 1.048 4.97 1.048s3.391-.35 4.971-1.048l48.706-21.557c3.788-1.677 5.499-6.106 3.823-9.894-1.677-3.788-6.106-5.498-9.894-3.823l-47.605 21.07-208.316-92.201 59.078-26.148v21.466c0 4.142 3.358 7.5 7.5 7.5s7.5-3.358 7.5-7.5v-28.106l45.553-20.162 83.714 37.052c1.579.699 3.274 1.048 4.97 1.048 1.695 0 3.391-.35 4.971-1.048l83.714-37.052 46.553 20.604v27.662c0 4.142 3.358 7.5 7.5 7.5s7.5-3.358 7.5-7.5v-21.023l58.078 25.706-130.854 57.917c-3.788 1.677-5.499 6.106-3.823 9.894 1.24 2.801 3.985 4.466 6.862 4.466 1.014 0 2.045-.207 3.032-.644l51.706-22.885v51.084l-14.841-10.918c-3.337-2.454-8.031-1.74-10.486 1.597s-1.739 8.031 1.597 10.486l26.786 19.704c1.322.972 2.883 1.458 4.444 1.458s3.123-.486 4.444-1.458l26.786-19.704c3.336-2.455 4.052-7.149 1.597-10.486-2.455-3.336-7.149-4.051-10.486-1.597l-14.841 10.918v-57.723l69.766-30.879c4.441-1.966 7.311-6.374 7.311-11.23s-2.87-9.265-7.311-11.23l-69.766-30.879v-38.083zm-84.766-79.472v19.493l-22.02-9.746zm-269.474.443 21.02 9.304-21.02 9.304zm0 140.909v-23.92l27.022 11.96zm134.237 19.091-70.153-31.05 15.565-6.889c3.788-1.677 5.499-6.106 3.823-9.894-1.677-3.788-6.107-5.498-9.894-3.823l-28.024 12.404-50.106-22.177c-.014-.006-.027-.012-.041-.018l-69.483-30.754 59.078-26.148v25.658c0 4.142 3.358 7.5 7.5 7.5s7.5-3.358 7.5-7.5v-32.297l39.551-17.506 89.715 39.708c1.579.699 3.274 1.048 4.97 1.048 1.695 0 3.391-.35 4.971-1.048l89.715-39.708 40.551 17.948v31.854c0 4.142 3.358 7.5 7.5 7.5s7.5-3.358 7.5-7.5v-25.215l58.078 25.706-119.63 52.949-28.024-12.404c-3.788-1.677-8.217.036-9.894 3.823-1.676 3.788.035 8.217 3.823 9.894l15.565 6.889zm135.237-18.648-28.022-12.403 28.022-12.403z"/><path d="m237.881 181.912 17.528-7.758 17.528 7.758c.987.437 2.017.644 3.032.644 2.877 0 5.623-1.666 6.862-4.466 1.676-3.788-.035-8.217-3.823-9.894l-18.629-8.245c-3.158-1.397-6.781-1.398-9.941 0l-18.628 8.245c-3.788 1.677-5.499 6.106-3.823 9.894 1.676 3.787 6.107 5.495 9.894 3.822z"/><path d="m279.008 290.497-18.626-8.244c-3.16-1.4-6.785-1.399-9.943-.001l-18.628 8.245c-3.788 1.676-5.5 6.106-3.823 9.894 1.677 3.789 6.107 5.5 9.894 3.823l17.528-7.758 17.528 7.758c.987.437 2.017.644 3.031.644 2.877 0 5.623-1.666 6.862-4.467 1.676-3.788-.035-8.218-3.823-9.894z"/></g></svg>