<svg viewBox="-38 1 511 511.999" xmlns="http://www.w3.org/2000/svg"><path d="m414.28125 212.289062h-82.042969c6.425781-8.882812 11.992188-18.183593 16.125-27.734374 5.210938-12.0625 7.890625-23.90625 7.953125-35.210938.136719-22.695312-8.382812-44.359375-23.363281-59.429688-12.753906-12.828124-29.1875-19.894531-46.273437-19.894531-20.019532 0-38.550782 9.746094-51.464844 25.875-12.914063-16.128906-31.445313-25.875-51.464844-25.875-19.050781 0-36.804688 8.566407-49.996094 24.109375-12.546875 14.789063-19.523437 34.332032-19.644531 55.035156-.066406 11.34375 2.519531 23.226563 7.679687 35.324219 4.085938 9.574219 9.640626 18.898438 16.066407 27.800781h-78.476563c-5.375 0-10.339844 2.875-13.015625 7.542969l-42.035156 73.375c-5.128906 8.949219-5.101563 19.621094.070313 28.550781 5.144531 8.875 14.324218 14.175782 24.554687 14.175782h30.203125l4.269531 75.242187c-.078125 11.195313 4.703125 21.757813 13.183594 29.0625 8.496094 7.324219 19.667969 10.464844 30.703125 8.648438l32.28125-4.1875.246094 52.371093c.039062 8.253907 6.742187 14.929688 15 14.929688h184.75c8.285156 0 15-6.71875 15-15v-112.648438c47.035156-30.65625 72.148437-83.269531 74.683594-156.542968.140624-4.066406-1.375-8.015625-4.203126-10.941406-2.824218-2.925782-6.71875-4.578126-10.789062-4.578126zm-230.53125-112.269531c16.398438 0 31.3125 12.917969 37.101562 32.144531 1.910157 6.339844 7.746094 10.675782 14.363282 10.675782 6.617187 0 12.453125-4.335938 14.363281-10.675782 5.789063-19.226562 20.699219-32.144531 37.101563-32.144531 9.039062 0 17.917968 3.921875 24.996093 11.042969 9.390625 9.449219 14.730469 23.335938 14.640625 38.101562-.039062 7.25-1.890625 15.148438-5.492187 23.484376-6.660157 15.40625-18.328125 30.4375-31.207031 43.828124-.265626.25-.511719.511719-.753907.78125-19.71875 20.328126-42.09375 36.761719-53.6875 44.757813-7.3125-5-18.910156-13.335937-31.464843-23.941406-27.042969-22.839844-45.832032-45.441407-54.332032-65.359375-3.539062-8.300782-5.3125-16.160156-5.269531-23.371094.160156-27.199219 17.941406-49.324219 39.640625-49.324219zm198.402344 207.878907c-11.257813 24.148437-27.625 42.160156-50.042969 55.058593-4.652344 2.675781-7.519531 7.636719-7.519531 13.003907v106.039062h-154.820313l-.199219-42.539062 28.351563-6.78125c18.574219-4.441407 34.203125-16.792969 42.878906-33.902344 9.238281-18.210938 20.980469-42.054688 21.097657-42.292969 1.050781-2.132813 1.546874-4.394531 1.542968-6.621094 0-5.535156-3.078125-10.851562-8.375-13.460937-7.433594-3.660156-16.425781-.601563-20.082031 6.832031-.117187.238281-11.78125 23.917969-20.9375 41.976563-4.6875 9.234374-13.105469 15.902343-23.097656 18.289062l-39.152344 9.363281-48.632813 6.3125c-.214843.027344-.433593.058594-.648437.097657-3.09375.539062-5.289063-.867188-6.320313-1.757813-1.070312-.921875-2.847656-2.960937-2.769531-6.285156.011719-.40625.003907-.808594-.019531-1.214844l-4.75-83.761719c.628906-1.65625.972656-3.445312.972656-5.320312 0-8.285156-6.71875-15-15-15h-43.015625l36.460938-63.644532h95.78125c29.394531 29.167969 61.371093 49.175782 63.460937 50.472657 2.421875 1.496093 5.160156 2.246093 7.898438 2.246093 2.753906 0 5.511718-.757812 7.941406-2.273437 2.070312-1.292969 33.8125-21.296875 63.109375-50.441406h92.085937c-2.207031 25.21875-7.640624 47.234375-16.199218 65.605469zm0 0"/><path d="m236.011719 40.78125c8.285156 0 15-6.714844 15-15v-10.78125c0-8.285156-6.714844-15-15-15-8.285157 0-15 6.714844-15 15v10.78125c0 8.285156 6.714843 15 15 15zm0 0"/><path d="m97.996094 80.867188c2.929687 2.9375 6.773437 4.40625 10.621094 4.40625 3.832031 0 7.664062-1.457032 10.589843-4.378907 5.867188-5.847656 5.878907-15.34375.03125-21.210937l-9.5625-9.585938c-5.847656-5.867187-15.347656-5.878906-21.210937-.027344-5.867188 5.847657-5.878906 15.34375-.03125 21.210938zm0 0"/><path d="m365.058594 85.273438c3.84375 0 7.691406-1.46875 10.621094-4.40625l9.558593-9.585938c5.847657-5.867188 5.835938-15.363281-.03125-21.210938-5.863281-5.851562-15.363281-5.839843-21.210937.027344l-9.558594 9.585938c-5.851562 5.867187-5.839844 15.363281.027344 21.210937 2.929687 2.921875 6.761718 4.378907 10.59375 4.378907zm0 0"/><path d="m52.417969 182.257812h11.417969c8.285156 0 15-6.71875 15-15 0-8.285156-6.714844-15-15-15h-11.417969c-8.285157 0-15 6.714844-15 15 0 8.28125 6.714843 15 15 15zm0 0"/><path d="m419.820312 152.257812h-11.632812c-8.285156 0-15 6.714844-15 15 0 8.28125 6.714844 15 15 15h11.632812c8.285157 0 15-6.71875 15-15 0-8.285156-6.714843-15-15-15zm0 0"/></svg>