<svg id="Layer_5" enable-background="new 0 0 64 64" viewBox="0 0 64 64" xmlns="http://www.w3.org/2000/svg"><g><path d="m62 30v-2c0-5.523-4.477-10-10-10s-10 4.477-10 10v2c0 4.838 3.436 8.872 8 9.799v.402c-4.564.927-8 4.961-8 9.799v2c0 5.523 4.477 10 10 10s10-4.477 10-10v-2c0-4.838-3.436-8.872-8-9.799v-.402c4.564-.927 8-4.961 8-9.799zm-4 20v2c0 3.314-2.686 6-6 6s-6-2.686-6-6v-2c0-2.611 1.671-4.827 4-5.651v3.651c0 1.105.895 2 2 2s2-.895 2-2v-3.651c2.329.824 4 3.04 4 5.651zm-6-20c-1.105 0-2 .895-2 2v3.651c-2.329-.825-4-3.04-4-5.651v-2c0-3.314 2.686-6 6-6s6 2.686 6 6v2c0 2.611-1.671 4.827-4 5.651v-3.651c0-1.105-.895-2-2-2z"/><path d="m26.438 40h6.667c1.039-1.789 1.689-3.825 1.844-6h-7.966c-.044 2.065-.226 4.111-.545 6z"/><path d="m26.984 32h7.966c-.155-2.175-.805-4.211-1.844-6h-6.667c.318 1.889.5 3.935.545 6z"/><path d="m24.311 46.588c2.934-.716 5.511-2.347 7.397-4.588h-5.677c-.431 1.81-1.006 3.388-1.72 4.588z"/><path d="m31.708 24c-1.886-2.241-4.463-3.872-7.397-4.588.714 1.2 1.289 2.778 1.72 4.588z"/><path d="m17.594 40h6.813c.318-1.732.526-3.753.576-6h-7.966c.05 2.247.259 4.268.577 6z"/><path d="m21 19c-.941 0-2.125 1.823-2.961 5h5.921c-.835-3.177-2.019-5-2.96-5z"/><path d="m21 47c.941 0 2.125-1.823 2.961-5h-5.921c.835 3.177 2.019 5 2.96 5z"/><path d="m24.406 26h-6.813c-.318 1.732-.526 3.753-.576 6h7.966c-.05-2.247-.259-4.268-.577-6z"/><path d="m10.292 42c1.886 2.241 4.463 3.872 7.397 4.588-.714-1.2-1.289-2.778-1.72-4.588z"/><path d="m51 4c0-.551-.448-1-1-1h-46c-.552 0-1 .449-1 1v9h48zm-41 6h-4v-4h4zm8 0h-4v-4h4zm8 0h-4v-4h4z"/><path d="m45.39 40c-3.272-2.174-5.39-5.89-5.39-10v-2c0-6.279 4.85-11.438 11-11.949v-1.051h-48v35c0 .551.448 1 1 1h36v-1c0-4.11 2.118-7.826 5.39-10zm-24.39 9c-8.822 0-16-7.178-16-16s7.178-16 16-16 16 7.178 16 16-7.178 16-16 16z"/><path d="m15.016 34h-7.965c.155 2.175.805 4.211 1.844 6h6.667c-.319-1.889-.501-3.935-.546-6z"/><path d="m17.689 19.412c-2.934.716-5.511 2.347-7.397 4.588h5.677c.431-1.81 1.006-3.388 1.72-4.588z"/><path d="m15.562 26h-6.668c-1.039 1.789-1.689 3.825-1.844 6h7.966c.045-2.065.227-4.111.546-6z"/></g></svg>