<svg id="Layer_1" enable-background="new 0 0 512 512" viewBox="0 0 512 512" xmlns="http://www.w3.org/2000/svg"><g><path d="m484.5 69.259h-131.122c-14.031-40.276-52.381-69.259-97.378-69.259-16.389 0-32.065 3.738-46.592 11.111-8.647 4.389-1.86 17.762 6.789 13.376 12.404-6.295 25.795-9.487 39.803-9.487 48.57 0 88.085 39.515 88.085 88.085s-39.515 88.085-88.085 88.085-88.085-39.515-88.085-88.085c0-21.005 7.516-41.346 21.164-57.275 6.31-7.363-5.082-17.126-11.391-9.76-8.434 9.843-14.844 21.134-19.039 33.208h-131.149c-15.164 0-27.5 12.336-27.5 27.5v387.742c0 15.164 12.336 27.5 27.5 27.5h457c15.164 0 27.5-12.336 27.5-27.5v-324.5-63.241c0-15.164-12.336-27.5-27.5-27.5zm0 15c6.893 0 12.5 5.607 12.5 12.5v55.741h-150.554c11.347-20.685 15.209-45.045 10.91-68.241zm-457 0h127.161c-4.312 23.203-.459 47.547 10.892 68.241h-150.553v-55.741c0-6.893 5.607-12.5 12.5-12.5zm457 412.741h-457c-6.893 0-12.5-5.607-12.5-12.5v-317h160.583c18.908 23.558 47.929 38.67 80.417 38.67 32.547 0 61.615-15.166 80.521-38.798.438.08 160.479.128 160.479.128v317c0 6.893-5.607 12.5-12.5 12.5z"/><path d="m415.166 362.293h-318.332c-55.48 0-55.575 86.196 0 86.196h318.331c55.481 0 55.576-86.196.001-86.196zm0 71.196h-318.332c-36.155 0-36.404-56.196 0-56.196h318.331c36.156 0 36.404 56.196.001 56.196z"/><path d="m121.151 397.891c-9.652 0-9.668 15 0 15 9.651 0 9.667-15 0-15z"/><path d="m159.679 397.891c-9.652 0-9.668 15 0 15 9.652 0 9.668-15 0-15z"/><path d="m198.207 397.891c-9.652 0-9.668 15 0 15 9.652 0 9.668-15 0-15z"/><path d="m236.736 397.891c-9.652 0-9.668 15 0 15 9.652 0 9.668-15 0-15z"/><path d="m275.264 397.891c-9.652 0-9.668 15 0 15 9.652 0 9.668-15 0-15z"/><path d="m313.793 397.891c-9.652 0-9.668 15 0 15 9.651 0 9.667-15 0-15z"/><path d="m352.321 397.891c-9.652 0-9.668 15 0 15 9.652 0 9.668-15 0-15z"/><path d="m390.849 397.891c-9.652 0-9.668 15 0 15 9.652 0 9.668-15 0-15z"/><path d="m415.166 249.118h-318.332c-55.48 0-55.575 86.196 0 86.196h252.463c9.697 0 9.697-15 0-15h-252.463c-36.155 0-36.404-56.196 0-56.196h318.331c36.155 0 36.404 56.196 0 56.196h-25.868c-9.697 0-9.697 15 0 15h25.868c55.481 0 55.576-86.196.001-86.196z"/><path d="m256 42.102c-14.707 0-26.671 11.964-26.671 26.671v17.69c-8.787.923-15.66 8.374-15.66 17.401v38.705c0 9.649 7.851 17.5 17.5 17.5h49.662c9.649 0 17.5-7.851 17.5-17.5v-38.705c0-9.028-6.872-16.478-15.66-17.401v-17.69c0-14.707-11.964-26.671-26.671-26.671zm-11.671 26.67c0-14.6 23.343-15.268 23.343 0v17.591h-23.343zm39.002 73.797c0 1.378-1.122 2.5-2.5 2.5h-49.662c-1.378 0-2.5-1.122-2.5-2.5v-38.705c0-1.378 1.122-2.5 2.5-2.5h49.662c1.378 0 2.5 1.122 2.5 2.5z"/><path d="m398.35 292.216c0-4.142-3.358-7.5-7.5-7.5h-269.7c-9.697 0-9.697 15 0 15h269.7c4.142 0 7.5-3.358 7.5-7.5z"/><path d="m256 115.716c-9.652 0-9.668 15 0 15 9.652 0 9.668-15 0-15z"/></g></svg>