<svg id="bold" enable-background="new 0 0 24 24" viewBox="0 0 24 24" xmlns="http://www.w3.org/2000/svg"><g><path d="m21 1h-18c-1.654 0-3 1.346-3 3v16c0 1.654 1.346 3 3 3h18c1.654 0 3-1.346 3-3v-16c0-1.654-1.346-3-3-3zm0 20h-18c-.551 0-1-.448-1-1v-14h20v14c0 .552-.449 1-1 1z"/></g><g><path d="m16.226 15.13c-.486-.262-1.092-.082-1.355.403-.574 1.059-1.674 1.717-2.871 1.717-.611 0-1.19-.185-1.696-.494l.476-.476c.214-.214.279-.537.163-.817s-.39-.463-.693-.463h-2.5c-.414 0-.75.336-.75.75v2.5c0 .303.183.577.463.693.093.038.19.057.287.057.195 0 .387-.076.53-.22l.573-.573c.899.67 1.998 1.043 3.147 1.043 1.932 0 3.706-1.059 4.629-2.764.263-.486.083-1.092-.403-1.356z"/></g><g><path d="m16.537 9.057c-.28-.116-.603-.052-.817.163l-.573.573c-.899-.671-1.998-1.043-3.147-1.043-1.936 0-3.71 1.064-4.631 2.776-.261.487-.079 1.093.407 1.354.151.082.313.12.473.12.356 0 .701-.191.882-.526.571-1.064 1.671-1.724 2.869-1.724.611 0 1.19.185 1.696.494l-.476.476c-.214.214-.279.537-.163.817s.39.463.693.463h2.5c.414 0 .75-.336.75-.75v-2.5c0-.303-.183-.577-.463-.693z"/></g></svg>