<svg viewBox="0 0 512 512" xmlns="http://www.w3.org/2000/svg"><g id="Outline"><path d="m32 112a16.019 16.019 0 0 1 16-16h216v-16h-216a32.036 32.036 0 0 0 -32 32v32h16z"/><path d="m448 352h-32a32.036 32.036 0 0 0 -32 32v32h-336a16.019 16.019 0 0 1 -16-16v-240h-16v304a32.036 32.036 0 0 0 32 32h384a32.036 32.036 0 0 0 32-32v-72h-16v40a16.019 16.019 0 0 1 -16 16h-384a16.019 16.019 0 0 1 -16-16v-4.3a31.793 31.793 0 0 0 16 4.3h344a8 8 0 0 0 5.657-2.343l64-64a8 8 0 0 0 2.343-5.657v-128h-16zm-400 112h384a31.793 31.793 0 0 0 16-4.305v4.305a16.019 16.019 0 0 1 -16 16h-384a16.019 16.019 0 0 1 -16-16v-4.3a31.793 31.793 0 0 0 16 4.3zm368-96h20.687l-36.687 36.687v-20.687a16.019 16.019 0 0 1 16-16z"/><path d="m272 192v-16h-216v16h72v32h-72v16h72v32h-72v16h72v32h-72v16h72v32h-72v16h304v-16h-24v-32h32v16h16v-16h40v-16h-40v-32h40v-16h-40v-16h-16v16h-32v-24h-16v24h-32v-16h-16v16h-32v-32h16v-16h-16v-32zm-128 0h32v32h-32zm0 48h32v32h-32zm0 48h32v32h-32zm80 80h-32v-32h32zm16-32h32v32h-32zm-48-16v-32h32v32zm-48 16h32v32h-32zm176 32h-32v-32h32zm48-80v32h-32v-32zm-48 0v32h-32v-32zm-48 0v32h-32v-32zm-48-16h-32v-32h32zm0-48h-32v-32h32z"/><path d="m72 112v16h-16v16h16v16h16v-16h16v-16h-16v-16z"/><path d="m120 112h16v16h-16z"/><path d="m152 112h64v16h-64z"/><path d="m120 144h96v16h-96z"/><path d="m272.647 228.849a8 8 0 0 0 1.7 8.808 8.16 8.16 0 0 0 8.808 1.7l40.159-17.212a112 112 0 1 0 60.686-206.145 111.336 111.336 0 0 0 -43.154 8.618l6.169 14.764a96.013 96.013 0 1 1 -18.239 167.148 8.005 8.005 0 0 0 -7.759-.813l-25.785 11.052 11.05-25.786a8 8 0 0 0 -.813-7.758 96.028 96.028 0 0 1 27.319-136.44l-8.548-13.525a112.038 112.038 0 0 0 -34.382 155.43z"/><path d="m400 64h-32a8 8 0 0 0 -8 8v32h-32a8 8 0 0 0 -8 8v32a8 8 0 0 0 8 8h32v32a8 8 0 0 0 8 8h32a8 8 0 0 0 8-8v-32h32a8 8 0 0 0 8-8v-32a8 8 0 0 0 -8-8h-32v-32a8 8 0 0 0 -8-8zm32 56v16h-32a8 8 0 0 0 -8 8v32h-16v-32a8 8 0 0 0 -8-8h-32v-16h32a8 8 0 0 0 8-8v-32h16v32a8 8 0 0 0 8 8z"/></g></svg>