<?xml version="1.0" encoding="iso-8859-1"?>
<!-- Generator: Adobe Illustrator 19.0.0, SVG Export Plug-In . SVG Version: 6.00 Build 0)  -->
<svg version="1.1" id="Capa_1" xmlns="http://www.w3.org/2000/svg" xmlns:xlink="http://www.w3.org/1999/xlink" x="0px" y="0px"
	 viewBox="0 0 501.656 501.656" style="enable-background:new 0 0 501.656 501.656;" xml:space="preserve">
<g>
	<g>
		<path d="M458.828,0h-368c-22.056,0-40,17.944-40,40v124.688L5.172,210.344C3.676,211.84,2.828,213.88,2.828,216v280h16V219.312
			l32-32V208c0,4.416,3.584,8,8,8h94.984c-3.56,13.784-16.104,24-30.984,24h-32c-4.416,0-8,3.584-8,8c0,26.912-21.088,48-48,48v16
			c5.552,0,10.896-0.728,16-2v114c0,22.056,17.944,40,40,40h24v32h16v-32h128v16c0,2.12,0.84,4.16,2.344,5.656l16,16l11.312-11.312
			l-13.656-13.656v-49.376l16-16.016V448h16V227.984c0-6.608,5.376-11.984,12.016-11.984c6.608,0,11.984,5.376,11.984,11.984v112
			V408h16v-68.016c0-6.608,5.376-11.984,12.016-11.984c6.608,0,11.984,5.376,11.984,11.984V408h16v-68.016
			c0-6.608,5.376-11.984,12.016-11.984c6.608,0,11.984,5.376,11.984,11.984V408h8h8l0.032-68.032c0-6.6,5.376-11.976,11.984-11.976
			c6.608,0,11.984,5.376,11.984,11.984V496h16v-32.808c18.232-3.72,32-19.88,32-39.192V40C498.828,17.944,480.884,0,458.828,0z
			 M482.828,424c0,10.416-6.712,19.216-16,22.528V339.984c0-15.432-12.552-27.984-27.984-27.984c-7.84,0-14.92,3.264-20,8.48
			c-5.088-5.216-12.176-8.48-20.032-8.48c-7.832,0-14.904,3.256-19.984,8.456c-5.088-5.2-12.168-8.456-20.016-8.456
			c-4.304,0-8.336,1.056-11.984,2.8v-86.816c0-15.432-12.552-27.984-28.016-27.984c-15.432,0-27.984,12.552-27.984,27.984v160.672
			l-29.664,29.688c-1.496,1.504-2.336,3.536-2.336,5.656v24h-168c-13.232,0-24-10.768-24-24V303.624
			c17.088-9.688,29.056-26.976,31.528-47.624h24.472c26.472,0,48-21.528,48-48c0-4.416-3.584-8-8-8h-96v-32V40
			c0-13.232,10.768-24,24-24h368c13.232,0,24,10.768,24,24V424z"/>
	</g>
</g>
<g>
	<g>
		<path d="M226.828,32h-120c-4.416,0-8,3.584-8,8v40c0,4.416,3.584,8,8,8h120c4.416,0,8-3.584,8-8V40
			C234.828,35.584,231.244,32,226.828,32z M218.828,72h-104V48h104V72z"/>
	</g>
</g>
<g>
	<g>
		<path d="M442.828,32h-120c-4.416,0-8,3.584-8,8v40c0,4.416,3.584,8,8,8h120c4.416,0,8-3.584,8-8V40
			C450.828,35.584,447.244,32,442.828,32z M434.828,72h-104V48h104V72z"/>
	</g>
</g>
<g>
	<g>
		<path d="M226.828,272h-120c-4.416,0-8,3.584-8,8v40c0,4.416,3.584,8,8,8h120c4.416,0,8-3.584,8-8v-40
			C234.828,275.584,231.244,272,226.828,272z M218.828,312h-104v-24h104V312z"/>
	</g>
</g>
<g>
	<g>
		<rect x="266.828" y="32" width="16" height="152"/>
	</g>
</g>
<g>
	<g>
		<rect x="98.828" y="104" width="88" height="16"/>
	</g>
</g>
<g>
	<g>
		<rect x="210.828" y="104" width="24" height="16"/>
	</g>
</g>
<g>
	<g>
		<rect x="98.828" y="136" width="88" height="16"/>
	</g>
</g>
<g>
	<g>
		<rect x="210.828" y="136" width="24" height="16"/>
	</g>
</g>
<g>
	<g>
		<rect x="98.828" y="168" width="88" height="16"/>
	</g>
</g>
<g>
	<g>
		<rect x="210.828" y="168" width="24" height="16"/>
	</g>
</g>
<g>
	<g>
		<rect x="210.828" y="200" width="24" height="16"/>
	</g>
</g>
<g>
	<g>
		<rect x="210.828" y="232" width="24" height="16"/>
	</g>
</g>
<g>
	<g>
		<rect x="98.828" y="344" width="88" height="16"/>
	</g>
</g>
<g>
	<g>
		<rect x="210.828" y="344" width="24" height="16"/>
	</g>
</g>
<g>
	<g>
		<rect x="98.828" y="376" width="88" height="16"/>
	</g>
</g>
<g>
	<g>
		<rect x="210.828" y="376" width="24" height="16"/>
	</g>
</g>
<g>
	<g>
		<rect x="98.828" y="408" width="88" height="16"/>
	</g>
</g>
<g>
	<g>
		<rect x="210.828" y="408" width="24" height="16"/>
	</g>
</g>
<g>
	<g>
		<rect x="314.828" y="104" width="88" height="16"/>
	</g>
</g>
<g>
	<g>
		<rect x="426.828" y="104" width="24" height="16"/>
	</g>
</g>
<g>
	<g>
		<rect x="314.828" y="136" width="88" height="16"/>
	</g>
</g>
<g>
	<g>
		<rect x="426.828" y="136" width="24" height="16"/>
	</g>
</g>
<g>
	<g>
		<rect x="314.828" y="168" width="88" height="16"/>
	</g>
</g>
<g>
	<g>
		<rect x="426.828" y="168" width="24" height="16"/>
	</g>
</g>
<g>
	<g>
		<rect x="362.828" y="200" width="40" height="16"/>
	</g>
</g>
<g>
	<g>
		<rect x="426.828" y="200" width="24" height="16"/>
	</g>
</g>
<g>
	<g>
		<rect x="362.828" y="232" width="40" height="16"/>
	</g>
</g>
<g>
	<g>
		<rect x="426.828" y="232" width="24" height="16"/>
	</g>
</g>
<g>
	<g>
		<rect x="362.828" y="264" width="40" height="16"/>
	</g>
</g>
<g>
	<g>
		<rect x="426.828" y="264" width="24" height="16"/>
	</g>
</g>
<g>
</g>
<g>
</g>
<g>
</g>
<g>
</g>
<g>
</g>
<g>
</g>
<g>
</g>
<g>
</g>
<g>
</g>
<g>
</g>
<g>
</g>
<g>
</g>
<g>
</g>
<g>
</g>
<g>
</g>
</svg>
