<?xml version="1.0" encoding="iso-8859-1"?>
<!-- Generator: Adobe Illustrator 16.0.0, SVG Export Plug-In . SVG Version: 6.00 Build 0)  -->
<!DOCTYPE svg PUBLIC "-//W3C//DTD SVG 1.1//EN" "http://www.w3.org/Graphics/SVG/1.1/DTD/svg11.dtd">
<svg version="1.1" id="Capa_1" xmlns="http://www.w3.org/2000/svg" xmlns:xlink="http://www.w3.org/1999/xlink" x="0px" y="0px"
	 viewBox="0 0 31.82 31.82" style="enable-background:new 0 0 31.82 31.82;" xml:space="preserve"
	>
<g>
	<g>
		<path d="M9.478,15.714c0,0.376-0.305,0.681-0.681,0.681H8.071c-1.551,0-2.808,1.256-2.808,2.807v0.779
			c0,0.489,0.397,0.887,0.887,0.887h9.371c0.491,0,0.887-0.397,0.887-0.887v-0.779c0-1.551-1.257-2.807-2.808-2.807h-0.725
			c-0.376,0-0.681-0.305-0.681-0.681c0-0.14,0.056-0.273,0.156-0.371c0.422-0.411,0.776-0.962,1.033-1.557
			c0.052,0.039,0.108,0.066,0.171,0.066c0.407,0,0.885-0.9,0.885-1.513s-0.056-1.11-0.464-1.11c-0.048,0-0.099,0.008-0.152,0.021
			c-0.029-1.663-0.449-3.738-2.988-3.738c-2.649,0-2.959,2.07-2.988,3.732c-0.037-0.007-0.075-0.015-0.11-0.015
			c-0.407,0-0.464,0.497-0.464,1.11s0.478,1.513,0.885,1.513c0.05,0,0.097-0.014,0.141-0.039c0.256,0.584,0.606,1.125,1.021,1.53
			C9.421,15.44,9.478,15.574,9.478,15.714z"/>
		<path d="M22.664,9.348c0-0.363-0.294-0.657-0.656-0.657h-7.859c0.227,0.502,0.389,1.12,0.456,1.884
			c0.168,0.103,0.294,0.271,0.397,0.472h7.006c0.362,0,0.656-0.294,0.656-0.657V9.348z"/>
		<path d="M22.588,14.976c0.045-0.089,0.076-0.186,0.076-0.292v-1.042c0-0.363-0.294-0.657-0.656-0.657h-6.846
			c-0.186,0.702-0.644,1.436-1.276,1.633c-0.019,0.035-0.041,0.065-0.06,0.099v0.624h7.941
			C22.033,15.204,22.307,15.083,22.588,14.976z"/>
		<path d="M17.934,19.634c0.332-0.867,0.804-1.663,1.395-2.355h-2.665c0.353,0.558,0.56,1.217,0.56,1.924v0.433L17.934,19.634
			L17.934,19.634z"/>
		<path d="M4.597,25.084c-1.526,0-2.767-1.679-2.767-3.743V8.238c0-2.064,1.241-3.743,2.767-3.743h19.965
			c1.525,0,2.767,1.679,2.767,3.743v6.421c0.644,0.152,1.257,0.378,1.83,0.674V8.238c0-3.073-2.062-5.573-4.597-5.573H4.597
			C2.062,2.665,0,5.165,0,8.238v13.103c0,3.073,2.062,5.573,4.597,5.573h14.112c-0.369-0.565-0.666-1.179-0.885-1.83H4.597z"/>
		<path d="M25.473,16.46c-3.506,0-6.349,2.842-6.349,6.348s2.843,6.348,6.349,6.348s6.348-2.842,6.348-6.348
			S28.979,16.46,25.473,16.46z M29.035,23.104c0,0.289-0.234,0.524-0.525,0.524h-6.074c-0.289,0-0.524-0.235-0.524-0.524v-0.593
			c0-0.29,0.235-0.524,0.524-0.524h6.074c0.291,0,0.525,0.234,0.525,0.524V23.104z"/>
	</g>
</g>
<g>
</g>
<g>
</g>
<g>
</g>
<g>
</g>
<g>
</g>
<g>
</g>
<g>
</g>
<g>
</g>
<g>
</g>
<g>
</g>
<g>
</g>
<g>
</g>
<g>
</g>
<g>
</g>
<g>
</g>
</svg>
