<?xml version="1.0" encoding="iso-8859-1"?>
<!-- Generator: Adobe Illustrator 19.0.0, SVG Export Plug-In . SVG Version: 6.00 Build 0)  -->
<svg version="1.1" id="Layer_1" xmlns="http://www.w3.org/2000/svg" xmlns:xlink="http://www.w3.org/1999/xlink" x="0px" y="0px"
	 viewBox="0 0 490 490" style="enable-background:new 0 0 490 490;" xml:space="preserve">
<g>
	<rect x="230" y="320" width="30" height="30"/>
	<rect x="160" y="390" width="30" height="30"/>
	<rect x="230" y="390" width="30" height="30"/>
	<rect x="160" y="320" width="30" height="30"/>
	<rect x="300" y="390" width="30" height="30"/>
	<path d="M483.106,464.394L400,381.287V55H120V0H90v71.287L28.106,9.394L6.894,30.606L90,113.713V490h310v-66.287l61.894,61.894
		L483.106,464.394z M298.713,280H370v71.287L298.713,280z M120,155h11.287l95,95H120V155z M173.713,155H370v95H268.713L173.713,155z
		 M120,85h250v40H143.713L120,101.287V85z M370,460H120V280h136.287L300,323.713V350h26.287L370,393.713V460z"/>
</g>
<g>
</g>
<g>
</g>
<g>
</g>
<g>
</g>
<g>
</g>
<g>
</g>
<g>
</g>
<g>
</g>
<g>
</g>
<g>
</g>
<g>
</g>
<g>
</g>
<g>
</g>
<g>
</g>
<g>
</g>
</svg>
