<?xml version="1.0" encoding="iso-8859-1"?>
<!-- Generator: Adobe Illustrator 19.0.0, SVG Export Plug-In . SVG Version: 6.00 Build 0)  -->
<svg version="1.1" id="Layer_1" xmlns="http://www.w3.org/2000/svg" xmlns:xlink="http://www.w3.org/1999/xlink" x="0px" y="0px"
	 viewBox="0 0 491.684 491.684" style="enable-background:new 0 0 491.684 491.684;" xml:space="preserve">
<g>
	<path d="M470.842,273.35c0-10.887,3.127-15.529,7.861-22.556c5.783-8.584,12.98-19.268,12.98-39.318
		c0-20.05-7.197-30.734-12.98-39.319c-4.734-7.027-7.861-11.67-7.861-22.558h-30c0,20.05,7.197,30.734,12.98,39.319
		c4.734,7.027,7.861,11.67,7.861,22.558c0,10.887-3.127,15.529-7.861,22.556c-5.783,8.584-12.98,19.268-12.98,39.318
		c0,20.049,7.197,30.732,12.98,39.317c4.734,7.026,7.861,11.668,7.861,22.555c0,10.887-3.127,15.529-7.861,22.556
		c-5.781,8.583-12.978,19.264-12.98,39.305l30,0.005c0.002-10.882,3.129-15.523,7.861-22.548c5.783-8.584,12.98-19.268,12.98-39.318
		c0-20.049-7.197-30.732-12.98-39.317C473.969,288.879,470.842,284.237,470.842,273.35z"/>
	<path d="M50.842,149.601l-30-0.005c-0.001,10.882-3.128,15.523-7.861,22.548C7.198,180.729,0,191.412,0,211.462
		c0,20.049,7.198,30.732,12.981,39.317c4.734,7.026,7.861,11.668,7.861,22.555c0,10.887-3.127,15.529-7.861,22.556
		C7.198,304.474,0,315.158,0,335.208c0,20.05,7.197,30.734,12.981,39.319c4.734,7.027,7.861,11.669,7.861,22.558h30
		c0-20.051-7.197-30.734-12.981-39.319C33.127,350.738,30,346.095,30,335.208c0-10.887,3.127-15.529,7.861-22.556
		c5.783-8.584,12.981-19.268,12.981-39.318s-7.198-30.733-12.981-39.317C33.127,226.99,30,222.348,30,211.462
		c0-10.887,3.127-15.529,7.861-22.556C43.644,180.323,50.839,169.642,50.842,149.601z"/>
	<path d="M120.842,0.842h-30v490h310v-435h-280V0.842z M120.842,155.842h250v95h-250V155.842z M120.842,460.842v-180h250v180
		H120.842z M370.842,85.842v40h-250v-40H370.842z"/>
	<rect x="230.842" y="320.842" width="30" height="30"/>
	<rect x="300.842" y="320.842" width="30" height="30"/>
	<rect x="160.842" y="390.842" width="30" height="30"/>
	<rect x="230.842" y="390.842" width="30" height="30"/>
	<rect x="160.842" y="320.842" width="30" height="30"/>
	<rect x="300.842" y="390.842" width="30" height="30"/>
</g>
<g>
</g>
<g>
</g>
<g>
</g>
<g>
</g>
<g>
</g>
<g>
</g>
<g>
</g>
<g>
</g>
<g>
</g>
<g>
</g>
<g>
</g>
<g>
</g>
<g>
</g>
<g>
</g>
<g>
</g>
</svg>
