<?xml version="1.0" encoding="iso-8859-1"?>
<!-- Generator: Adobe Illustrator 19.0.0, SVG Export Plug-In . SVG Version: 6.00 Build 0)  -->
<svg version="1.1" id="Layer_1" xmlns="http://www.w3.org/2000/svg" xmlns:xlink="http://www.w3.org/1999/xlink" x="0px" y="0px"
	 viewBox="0 0 490 490" style="enable-background:new 0 0 490 490;" xml:space="preserve">
<g>
	<circle cx="305" cy="202.5" r="15"/>
	<circle cx="185" cy="202.5" r="15"/>
	<circle cx="245" cy="202.5" r="15"/>
	<path d="M120,55V0H90v490h310V55H120z M370,85v40H120V85H370z M370,155v95H120v-95H370z M120,460V280h250v180H120z"/>
	<rect x="230" y="320" width="30" height="30"/>
	<rect x="300" y="320" width="30" height="30"/>
	<rect x="160" y="390" width="30" height="30"/>
	<rect x="230" y="390" width="30" height="30"/>
	<rect x="160" y="320" width="30" height="30"/>
	<rect x="300" y="390" width="30" height="30"/>
</g>
<g>
</g>
<g>
</g>
<g>
</g>
<g>
</g>
<g>
</g>
<g>
</g>
<g>
</g>
<g>
</g>
<g>
</g>
<g>
</g>
<g>
</g>
<g>
</g>
<g>
</g>
<g>
</g>
<g>
</g>
</svg>
