<?xml version="1.0" encoding="iso-8859-1"?>
<!-- Generator: Adobe Illustrator 19.0.0, SVG Export Plug-In . SVG Version: 6.00 Build 0)  -->
<svg version="1.1" id="Layer_1" xmlns="http://www.w3.org/2000/svg" xmlns:xlink="http://www.w3.org/1999/xlink" x="0px" y="0px"
	 viewBox="0 0 490 490" style="enable-background:new 0 0 490 490;" xml:space="preserve">
<g>
	<path d="M34.668,0h-30v490h310V55h-280V0z M34.668,155h250v95h-250V155z M34.668,460V280h250v180H34.668z M284.668,85v40h-250V85
		H284.668z"/>
	<rect x="144.668" y="320" width="30" height="30"/>
	<rect x="214.668" y="320" width="30" height="30"/>
	<rect x="74.668" y="390" width="30" height="30"/>
	<rect x="144.668" y="390" width="30" height="30"/>
	<rect x="74.668" y="320" width="30" height="30"/>
	<rect x="214.668" y="390" width="30" height="30"/>
	<path d="M429.771,138.15l-21.213,21.213c62.384,62.384,62.384,163.89,0,226.274l21.213,21.213
		C503.852,332.769,503.852,212.231,429.771,138.15z"/>
	<path d="M380.274,187.647l-21.213,21.213c16.967,16.967,26.312,39.568,26.312,63.64s-9.345,46.672-26.312,63.64l21.213,21.213
		C427.062,310.565,427.062,234.435,380.274,187.647z"/>
</g>
<g>
</g>
<g>
</g>
<g>
</g>
<g>
</g>
<g>
</g>
<g>
</g>
<g>
</g>
<g>
</g>
<g>
</g>
<g>
</g>
<g>
</g>
<g>
</g>
<g>
</g>
<g>
</g>
<g>
</g>
</svg>
