<?xml version="1.0" encoding="UTF-8"?>
<!DOCTYPE svg PUBLIC "-//W3C//DTD SVG 1.1//EN" "http://www.w3.org/Graphics/SVG/1.1/DTD/svg11.dtd">
<svg xmlns="http://www.w3.org/2000/svg" version="1.1" enable-background="new 0 0 508 508" viewBox="0 0 508 508" xmlns:xlink="http://www.w3.org/1999/xlink">
<g><path style="opacity:0.984" fill="#000000" d="M 119.5,39.5 C 156.374,38.3392 182.541,54.3392 198,87.5C 202.157,98.2553 203.49,109.255 202,120.5C 183.494,135.496 172.161,154.829 168,178.5C 145.954,191.949 122.788,194.116 98.5,185C 60.5038,165.836 46.0038,135.336 55,93.5C 66.0626,62.9037 87.5626,44.9037 119.5,39.5 Z"/></g>
<g><path style="opacity:0.983" fill="#000000" d="M 375.5,39.5 C 412.374,38.3392 438.541,54.3392 454,87.5C 464.878,121.158 457.378,149.991 431.5,174C 407.104,192.008 380.771,195.341 352.5,184C 347.6,154.114 332.6,130.78 307.5,114C 311.614,72.0591 334.281,47.2258 375.5,39.5 Z"/></g>
<g><path style="opacity:0.984" fill="#000000" d="M 247.5,117.5 C 279.257,114.636 304.424,125.969 323,151.5C 335.957,174.173 337.957,197.84 329,222.5C 310.214,258.475 280.714,272.975 240.5,266C 205.081,254.572 186.081,230.239 183.5,193C 186.764,152.254 208.097,127.087 247.5,117.5 Z"/></g>
<g><path style="opacity:0.987" fill="#000000" d="M -0.5,371.5 C -0.5,340.5 -0.5,309.5 -0.5,278.5C 8.53079,232.969 35.8641,205.469 81.5,196C 96.8094,194.938 112.143,194.438 127.5,194.5C 140.553,194.371 153.553,194.871 166.5,196C 168.186,220.867 177.852,242.034 195.5,259.5C 153.045,274.454 126.545,303.787 116,347.5C 114.263,362.783 113.097,378.116 112.5,393.5C 74.0355,390.274 36.3688,382.94 -0.5,371.5 Z"/></g>
<g><path style="opacity:0.986" fill="#000000" d="M 511.5,278.5 C 511.5,309.167 511.5,339.833 511.5,370.5C 477.407,385.186 441.74,392.853 404.5,393.5C 409.915,347.877 395.581,310.044 361.5,280C 349.854,271.343 337.188,264.509 323.5,259.5C 341.303,241.554 350.636,219.887 351.5,194.5C 377.525,194.11 403.525,194.61 429.5,196C 475.136,205.469 502.469,232.969 511.5,278.5 Z"/></g>
<g><path style="opacity:0.99" fill="#000000" d="M 216.5,272.5 C 245.169,272.333 273.835,272.5 302.5,273C 338.575,278.414 364.409,297.581 380,330.5C 382.618,336.972 384.618,343.638 386,350.5C 387.115,367.801 387.615,385.134 387.5,402.5C 387.496,417.739 387.163,432.906 386.5,448C 358.474,460.407 329.141,467.74 298.5,470C 241.386,474.069 185.72,466.902 131.5,448.5C 130.333,420.506 130.167,392.506 131,364.5C 136.924,312.746 165.424,282.079 216.5,272.5 Z"/></g>
</svg>
