<?xml version="1.0" encoding="iso-8859-1"?>
<!-- Generator: Adobe Illustrator 19.0.0, SVG Export Plug-In . SVG Version: 6.00 Build 0)  -->
<svg version="1.1" id="Layer_1" xmlns="http://www.w3.org/2000/svg" xmlns:xlink="http://www.w3.org/1999/xlink" x="0px" y="0px"
	 viewBox="0 0 512 512" style="enable-background:new 0 0 512 512;" xml:space="preserve">
<g>
	<g>
		<path d="M347.048,0.016H164.952c-16.024,0-29.064,13.04-29.064,29.064v182.096c0,16.024,13.04,29.064,29.064,29.064h182.096
			c16.024,0,29.064-13.04,29.064-29.064V29.08C376.112,13.056,363.072,0.016,347.048,0.016z M360.112,211.176
			c0,7.208-5.864,13.064-13.064,13.064H164.952c-7.2,0-13.064-5.864-13.064-13.064V29.08c0-7.208,5.864-13.064,13.064-13.064
			h182.096c7.208,0,13.064,5.864,13.064,13.064V211.176z"/>
	</g>
</g>
<g>
	<g>
		<path d="M211.16,271.76H29.064C13.04,271.76,0,284.8,0,300.824V482.92c0,16.024,13.04,29.064,29.064,29.064H211.16
			c16.024,0,29.064-13.04,29.064-29.056V300.816C240.208,284.792,227.176,271.76,211.16,271.76z M224.224,482.928
			c0,7.208-5.864,13.064-13.064,13.064H29.064c-7.208,0-13.064-5.864-13.064-13.064V300.824c0-7.208,5.856-13.064,13.064-13.064
			H211.16c7.2,0,13.064,5.864,13.064,13.064V482.928z"/>
	</g>
</g>
<g>
	<g>
		<path d="M482.936,271.76H300.84c-16.032,0-29.072,13.04-29.072,29.064V482.92c0,16.024,13.04,29.064,29.072,29.064h182.096
			c16.024,0,29.064-13.04,29.064-29.056V300.824C512,284.8,498.96,271.76,482.936,271.76z M496,482.928
			c0,7.208-5.864,13.064-13.064,13.064H300.84c-7.208,0-13.072-5.864-13.072-13.064V300.824c0-7.208,5.872-13.064,13.072-13.064
			h182.096c7.208,0,13.064,5.864,13.064,13.064V482.928z"/>
	</g>
</g>
<g>
	<g>
		<polygon points="230.232,56.472 230.224,80.696 254.448,80.696 254.448,183.784 281.768,183.784 281.768,56.472 		"/>
	</g>
</g>
<g>
	<g>
		<path d="M115.832,431.488l22.944-23.864c8.992-9.352,15.144-17.032,18.496-23.032c3.336-6.016,5.008-12.304,5.008-18.856
			c0-12.024-4.168-21.52-12.48-28.504c-8.32-6.984-17.984-10.48-28.968-10.48s-20.04,2.376-27.136,7.104
			c-7.104,4.744-13.624,11.72-19.584,20.944l22.776,13.488c7.176-11.416,14.768-17.12,22.768-17.12c4.368,0,7.96,1.424,10.744,4.272
			c2.8,2.856,4.192,6.416,4.192,10.656c0,4.256-1.616,8.656-4.832,13.208s-8.584,10.656-16.112,18.304l-37.336,38.256v21.12h89.8
			v-25.496H115.832z"/>
	</g>
</g>
<g>
	<g>
		<path d="M429.048,389.696c-5.592-6.864-13.472-11.136-23.672-12.84l26.048-29.688v-19.672h-77.952v24.216l39.888,0.008
			l-24.416,28.768v20.96c7.296-2.32,12.944-3.472,16.944-3.472c7.536,0,13.416,1.56,17.672,4.64
			c4.24,3.096,6.376,7.288,6.376,12.568c0,5.296-1.856,9.328-5.56,12.128c-3.704,2.784-8.408,4.176-14.112,4.176
			c-9.472,0-20.216-4.248-32.24-12.744l-11.664,22.592c14.448,9.952,28.728,14.928,42.808,14.928
			c14.08,0,25.656-3.792,34.696-11.384c9.04-7.584,13.56-18.056,13.56-31.408C437.424,404.472,434.64,396.56,429.048,389.696z"/>
	</g>
</g>
<g>
</g>
<g>
</g>
<g>
</g>
<g>
</g>
<g>
</g>
<g>
</g>
<g>
</g>
<g>
</g>
<g>
</g>
<g>
</g>
<g>
</g>
<g>
</g>
<g>
</g>
<g>
</g>
<g>
</g>
</svg>
