<?xml version="1.0"?>
<svg xmlns="http://www.w3.org/2000/svg" viewBox="0 0 512 512"><g id="outline"><path d="M488,368H456V96a24.028,24.028,0,0,0-24-24H80A24.028,24.028,0,0,0,56,96V368H24a8,8,0,0,0-8,8v18a38.043,38.043,0,0,0,38,38H458a38.043,38.043,0,0,0,38-38V376A8,8,0,0,0,488,368ZM72,96a8.009,8.009,0,0,1,8-8H432a8.009,8.009,0,0,1,8,8V368H312a8,8,0,0,0-5.657,2.343L292.687,384H219.313l-13.656-13.657A8,8,0,0,0,200,368H72ZM480,394a22.025,22.025,0,0,1-22,22H54a22.025,22.025,0,0,1-22-22V384H196.687l13.656,13.657A8,8,0,0,0,216,400h80a8,8,0,0,0,5.657-2.343L315.313,384H480Z"/><path d="M424,344V112a8,8,0,0,0-8-8H96a8,8,0,0,0-8,8V344a8,8,0,0,0,8,8H416A8,8,0,0,0,424,344Zm-16-8H104V120H408Z"/><path d="M168,320H368a8,8,0,0,0,8-8V264a8,8,0,0,0-8-8H168a8,8,0,0,0-8,8v48A8,8,0,0,0,168,320Zm160-48h32v32H328Zm-152,0H312v32H176Z"/><path d="M200,280h-8a8,8,0,0,0,0,16h8a8,8,0,0,0,0-16Z"/><path d="M232,280h-8a8,8,0,0,0,0,16h8a8,8,0,0,0,0-16Z"/><path d="M264,280h-8a8,8,0,0,0,0,16h8a8,8,0,0,0,0-16Z"/><path d="M296,280h-8a8,8,0,0,0,0,16h8a8,8,0,0,0,0-16Z"/><path d="M146.447,216.544a8,8,0,0,0,6.5-12.656,47.942,47.942,0,0,1,0-55.776,8,8,0,1,0-13.011-9.31,63.935,63.935,0,0,0,0,74.4A7.987,7.987,0,0,0,146.447,216.544Z"/><path d="M175.481,199.948a8,8,0,0,0,6.5-12.656,15.977,15.977,0,0,1,0-18.584,8,8,0,1,0-13.011-9.311,31.974,31.974,0,0,0,0,37.206A7.989,7.989,0,0,0,175.481,199.948Z"/><path d="M316.08,169.128c-.039-.024-.07-.051-.111-.074l-56-32a8,8,0,0,0-7.938,0l-56,32a8,8,0,0,0,0,13.892L216,194.357v33.7a8,8,0,0,0,6.06,7.76,140.4,140.4,0,0,0,67.88,0,8,8,0,0,0,6.06-7.76v-33.7l8-4.571V208a8,8,0,0,0,16,0V176A7.987,7.987,0,0,0,316.08,169.128ZM256,153.214,281.876,168H256a8,8,0,0,0,0,16h25.116c-.12.2-.23.41-.332.624L256,198.786,216.124,176Zm24,68.438a124.482,124.482,0,0,1-48,0V203.5l20.031,11.446a8,8,0,0,0,7.938,0L280,203.5Z"/></g></svg>
