<svg xmlns="http://www.w3.org/2000/svg" version="1.1" viewBox="0 0 750 750">
<g id="surface1">
<path d="M 50 750 L 650 750 C 677.613281 750 700 727.613281 700 700 L 700 662.5 C 700 655.59375 694.40625 650 687.5 650 L 662.5 650 L 662.5 450 L 637.5 450 L 637.5 650 L 612.5 650 L 612.5 450 L 587.5 450 L 587.5 650 L 427.949219 650 C 414.640625 649.953125 402.460938 657.480469 396.554688 669.414062 C 394.851562 672.855469 391.335938 675.03125 387.5 675 L 315.449219 675 C 311.617188 675.023438 308.105469 672.851562 306.414062 669.414062 C 300.5 657.480469 288.320312 649.953125 275 650 L 112.5 650 L 112.5 337.5 C 112.5 330.59375 118.09375 325 125 325 L 350 325 L 350 300 L 125 300 C 104.292969 300 87.5 316.792969 87.5 337.5 L 87.5 650 L 62.5 650 L 62.5 312.5 C 62.5 291.792969 79.292969 275 100 275 L 350 275 L 350 250 L 100 250 C 65.5 250.042969 37.542969 278 37.5 312.5 L 37.5 650 L 12.5 650 C 5.59375 650 0 655.59375 0 662.5 L 0 700 C 0 727.613281 22.386719 750 50 750 Z M 25 675 L 275 675 C 278.832031 674.980469 282.34375 677.144531 284.054688 680.570312 C 289.953125 692.507812 302.140625 700.046875 315.449219 700 L 387.5 700 C 400.820312 700.046875 413.007812 692.507812 418.914062 680.570312 C 420.605469 677.140625 424.121094 674.976562 427.949219 675 L 675 675 L 675 700 C 675 713.808594 663.808594 725 650 725 L 50 725 C 36.191406 725 25 713.808594 25 700 Z M 25 675 " style=" stroke:none;fill-rule:nonzero;fill:rgb(0%,0%,0%);fill-opacity:1;" />
<path d="M 162.5 462.5 L 162.5 562.5 C 162.5 569.40625 168.09375 575 175 575 L 525 575 C 531.90625 575 537.5 569.40625 537.5 562.5 L 537.5 462.5 C 537.5 455.59375 531.90625 450 525 450 L 175 450 C 168.09375 450 162.5 455.59375 162.5 462.5 Z M 187.5 475 L 512.5 475 L 512.5 550 L 187.5 550 Z M 187.5 475 " style=" stroke:none;fill-rule:nonzero;fill:rgb(0%,0%,0%);fill-opacity:1;" />
<path d="M 212.5 500 L 237.5 500 L 237.5 525 L 212.5 525 Z M 212.5 500 " style=" stroke:none;fill-rule:nonzero;fill:rgb(0%,0%,0%);fill-opacity:1;" />
<path d="M 262.5 500 L 287.5 500 L 287.5 525 L 262.5 525 Z M 262.5 500 " style=" stroke:none;fill-rule:nonzero;fill:rgb(0%,0%,0%);fill-opacity:1;" />
<path d="M 312.5 500 L 337.5 500 L 337.5 525 L 312.5 525 Z M 312.5 500 " style=" stroke:none;fill-rule:nonzero;fill:rgb(0%,0%,0%);fill-opacity:1;" />
<path d="M 362.5 500 L 387.5 500 L 387.5 525 L 362.5 525 Z M 362.5 500 " style=" stroke:none;fill-rule:nonzero;fill:rgb(0%,0%,0%);fill-opacity:1;" />
<path d="M 712.5 187.964844 L 712.5 150 C 712.5 67.15625 645.34375 0 562.5 0 C 479.65625 0 412.5 67.15625 412.5 150 L 412.5 187.964844 C 391.230469 190.230469 375.074219 208.132812 375 229.523438 L 375 382.976562 C 375.03125 406.175781 393.835938 424.980469 417.035156 425 L 707.964844 425 C 731.164062 424.980469 749.96875 406.175781 750 382.976562 L 750 229.523438 C 749.925781 208.132812 733.769531 190.230469 712.5 187.964844 Z M 437.5 150 C 437.5 80.960938 493.460938 25 562.5 25 C 631.539062 25 687.5 80.960938 687.5 150 L 687.5 187.5 L 662.5 187.5 L 662.5 150 C 662.5 94.769531 617.730469 50 562.5 50 C 507.269531 50 462.5 94.769531 462.5 150 L 462.5 187.5 L 437.5 187.5 Z M 487.5 187.5 L 487.5 150 C 487.5 108.585938 521.085938 75 562.5 75 C 603.914062 75 637.5 108.585938 637.5 150 L 637.5 187.5 Z M 725 382.976562 C 724.992188 392.378906 717.363281 399.996094 707.964844 400 L 417.035156 400 C 407.636719 399.996094 400.007812 392.378906 400 382.976562 L 400 229.523438 C 400.007812 220.121094 407.636719 212.503906 417.035156 212.5 L 707.964844 212.5 C 717.363281 212.503906 724.992188 220.121094 725 229.523438 Z M 725 382.976562 " style=" stroke:none;fill-rule:nonzero;fill:rgb(0%,0%,0%);fill-opacity:1;" />
<path d="M 562.5 262.5 C 544.257812 262.460938 528.652344 275.589844 525.554688 293.574219 C 522.464844 311.554688 532.792969 329.140625 550 335.199219 L 550 362.5 L 575 362.5 L 575 335.199219 C 592.207031 329.140625 602.535156 311.554688 599.445312 293.574219 C 596.347656 275.589844 580.742188 262.460938 562.5 262.5 Z M 562.5 312.5 C 555.59375 312.5 550 306.90625 550 300 C 550 293.09375 555.59375 287.5 562.5 287.5 C 569.40625 287.5 575 293.09375 575 300 C 575 306.90625 569.40625 312.5 562.5 312.5 Z M 562.5 312.5 " style=" stroke:none;fill-rule:nonzero;fill:rgb(0%,0%,0%);fill-opacity:1;" />
<path d="M 225 200 L 250 200 L 250 225 L 225 225 Z M 225 200 " style=" stroke:none;fill-rule:nonzero;fill:rgb(0%,0%,0%);fill-opacity:1;" />
<path d="M 225 150 L 250 150 L 250 175 L 225 175 Z M 225 150 " style=" stroke:none;fill-rule:nonzero;fill:rgb(0%,0%,0%);fill-opacity:1;" />
<path d="M 225 100 L 250 100 L 250 125 L 225 125 Z M 225 100 " style=" stroke:none;fill-rule:nonzero;fill:rgb(0%,0%,0%);fill-opacity:1;" />
<path d="M 225 50 L 250 50 L 250 75 L 225 75 Z M 225 50 " style=" stroke:none;fill-rule:nonzero;fill:rgb(0%,0%,0%);fill-opacity:1;" />
<path d="M 275 50 L 300 50 L 300 75 L 275 75 Z M 275 50 " style=" stroke:none;fill-rule:nonzero;fill:rgb(0%,0%,0%);fill-opacity:1;" />
<path d="M 325 50 L 350 50 L 350 75 L 325 75 Z M 325 50 " style=" stroke:none;fill-rule:nonzero;fill:rgb(0%,0%,0%);fill-opacity:1;" />
<path d="M 375 50 L 400 50 L 400 75 L 375 75 Z M 375 50 " style=" stroke:none;fill-rule:nonzero;fill:rgb(0%,0%,0%);fill-opacity:1;" />
</g>
</svg>