<?xml version="1.0" encoding="UTF-8"?>
<!DOCTYPE svg PUBLIC "-//W3C//DTD SVG 1.1//EN" "http://www.w3.org/Graphics/SVG/1.1/DTD/svg11.dtd">
<svg xmlns="http://www.w3.org/2000/svg" version="1.1" enable-background="new 0 0 508 508" viewBox="0 0 508 508" xmlns:xlink="http://www.w3.org/1999/xlink">
<g><path style="opacity:0.93" fill="#000000" d="M 242.5,73.5 C 281.828,71.0512 309.328,87.7179 325,123.5C 335.743,160.269 325.91,190.102 295.5,213C 261.671,231.862 229.671,229.195 199.5,205C 174.99,179.112 169.49,149.612 183,116.5C 196.004,92.6553 215.837,78.3219 242.5,73.5 Z M 248.5,90.5 C 281.569,91.4177 302.402,107.751 311,139.5C 313.989,168.698 302.489,189.865 276.5,203C 244.135,213.879 218.635,205.045 200,176.5C 187.766,147.942 193.266,123.442 216.5,103C 226.271,96.2715 236.938,92.1048 248.5,90.5 Z"/></g>
<g><path style="opacity:0.934" fill="#000000" d="M 399.5,125.5 C 425.502,122.43 446.002,131.43 461,152.5C 475.591,179.942 472.424,205.109 451.5,228C 432.04,244.277 410.373,247.943 386.5,239C 358.402,224.639 346.902,201.805 352,170.5C 359.321,146.342 375.154,131.342 399.5,125.5 Z M 404.5,142.5 C 427.419,141.948 442.919,152.282 451,173.5C 455.415,196.267 447.248,212.767 426.5,223C 402.942,230.298 384.775,223.464 372,202.5C 363.416,179.662 369.249,161.496 389.5,148C 394.434,145.637 399.434,143.804 404.5,142.5 Z"/></g>
<g><path style="opacity:0.933" fill="#000000" d="M 90.5,129.5 C 121.624,126.804 143.791,139.471 157,167.5C 165.745,196.264 158.245,219.764 134.5,238C 115.965,248.677 96.632,250.344 76.5,243C 45.4634,226.08 34.9634,200.58 45,166.5C 54.0755,146.584 69.2422,134.25 90.5,129.5 Z M 96.5,146.5 C 124.133,147.134 139.8,161.134 143.5,188.5C 140.364,213.969 126.031,227.969 100.5,230.5C 75.1199,227.787 61.1199,213.787 58.5,188.5C 61.0546,165.282 73.7213,151.282 96.5,146.5 Z"/></g>
<g><path style="opacity:0.947" fill="#000000" d="M 511.5,341.5 C 511.5,357.5 511.5,373.5 511.5,389.5C 508.263,396.567 502.93,401.4 495.5,404C 462.168,404.5 428.835,404.667 395.5,404.5C 396.476,421.069 389.142,431.903 373.5,437C 294.833,437.667 216.167,437.667 137.5,437C 124.615,433.282 117.282,424.782 115.5,411.5C 81.8383,410.667 48.1716,410.167 14.5,410C 11.3388,408.587 8.33883,406.92 5.5,405C 2.83733,402.157 0.837327,398.991 -0.5,395.5C -0.5,379.5 -0.5,363.5 -0.5,347.5C 6.43217,311.052 26.7655,284.885 60.5,269C 86.383,259.385 112.383,259.052 138.5,268C 144.361,270.18 149.861,273.013 155,276.5C 197.264,236.375 246.43,224.875 302.5,242C 321.269,248.877 337.936,259.044 352.5,272.5C 392.147,248.137 431.48,248.637 470.5,274C 493,291.171 506.666,313.671 511.5,341.5 Z M 247.5,251.5 C 289.99,250.501 324.823,266.168 352,298.5C 364.622,314.752 372.622,333.085 376,353.5C 377.563,373.469 377.897,393.469 377,413.5C 375.437,416.728 372.937,418.895 369.5,420C 293.5,420.667 217.5,420.667 141.5,420C 138.898,419.117 136.731,417.617 135,415.5C 133.859,406.263 133.359,396.929 133.5,387.5C 130.464,336.405 150.131,296.905 192.5,269C 209.651,259.003 227.984,253.17 247.5,251.5 Z M 399.5,272.5 C 435.426,270.047 463.259,283.714 483,313.5C 488.874,324.123 492.541,335.456 494,347.5C 494.667,359.833 494.667,372.167 494,384.5C 493.097,385.701 491.931,386.535 490.5,387C 458.835,387.5 427.168,387.667 395.5,387.5C 397.907,349.592 387.573,315.758 364.5,286C 375.399,279.206 387.066,274.706 399.5,272.5 Z M 92.5,278.5 C 110.597,277.552 127.597,281.386 143.5,290C 121.353,320.84 112.02,355.34 115.5,393.5C 83.4983,393.667 51.4983,393.5 19.5,393C 18.6667,392.167 17.8333,391.333 17,390.5C 16.1272,375.797 16.4605,361.13 18,346.5C 28.0965,307.566 52.9298,284.899 92.5,278.5 Z"/></g>
</svg>
