<?xml version="1.0" encoding="UTF-8"?>
<!DOCTYPE svg PUBLIC "-//W3C//DTD SVG 1.1//EN" "http://www.w3.org/Graphics/SVG/1.1/DTD/svg11.dtd">
<svg xmlns="http://www.w3.org/2000/svg" version="1.1" enable-background="new 0 0 508 508" viewBox="0 0 508 508" style="shape-rendering:geometricPrecision; text-rendering:geometricPrecision; image-rendering:optimizeQuality; fill-rule:evenodd; clip-rule:evenodd" xmlns:xlink="http://www.w3.org/1999/xlink">
<g><path style="opacity:0.919" fill="#000000" d="M 238.5,-0.5 C 249.5,-0.5 260.5,-0.5 271.5,-0.5C 278.642,3.10154 279.976,8.26821 275.5,15C 272.626,16.8995 269.459,17.7328 266,17.5C 256.847,16.8865 247.681,16.7199 238.5,17C 231.939,13.6553 230.439,8.82197 234,2.5C 235.409,1.21886 236.909,0.218865 238.5,-0.5 Z"/></g>
<g><path style="opacity:0.921" fill="#000000" d="M 298.5,2.5 C 309.676,4.54419 320.676,7.37753 331.5,11C 336.904,19.0305 335.071,24.5305 326,27.5C 314.961,24.2905 303.794,21.4572 292.5,19C 287.128,10.6269 289.128,5.12686 298.5,2.5 Z"/></g>
<g><path style="opacity:0.922" fill="#000000" d="M 206.5,3.5 C 216.652,1.49395 221.152,5.49395 220,15.5C 219.535,16.9308 218.701,18.0975 217.5,19C 206.331,21.7507 195.164,24.5841 184,27.5C 174.531,24.2486 173.031,18.7486 179.5,11C 188.483,8.0073 197.483,5.5073 206.5,3.5 Z"/></g>
<g><path style="opacity:0.911" fill="#000000" d="M 154.5,19.5 C 163.693,19.2148 167.193,23.5481 165,32.5C 163.833,33.6667 162.667,34.8333 161.5,36C 152.167,40.6667 142.833,45.3333 133.5,50C 125.515,50.3462 122.015,46.5128 123,38.5C 124.122,36.3762 125.622,34.5429 127.5,33C 136.592,28.4541 145.592,23.9541 154.5,19.5 Z"/></g>
<g><path style="opacity:0.911" fill="#000000" d="M 349.5,19.5 C 352.187,19.3359 354.854,19.5026 357.5,20C 366.167,24.3333 374.833,28.6667 383.5,33C 387.671,36.8543 388.504,41.3543 386,46.5C 383.005,49.2648 379.505,50.0981 375.5,49C 366.167,44.3333 356.833,39.6667 347.5,35C 343.083,29.0873 343.75,23.9206 349.5,19.5 Z"/></g>
<g><path style="opacity:0.931" fill="#000000" d="M 66.5,31.5 C 95.4192,32.7533 111.419,47.7533 114.5,76.5C 109.459,110.029 90.1256,124.196 56.5,119C 48.1821,116.355 41.1821,111.689 35.5,105C 34.451,104.508 33.451,104.674 32.5,105.5C 27.0997,111.633 23.2663,118.633 21,126.5C 19.4688,136.448 19.1355,146.448 20,156.5C 36.4473,157.826 53.114,158.493 70,158.5C 86.5,158.167 103,157.833 119.5,157.5C 121.162,144.733 120.496,132.066 117.5,119.5C 119.091,112.037 123.425,109.871 130.5,113C 131.701,113.903 132.535,115.069 133,116.5C 136.686,132.057 137.353,147.723 135,163.5C 133.221,167.612 130.388,170.778 126.5,173C 89.8934,174.647 53.2267,174.981 16.5,174C 11.0896,172.257 7.25629,168.757 5,163.5C 3.07014,150.518 3.07014,137.518 5,124.5C 7.91354,110.281 14.9135,98.6142 26,89.5C 21.5277,57.405 35.0277,38.0716 66.5,31.5 Z M 67.5,47.5 C 85.8852,48.5517 96.2186,58.2184 98.5,76.5C 95.1326,96.3784 83.4659,105.545 63.5,104C 46.5732,98.656 39.4065,87.156 42,69.5C 46.0839,56.8974 54.5839,49.5641 67.5,47.5 Z"/></g>
<g><path style="opacity:0.93" fill="#000000" d="M 437.5,31.5 C 466.306,32.8942 482.306,47.8942 485.5,76.5C 481.051,107.78 463.051,122.28 431.5,120C 420.636,117.657 411.803,112.157 405,103.5C 391.874,118.748 387.207,136.415 391,156.5C 407.447,157.826 424.114,158.493 441,158.5C 457.5,158.167 474,157.833 490.5,157.5C 492.119,144.738 491.452,132.072 488.5,119.5C 490.091,112.037 494.425,109.871 501.5,113C 502.701,113.903 503.535,115.069 504,116.5C 507.699,132.043 508.366,147.71 506,163.5C 504.221,167.612 501.388,170.778 497.5,173C 460.893,174.647 424.227,174.981 387.5,174C 382.09,172.257 378.256,168.757 376,163.5C 374.087,150.198 374.087,136.865 376,123.5C 378.963,109.554 385.963,98.2211 397,89.5C 392.528,57.405 406.028,38.0716 437.5,31.5 Z M 438.5,47.5 C 453.354,48.1966 463.187,55.5299 468,69.5C 470.593,87.156 463.427,98.656 446.5,104C 426.28,105.454 414.614,96.1202 411.5,76C 413.568,59.7688 422.568,50.2688 438.5,47.5 Z"/></g>
<g><path style="opacity:0.93" fill="#000000" d="M 236.5,172.5 C 270.168,172.333 303.835,172.5 337.5,173C 370.121,179.955 389.621,199.788 396,232.5C 398.927,265.821 385.76,290.321 356.5,306C 349.606,320.227 339.273,331.227 325.5,339C 317.962,343.186 310.129,346.686 302,349.5C 297.208,348.877 294.708,346.211 294.5,341.5C 297.857,332.093 300.19,322.426 301.5,312.5C 297.818,312.335 294.152,312.501 290.5,313C 281.8,331.358 267.466,342.691 247.5,347C 230.49,347.167 213.49,347.667 196.5,348.5C 198.19,355.739 200.19,362.905 202.5,370C 200.336,377.387 195.669,379.387 188.5,376C 171.26,369.258 158.26,357.758 149.5,341.5C 125.445,327.386 115.278,306.386 119,278.5C 126.342,247.656 145.842,231.656 177.5,230.5C 184.666,198.333 204.332,179 236.5,172.5 Z M 316.5,324.5 C 317.415,317.185 317.582,309.852 317,302.5C 316.167,299.667 314.333,297.833 311.5,297C 287.5,296.667 263.5,296.333 239.5,296C 232.994,293.704 226.328,292.704 219.5,293C 213.809,298.875 214.476,303.875 221.5,308C 226.677,309.961 232.01,311.294 237.5,312C 248.848,312.168 260.181,312.668 271.5,313.5C 266.056,321.434 258.723,326.934 249.5,330C 228.542,331.275 207.542,331.942 186.5,332C 184,333.167 182.167,335 181,337.5C 180.44,342.91 180.44,348.244 181,353.5C 173.092,348.264 167.425,341.264 164,332.5C 156.421,327.591 149.421,321.925 143,315.5C 131.387,297.262 131.72,279.262 144,261.5C 152.617,251.776 163.45,246.776 176.5,246.5C 176.993,254.48 178.826,262.147 182,269.5C 186.667,274.833 191.333,274.833 196,269.5C 196.167,268.167 196.333,266.833 196.5,265.5C 187.114,237.498 194.114,214.665 217.5,197C 222.599,194.117 227.933,191.783 233.5,190C 267.127,188.368 300.794,188.035 334.5,189C 355.44,193.615 369.94,205.782 378,225.5C 385.148,257.37 373.981,280.203 344.5,294C 339.103,307.892 329.77,318.059 316.5,324.5 Z"/></g>
<g><path style="opacity:0.912" fill="#000000" d="M 492.5,189.5 C 497.126,188.7 500.96,190.034 504,193.5C 507.408,204.95 509.408,216.616 510,228.5C 507.412,234.811 502.912,236.644 496.5,234C 493.652,231.134 492.152,227.634 492,223.5C 490.931,215.087 489.431,206.754 487.5,198.5C 487.941,194.748 489.607,191.748 492.5,189.5 Z"/></g>
<g><path style="opacity:0.915" fill="#000000" d="M 10.5,190.5 C 17.5789,188.867 21.9123,191.534 23.5,198.5C 21.2351,208.756 19.4018,219.089 18,229.5C 14.4357,236.356 9.43573,237.69 3,233.5C 1.59609,231.361 0.76276,229.028 0.5,226.5C 1.79441,216.4 3.62774,206.4 6,196.5C 6.59854,193.746 8.09854,191.746 10.5,190.5 Z"/></g>
<g><path style="opacity:0.924" fill="#000000" d="M 511.5,251.5 C 511.5,260.167 511.5,268.833 511.5,277.5C 510.778,281.391 509.944,285.391 509,289.5C 504,294.833 499,294.833 494,289.5C 493.192,287.577 492.692,285.577 492.5,283.5C 493.664,272.862 494.498,262.196 495,251.5C 500.546,244.891 506.046,244.891 511.5,251.5 Z"/></g>
<g><path style="opacity:0.925" fill="#000000" d="M -0.5,277.5 C -0.5,268.833 -0.5,260.167 -0.5,251.5C 4.31651,246.588 9.48317,246.254 15,250.5C 16.4742,261.586 17.6409,272.752 18.5,284C 17.6371,291.197 13.6371,294.197 6.5,293C 4.71398,292.215 3.21398,291.049 2,289.5C 1.05573,285.391 0.222393,281.391 -0.5,277.5 Z"/></g>
<g><path style="opacity:0.917" fill="#000000" d="M 11.5,304.5 C 16.814,303.74 20.6473,305.74 23,310.5C 25.5315,320.593 28.3648,330.593 31.5,340.5C 30.5066,347.502 26.5066,350.335 19.5,349C 18.0692,348.535 16.9025,347.701 16,346.5C 11.3424,335.705 7.84236,324.538 5.5,313C 6.17449,309.17 8.17449,306.336 11.5,304.5 Z"/></g>
<g><path style="opacity:0.915" fill="#000000" d="M 492.5,304.5 C 499.955,302.879 504.288,305.712 505.5,313C 503.216,324.81 499.549,336.143 494.5,347C 486.72,351.131 481.72,348.965 479.5,340.5C 482.635,330.593 485.469,320.593 488,310.5C 488.804,307.854 490.304,305.854 492.5,304.5 Z"/></g>
<g><path style="opacity:0.931" fill="#000000" d="M 65.5,336.5 C 94.7,337.201 111.033,352.035 114.5,381C 110.419,412.084 92.7523,426.751 61.5,425C 50.2472,422.958 41.0805,417.458 34,408.5C 20.8737,423.748 16.207,441.415 20,461.5C 36.4473,462.826 53.114,463.493 70,463.5C 86.5,463.167 103,462.833 119.5,462.5C 121.162,449.733 120.496,437.066 117.5,424.5C 119.091,417.037 123.425,414.871 130.5,418C 131.701,418.903 132.535,420.069 133,421.5C 136.686,437.057 137.353,452.723 135,468.5C 133.167,473 130,476.167 125.5,478C 89.5601,479.647 53.5601,479.98 17.5,479C 11.4991,477.664 7.33239,474.164 5,468.5C 2.82907,453.787 3.1624,439.12 6,424.5C 9.53561,412.318 16.2023,402.318 26,394.5C 21.3219,369.691 30.1552,351.524 52.5,340C 56.8602,338.417 61.1936,337.25 65.5,336.5 Z M 66.5,352.5 C 85.2083,353.045 95.875,362.545 98.5,381C 95.4046,401.099 83.7379,410.432 63.5,409C 46.568,403.644 39.4013,392.144 42,374.5C 45.8008,362.2 53.9675,354.867 66.5,352.5 Z"/></g>
<g><path style="opacity:0.931" fill="#000000" d="M 436.5,336.5 C 465.934,337.269 482.268,352.269 485.5,381.5C 481.185,412.318 463.518,426.818 432.5,425C 421.252,422.96 412.085,417.46 405,408.5C 391.874,423.748 387.207,441.415 391,461.5C 407.447,462.826 424.114,463.493 441,463.5C 457.5,463.167 474,462.833 490.5,462.5C 492.119,449.738 491.452,437.072 488.5,424.5C 490.091,417.037 494.425,414.871 501.5,418C 502.701,418.903 503.535,420.069 504,421.5C 507.699,437.043 508.366,452.71 506,468.5C 504.167,473 501,476.167 496.5,478C 460.56,479.647 424.56,479.98 388.5,479C 382.499,477.664 378.332,474.164 376,468.5C 374.087,455.198 374.087,441.865 376,428.5C 378.963,414.554 385.963,403.221 397,394.5C 392.316,369.702 401.149,351.536 423.5,340C 427.86,338.417 432.194,337.25 436.5,336.5 Z M 437.5,352.5 C 460.08,353.998 470.247,365.998 468,388.5C 462.155,404.009 450.988,410.842 434.5,409C 415.903,402.302 409.07,389.469 414,370.5C 418.871,360.497 426.704,354.497 437.5,352.5 Z"/></g>
<g><path style="opacity:0.914" fill="#000000" d="M 154.5,474.5 C 156.527,474.338 158.527,474.505 160.5,475C 169.681,478.727 179.015,482.061 188.5,485C 193.447,488.51 194.613,493.01 192,498.5C 188.662,501.318 184.829,502.151 180.5,501C 170.522,498.119 160.855,494.452 151.5,490C 147.19,483.772 148.19,478.605 154.5,474.5 Z"/></g>
<g><path style="opacity:0.918" fill="#000000" d="M 350.5,474.5 C 357.437,473.631 361.437,476.631 362.5,483.5C 362.444,486.111 361.444,488.278 359.5,490C 347.806,496.123 335.473,499.79 322.5,501C 316.12,495.607 316.12,490.274 322.5,485C 332.204,482.159 341.537,478.659 350.5,474.5 Z"/></g>
<g><path style="opacity:0.916" fill="#000000" d="M 245.5,511.5 C 240.833,511.5 236.167,511.5 231.5,511.5C 224.317,510.305 216.983,509.138 209.5,508C 203.403,504.372 202.236,499.538 206,493.5C 208.333,492.123 210.833,491.123 213.5,490.5C 224.094,492.439 234.76,493.939 245.5,495C 252.029,500.537 252.029,506.037 245.5,511.5 Z"/></g>
<g><path style="opacity:0.916" fill="#000000" d="M 279.5,511.5 C 275.167,511.5 270.833,511.5 266.5,511.5C 260.287,506.468 259.953,500.968 265.5,495C 276.548,493.885 287.548,492.385 298.5,490.5C 306.53,492.227 309.03,496.894 306,504.5C 304.786,506.049 303.286,507.215 301.5,508C 294.017,509.138 286.683,510.305 279.5,511.5 Z"/></g>
</svg>
