<?xml version="1.0" encoding="UTF-8"?>
<!DOCTYPE svg PUBLIC "-//W3C//DTD SVG 1.1//EN" "http://www.w3.org/Graphics/SVG/1.1/DTD/svg11.dtd">
<svg xmlns="http://www.w3.org/2000/svg" version="1.1" enable-background="new 0 0 508 508" viewBox="0 0 508 508" style="shape-rendering:geometricPrecision; text-rendering:geometricPrecision; image-rendering:optimizeQuality; fill-rule:evenodd; clip-rule:evenodd" xmlns:xlink="http://www.w3.org/1999/xlink">
<g><path style="opacity:0.939" fill="#000000" d="M 32.5,-0.5 C 38.8333,-0.5 45.1667,-0.5 51.5,-0.5C 78.6239,9.06623 89.1239,28.0662 83,56.5C 79.9054,64.4278 75.0721,71.0945 68.5,76.5C 76,92.1667 83.5,107.833 91,123.5C 91.5613,124.022 92.228,124.355 93,124.5C 146.764,110.062 188.764,126.062 219,172.5C 250.031,159.715 280.865,146.548 311.5,133C 307.892,123.015 306.225,112.682 306.5,102C 306.466,92.7075 307.466,83.5408 309.5,74.5C 300.978,71.6602 292.478,68.6602 284,65.5C 266.995,86.4345 246.495,90.6012 222.5,78C 203.118,61.8138 198.952,42.3138 210,19.5C 216.657,9.26641 225.824,2.59974 237.5,-0.5C 243.833,-0.5 250.167,-0.5 256.5,-0.5C 279.947,7.38576 291.281,23.7191 290.5,48.5C 298.628,51.5984 306.795,54.5984 315,57.5C 322.481,45.429 331.315,34.2624 341.5,24C 356.948,10.9414 374.615,2.77473 394.5,-0.5C 403.833,-0.5 413.167,-0.5 422.5,-0.5C 460.414,5.90028 487.581,26.5669 504,61.5C 507.309,70.4175 509.809,79.4175 511.5,88.5C 511.5,97.5 511.5,106.5 511.5,115.5C 502.556,162.281 474.889,191.447 428.5,203C 413.729,205.329 399.063,204.829 384.5,201.5C 383.833,201.833 383.167,202.167 382.5,202.5C 369.03,240.243 355.364,277.91 341.5,315.5C 356.213,322.711 368.713,332.711 379,345.5C 395.603,335.227 411.937,324.56 428,313.5C 422.285,293.314 427.451,276.48 443.5,263C 459.662,253.412 475.996,253.079 492.5,262C 501.823,268.803 508.157,277.637 511.5,288.5C 511.5,294.833 511.5,301.167 511.5,307.5C 503.083,333.055 485.417,343.889 458.5,340C 451.01,337.672 444.176,334.172 438,329.5C 421.846,339.578 405.846,349.911 390,360.5C 393.025,368.242 395.692,376.242 398,384.5C 407.069,431.306 392.236,468.473 353.5,496C 340.386,503.868 326.386,509.035 311.5,511.5C 302.5,511.5 293.5,511.5 284.5,511.5C 243.549,503.725 215.382,480.392 200,441.5C 187.613,444.888 175.113,447.888 162.5,450.5C 158.822,482.01 141.155,496.51 109.5,494C 81.2376,483.976 71.0709,464.476 79,435.5C 90.478,412.732 108.645,404.565 133.5,411C 144.875,415.043 153.042,422.543 158,433.5C 170.687,429.954 183.52,426.954 196.5,424.5C 192.385,392.019 201.051,363.519 222.5,339C 211.288,327.291 200.288,315.458 189.5,303.5C 157.031,325.978 122.364,330.145 85.5,316C 80.6266,324.914 75.6266,333.748 70.5,342.5C 89.1435,362.139 90.3102,382.806 74,404.5C 58.3336,418.729 40.8336,421.562 21.5,413C 10.1308,406.482 2.79745,396.982 -0.5,384.5C -0.5,378.167 -0.5,371.833 -0.5,365.5C 8.92835,339.111 27.595,328.111 55.5,332.5C 60.0397,323.92 64.7064,315.42 69.5,307C 31.1263,277.388 17.6263,238.888 29,191.5C 33.42,177.32 40.42,164.653 50,153.5C 57.9327,145.89 66.0993,138.723 74.5,132C 67.3032,116.439 59.9698,100.939 52.5,85.5C 25.696,87.9541 8.02933,76.6207 -0.5,51.5C -0.5,45.1667 -0.5,38.8333 -0.5,32.5C 4.83333,15.8333 15.8333,4.83333 32.5,-0.5 Z M 36.5,17.5 C 50.6744,15.832 60.5077,21.4987 66,34.5C 69.0239,53.4362 61.0239,64.4362 42,67.5C 21.0675,63.3064 13.7342,50.9731 20,30.5C 23.9694,24.0097 29.4694,19.6763 36.5,17.5 Z M 240.5,17.5 C 258.581,16.0895 269.248,24.2561 272.5,42C 268.55,62.2859 256.55,69.9525 236.5,65C 222.235,55.8774 218.735,43.7108 226,28.5C 229.857,23.4678 234.69,19.8011 240.5,17.5 Z M 397.5,17.5 C 441.129,15.002 471.629,33.6687 489,73.5C 498.547,103.889 493.547,131.556 474,156.5C 467.526,140.692 456.359,129.526 440.5,123C 453.233,107.537 455.399,90.7036 447,72.5C 431.032,49.7162 410.532,44.5495 385.5,57C 367.719,70.6743 362.219,88.1743 369,109.5C 370.958,114.59 373.792,119.09 377.5,123C 362.695,129.972 351.695,140.805 344.5,155.5C 328.734,137.13 322.234,115.797 325,91.5C 332.907,50.7606 357.074,26.094 397.5,17.5 Z M 403.5,68.5 C 421.284,67.6186 431.617,75.9519 434.5,93.5C 429.882,114.974 417.216,122.141 396.5,115C 384.63,106.382 381.463,95.215 387,81.5C 390.939,75.0478 396.439,70.7145 403.5,68.5 Z M 118.5,136.5 C 159.325,135.153 188.491,152.82 206,189.5C 217.433,221.142 212.766,250.142 192,276.5C 185.644,260.978 174.811,249.978 159.5,243.5C 159.351,242.448 159.517,241.448 160,240.5C 173.633,222.485 173.967,204.151 161,185.5C 144.502,168.761 125.669,165.594 104.5,176C 83.361,192.394 78.861,212.56 91,236.5C 92.6196,238.241 94.1196,240.075 95.5,242C 80.2479,248.918 69.4145,260.085 63,275.5C 38.9413,244.691 36.2746,212.025 55,177.5C 70.2867,154.614 91.4533,140.947 118.5,136.5 Z M 395.5,136.5 C 407.625,135.893 419.625,136.726 431.5,139C 445.899,145.046 454.732,155.546 458,170.5C 435.571,186.266 411.071,190.433 384.5,183C 375.238,180.039 366.904,175.539 359.5,169.5C 365.213,151.447 377.213,140.447 395.5,136.5 Z M 316.5,150.5 C 317.496,150.414 318.329,150.748 319,151.5C 329.961,171.128 345.461,185.962 365.5,196C 352.136,232.424 338.97,268.924 326,305.5C 325.519,307.478 324.353,308.811 322.5,309.5C 290.791,302.141 261.958,308.141 236,327.5C 225.167,315.333 214.333,303.167 203.5,291C 228.745,261.512 236.078,228.012 225.5,190.5C 255.775,176.858 286.109,163.525 316.5,150.5 Z M 124.5,187.5 C 142.798,188.629 151.965,198.296 152,216.5C 150.049,227.119 143.882,233.952 133.5,237C 118.243,239.125 108.076,232.958 103,218.5C 101.385,201.965 108.552,191.632 124.5,187.5 Z M 118.5,255.5 C 132.092,254.433 145.092,256.6 157.5,262C 167.862,268.918 174.029,278.418 176,290.5C 142.791,312.193 109.957,311.693 77.5,289C 84.1686,269.156 97.8352,257.99 118.5,255.5 Z M 462.5,273.5 C 480.945,271.956 491.278,280.289 493.5,298.5C 492.294,313.541 484.127,321.874 469,323.5C 453.833,321.667 445.333,313.167 443.5,298C 444.956,285.866 451.29,277.699 462.5,273.5 Z M 287.5,324.5 C 330.64,322.475 360.807,341.142 378,380.5C 387.648,410.92 382.648,438.586 363,463.5C 355.833,448.333 344.667,437.167 329.5,430C 343.08,413.188 344.58,395.355 334,376.5C 319.961,358.601 302.128,353.435 280.5,361C 258.188,373.461 250.688,391.961 258,416.5C 259.958,421.59 262.792,426.09 266.5,430C 251.695,436.972 240.695,447.805 233.5,462.5C 220.059,447.358 213.392,429.525 213.5,409C 217.078,362.261 241.745,334.094 287.5,324.5 Z M 41.5,349.5 C 56.9613,351.128 65.628,359.628 67.5,375C 63.6487,394.885 51.982,402.552 32.5,398C 19.0681,390.961 14.5681,380.127 19,365.5C 23.6198,356.037 31.1198,350.704 41.5,349.5 Z M 293.5,375.5 C 310.787,375.122 320.787,383.455 323.5,400.5C 320.651,418.186 310.317,426.353 292.5,425C 275.862,418.891 270.029,407.391 275,390.5C 278.994,382.658 285.161,377.658 293.5,375.5 Z M 115.5,426.5 C 132.496,426.662 142.162,435.162 144.5,452C 139.432,473.735 126.432,480.735 105.5,473C 89.4107,458.217 89.7441,443.884 106.5,430C 109.571,428.704 112.571,427.538 115.5,426.5 Z M 286.5,443.5 C 297.621,442.961 308.621,443.795 319.5,446C 334.077,451.578 343.411,461.912 347.5,477C 327.534,491.905 305.201,496.905 280.5,492C 268.377,489.585 257.71,484.418 248.5,476.5C 254.442,457.546 267.109,446.546 286.5,443.5 Z"/></g>
</svg>
