<?xml version="1.0" encoding="UTF-8"?>
<!DOCTYPE svg PUBLIC "-//W3C//DTD SVG 1.1//EN" "http://www.w3.org/Graphics/SVG/1.1/DTD/svg11.dtd">
<svg xmlns="http://www.w3.org/2000/svg" version="1.1" enable-background="new 0 0 508 508" viewBox="0 0 508 508" style="shape-rendering:geometricPrecision; text-rendering:geometricPrecision; image-rendering:optimizeQuality; fill-rule:evenodd; clip-rule:evenodd" xmlns:xlink="http://www.w3.org/1999/xlink">
<g><path style="opacity:0.927" fill="#000000" d="M 511.5,373.5 C 511.5,383.167 511.5,392.833 511.5,402.5C 500.059,456.103 467.059,486.269 412.5,493C 362.795,493.246 327.962,470.746 308,425.5C 297.801,395.523 299.635,366.356 313.5,338C 294.743,324.872 275.577,312.372 256,300.5C 236.409,312.423 217.076,324.757 198,337.5C 200.265,343.39 202.598,349.39 205,355.5C 216.85,399.939 206.016,437.772 172.5,469C 154.252,484.194 133.252,491.861 109.5,492C 106.634,490.607 105.301,488.274 105.5,485C 105.439,482.739 106.106,480.739 107.5,479C 128.011,476.39 146.344,468.723 162.5,456C 153.275,436.775 139.275,422.108 120.5,412C 117.735,409.005 116.902,405.505 118,401.5C 124.048,396.423 128.382,390.09 131,382.5C 132.943,365.112 125.443,354.279 108.5,350C 94.2928,349.187 84.4595,355.354 79,368.5C 75.8717,381.776 79.8717,392.443 91,400.5C 93,403.5 93,406.5 91,409.5C 75.3689,419.133 62.3689,431.466 52,446.5C 50.3635,449.606 48.8635,452.773 47.5,456C 58.9891,466.07 72.3224,472.737 87.5,476C 93.5974,483.003 92.2641,488.169 83.5,491.5C 36.8909,479.229 8.89094,449.562 -0.5,402.5C -0.5,392.833 -0.5,383.167 -0.5,373.5C 7.35558,330.465 32.0222,301.631 73.5,287C 119.149,275.33 157.149,287.33 187.5,323C 188.908,323.315 190.241,322.982 191.5,322C 209.833,310.167 228.167,298.333 246.5,286.5C 247.5,267.178 247.833,247.845 247.5,228.5C 201.99,222.672 171.156,198.339 155,155.5C 144.755,119.458 150.921,86.6246 173.5,57C 182.194,54.2605 186.361,57.4272 186,66.5C 165.291,94.4282 160.958,124.761 173,157.5C 176.325,165.493 180.659,172.826 186,179.5C 194.775,163.222 206.608,149.556 221.5,138.5C 209.129,119.816 209.629,101.483 223,83.5C 236.718,69.6964 252.884,65.8631 271.5,72C 294.744,83.7036 302.911,102.204 296,127.5C 294.213,131.577 292.046,135.41 289.5,139C 304.155,149.818 316.155,162.985 325.5,178.5C 349.75,144.489 351.25,109.489 330,73.5C 304.137,39.2107 270.303,27.3774 228.5,38C 218.636,41.8501 209.136,46.3501 200,51.5C 192.387,48.995 190.554,44.1616 194.5,37C 234.627,11.4059 274.961,11.0725 315.5,36C 357.182,68.8752 370.015,110.709 354,161.5C 336.797,201.186 306.631,223.519 263.5,228.5C 263.167,247.845 263.5,267.178 264.5,286.5C 283.833,298.833 303.167,311.167 322.5,323.5C 353.463,287.348 392.129,275.181 438.5,287C 444.542,289.837 446.042,294.337 443,300.5C 441.316,302.066 439.316,303.066 437,303.5C 395.492,291.449 361.158,302.116 334,335.5C 314.298,365.991 312.298,397.658 328,430.5C 330.753,435.008 333.753,439.341 337,443.5C 345.448,427.215 357.282,413.882 372.5,403.5C 361.532,387.403 360.699,370.737 370,353.5C 386.122,332.941 405.956,328.441 429.5,340C 446.421,352.016 452.587,368.183 448,388.5C 446.554,394.058 444.054,399.058 440.5,403.5C 455.718,413.882 467.552,427.215 476,443.5C 495.77,417.889 500.77,389.555 491,358.5C 486.376,346.061 479.543,335.061 470.5,325.5C 465.816,320.981 460.982,316.648 456,312.5C 454.336,303.834 457.836,300 466.5,301C 491.534,318.895 506.534,343.062 511.5,373.5 Z M 249.5,85.5 C 271.813,84.6469 282.646,95.3136 282,117.5C 280.082,125.43 275.748,131.763 269,136.5C 268.333,139.167 268.333,141.833 269,144.5C 280.554,152.302 291.22,161.302 301,171.5C 305.646,177.489 309.48,183.989 312.5,191C 299.551,202.801 284.218,209.801 266.5,212C 240.587,214.803 217.92,207.803 198.5,191C 208.214,171.286 222.714,156.119 242,145.5C 243.714,142.45 243.714,139.45 242,136.5C 227.164,124.507 224.831,110.507 235,94.5C 239.376,90.5719 244.21,87.5719 249.5,85.5 Z M 95.5,298.5 C 137.905,297.277 168.405,315.61 187,353.5C 199.137,385.997 194.804,415.997 174,443.5C 165.552,427.215 153.718,413.882 138.5,403.5C 149.895,386.501 150.395,369.168 140,351.5C 122.171,331.537 101.671,328.37 78.5,342C 59.0993,360.298 56.4326,380.798 70.5,403.5C 55.6715,414.144 43.8381,427.477 35,443.5C 13.984,416.027 9.65065,386.027 22,353.5C 36.7152,321.935 61.2152,303.602 95.5,298.5 Z M 402.5,349.5 C 418.272,349.13 428.439,356.464 433,371.5C 434.207,378.673 432.873,385.34 429,391.5C 426.313,395.183 423.313,398.517 420,401.5C 419.333,404.167 419.333,406.833 420,409.5C 435.383,418.196 448.05,429.863 458,444.5C 460.223,447.779 462.057,451.279 463.5,455C 461.846,457.987 459.513,460.321 456.5,462C 421.162,483.331 386.496,482.331 352.5,459C 351.101,457.938 350.101,456.605 349.5,455C 355.883,441.614 364.883,430.28 376.5,421C 382.087,417.29 387.587,413.457 393,409.5C 395.231,403.145 393.231,398.478 387,395.5C 376.105,380.954 377.271,367.454 390.5,355C 394.284,352.471 398.284,350.638 402.5,349.5 Z"/></g>
</svg>
