<?xml version="1.0" encoding="UTF-8"?>
<!DOCTYPE svg PUBLIC "-//W3C//DTD SVG 1.1//EN" "http://www.w3.org/Graphics/SVG/1.1/DTD/svg11.dtd">
<svg xmlns="http://www.w3.org/2000/svg" version="1.1" enable-background="new 0 0 508 508" viewBox="0 0 508 508" style="shape-rendering:geometricPrecision; text-rendering:geometricPrecision; image-rendering:optimizeQuality; fill-rule:evenodd; clip-rule:evenodd" xmlns:xlink="http://www.w3.org/1999/xlink">
<g><path style="opacity:0.94" fill="#000000" d="M 79.5,-0.5 C 86.5,-0.5 93.5,-0.5 100.5,-0.5C 121.059,4.54763 134.559,17.2143 141,37.5C 142.6,52.4452 142.934,67.4452 142,82.5C 140.359,92.2822 136.192,100.782 129.5,108C 157.361,112.863 174.528,129.029 181,156.5C 212.806,165.837 227.64,187.17 225.5,220.5C 227.571,247.878 216.571,267.712 192.5,280C 188.58,281.313 184.58,282.313 180.5,283C 165.833,283.333 151.167,283.667 136.5,284C 129.732,284.861 123.732,287.361 118.5,291.5C 131.271,299.785 139.105,311.452 142,326.5C 142.667,338.5 142.667,350.5 142,362.5C 136.667,367.833 131.333,367.833 126,362.5C 124.735,351.572 124.068,340.572 124,329.5C 119.26,312.539 108.094,303.205 90.5,301.5C 72.3763,303.469 60.8763,313.135 56,330.5C 55.3333,341.5 55.3333,352.5 56,363.5C 59.5,379 69,388.5 84.5,392C 99.1667,392.333 113.833,392.667 128.5,393C 147.557,395.44 162.391,404.607 173,420.5C 183.28,405.407 197.447,396.073 215.5,392.5C 205.049,379.21 200.715,364.044 202.5,347C 200.131,320.061 210.797,300.394 234.5,288C 243.249,284.429 252.249,283.262 261.5,284.5C 271.916,274.625 284.249,268.459 298.5,266C 292.091,259.015 287.924,250.849 286,241.5C 284.526,230.666 284.026,219.833 284.5,209C 286.984,181.692 301.317,164.192 327.5,156.5C 322.533,141.034 312.2,131.2 296.5,127C 271.536,125.392 246.536,125.059 221.5,126C 219.167,126.333 216.833,126.667 214.5,127C 208.813,129.179 203.146,131.346 197.5,133.5C 188.798,131.26 186.464,126.093 190.5,118C 198.11,112.907 206.443,109.573 215.5,108C 208.023,99.2444 203.856,89.0777 203,77.5C 202.333,67.1667 202.333,56.8333 203,46.5C 206.928,21.4121 221.095,5.74538 245.5,-0.5C 252.167,-0.5 258.833,-0.5 265.5,-0.5C 296.209,8.67494 310.543,29.5083 308.5,62C 310.214,79.1556 305.881,94.489 295.5,108C 322.816,113.317 339.649,129.484 346,156.5C 369.416,162.416 383.916,177.082 389.5,200.5C 390.607,212.814 390.774,225.147 390,237.5C 385.73,262.437 371.23,277.604 346.5,283C 331.5,283.333 316.5,283.667 301.5,284C 294.732,285.145 288.399,287.478 282.5,291C 294.928,299.012 303.095,310.179 307,324.5C 308.504,336.461 308.838,348.461 308,360.5C 305.646,366.095 301.479,367.928 295.5,366C 293.333,365.167 291.833,363.667 291,361.5C 290.667,352.167 290.333,342.833 290,333.5C 286.381,314.383 274.881,303.716 255.5,301.5C 236.113,303.722 224.613,314.389 221,333.5C 220.333,342.833 220.333,352.167 221,361.5C 223.167,376.344 231.334,386.178 245.5,391C 261.447,392.272 277.447,392.939 293.5,393C 312.557,395.44 327.391,404.607 338,420.5C 348.359,404.898 362.859,395.731 381.5,393C 372.092,382.114 367.426,369.447 367.5,355C 368.32,345.577 368.82,336.077 369,326.5C 375.964,299.678 393.297,285.345 421,283.5C 441.154,284.567 456.487,293.567 467,310.5C 470.141,316.116 472.141,322.116 473,328.5C 473.667,339.5 473.667,350.5 473,361.5C 470.103,366.155 465.937,367.655 460.5,366C 459.069,365.535 457.903,364.701 457,363.5C 455.954,351.19 454.954,338.857 454,326.5C 447.68,309.749 435.514,301.582 417.5,302C 403.16,304.245 393.327,312.078 388,325.5C 386.409,338.777 386.076,352.11 387,365.5C 390.673,377.84 398.507,386.34 410.5,391C 426.447,392.272 442.447,392.939 458.5,393C 486.918,397.59 504.584,413.757 511.5,441.5C 511.5,463.5 511.5,485.5 511.5,507.5C 509.833,508.5 508.5,509.833 507.5,511.5C 504.5,511.5 501.5,511.5 498.5,511.5C 495.951,509.444 494.451,506.778 494,503.5C 493.667,483.833 493.333,464.167 493,444.5C 488.935,427.435 478.435,416.601 461.5,412C 447.878,410.88 434.211,410.38 420.5,410.5C 406.789,410.38 393.122,410.88 379.5,412C 362.592,416.575 352.092,427.408 348,444.5C 347.667,464.167 347.333,483.833 347,503.5C 346.549,506.778 345.049,509.444 342.5,511.5C 339.5,511.5 336.5,511.5 333.5,511.5C 330.951,509.444 329.451,506.778 329,503.5C 328.667,483.833 328.333,464.167 328,444.5C 323.908,427.408 313.408,416.575 296.5,412C 282.878,410.88 269.211,410.38 255.5,410.5C 241.789,410.38 228.122,410.88 214.5,412C 197.592,416.575 187.092,427.408 183,444.5C 182.667,464.167 182.333,483.833 182,503.5C 181.549,506.778 180.049,509.444 177.5,511.5C 174.5,511.5 171.5,511.5 168.5,511.5C 165.951,509.444 164.451,506.778 164,503.5C 163.667,483.833 163.333,464.167 163,444.5C 158.908,427.408 148.408,416.575 131.5,412C 117.878,410.88 104.211,410.38 90.5,410.5C 76.7891,410.38 63.1225,410.88 49.5,412C 32.5653,416.601 22.0653,427.435 18,444.5C 17.6667,464.167 17.3333,483.833 17,503.5C 16.5494,506.778 15.0494,509.444 12.5,511.5C 9.5,511.5 6.5,511.5 3.5,511.5C 2.5,509.833 1.16667,508.5 -0.5,507.5C -0.5,485.5 -0.5,463.5 -0.5,441.5C 6.16999,414.667 23.17,398.501 50.5,393C 43.7697,385.037 39.603,375.87 38,365.5C 37.3333,353.167 37.3333,340.833 38,328.5C 45.5499,297.303 65.3832,282.47 97.5,284C 107.338,274.58 119.005,268.58 132.5,266C 125.478,257.786 121.311,248.286 120,237.5C 119.333,225.833 119.333,214.167 120,202.5C 122.223,188.552 128.723,177.052 139.5,168C 146.716,163.059 154.383,159.225 162.5,156.5C 157.533,141.034 147.2,131.2 131.5,127C 106.536,125.392 81.5359,125.059 56.5,126C 38.0898,128.419 25.5898,138.252 19,155.5C 18.0112,177.847 17.0112,200.18 16,222.5C 10.5041,229.101 5.00409,229.101 -0.5,222.5C -0.5,200.5 -0.5,178.5 -0.5,156.5C 6.17872,129.658 23.1787,113.491 50.5,108C 43.6451,100.121 39.4784,90.9542 38,80.5C 37.0914,66.4528 37.4248,52.4528 39,38.5C 45.525,18.1397 59.025,5.1397 79.5,-0.5 Z M 82.5,17.5 C 103.762,15.3663 117.596,24.3663 124,44.5C 124.667,56.5 124.667,68.5 124,80.5C 117.893,100.478 104.393,109.312 83.5,107C 68.5785,103.078 59.4118,93.5781 56,78.5C 55.3333,67.8333 55.3333,57.1667 56,46.5C 59.4649,31.8708 68.2982,22.2041 82.5,17.5 Z M 247.5,17.5 C 263.382,15.1752 275.882,20.5086 285,33.5C 287.466,38.2316 289.133,43.2316 290,48.5C 290.667,57.8333 290.667,67.1667 290,76.5C 285.089,98.713 271.256,108.88 248.5,107C 232.669,102.836 223.502,92.6694 221,76.5C 220.333,67.1667 220.333,57.8333 221,48.5C 223.614,32.7277 232.448,22.3944 247.5,17.5 Z M 170.5,174.5 C 196.867,178 209.2,193.167 207.5,220C 209.598,237.451 203.598,251.118 189.5,261C 172.559,269.184 157.725,266.351 145,252.5C 138.56,242.642 136.06,231.809 137.5,220C 135.026,194.705 146.026,179.539 170.5,174.5 Z M 336.5,174.5 C 362.948,178.302 374.948,193.635 372.5,220.5C 375.013,239.979 367.68,254.146 350.5,263C 327.891,269.112 312.391,261.279 304,239.5C 302,226.833 302,214.167 304,201.5C 309.003,185.319 319.836,176.319 336.5,174.5 Z"/></g>
<g><path style="opacity:0.941" fill="#000000" d="M 410.5,-0.5 C 417.5,-0.5 424.5,-0.5 431.5,-0.5C 451.975,5.1397 465.475,18.1397 472,38.5C 473.575,52.4528 473.909,66.4528 473,80.5C 471.52,90.9619 467.353,100.129 460.5,108C 487.821,113.491 504.821,129.658 511.5,156.5C 511.5,178.5 511.5,200.5 511.5,222.5C 505.996,229.101 500.496,229.101 495,222.5C 493.7,201.564 493.034,180.564 493,159.5C 487.349,140.188 474.516,129.022 454.5,126C 432.5,125.333 410.5,125.333 388.5,126C 381.077,126.482 373.91,127.982 367,130.5C 360.008,130.208 357.008,126.541 358,119.5C 358.707,117.919 359.54,116.419 360.5,115C 367.095,111.468 374.095,109.135 381.5,108C 372.092,97.1137 367.426,84.447 367.5,70C 368.32,60.5774 368.82,51.0774 369,41.5C 374.348,18.9861 388.181,4.98611 410.5,-0.5 Z M 413.5,17.5 C 435.461,15.718 449.295,25.3846 455,46.5C 455.667,57.1667 455.667,67.8333 455,78.5C 449.272,99.7821 435.438,109.282 413.5,107C 399.333,103.5 390.5,94.6667 387,80.5C 386.076,67.1104 386.409,53.777 388,40.5C 392.759,28.5595 401.259,20.8928 413.5,17.5 Z"/></g>
</svg>
