<?xml version="1.0" encoding="iso-8859-1"?>
<!-- Generator: Adobe Illustrator 19.0.0, SVG Export Plug-In . SVG Version: 6.00 Build 0)  -->
<svg version="1.1" id="Layer_1" xmlns="http://www.w3.org/2000/svg" xmlns:xlink="http://www.w3.org/1999/xlink" x="0px" y="0px"
	 viewBox="0 0 512 512" style="enable-background:new 0 0 512 512;" xml:space="preserve">
<g>
	<g>
		<path d="M504.936,7.136c-9.38-9.392-24.6-9.392-33.98,0L7.204,470.888c-9.388,9.384-9.388,24.592,0,33.976
			c4.692,4.696,10.844,7.044,16.992,7.044s12.3-2.348,16.988-7.044L504.936,41.112C514.324,31.728,514.324,16.52,504.936,7.136z"/>
	</g>
</g>
<g>
	<g>
		<path d="M114.144,0.256C51.208,0.256,0,51.468,0,114.404s51.208,114.144,114.144,114.144c62.94,0,114.144-51.212,114.144-114.148
			S177.08,0.256,114.144,0.256z M114.144,180.484c-36.44,0-66.084-29.648-66.084-66.084c0-36.436,29.648-66.084,66.084-66.084
			c36.44,0,66.084,29.648,66.084,66.084C180.228,150.836,150.584,180.484,114.144,180.484z"/>
	</g>
</g>
<g>
	<g>
		<path d="M397.856,283.596c-62.936,0-114.144,51.208-114.144,114.144s51.208,114.144,114.144,114.144S512,460.68,512,397.74
			S460.792,283.596,397.856,283.596z M397.856,463.82c-36.44,0-66.084-29.648-66.084-66.084c0-36.436,29.648-66.084,66.084-66.084
			c36.436,0,66.084,29.648,66.084,66.084S434.296,463.82,397.856,463.82z"/>
	</g>
</g>
<g>
</g>
<g>
</g>
<g>
</g>
<g>
</g>
<g>
</g>
<g>
</g>
<g>
</g>
<g>
</g>
<g>
</g>
<g>
</g>
<g>
</g>
<g>
</g>
<g>
</g>
<g>
</g>
<g>
</g>
</svg>
