<?xml version="1.0" encoding="iso-8859-1"?>
<!-- Generator: Adobe Illustrator 16.0.0, SVG Export Plug-In . SVG Version: 6.00 Build 0)  -->
<!DOCTYPE svg PUBLIC "-//W3C//DTD SVG 1.1//EN" "http://www.w3.org/Graphics/SVG/1.1/DTD/svg11.dtd">
<svg version="1.1" id="Capa_1" xmlns="http://www.w3.org/2000/svg" xmlns:xlink="http://www.w3.org/1999/xlink" x="0px" y="0px"
	 viewBox="0 0 31.943 31.943" style="enable-background:new 0 0 31.943 31.943;"
	 xml:space="preserve">
<g>
	<g>
		<path d="M20.566,15.985c0,0.459,0.172,0.69,0.51,0.69c0.393,0,0.918-0.567,1.045-1.383l0.178-1.205
			c-0.057-0.007-0.119-0.011-0.189-0.011C21.258,14.077,20.566,14.934,20.566,15.985z"/>
		<path d="M27.615,3.059H4.325C1.936,3.059,0,4.995,0,7.383V24.56c0,1.979,1.339,3.631,3.155,4.146
			c0.375,0.105,0.762,0.18,1.171,0.18h0.81c0.069-1.075,0.955-1.932,2.048-1.932s1.979,0.857,2.048,1.932h2.001h1.329h2.001
			c0.069-1.075,0.955-1.932,2.048-1.932c1.093,0,1.979,0.857,2.048,1.932h2.001h1.027h2.002c0.068-1.075,0.955-1.932,2.048-1.932
			c1.087,0,1.969,0.848,2.046,1.916c0.705-0.027,1.359-0.226,1.939-0.551c1.319-0.74,2.221-2.137,2.221-3.757V7.383
			C31.939,4.996,30.004,3.059,27.615,3.059z M15.922,22.178c0,0.525-0.425,0.949-0.95,0.949H4.93c-0.525,0-0.95-0.424-0.95-0.949
			v-0.834c0-1.662,1.347-3.01,3.009-3.01h0.777c0.403,0,0.73-0.326,0.73-0.729c0-0.149-0.06-0.293-0.167-0.397
			c-0.445-0.434-0.82-1.013-1.094-1.64c-0.047,0.027-0.097,0.042-0.151,0.042c-0.437,0-0.949-0.964-0.949-1.621
			c0-0.657,0.06-1.19,0.497-1.19c0.037,0,0.078,0.009,0.117,0.017c0.031-1.78,0.363-3.999,3.202-3.999
			c2.721,0,3.171,2.223,3.202,4.005c0.056-0.014,0.111-0.023,0.162-0.023c0.436,0,0.497,0.533,0.497,1.19
			c0,0.657-0.512,1.621-0.949,1.621c-0.068,0-0.127-0.029-0.184-0.071c-0.275,0.637-0.655,1.228-1.107,1.668
			c-0.107,0.104-0.167,0.246-0.167,0.396c0,0.402,0.327,0.73,0.73,0.73h0.777c1.662,0,3.009,1.346,3.009,3.008L15.922,22.178
			L15.922,22.178z M23.795,18.394c-0.693,0-1.199-0.315-1.429-0.868c-0.488,0.57-1.126,0.868-1.869,0.868
			c-1.168,0-1.953-0.896-1.953-2.228c0-1.836,1.334-3.79,3.808-3.79c0.692,0,1.506,0.173,1.932,0.412l0.152,0.085l-0.484,2.984
			c-0.117,0.697-0.041,0.916,0.016,0.984c0.012,0.014,0.035,0.043,0.127,0.047c0.51,0,1.217-0.719,1.217-2.317
			c0-1.98-1.328-3.261-3.385-3.261c-2.043,0-4.109,1.537-4.109,4.476c0,2.301,1.395,3.732,3.641,3.732
			c0.762,0,1.541-0.171,2.087-0.458c0.065-0.034,0.144-0.038,0.212-0.01c0.069,0.029,0.121,0.086,0.143,0.158l0.274,0.879
			c0.038,0.121-0.021,0.252-0.136,0.303c-0.91,0.41-1.719,0.57-2.885,0.57c-2.48,0-4.992-1.73-4.992-5.038
			c0-3.444,2.552-6.042,5.936-6.042c2.805,0,4.84,1.953,4.84,4.644C26.934,16.803,25.643,18.394,23.795,18.394z"/>
	</g>
</g>
<g>
</g>
<g>
</g>
<g>
</g>
<g>
</g>
<g>
</g>
<g>
</g>
<g>
</g>
<g>
</g>
<g>
</g>
<g>
</g>
<g>
</g>
<g>
</g>
<g>
</g>
<g>
</g>
<g>
</g>
</svg>
