<?xml version="1.0" encoding="iso-8859-1"?>
<!-- Generator: Adobe Illustrator 16.0.0, SVG Export Plug-In . SVG Version: 6.00 Build 0)  -->
<!DOCTYPE svg PUBLIC "-//W3C//DTD SVG 1.1//EN" "http://www.w3.org/Graphics/SVG/1.1/DTD/svg11.dtd">
<svg version="1.1" id="Capa_1" xmlns="http://www.w3.org/2000/svg" xmlns:xlink="http://www.w3.org/1999/xlink" x="0px" y="0px"
	 viewBox="0 0 32 32" style="enable-background:new 0 0 32 32;" xml:space="preserve">
<g>
	<g>
		<path d="M20.494,25.218c0-2.852-2.312-5.164-5.164-5.164h-1.333c-0.692,0-1.253-0.561-1.253-1.253
			c0-0.257,0.104-0.503,0.287-0.683c0.775-0.756,1.427-1.77,1.899-2.862c0.096,0.071,0.199,0.122,0.315,0.122
			c0.749,0,1.628-1.654,1.628-2.782s-0.104-2.042-0.854-2.042c-0.088,0-0.183,0.015-0.278,0.039
			c-0.053-3.058-0.826-6.873-5.495-6.873c-4.872,0-5.441,3.808-5.495,6.863c-0.068-0.013-0.138-0.028-0.201-0.028
			c-0.749,0-0.853,0.914-0.853,2.042s0.879,2.782,1.628,2.782c0.092,0,0.178-0.026,0.258-0.072c0.47,1.075,1.114,2.07,1.878,2.813
			c0.184,0.18,0.287,0.426,0.287,0.683c0,0.692-0.561,1.253-1.253,1.253H5.164C2.312,20.054,0,22.366,0,25.218v1.432
			c0,0.9,0.73,1.631,1.631,1.631h17.232c0.902,0,1.632-0.73,1.632-1.631L20.494,25.218L20.494,25.218z"/>
		<path d="M16.34,5.886c0.417,0.923,0.715,2.059,0.84,3.465c0.309,0.19,0.539,0.498,0.729,0.869h12.883
			C31.459,10.22,32,9.679,32,9.012V7.095c0-0.667-0.541-1.208-1.208-1.208L16.34,5.886L16.34,5.886z"/>
		<path d="M15.857,16.784c-0.034,0.063-0.075,0.119-0.11,0.183v1.147h15.045c0.667,0,1.208-0.541,1.208-1.207V14.99
			c0-0.667-0.541-1.208-1.208-1.208H18.204C17.863,15.073,17.02,16.423,15.857,16.784z"/>
		<path d="M21.994,25.218v0.794h8.798c0.667,0,1.208-0.541,1.208-1.208v-1.917c0-0.667-0.541-1.208-1.208-1.208h-9.825
			C21.613,22.704,21.994,23.915,21.994,25.218z"/>
	</g>
</g>
<g>
</g>
<g>
</g>
<g>
</g>
<g>
</g>
<g>
</g>
<g>
</g>
<g>
</g>
<g>
</g>
<g>
</g>
<g>
</g>
<g>
</g>
<g>
</g>
<g>
</g>
<g>
</g>
<g>
</g>
</svg>
