<?xml version="1.0"?>
<svg xmlns="http://www.w3.org/2000/svg" viewBox="0 0 512 512"><g id="outline"><path d="M488,176H424a8,8,0,0,0-7.155,4.422L403.056,208H400V24a8,8,0,0,0-8-8H120a8,8,0,0,0-8,8V56H88a8,8,0,0,0-8,8V80H56a8,8,0,0,0-8,8V208H24a8,8,0,0,0-8,8V456a40.045,40.045,0,0,0,40,40H488a8,8,0,0,0,8-8V184A8,8,0,0,0,488,176ZM80,456a24.039,24.039,0,0,1-16,22.624V376a8,8,0,0,0-16,0V478.624A24.039,24.039,0,0,1,32,456V224H80Zm0-248H64V96H80ZM128,32H384V352H128ZM96,72h16V208H96ZM480,480H87.978A39.788,39.788,0,0,0,96,456V224h16V360a8,8,0,0,0,8,8H392a8,8,0,0,0,8-8V224h8a8,8,0,0,0,7.155-4.422L428.944,192H480Z"/><path d="M256,200a72,72,0,1,0-72-72A72.081,72.081,0,0,0,256,200Zm0-16a55.674,55.674,0,0,1-31.917-10.024,25.125,25.125,0,0,1,13.057-20.147,31.906,31.906,0,0,0,37.719,0,25.144,25.144,0,0,1,13.058,20.146A55.674,55.674,0,0,1,256,184Zm-16-56a16,16,0,1,1,16,16A16.019,16.019,0,0,1,240,128Zm16-56a55.961,55.961,0,0,1,45.207,89,41.043,41.043,0,0,0-16.108-19.71,32,32,0,1,0-58.2,0A40.989,40.989,0,0,0,210.792,161,55.96,55.96,0,0,1,256,72Z"/><path d="M224,216a8,8,0,0,0,0,16h64a8,8,0,0,0,0-16Z"/><path d="M312,256a8,8,0,0,0-8-8H208a8,8,0,0,0,0,16h96A8,8,0,0,0,312,256Z"/><path d="M344,288H296a8,8,0,0,0,0,16h48a8,8,0,0,0,0-16Z"/><path d="M264,320H248a8,8,0,0,0,0,16h16a8,8,0,0,0,0-16Z"/><path d="M56,320a8,8,0,0,0-8,8v16a8,8,0,0,0,16,0V328A8,8,0,0,0,56,320Z"/><path d="M48,264v32a8,8,0,0,0,16,0V264a8,8,0,0,0-16,0Z"/><path d="M368,408v48a8,8,0,0,0,8,8h80a8,8,0,0,0,8-8V408a8,8,0,0,0-8-8H376A8,8,0,0,0,368,408Zm16,8h64v32H384Z"/><path d="M128,432h40a8,8,0,0,0,0-16H128a8,8,0,0,0,0,16Z"/><path d="M184,448H128a8,8,0,0,0,0,16h56a8,8,0,0,0,0-16Z"/></g></svg>
