<?xml version="1.0" encoding="iso-8859-1"?>
<!-- Generator: Adobe Illustrator 19.0.0, SVG Export Plug-In . SVG Version: 6.00 Build 0)  -->
<svg version="1.1" id="Layer_1" xmlns="http://www.w3.org/2000/svg" xmlns:xlink="http://www.w3.org/1999/xlink" x="0px" y="0px"
	 viewBox="0 0 490.78 490.78" style="enable-background:new 0 0 490.78 490.78;" xml:space="preserve">
<g>
	<path d="M0.001,418.576l9.741,10.589c5.383,5.852,53.842,57.289,96.964,61.265c2.53,0.233,5.169,0.351,7.851,0.351
		c57.813-0.005,150.329-55.167,235.693-140.53c42.922-42.922,78.975-88.442,104.262-131.64
		c18.221-31.127,39.244-75.81,35.917-111.906c-3.974-43.122-55.412-91.581-61.265-96.964L418.576,0L287.048,131.528l44.169,44.169
		L175.698,331.216l-44.169-44.169L0.001,418.576z M41.976,419.027l89.553-89.553l44.169,44.169l197.946-197.945l-44.169-44.169
		l89.572-89.573c16.152,17.034,39.522,45.947,41.509,67.503c2.025,21.976-9.316,55.358-31.935,93.997
		c-24.011,41.019-58.447,84.445-99.584,125.582C251.472,406.601,163.273,460.776,114.55,460.78c-1.76,0-3.472-0.075-5.09-0.224
		C88.083,458.585,58.848,434.94,41.976,419.027z"/>
	<path d="M62.898,222.897h-30c0-104.766,85.234-190,190-190v30C134.674,62.897,62.898,134.673,62.898,222.897z"/>
	<path d="M132.898,222.897h-30c0-66.168,53.832-120,120-120v30C173.272,132.897,132.898,173.271,132.898,222.897z"/>
</g>
<g>
</g>
<g>
</g>
<g>
</g>
<g>
</g>
<g>
</g>
<g>
</g>
<g>
</g>
<g>
</g>
<g>
</g>
<g>
</g>
<g>
</g>
<g>
</g>
<g>
</g>
<g>
</g>
<g>
</g>
</svg>
