<?xml version="1.0" encoding="iso-8859-1"?>
<!-- Generator: Adobe Illustrator 19.0.0, SVG Export Plug-In . SVG Version: 6.00 Build 0)  -->
<svg version="1.1" id="Layer_1" xmlns="http://www.w3.org/2000/svg" xmlns:xlink="http://www.w3.org/1999/xlink" x="0px" y="0px"
	 viewBox="0 0 484.849 484.849" style="enable-background:new 0 0 484.849 484.849;" xml:space="preserve">
<g>
	<path d="M49.924,0v113.712h-22.5v30h22.5v83.712h-25v30h25v83.712h-25v30h25v113.712h410V0H49.924z M129.924,454.849h-50v-83.712
		h25v-30h-25v-83.712h25v-30h-25v-83.712h25v-30h-25V30h50V454.849z M429.924,454.849h-270V30h270V454.849z"/>
	<path d="M294.924,147.424c-52.383,0-95,42.617-95,95s42.617,95,95,95c12.817,0,25.26-2.514,36.982-7.471l-11.686-27.631
		c-8.005,3.385-16.516,5.102-25.297,5.102c-35.841,0-65-29.159-65-65s29.159-65,65-65s65,29.159,65,65
		c0,12.21-6.285,16.542-11.667,16.542c-5.382,0-11.667-4.333-11.667-16.542c0-22.975-18.691-41.667-41.667-41.667
		s-41.667,18.691-41.667,41.667s18.691,41.667,41.667,41.667c8.975,0,17.289-2.862,24.098-7.708
		c7.729,8.127,18.1,12.584,29.235,12.584c20.706,0,41.667-15.987,41.667-46.542C389.924,190.041,347.308,147.424,294.924,147.424z
		 M294.924,254.091c-6.433,0-11.667-5.233-11.667-11.667s5.233-11.667,11.667-11.667s11.667,5.233,11.667,11.667
		S301.357,254.091,294.924,254.091z"/>
</g>
<g>
</g>
<g>
</g>
<g>
</g>
<g>
</g>
<g>
</g>
<g>
</g>
<g>
</g>
<g>
</g>
<g>
</g>
<g>
</g>
<g>
</g>
<g>
</g>
<g>
</g>
<g>
</g>
<g>
</g>
</svg>
