<?xml version="1.0" encoding="iso-8859-1"?>
<!-- Generator: Adobe Illustrator 19.0.0, SVG Export Plug-In . SVG Version: 6.00 Build 0)  -->
<svg version="1.1" id="Layer_1" xmlns="http://www.w3.org/2000/svg" xmlns:xlink="http://www.w3.org/1999/xlink" x="0px" y="0px"
	 viewBox="0 0 490.78 490.78" style="enable-background:new 0 0 490.78 490.78;" xml:space="preserve">
<g>
	<path d="M0.001,418.576l9.741,10.589c5.384,5.852,53.843,57.289,96.965,61.265c2.529,0.233,5.168,0.351,7.85,0.351
		c55.406-0.005,142.679-50.671,224.988-130.024l125.63,125.63l21.213-21.213l-125.63-125.63
		c38.303-39.734,70.561-81.31,93.755-120.933c18.221-31.127,39.244-75.81,35.917-111.906c-3.974-43.122-55.412-91.581-61.264-96.964
		L418.577,0L287.048,131.528l44.169,44.169l-67.153,67.153L31.388,10.174L10.175,31.387l232.676,232.676l-67.153,67.153
		l-44.169-44.169L0.001,418.576z M339.541,318.328l-54.264-54.264l88.367-88.366l-44.169-44.169l89.573-89.573
		c16.152,17.034,39.522,45.947,41.509,67.503c2.025,21.976-9.316,55.358-31.935,93.997
		C406.684,240.931,376.042,280.415,339.541,318.328z M41.976,419.027l89.553-89.553l44.169,44.169l88.366-88.366l54.26,54.26
		c-74.844,71.909-157.281,121.24-203.774,121.244c-1.761,0-3.473-0.075-5.091-0.224C88.084,458.585,58.848,434.94,41.976,419.027z"
		/>
</g>
<g>
</g>
<g>
</g>
<g>
</g>
<g>
</g>
<g>
</g>
<g>
</g>
<g>
</g>
<g>
</g>
<g>
</g>
<g>
</g>
<g>
</g>
<g>
</g>
<g>
</g>
<g>
</g>
<g>
</g>
</svg>
