<?xml version="1.0" encoding="iso-8859-1"?>
<!-- Generator: Adobe Illustrator 19.0.0, SVG Export Plug-In . SVG Version: 6.00 Build 0)  -->
<svg version="1.1" id="Layer_1" xmlns="http://www.w3.org/2000/svg" xmlns:xlink="http://www.w3.org/1999/xlink" x="0px" y="0px"
	 viewBox="0 0 484.849 484.849" style="enable-background:new 0 0 484.849 484.849;" xml:space="preserve">
<g>
	<path d="M262.797,274.552c30.206,30.206,63.252,49.446,81.428,47.771c13.579-1.252,30.7-19.862,30.7-19.862l-38.945-38.944
		l-15.532,15.532L258.3,216.901l15.532-15.532l-38.945-38.944c0,0-18.611,17.12-19.862,30.699
		C213.351,211.3,232.59,244.345,262.797,274.552z"/>
	<path d="M49.924,0v113.712h-22.5v30h22.5v83.712h-25v30h25v83.712h-25v30h25v113.712h410V0H49.924z M79.924,371.136h25v-30h-25
		v-83.712h25v-30h-25v-83.712h25v-30h-25V30h50v424.849h-50V371.136z M429.924,454.849h-270V30h270V454.849z"/>
</g>
<g>
</g>
<g>
</g>
<g>
</g>
<g>
</g>
<g>
</g>
<g>
</g>
<g>
</g>
<g>
</g>
<g>
</g>
<g>
</g>
<g>
</g>
<g>
</g>
<g>
</g>
<g>
</g>
<g>
</g>
</svg>
