<?xml version="1.0" encoding="iso-8859-1"?>
<!-- Generator: Adobe Illustrator 19.0.0, SVG Export Plug-In . SVG Version: 6.00 Build 0)  -->
<svg version="1.1" id="Capa_1" xmlns="http://www.w3.org/2000/svg" xmlns:xlink="http://www.w3.org/1999/xlink" x="0px" y="0px"
	 viewBox="0 0 512 512" style="enable-background:new 0 0 512 512;" xml:space="preserve">
<g>
	<g>
		<path d="M479.951,202.667C479.951,155.125,467.588,0,308.506,0c-87.755,0-150.688,22.667-187.158,67.371
			c-26.753,34.722-38.318,78.792-32.064,122.176L38.073,265.11c-3.906,5.788-6.003,12.608-6.023,19.591
			c-0.055,19.44,15.66,35.245,35.1,35.3h26.485c-2.827,26.368-4.629,83.595,30.944,95.477c20.252,5.633,41.479,6.844,62.24,3.552
			l-26.325,78.933c-0.362,1.088-0.547,2.227-0.547,3.373c0.001,5.891,4.778,10.666,10.669,10.664h234.667
			c0.67,0.001,1.339-0.06,1.997-0.184c5.789-1.09,9.599-6.667,8.509-12.456l-0.501-2.656
			c-11.402-63.185-0.466-128.369,30.933-184.373C468.612,271.872,479.951,234.976,479.951,202.667z M392.612,490.667h-207.2
			l27.296-81.963c0.64-1.922,0.719-3.986,0.228-5.951c-1.427-5.716-7.217-9.193-12.932-7.766
			c-0.448,0.085-40.128,9.771-68.715,0.224c-20.907-6.976-19.093-59.659-14.933-84.085c0.101-0.593,0.152-1.193,0.152-1.794
			c-0.001-5.891-4.778-10.666-10.669-10.664H67.151c-7.638,0-13.837-6.176-13.867-13.813c-0.005-2.767,0.828-5.47,2.389-7.755
			l53.664-79.083c1.612-2.389,2.196-5.325,1.621-8.149c-6.287-38.491,3.444-77.879,26.933-109.013
			c32.192-39.499,89.547-59.52,170.613-59.52c135.488,0,150.112,126.816,150.112,181.333c0,28.651-10.443,62.08-31.061,99.339
			C395.487,359.342,383.206,425.648,392.612,490.667z"/>
	</g>
</g>
<g>
	<g>
		<path d="M403.889,174.303c-3.883,4.43-3.44,11.169,0.99,15.052c7.018,5.99,11.064,14.752,11.072,23.979c0,17.673-14.327,32-32,32
			c-17.673,0-32-14.327-32-32c0.008-9.227,4.054-17.988,11.072-23.979c2.31-2.025,3.635-4.948,3.636-8.02
			c0.001-5.891-4.774-10.667-10.665-10.668h-46.709v-46.709c0-3.072-1.325-5.995-3.636-8.02c-4.43-3.883-11.169-3.44-15.052,0.99
			c-5.99,7.018-14.752,11.064-23.979,11.072c-17.673,0-32-14.327-32-32c0-17.673,14.327-32,32-32
			c9.227,0.008,17.988,4.054,23.979,11.072c2.025,2.31,4.948,3.635,8.02,3.636c5.891,0.001,10.667-4.774,10.668-10.665V10.667
			h-21.334v36.544c-6.715-2.991-13.983-4.539-21.333-4.544c-29.455,0-53.333,23.878-53.333,53.333s23.878,53.333,53.333,53.333
			c7.351-0.005,14.619-1.553,21.333-4.544v36.544c0,5.891,4.776,10.667,10.667,10.667h36.544
			c-2.991,6.715-4.539,13.983-4.544,21.333c0.035,29.441,23.893,53.298,53.333,53.333c29.441-0.035,53.298-23.893,53.333-53.333
			c-0.005-7.351-1.553-14.619-4.544-21.333h36.544v-21.333h-57.375C408.837,170.667,405.914,171.992,403.889,174.303z"/>
	</g>
</g>
<g>
	<g>
		<path d="M356.719,43.84l-9.536,19.093c16.16,8.021,58.101,35.477,58.101,65.067h21.333
			C426.618,79.307,359.578,45.216,356.719,43.84z"/>
	</g>
</g>
<g>
	<g>
		<path d="M266.618,234.667c-23.564,0-42.667,19.102-42.667,42.667h21.333c0-11.782,9.551-21.333,21.333-21.333
			c11.782,0,21.333,9.551,21.333,21.333h21.333C309.284,253.769,290.182,234.667,266.618,234.667z"/>
	</g>
</g>
<g>
	<g>
		<path d="M298.618,170.667H196.89c3.743-6.483,5.714-13.836,5.716-21.322c0.006-23.564-19.091-42.672-42.655-42.678V128
			c11.782,0,21.333,9.551,21.333,21.333c0,11.782-9.551,21.333-21.333,21.333c-5.891,0-10.667,4.776-10.667,10.667
			S154.06,192,159.951,192h128v85.333h21.333v-96C309.284,175.442,304.509,170.667,298.618,170.667z"/>
	</g>
</g>
<g>
	<g>
		<rect x="287.951" y="298.67" width="21.333" height="21.333"/>
	</g>
</g>
<g>
	<g>
		<rect x="287.951" y="341.33" width="21.333" height="21.333"/>
	</g>
</g>
<g>
	<g>
		<rect x="159.951" y="202.67" width="21.333" height="21.333"/>
	</g>
</g>
<g>
	<g>
		<rect x="159.951" y="245.33" width="21.333" height="21.333"/>
	</g>
</g>
<g>
	<g>
		<path d="M373.071,396.789l-20.907-4.171c-6.532,36.661-6.532,74.187,0,110.848l20.907-4.181
			C367.197,465.372,367.197,430.702,373.071,396.789z"/>
	</g>
</g>
<g>
	<g>
		<path d="M330.298,429.248l-20.693-5.173c-0.469,1.867-11.285,46.08,0.224,80.629l20.245-6.741
			C320.538,469.365,330.202,429.643,330.298,429.248z"/>
	</g>
</g>
<g>
</g>
<g>
</g>
<g>
</g>
<g>
</g>
<g>
</g>
<g>
</g>
<g>
</g>
<g>
</g>
<g>
</g>
<g>
</g>
<g>
</g>
<g>
</g>
<g>
</g>
<g>
</g>
<g>
</g>
</svg>
