<svg id="Capa_1" enable-background="new 0 0 511.667 511.667" viewBox="0 0 511.667 511.667" xmlns="http://www.w3.org/2000/svg"><g><g><g><path d="m387.596 76.94h83.986c4.141 0 7.499-3.357 7.499-7.499 0-4.141-3.357-7.499-7.499-7.499h-83.986c-4.141 0-7.499 3.357-7.499 7.499.001 4.142 3.358 7.499 7.499 7.499z"/><path d="m471.583 92.52h-83.986c-4.141 0-7.499 3.357-7.499 7.499s3.357 7.499 7.499 7.499h83.986c4.141 0 7.499-3.357 7.499-7.499s-3.358-7.499-7.499-7.499z"/><path d="m471.583 176.9h-83.986c-4.141 0-7.499 3.357-7.499 7.499 0 4.141 3.357 7.499 7.499 7.499h83.986c4.141 0 7.499-3.357 7.499-7.499s-3.358-7.499-7.499-7.499z"/><path d="m471.583 207.477h-83.986c-4.141 0-7.499 3.357-7.499 7.499 0 4.141 3.357 7.499 7.499 7.499h83.986c4.141 0 7.499-3.357 7.499-7.499 0-4.141-3.358-7.499-7.499-7.499z"/><path d="m471.583 291.857h-83.986c-4.141 0-7.499 3.357-7.499 7.499s3.357 7.499 7.499 7.499h83.986c4.141 0 7.499-3.357 7.499-7.499s-3.358-7.499-7.499-7.499z"/><path d="m471.583 322.435h-83.986c-4.141 0-7.499 3.357-7.499 7.499s3.357 7.499 7.499 7.499h83.986c4.141 0 7.499-3.357 7.499-7.499s-3.358-7.499-7.499-7.499z"/><path d="m354.212 41.321-10.778 11.139c-2.48-6.288-8.602-10.756-15.761-10.756h-52.154c-9.346 0-16.949 7.603-16.949 16.949v52.154c0 9.346 7.603 16.949 16.949 16.949h2.311c4.141 0 7.499-3.357 7.499-7.499s-3.357-7.499-7.499-7.499h-2.311c-1.076 0-1.952-.875-1.952-1.952v-52.153c0-1.077.875-1.952 1.952-1.952h52.154c1.076 0 1.952.875 1.952 1.952v8.077l-18.038 18.641-12.947-13.058c-2.917-2.942-7.665-2.961-10.605-.046-2.941 2.916-2.961 7.664-.046 10.605l14.134 14.256c2.527 2.549 5.889 3.95 9.475 3.95h.083c3.617-.022 6.995-1.466 9.51-4.065l8.433-8.714v22.51c0 1.076-.875 1.952-1.952 1.952h-15.515c-4.141 0-7.499 3.357-7.499 7.499s3.357 7.499 7.499 7.499h15.515c9.346 0 16.949-7.603 16.949-16.949v-38.011l20.369-21.049c2.88-2.976 2.802-7.723-.174-10.603s-7.724-2.802-10.604.174z"/><path d="m354.212 156.279-10.778 11.139c-2.48-6.288-8.602-10.756-15.761-10.756h-52.154c-9.346 0-16.949 7.603-16.949 16.949v52.154c0 9.346 7.603 16.949 16.949 16.949h52.154c9.346 0 16.949-7.603 16.949-16.949v-38.008l20.368-21.048c2.88-2.976 2.802-7.723-.174-10.603-2.977-2.882-7.724-2.803-10.604.173zm-24.588 25.409-18.038 18.641-12.946-13.059c-2.916-2.942-7.664-2.961-10.605-.046-2.941 2.916-2.961 7.664-.046 10.605l14.134 14.256c2.527 2.549 5.889 3.95 9.475 3.95h.083c3.617-.022 6.995-1.466 9.51-4.065l8.433-8.714v22.51c0 1.076-.875 1.952-1.952 1.952h-52.154c-1.076 0-1.952-.875-1.952-1.952v-52.154c0-1.077.875-1.952 1.952-1.952h52.154c1.076 0 1.952.875 1.952 1.952z"/><path d="m354.212 271.236-10.779 11.138c-2.48-6.288-8.602-10.756-15.761-10.756h-52.154c-9.346 0-16.949 7.603-16.949 16.949v52.154c0 9.346 7.603 16.949 16.949 16.949h52.154c9.346 0 16.949-7.603 16.949-16.949v-38.008l20.368-21.048c2.88-2.976 2.802-7.723-.174-10.603-2.976-2.881-7.723-2.802-10.603.174zm-24.588 25.409-18.038 18.641-12.947-13.059c-2.916-2.942-7.664-2.961-10.605-.046-2.941 2.916-2.961 7.664-.046 10.605l14.134 14.257c2.527 2.549 5.889 3.95 9.474 3.95h.084c3.617-.022 6.994-1.466 9.509-4.065l8.433-8.714v22.51c0 1.077-.875 1.952-1.952 1.952h-52.154c-1.076 0-1.952-.875-1.952-1.952v-52.154c0-1.076.875-1.952 1.952-1.952h52.154c1.076 0 1.952.875 1.952 1.952v8.075z"/><path d="m354.212 386.193-10.779 11.139c-2.48-6.288-8.602-10.756-15.761-10.756h-52.154c-9.346 0-16.949 7.603-16.949 16.949v52.154c0 9.346 7.603 16.949 16.949 16.949h52.154c9.346 0 16.949-7.603 16.949-16.949v-38.008l20.368-21.048c2.88-2.976 2.802-7.723-.174-10.603-2.976-2.881-7.723-2.803-10.603.173zm-24.588 25.41-18.038 18.641-12.947-13.059c-2.916-2.942-7.664-2.961-10.605-.046-2.941 2.916-2.961 7.664-.046 10.605l14.136 14.256c2.527 2.549 5.889 3.949 9.474 3.949h.084c3.617-.022 6.994-1.466 9.509-4.065l8.433-8.714v22.51c0 1.076-.875 1.952-1.952 1.952h-52.154c-1.076 0-1.952-.875-1.952-1.952v-52.154c0-1.076.875-1.952 1.952-1.952h52.154c1.076 0 1.952.875 1.952 1.952z"/><path d="m471.583 406.815h-83.986c-4.141 0-7.499 3.357-7.499 7.499s3.357 7.499 7.499 7.499h83.986c4.141 0 7.499-3.357 7.499-7.499s-3.358-7.499-7.499-7.499z"/><path d="m471.583 437.392h-83.986c-4.141 0-7.499 3.357-7.499 7.499 0 4.141 3.357 7.499 7.499 7.499h83.986c4.141 0 7.499-3.357 7.499-7.499s-3.358-7.499-7.499-7.499z"/><path d="m163.933 148.396c-1.05-.315-1.782-1.331-1.782-2.471v-6.2c25.768-11.25 43.83-36.965 43.83-66.832 0-40.193-32.7-72.893-72.894-72.893s-72.893 32.7-72.893 72.893c0 31.004 19.465 57.533 46.81 68.05v4.981c0 1.14-.733 2.156-1.782 2.471-20.57 6.172-39.063 19.054-52.073 36.274-13.453 17.807-20.565 39.045-20.565 61.421v22.74c0 4.141 3.357 7.499 7.499 7.499s7.499-3.357 7.499-7.499v-22.74c0-19.085 6.063-37.198 17.533-52.38 11.103-14.695 26.876-25.687 44.417-30.95 7.342-2.203 12.469-9.126 12.469-16.836v-.979c3.615.554 7.318.841 11.086.841 4.812 0 9.512-.481 14.066-1.375v1.513c0 7.709 5.128 14.632 12.47 16.836 17.54 5.263 33.314 16.255 44.417 30.95 11.47 15.182 17.533 33.295 17.533 52.38v75.504c0 7.507-6.107 13.614-13.614 13.614-7.645 0-13.865-6.107-13.865-13.614l-.075-85.343c0-4.141-3.357-7.499-7.499-7.499s-7.499 3.357-7.499 7.499v241.954c0 10.18-8.282 18.463-18.463 18.463-10.18 0-18.463-8.283-18.463-18.463v-140.803c0-4.141-3.357-7.498-7.498-7.499-4.141 0-7.498 3.356-7.499 7.497l-.036 140.806c0 10.18-8.282 18.463-18.463 18.463-10.18 0-18.463-8.283-18.463-18.463v-243.282c0-4.141-3.357-7.499-7.499-7.499s-7.499 3.357-7.499 7.499l-.024 86.67c0 7.38-6.373 13.614-13.917 13.614-7.507 0-13.614-6.107-13.614-13.614v-18.769c0-4.141-3.357-7.499-7.499-7.499s-7.499 3.357-7.499 7.499v18.769c0 15.776 12.835 28.612 28.611 28.612 5.052 0 9.804-1.292 13.941-3.555v131.555c0 18.451 15.011 33.461 33.461 33.461 10.474 0 19.84-4.838 25.98-12.395 6.14 7.558 15.506 12.395 25.98 12.395 18.451 0 33.461-15.01 33.461-33.461v-131.569c4.136 2.271 8.887 3.569 13.941 3.569 15.776 0 28.611-12.835 28.611-28.612v-75.504c0-22.375-7.111-43.614-20.565-61.421-13.011-17.219-31.504-30.101-52.073-36.273zm-30.846-17.607c-31.924 0-57.896-25.972-57.896-57.896s25.972-57.896 57.896-57.896 57.896 25.972 57.896 57.896-25.972 57.896-57.896 57.896z"/><path d="m152.359 90.987c-3.296-2.507-8.001-1.868-10.509 1.428-1.805 2.373-4.546 3.733-7.52 3.733-2.988 0-5.737-1.371-7.541-3.762-2.494-3.306-7.195-3.964-10.503-1.469-3.306 2.495-3.964 7.197-1.469 10.503 4.664 6.181 11.776 9.726 19.513 9.726 7.699 0 14.791-3.517 19.456-9.65 2.509-3.297 1.869-8.002-1.427-10.509z"/></g></g></g></svg>