<svg id="Capa_1" enable-background="new 0 0 512 512" viewBox="0 0 512 512" xmlns="http://www.w3.org/2000/svg"><g><path d="m408.049 340.523v-35.642c0-4.144-3.36-7.504-7.504-7.504s-7.504 3.36-7.504 7.504v35.642c0 1.379-1.122 2.501-2.501 2.501h-99.772c-3.066-35.017 17.217-69.147 51.175-82.256 6.765-2.611 10.369-10.09 8.205-17.027l-9.733-31.228c-1.123-3.601-3.708-6.623-7.091-8.293-3.397-1.676-7.39-1.888-10.954-.579-33.926 12.456-61.487 37.236-77.608 69.775-16.176 32.652-19.126 69.751-8.307 104.462 11.751 37.7 38.708 68.567 74.39 85.43-.936 3.693.006 7.579 2.63 10.487 3.05 3.397 7.708 4.617 11.965 3.275l45.006-14.028c3.221-1.003 5.828-3.358 7.155-6.459s1.229-6.613-.269-9.636l-20.934-42.24c-2.017-4.07-6.088-6.512-10.631-6.392-4.541.127-8.471 2.8-10.258 6.976l-1.032 2.412c-19.341-9.844-33.916-26.998-40.396-47.788-.195-.626-.358-1.255-.537-1.882h96.994c9.656 0 17.511-7.855 17.511-17.51zm-74.46 83.321c4.807 2.051 10.394-.2 12.453-5.016l.28-.654 15.74 31.76-34.657 10.802c.041-1.306-.193-2.618-.701-3.866-.951-2.338-2.755-4.172-5.079-5.165-34.051-14.558-59.872-43.095-70.843-78.294-19.88-63.781 13.33-131.743 75.664-155.274l9.05 29.038c-46.099 18.415-70.562 69.665-55.744 117.206 8.339 26.753 27.961 48.425 53.837 59.463z"/><circle cx="55.468" cy="91.146" r="14.633"/><circle cx="99.969" cy="91.146" r="14.633"/><circle cx="144.469" cy="91.146" r="14.633"/><path d="m505.591 293.99c-12.068-38.719-39.919-69.994-76.86-86.579l.035-.081c1.787-4.176 1.006-8.865-2.038-12.236-3.044-3.372-7.63-4.627-11.965-3.275l-6.714 2.093v-142.007c0-9.655-7.855-17.51-17.51-17.51h-296.664c-4.144 0-7.504 3.36-7.504 7.504s3.36 7.504 7.504 7.504h296.664c1.379 0 2.501 1.122 2.501 2.501v81.545h-378.032v-81.544c0-1.379 1.122-2.501 2.501-2.501h38.228c4.144 0 7.504-3.36 7.504-7.504s-3.36-7.504-7.504-7.504h-38.227c-9.655-.001-17.51 7.854-17.51 17.509v288.618c0 9.655 7.855 17.51 17.51 17.51h180.493c4.144 0 7.504-3.36 7.504-7.504s-3.36-7.504-7.504-7.504h-180.493c-1.379 0-2.501-1.122-2.501-2.501v-192.065h378.031v50.131l-23.284 7.258c-3.22 1.003-5.828 3.357-7.155 6.459-1.327 3.101-1.229 6.613.269 9.636l20.934 42.24c2.017 4.07 6.103 6.511 10.631 6.392 4.541-.127 8.471-2.8 10.257-6.976l.296-.692c20.653 9.588 36.169 27.209 42.976 49.047 12.585 40.378-8.438 83.929-47.862 99.147-6.763 2.611-10.367 10.091-8.204 17.027l9.733 31.227c2.145 7.414 10.869 11.678 18.046 8.873 33.925-12.456 61.486-37.236 77.607-69.775 16.176-32.653 19.126-69.752 8.307-104.463zm-89.992 159.74-9.051-29.039c46.099-18.415 70.562-69.665 55.744-117.206-8.704-27.924-29.399-50.033-56.781-60.66-4.39-1.705-9.239.043-11.583 3.988l-15.789-31.86 34.061-10.616c-.401 1.862-.231 3.799.513 5.6.97 2.35 2.882 4.244 5.244 5.196 35.308 14.227 62.027 43.139 73.305 79.323 19.88 63.782-13.33 131.744-75.663 155.274z"/><path d="m55.187 166.708c-12.052 0-21.856 9.805-21.856 21.856v71.396c0 12.052 9.804 21.856 21.856 21.856h71.396c12.052 0 21.856-9.804 21.856-21.856v-70.739c0-12.414-10.099-22.513-22.513-22.513zm78.244 22.513v70.739c0 3.776-3.072 6.848-6.848 6.848h-71.396c-3.776 0-6.848-3.072-6.848-6.848v-71.396c0-3.776 3.072-6.848 6.848-6.848h70.74c4.138.001 7.504 3.367 7.504 7.505z"/><path d="m176.428 186.782h55.193c4.144 0 7.504-3.36 7.504-7.504s-3.36-7.504-7.504-7.504h-55.193c-4.144 0-7.504 3.36-7.504 7.504s3.36 7.504 7.504 7.504z"/><path d="m176.428 221.488h55.193c4.144 0 7.504-3.36 7.504-7.504s-3.36-7.504-7.504-7.504h-55.193c-4.144 0-7.504 3.36-7.504 7.504s3.36 7.504 7.504 7.504z"/></g></svg>