<svg id="Capa_1" enable-background="new 0 0 512 512" viewBox="0 0 512 512" xmlns="http://www.w3.org/2000/svg"><g><path d="m256 63.097c106.367 0 192.903 86.536 192.903 192.903 0 34.154-8.954 67.594-25.894 96.706-2.083 3.58-.87 8.171 2.71 10.254s8.171.87 10.254-2.71c18.271-31.4 27.929-67.449 27.929-104.25 0-114.638-93.265-207.903-207.903-207.903s-207.902 93.265-207.902 207.903c0 46.938 16.155 92.985 45.488 129.657 1.481 1.852 3.662 2.815 5.862 2.815 1.643 0 3.297-.537 4.68-1.643 3.235-2.587 3.76-7.307 1.172-10.542-27.609-34.516-42.202-76.11-42.202-120.287 0-106.367 86.536-192.903 192.903-192.903z"/><path d="m512 256c0-141.159-114.841-256-256-256s-256 114.841-256 256 114.841 256 256 256c4.142 0 7.5-3.358 7.5-7.5v-48.097c0-4.142-3.358-7.5-7.5-7.5-46.558 0-91.546-16.884-126.679-47.542-3.12-2.723-7.857-2.402-10.582.72-2.724 3.121-2.401 7.859.72 10.582 35.975 31.393 81.544 49.386 129.041 51.104v33.117c-129.436-3.971-233.5-110.502-233.5-240.884 0-132.888 108.112-241 241-241s241 108.112 241 241c0 28.77-4.964 56.834-14.756 83.414-9.752 26.476-24.079 50.898-42.579 72.589-2.583 3.027-2.351 7.544.527 10.292l11.543 11.02-69.519 14.64 11.4-70.123 11.735 11.203c2.996 2.859 7.743 2.75 10.604-.246 2.86-2.996 2.75-7.743-.246-10.604l-22.032-21.033c-2.014-1.922-4.925-2.572-7.564-1.686-2.639.885-4.57 3.159-5.017 5.907l-15.439 94.972c-.397 2.441.435 4.921 2.224 6.628 1.789 1.708 4.305 2.425 6.724 1.914l94.153-19.828c2.724-.573 4.906-2.608 5.668-5.286.762-2.677-.021-5.556-2.035-7.478l-16.781-16.021c17.474-21.655 31.155-45.735 40.71-71.676 10.405-28.244 15.68-58.053 15.68-88.598z"/><path d="m281.034 247.78c-6.214-2.197-11.823-4.27-16.907-6.255v-79.146c17.266 1.403 27.747 10.57 28.398 11.156 3.045 2.785 7.772 2.585 10.574-.45 2.808-3.045 2.617-7.79-.428-10.598-.789-.728-15.151-13.668-38.544-15.168v-19.576c0-4.142-3.358-7.5-7.5-7.5s-7.5 3.358-7.5 7.5v20.237c-3.568.531-7.273 1.334-11.118 2.492-17.834 5.373-31.175 20.709-34.815 40.026-3.278 17.397 2.148 34.058 14.162 43.481 7.719 6.054 17.609 11.595 31.771 17.625v95.983c-16.071-.273-24.988-2.39-41.127-12.948-3.467-2.267-8.115-1.296-10.382 2.171-2.268 3.466-1.296 8.115 2.17 10.382 19.143 12.523 30.991 15.073 49.339 15.389v21.678c0 4.142 3.358 7.5 7.5 7.5s7.5-3.358 7.5-7.5v-22.12c13.147-1.536 25.033-6.913 34.702-15.796 10.374-9.532 17.376-22.448 19.717-36.37 4.716-28.059-10.008-52.471-37.512-62.193zm-54.421-25.605c-7.591-5.954-10.916-17.028-8.679-28.901 2.037-10.809 9.517-23.957 24.4-28.441 2.333-.702 4.592-1.231 6.792-1.639v72.031c-9.746-4.46-16.888-8.638-22.513-13.05zm77.139 85.31c-2.923 17.386-16.439 36.042-39.626 39.541v-89.443c3.73 1.405 7.686 2.847 11.908 4.339 24.621 8.703 30.462 29.243 27.718 45.563z"/></g></svg>