<?xml version="1.0" encoding="iso-8859-1"?>
<!-- Generator: Adobe Illustrator 19.0.0, SVG Export Plug-In . SVG Version: 6.00 Build 0)  -->
<svg version="1.1" id="Capa_1" xmlns="http://www.w3.org/2000/svg" xmlns:xlink="http://www.w3.org/1999/xlink" x="0px" y="0px"
	 viewBox="0 0 512 512" style="enable-background:new 0 0 512 512;" xml:space="preserve">
<g>
	<g>
		<path d="M397.719,145.817V1.762H0v443.639l64.837,64.837h332.882V367.321h-15.103v127.814H75.516v-60.413H15.103V16.865h367.512
			v128.952H397.719z M60.413,449.825v34.631l-34.631-34.631H60.413z"/>
	</g>
</g>
<g>
	<g>
		<rect x="37.758" y="198.104" width="15.103" height="15.103"/>
	</g>
</g>
<g>
	<g>
		<rect x="67.965" y="198.104" width="15.103" height="15.103"/>
	</g>
</g>
<g>
	<g>
		<rect x="98.171" y="198.104" width="15.103" height="15.103"/>
	</g>
</g>
<g>
	<g>
		<rect x="436.484" y="359.205" width="15.103" height="15.103"/>
	</g>
</g>
<g>
	<g>
		<rect x="496.897" y="359.205" width="15.103" height="15.103"/>
	</g>
</g>
<g>
	<g>
		<rect x="466.69" y="359.205" width="15.103" height="15.103"/>
	</g>
</g>
<g>
	<g>
		<rect x="476.759" y="318.93" width="15.103" height="15.103"/>
	</g>
</g>
<g>
	<g>
		<rect x="416.346" y="318.93" width="15.103" height="15.103"/>
	</g>
</g>
<g>
	<g>
		<rect x="446.553" y="318.93" width="15.103" height="15.103"/>
	</g>
</g>
<g>
	<g>
		<rect x="78.033" y="238.38" width="254.329" height="15.103"/>
	</g>
</g>
<g>
	<g>
		<rect x="37.758" y="278.655" width="271.355" height="15.103"/>
	</g>
</g>
<g>
	<g>
		<rect x="224.031" y="318.93" width="15.103" height="15.103"/>
	</g>
</g>
<g>
	<g>
		<rect x="37.758" y="318.93" width="140.964" height="15.103"/>
	</g>
</g>
<g>
	<g>
		<rect x="193.825" y="318.93" width="15.103" height="15.103"/>
	</g>
</g>
<g>
	<g>
		<rect x="78.033" y="359.205" width="201.377" height="15.103"/>
	</g>
</g>
<g>
	<g>
		<rect x="264.307" y="399.481" width="15.103" height="15.103"/>
	</g>
</g>
<g>
	<g>
		<rect x="234.1" y="399.481" width="15.103" height="15.103"/>
	</g>
</g>
<g>
	<g>
		<rect x="37.758" y="399.481" width="181.239" height="15.103"/>
	</g>
</g>
<g>
	<g>
		<path d="M198.859,89.361c-26.493,0-47.827,31.673-47.827,57.896c0,13.338,5.59,22.234,16.616,26.439
			c8.56,3.264,19.434,3.247,31.044,3.264h0.334c0.048,0,0.096,0,0.144,0c11.509,0,22.375-0.014,30.9-3.264
			c11.025-4.205,16.616-13.101,16.616-26.439C246.686,121.033,225.352,89.361,198.859,89.361z M224.689,159.583
			c-5.932,2.263-15.435,2.274-25.511,2.274c-0.05,0-0.101,0-0.151,0h-0.334c-0.051,0-0.101,0-0.151,0
			c-10.075,0-19.581-0.011-25.511-2.274c-3.489-1.33-6.894-3.377-6.894-12.326c0-18.862,15.407-42.793,32.724-42.793
			c17.316,0,32.724,23.931,32.724,42.793C231.583,156.206,228.178,158.253,224.689,159.583z"/>
	</g>
</g>
<g>
	<g>
		<path d="M168.653,38.01c-12.492,0-22.655,10.164-22.655,22.655c0,12.491,10.162,22.655,22.655,22.655
			c12.492,0,22.655-10.164,22.655-22.655C191.308,48.173,181.145,38.01,168.653,38.01z M168.653,68.216
			c-4.164,0-7.552-3.387-7.552-7.552c0-4.164,3.387-7.552,7.552-7.552c4.164,0,7.552,3.387,7.552,7.552
			C176.205,64.829,172.817,68.216,168.653,68.216z"/>
	</g>
</g>
<g>
	<g>
		<path d="M125.357,81.306c-12.492,0-22.655,10.164-22.655,22.655s10.162,22.655,22.655,22.655s22.655-10.163,22.655-22.655
			S137.849,81.306,125.357,81.306z M125.357,111.512c-4.164,0-7.552-3.387-7.552-7.552c0-4.164,3.387-7.552,7.552-7.552
			s7.552,3.387,7.552,7.552C132.909,108.125,129.521,111.512,125.357,111.512z"/>
	</g>
</g>
<g>
	<g>
		<path d="M272.362,81.306c-12.492,0-22.655,10.164-22.655,22.655s10.162,22.655,22.655,22.655
			c12.492,0,22.655-10.163,22.655-22.655S284.854,81.306,272.362,81.306z M272.362,111.512c-4.164,0-7.552-3.387-7.552-7.552
			c0-4.164,3.387-7.552,7.552-7.552c4.164,0,7.552,3.387,7.552,7.552C279.913,108.125,276.526,111.512,272.362,111.512z"/>
	</g>
</g>
<g>
	<g>
		<path d="M229.066,38.01c-12.492,0-22.655,10.164-22.655,22.655c0,12.491,10.162,22.655,22.655,22.655
			c12.492,0,22.655-10.164,22.655-22.655C251.721,48.173,241.558,38.01,229.066,38.01z M229.066,68.216
			c-4.164,0-7.552-3.387-7.552-7.552c0-4.164,3.387-7.552,7.552-7.552c4.164,0,7.552,3.387,7.552,7.552
			C236.617,64.829,233.23,68.216,229.066,68.216z"/>
	</g>
</g>
<g>
	<g>
		<path d="M489.597,84.356c-18.031-10.411-41.168-4.211-51.579,13.82L300.104,337.05l-1.283,77.738l66.682-39.98l137.915-238.874
			C513.828,117.904,507.627,94.766,489.597,84.356z M314.371,387.856l0.59-35.768l30.091,17.373L314.371,387.856z M357.178,359.022
			l-39.24-22.655l114.281-197.941l39.24,22.655L357.178,359.022z M490.338,128.383l-11.327,19.619l-39.24-22.655l11.327-19.619
			c6.246-10.818,20.13-14.536,30.948-8.292C492.864,103.682,496.584,117.565,490.338,128.383z"/>
	</g>
</g>
<g>
	<g>
		<g>
			<rect x="352.409" y="40.96" width="15.103" height="50.344"/>
			<rect x="352.409" y="106.407" width="15.103" height="15.103"/>
		</g>
	</g>
</g>
<g>
	<g>
		<path d="M202.481,118.071l-9.022,12.112c0.323,0.249,7.917,6.221,7.917,17.074h15.103
			C216.48,128.604,203.054,118.493,202.481,118.071z"/>
	</g>
</g>
<g>
	<g>
		<g>
			<rect x="411.138" y="199.62" transform="matrix(-0.866 -0.5 0.5 -0.866 677.6929 595.9353)" width="15.103" height="15.103"/>
			<rect x="423.472" y="168.665" transform="matrix(0.5 -0.866 0.866 0.5 65.675 466.1838)" width="26.179" height="15.103"/>
		</g>
	</g>
</g>
<g>
	<g>
		<g>
			<rect x="343.096" y="317.472" transform="matrix(-0.866 -0.5 0.5 -0.866 491.7981 781.8281)" width="15.103" height="15.103"/>
			<rect x="351.201" y="279.192" transform="matrix(0.5 -0.866 0.866 0.5 -61.9526 466.1813)" width="43.095" height="15.103"/>
		</g>
	</g>
</g>
<g>
	<g>
		<polygon points="30.206,31.968 30.206,79.795 45.31,79.795 45.31,47.072 78.033,47.072 78.033,31.968 		"/>
	</g>
</g>
<g>
	<g>
		<polygon points="352.409,432.204 352.409,464.928 319.685,464.928 319.685,480.031 367.512,480.031 367.512,432.204 		"/>
	</g>
</g>
<g>
	<g>
		<g>
			<rect x="187.784" y="464.928" width="15.103" height="15.103"/>
			<rect x="217.99" y="464.928" width="40.275" height="15.103"/>
		</g>
	</g>
</g>
<g>
</g>
<g>
</g>
<g>
</g>
<g>
</g>
<g>
</g>
<g>
</g>
<g>
</g>
<g>
</g>
<g>
</g>
<g>
</g>
<g>
</g>
<g>
</g>
<g>
</g>
<g>
</g>
<g>
</g>
</svg>
