<svg id="Layer_1" enable-background="new 0 0 128 128" viewBox="0 0 128 128" xmlns="http://www.w3.org/2000/svg"><g><path d="m12.5 17.6c-1 0-1.8.8-1.8 1.8v8.8c0 1 .8 1.8 1.8 1.8s1.8-.8 1.8-1.8v-8.8c0-1-.8-1.8-1.8-1.8z"/><path d="m72.2 57.4h-45.1c-1 0-1.8.8-1.8 1.8s.8 1.8 1.8 1.8h45.1c1 0 1.8-.8 1.8-1.8s-.8-1.8-1.8-1.8z"/><path d="m72.2 68.1h-45.1c-1 0-1.8.8-1.8 1.8s.8 1.8 1.8 1.8h45.1c1 0 1.8-.8 1.8-1.8s-.8-1.8-1.8-1.8z"/><path d="m27.1 82.3h39.3c1 0 1.8-.8 1.8-1.8s-.8-1.8-1.8-1.8h-39.3c-1 0-1.8.8-1.8 1.8s.8 1.8 1.8 1.8z"/><path d="m27.1 92.9h39.3c1 0 1.8-.8 1.8-1.8s-.8-1.8-1.8-1.8h-39.3c-1 0-1.8.8-1.8 1.8s.8 1.8 1.8 1.8z"/><path d="m72.2 100.1h-45.1c-1 0-1.8.8-1.8 1.8s.8 1.8 1.8 1.8h45.1c1 0 1.8-.8 1.8-1.8s-.8-1.8-1.8-1.8z"/><path d="m42.5 34.3c-.6 2.6.1 5.2 3.4 5.2 2 0 1.8-2.3 3.7-2.3s1.8 2.3 3.7 2.3c3.3 0 4-2.6 3.4-5.2-.3-1-1.8-7.6-7.1-7.6s-6.9 6.6-7.1 7.6z"/><path d="m53.2 24.3c1.7.5 3.6-1.1 4.2-3.5s-.1-4.8-1.8-5.2-3.6 1.1-4.2 3.5.1 4.8 1.8 5.2z"/><path d="m56.8 28.5c.9.9 2.6.6 3.7-.5s1.4-2.8.5-3.7-2.6-.6-3.7.5-1.3 2.8-.5 3.7z"/><path d="m46.1 24.3c1.7-.5 2.5-2.8 1.8-5.2s-2.6-4-4.2-3.5-2.5 2.8-1.8 5.2 2.5 4 4.2 3.5z"/><path d="m42.4 28.5c.9-.9.6-2.5-.5-3.7s-2.8-1.4-3.7-.5-.6 2.5.5 3.7 2.8 1.4 3.7.5z"/><path d="m123.3 45.2c0-4.3-3.5-7.7-7.8-7.7-2.3 0-4.5 1-5.9 2.8l-3 3.5-12.1 14.5v-35.7c0-.5-.2-.9-.5-1.2l-16.1-16.1c-.3-.3-.8-.5-1.2-.5h-70.2c-1 0-1.8.8-1.8 1.8v115c0 1 .8 1.8 1.8 1.8h86.3c1 0 1.7-.8 1.8-1.7v-39l24-28.8 3-3.6c1-1.5 1.6-3.2 1.7-5.1zm-35.2 39.5-6.5-5.4 26.6-31.9 6.5 5.4zm-7.7-1.9 4.5 3.8-5.5 2zm-2-72.1 10.1 10.1h-10.1zm-70.1 109.1v-111.5h66.7v14.3c0 1 .8 1.7 1.8 1.8h14.2v38.2s-12.8 15.3-13.2 15.9c-.3.3-.4.8-.4.9-.5 2.9-1.4 8.7-1.9 11.6-.2 1.3.9 2.4 2.3 1.9 2.8-1 8.4-3 11.1-4 .1 0 .5-.3.7-.5.3-.4 1.3-1.6 1.3-1.6v33zm110.5-71.8-1.8 2.2-6.5-5.4 1.8-2.2c1.5-1.8 4.2-2 6-.5 1 .8 1.5 2 1.5 3.3 0 .8-.4 1.8-1 2.6z"/><path d="m105.9 54.1-7.9 9.5c-.6.7-.5 1.8.2 2.5s1.8.5 2.5-.2l7.9-9.5c.6-.7.5-1.8-.2-2.5-.8-.7-1.9-.6-2.5.2z"/></g></svg>