<svg id="Layer_5" enable-background="new 0 0 64 64" viewBox="0 0 64 64" xmlns="http://www.w3.org/2000/svg"><g><path d="m63 9.279-2.456-.818 1.158-2.315-3.848-3.848-2.315 1.158-.818-2.456h-5.441l-.818 2.456-2.315-1.158-3.848 3.848 1.158 2.315-2.457.818v5.441l2.456.818-1.158 2.315 3.848 3.848 2.315-1.158.818 2.457h5.441l.818-2.456 2.315 1.158 3.848-3.848-1.158-2.315 2.457-.818zm-2 4-2.296.765-.168.443c-.049.129-.1.254-.154.378l-.194.433 1.081 2.162-1.809 1.809-2.162-1.081-.433.194c-.124.055-.249.105-.378.154l-.443.168-.765 2.296h-2.559l-.765-2.296-.443-.168c-.129-.049-.254-.1-.378-.154l-.433-.194-2.162 1.081-1.809-1.809 1.081-2.162-.194-.433c-.055-.124-.105-.249-.154-.378l-.168-.443-2.295-.765v-2.559l2.296-.765.168-.443c.049-.129.1-.254.154-.378l.194-.433-1.081-2.161 1.809-1.809 2.162 1.081.433-.194c.124-.055.249-.105.378-.154l.443-.168.765-2.296h2.559l.765 2.296.443.168c.129.049.254.1.378.154l.433.194 2.162-1.081 1.809 1.809-1.081 2.162.194.433c.055.124.105.249.154.378l.168.443 2.295.765z"/><path d="m52 7c-2.757 0-5 2.243-5 5s2.243 5 5 5 5-2.243 5-5-2.243-5-5-5zm0 8c-1.654 0-3-1.346-3-3s1.346-3 3-3 3 1.346 3 3-1.346 3-3 3z"/><path d="m21.702 46.146-3.848-3.848-2.315 1.158-.818-2.456h-5.442l-.818 2.456-2.315-1.158-3.848 3.848 1.158 2.315-2.456.818v5.441l2.456.818-1.158 2.315 3.848 3.848 2.315-1.158.818 2.457h5.441l.818-2.456 2.315 1.158 3.848-3.848-1.158-2.315 2.457-.818v-5.441l-2.456-.818zm-.702 4.575v2.559l-2.296.765-.168.443c-.049.129-.1.254-.154.378l-.194.433 1.081 2.162-1.809 1.809-2.162-1.081-.433.194c-.124.055-.249.105-.378.154l-.443.168-.765 2.295h-2.559l-.765-2.296-.443-.168c-.129-.049-.254-.1-.378-.154l-.433-.194-2.161 1.081-1.809-1.809 1.081-2.162-.194-.433c-.055-.124-.105-.249-.154-.378l-.168-.443-2.296-.765v-2.559l2.296-.765.168-.443c.049-.129.1-.254.154-.378l.194-.433-1.081-2.161 1.809-1.809 2.162 1.081.433-.194c.124-.055.249-.105.378-.154l.443-.168.765-2.296h2.559l.765 2.296.443.168c.129.049.254.1.378.154l.433.194 2.162-1.081 1.809 1.809-1.081 2.162.194.433c.055.124.105.249.154.378l.168.443z"/><path d="m12 47c-2.757 0-5 2.243-5 5s2.243 5 5 5 5-2.243 5-5-2.243-5-5-5zm0 8c-1.654 0-3-1.346-3-3s1.346-3 3-3 3 1.346 3 3-1.346 3-3 3z"/><path d="m28 38.25v2.75c0 1.654 1.346 3 3 3h2c1.654 0 3-1.346 3-3v-2.791c0-.68.322-1.293.862-1.64 2.591-1.666 4.138-4.496 4.138-7.569 0-2.561-1.096-5.008-3.006-6.714-1.908-1.705-4.473-2.521-7.039-2.227-4.052.458-7.365 3.723-7.88 7.762-.447 3.51 1.118 6.867 4.084 8.762.519.331.841.97.841 1.667zm6 2.75c0 .552-.448 1-1 1h-2c-.552 0-1-.448-1-1v-1h4zm-3-12c0-.552.448-1 1-1s1 .448 1 1-.448 1-1 1-1-.448-1-1zm-5.94-.926c.399-3.136 2.974-5.672 6.12-6.027.278-.032.555-.048.829-.048 1.725 0 3.353.617 4.652 1.778 1.486 1.328 2.339 3.232 2.339 5.223 0 2.39-1.204 4.591-3.219 5.887-1.058.68-1.704 1.833-1.768 3.113h-1.013v-6.184c1.161-.414 2-1.514 2-2.816 0-1.654-1.346-3-3-3s-3 1.346-3 3c0 1.302.839 2.402 2 2.816v6.184h-1.015c-.074-1.292-.711-2.439-1.749-3.103-2.308-1.474-3.525-4.088-3.176-6.823z"/><path d="m54.387 28.277c-.534-.799-1.426-1.277-2.387-1.277s-1.853.478-2.387 1.277l-5.188 7.781c-.278.419-.425.905-.425 1.407 0 1.397 1.138 2.535 2.535 2.535h1.465v8h-17v2h17c1.103 0 2-.897 2-2v-10h-3.465c-.295 0-.535-.24-.535-.535 0-.106.031-.209.09-.297l5.188-7.781c.322-.484 1.123-.484 1.445 0l5.188 7.781c.059.088.09.19.09.297-.001.295-.241.535-.536.535h-3.465v12c0 2.206-1.794 4-4 4h-19v2h19c3.309 0 6-2.691 6-6v-10h1.465c1.397 0 2.535-1.138 2.535-2.535 0-.502-.147-.988-.426-1.406z"/><path d="m27 54h2v2h-2z"/><path d="m9.613 35.723c.534.799 1.426 1.277 2.387 1.277s1.853-.478 2.387-1.277l5.188-7.781c.278-.419.425-.905.425-1.407 0-1.397-1.138-2.535-2.535-2.535h-1.465v-8h17v-2h-17c-1.103 0-2 .897-2 2v10h3.465c.295 0 .535.24.535.535 0 .106-.031.209-.09.297l-5.188 7.781c-.322.484-1.123.484-1.445 0l-5.187-7.781c-.059-.088-.09-.19-.09-.297 0-.295.24-.535.535-.535h3.465v-12c0-2.206 1.794-4 4-4h19v-2h-19c-3.309 0-6 2.691-6 6v10h-1.465c-1.397 0-2.535 1.138-2.535 2.535 0 .502.147.988.426 1.406z"/><path d="m35 8h2v2h-2z"/></g></svg>