<svg id="Layer_5" enable-background="new 0 0 64 64" viewBox="0 0 64 64" xmlns="http://www.w3.org/2000/svg"><g><path d="m58.536 14.487.168-.443 2.296-.765v-2.559l-2.296-.765-.168-.443c-.049-.129-.1-.254-.154-.378l-.194-.433 1.081-2.162-1.809-1.808-2.162 1.081-.433-.194c-.124-.055-.249-.105-.378-.154l-.443-.168-.765-2.296h-2.559l-.765 2.296-.443.168c-.129.049-.254.1-.378.154l-.433.194-2.161-1.081-1.809 1.809 1.081 2.162-.194.433c-.055.124-.105.249-.154.378l-.168.443-2.296.765v2.559l2.296.765.168.443c.049.129.1.254.154.378l.194.433-1.081 2.162 1.809 1.809 2.162-1.081.433.194c.124.055.249.105.378.154l.443.168.765 2.295h2.559l.765-2.296.443-.168c.129-.049.254-.1.378-.154l.433-.194 2.162 1.081 1.809-1.809-1.081-2.162.194-.433c.054-.124.104-.249.153-.378zm-6.536 1.513c-2.209 0-4-1.791-4-4s1.791-4 4-4 4 1.791 4 4-1.791 4-4 4z"/><path d="m18.536 49.513c-.049-.129-.1-.254-.154-.378l-.194-.433 1.081-2.162-1.809-1.809-2.162 1.081-.433-.194c-.124-.055-.249-.105-.378-.154l-.443-.168-.765-2.296h-2.559l-.765 2.296-.443.168c-.129.049-.254.1-.378.154l-.433.194-2.161-1.081-1.809 1.809 1.081 2.162-.194.433c-.055.124-.105.249-.154.378l-.168.443-2.296.765v2.559l2.296.765.168.443c.049.129.1.254.154.378l.194.433-1.081 2.161 1.809 1.809 2.162-1.081.433.194c.124.055.249.105.378.154l.443.168.765 2.296h2.559l.765-2.296.443-.168c.129-.049.254-.1.378-.154l.433-.194 2.162 1.081 1.809-1.809-1.081-2.162.194-.433c.055-.124.105-.249.154-.378l.168-.443 2.295-.765v-2.559l-2.296-.765zm-6.536 6.487c-2.209 0-4-1.791-4-4s1.791-4 4-4 4 1.791 4 4-1.791 4-4 4z"/><path d="m29.985 38h1.015v-7.277c-.595-.346-1-.984-1-1.723 0-1.105.895-2 2-2s2 .895 2 2c0 .738-.405 1.376-1 1.723v7.277h1.013c.065-1.281.711-2.434 1.768-3.113 2.015-1.296 3.219-3.497 3.219-5.887 0-1.991-.853-3.895-2.339-5.223-1.3-1.161-2.928-1.778-4.652-1.778-.274 0-.551.016-.829.048-3.146.355-5.721 2.892-6.12 6.027-.349 2.734.868 5.349 3.177 6.823 1.037.664 1.674 1.811 1.748 3.103z"/><path d="m30 41c0 .552.448 1 1 1h2c.552 0 1-.448 1-1v-1h-4z"/><path d="m53.555 28.832c-.347-.52-.93-.832-1.555-.832s-1.208.312-1.555.832l-5.188 7.781c-.167.252-.257.549-.257.852 0 .848.687 1.535 1.535 1.535h2.465v9c0 .552-.448 1-1 1h-21v6h2 2 19c2.761 0 5-2.239 5-5v-11h2.465c.848 0 1.535-.687 1.535-1.535 0-.303-.09-.599-.258-.852z"/><path d="m10.445 35.168c.347.52.93.832 1.555.832s1.208-.312 1.555-.832l5.188-7.781c.167-.252.257-.549.257-.852 0-.848-.687-1.535-1.535-1.535h-2.465v-9c0-.552.448-1 1-1h21v-6h-2-2-19c-2.761 0-5 2.239-5 5v11h-2.465c-.848 0-1.535.687-1.535 1.535 0 .303.09.599.258.852z"/></g></svg>