<svg id="Layer_1_1_" enable-background="new 0 0 64 64" viewBox="0 0 64 64" xmlns="http://www.w3.org/2000/svg"><path d="m61.854 18.48c-.14-.23-.367-.395-.63-.455-8.356-1.928-16.292-5.806-22.948-11.215l-5.646-4.587c-.367-.299-.895-.299-1.262 0l-5.646 4.587c-6.656 5.409-14.592 9.287-22.948 11.215-.263.061-.49.225-.63.455-.141.231-.182.508-.114.77l1.956 7.58c3.908 15.144 13.938 28.279 27.517 36.038.154.088.326.132.497.132s.343-.044.496-.132c13.579-7.759 23.608-20.895 27.517-36.038l1.956-7.58c.067-.262.026-.538-.115-.77zm-3.779 7.85c-3.725 14.44-13.214 26.987-26.075 34.515-12.861-7.528-22.35-20.075-26.075-34.515l-1.702-6.596c8.285-2.067 16.136-5.987 22.763-11.371l5.014-4.075 5.015 4.075c6.627 5.384 14.478 9.304 22.763 11.371z"/><path d="m52.48 33.398-1.834-.797c-1.462 3.368-3.299 6.598-5.458 9.598l1.623 1.168c2.244-3.116 4.151-6.47 5.669-9.969z"/><path d="m54.389 28.302-1.906-.604c-.314.993-.661 1.982-1.031 2.941l1.865.721c.384-.998.745-2.026 1.072-3.058z"/><path d="m22 21c0 3.604 1.9 6.864 5 8.651v21.349c0 .266.105.52.293.707l4 4c.195.195.451.293.707.293s.512-.098.707-.293l6-6c.391-.391.391-1.023 0-1.414l-2.293-2.293 2.293-2.293c.391-.391.391-1.023 0-1.414l-2.293-2.293 2.293-2.293c.391-.391.391-1.023 0-1.414l-2.707-2.707v-3.43c3.617-1.579 6-5.173 6-9.156 0-5.514-4.486-10-10-10s-10 4.486-10 10zm18 0c0 3.377-2.144 6.404-5.334 7.534-.399.141-.666.519-.666.943v4.523c0 .266.105.52.293.707l2.293 2.293-2.293 2.293c-.391.391-.391 1.023 0 1.414l2.293 2.293-2.293 2.293c-.391.391-.391 1.023 0 1.414l2.293 2.293-3.586 3.586v-4.586h-2v4.586l-2-2v-21.532c0-.38-.215-.727-.555-.896-2.742-1.364-4.445-4.107-4.445-7.158 0-4.411 3.589-8 8-8s8 3.589 8 8z"/><path d="m31 44h2v2h-2z"/><path d="m31 40h2v2h-2z"/><path d="m31 36h2v2h-2z"/><path d="m29 18c0 1.654 1.346 3 3 3s3-1.346 3-3-1.346-3-3-3-3 1.346-3 3zm4 0c0 .552-.448 1-1 1s-1-.448-1-1 .448-1 1-1 1 .448 1 1z"/></svg>