<?xml version="1.0" encoding="iso-8859-1"?>
<!-- Generator: Adobe Illustrator 16.0.0, SVG Export Plug-In . SVG Version: 6.00 Build 0)  -->
<!DOCTYPE svg PUBLIC "-//W3C//DTD SVG 1.1//EN" "http://www.w3.org/Graphics/SVG/1.1/DTD/svg11.dtd">
<svg version="1.1" id="Capa_1" xmlns="http://www.w3.org/2000/svg" xmlns:xlink="http://www.w3.org/1999/xlink" x="0px" y="0px"
	 viewBox="0 0 78.66 78.66" style="enable-background:new 0 0 78.66 78.66;" xml:space="preserve"
	>
<g>
	<g>
		<path d="M26.685,78.66h43.903c0,0-12.769-10.306-12.543-21.506c0.225-6.271,12.543-14.111,12.32-31.583
			c0-8.736-8.514-23.296-22.85-25.088S22.428,1.828,17.724,10.788s-5.152,16.576-4.704,18.146c0.448,1.344,1.792,4.256,1.792,4.256
			s-7.168,11.2-6.72,12.993c0.448,1.791,5.376,2.688,5.376,2.688s0.448,1.344-0.448,3.584c-0.896,2.239,1.792,5.375,2.464,6.271
			s-1.12,4.03-0.448,5.823c0.672,1.791,3.584,3.81,6.944,3.359c3.36-0.449,7.84-1.346,9.408-1.568
			C34.974,74.627,26.685,78.66,26.685,78.66z M48.189,38.338c-0.447,0.225-0.672,0.448-0.896,0.448c0-0.224,0-0.224,0-0.448
			c0-0.447,0.225-1.119-0.447-2.016c-1.12-1.344-3.137-1.12-4.258,0.447c-0.446,0.673-0.446,1.345-0.223,2.24
			c0.446,0.896,0.896,1.119,1.566,1.344c0.224,0,0.224,0,0.447,0.225c-0.226,0.226-0.447,0.226-0.672,0.448l-2.912,1.791
			l-1.792-2.911c-0.672-1.121-1.12-1.569-1.792-1.569c-0.448,0-0.672,0.225-0.896,0.448c-0.224,0.224-0.448,0.671-0.448,0.896
			c-0.224,0.447-0.224,0.447-0.672,0.672c-0.672,0.225-1.344-0.225-1.568-0.896c0-0.224-0.224-0.896,0.224-1.343
			c0.224-0.224,0.448-0.224,0.672-0.224s0.224,0,0.448,0c0.224,0,0.448,0,0.672,0h0.224c0.448,0,0.672-0.226,0.896-0.448
			c0.224-0.448,0-1.12-0.448-2.24l-1.792-2.912l2.912-1.792c1.12-0.672,1.568-1.119,1.568-1.792c0-0.448-0.224-0.672-0.448-0.896
			c-0.224-0.226-0.672-0.448-0.896-0.448c-0.448-0.224-0.448-0.224-0.672-0.672c-0.224-0.448,0-0.673,0.224-0.896
			c0.448-0.672,1.568-0.896,2.016-0.224c0.224,0.447,0.224,0.447,0.224,0.896c0,0.225,0,0.672,0,0.896
			c0,1.12,1.12,1.344,2.913,0.448l2.911-1.793l1.792,2.912c0.226,0.447,0.448,0.672,0.448,0.896c-0.225,0-0.225,0-0.448,0
			c-0.672,0-1.344,0-2.016,0.448c-0.896,0.672-1.12,1.792-0.673,2.688c0.447,1.344,2.017,2.239,3.358,1.567
			c0.896-0.448,1.12-0.896,1.345-1.567c0-0.225,0-0.225,0.226-0.447c0.226,0.224,0.226,0.447,0.446,0.672l1.793,2.912L48.189,38.338
			z M58.941,23.107c-0.224,0-0.224,0-0.447,0c-0.673,0-1.345,0-2.017,0.448c-0.896,0.672-1.12,1.791-0.672,2.688
			c0.446,1.344,2.016,2.24,3.358,1.568c0.896-0.448,1.121-0.896,1.344-1.568c0-0.225,0-0.225,0.226-0.448
			c0.226,0.226,0.226,0.448,0.448,0.673l1.792,2.912l-2.912,1.791c-1.12,0.672-1.567,1.12-1.567,1.793
			c0,0.447,0.226,0.672,0.447,0.896c0.225,0.224,0.672,0.448,0.896,0.448c0.449,0.224,0.449,0.224,0.673,0.672
			c0.225,0.447,0,0.672-0.224,0.896c-0.449,0.673-1.567,0.896-2.018,0.226c-0.225-0.448-0.225-0.448-0.225-0.896
			c0-0.225,0-0.672,0-0.896c0-0.672-0.447-0.896-1.121-0.896c-0.446,0-0.896,0.224-1.791,0.672l-2.911,1.792l-1.792-2.912
			c-0.674-1.119-1.12-1.566-1.792-1.566c-0.448,0-0.673,0.224-0.896,0.447c-0.225,0.225-0.447,0.672-0.447,0.896
			c-0.226,0.448-0.226,0.448-0.672,0.672c-0.672,0.224-1.346-0.224-1.567-0.896c0-0.226-0.226-0.896,0.224-1.346
			c0.225-0.224,0.448-0.224,0.674-0.224c0.223,0,0.223,0,0.446,0c0.225,0,0.672,0,0.896,0c0.447,0,0.672-0.224,0.896-0.448
			c0.225-0.447,0.225-1.12-0.447-2.24l-1.791-2.91l2.91-1.793c0.448-0.225,0.674-0.447,0.896-0.447c0,0.224,0,0.224,0,0.447
			c0,0.447-0.223,1.119,0.449,2.017c1.119,1.344,3.136,1.12,4.256-0.448c0.447-0.672,0.447-1.344,0.225-2.24
			c-0.447-0.896-0.896-1.119-1.566-1.344c-0.226,0-0.226,0-0.449-0.224c0.226-0.224,0.449-0.224,0.673-0.448l2.911-1.792
			l1.793,2.912C58.719,22.66,58.941,22.883,58.941,23.107z M42.367,11.908c0.446-0.225,0.672-0.448,0.896-0.448
			c0,0.224,0,0.224,0,0.448c0,0.447-0.225,1.12,0.447,2.016c1.119,1.344,3.137,0.896,4.256-0.447
			c0.447-0.672,0.447-1.344,0.225-2.24c-0.447-0.896-0.896-1.12-1.566-1.344c-0.226,0-0.226,0-0.449-0.225
			c0.226-0.224,0.449-0.224,0.674-0.447l2.91-1.793l1.794,2.912c0.672,1.12,1.118,1.568,1.791,1.568
			c0.448,0,0.673-0.225,0.896-0.448c0.226-0.224,0.448-0.672,0.448-0.896c0.225-0.448,0.225-0.448,0.672-0.672
			c0.672-0.225,1.346,0.224,1.566,0.896c0,0.224,0.226,0.896-0.223,1.345c-0.226,0.223-0.449,0.223-0.674,0.223
			c-0.224,0-0.224,0-0.447,0c-0.225,0-0.672,0-0.896,0c-0.448,0-0.672,0.225-0.896,0.673c-0.225,0.448,0,1.12,0.446,2.239
			l1.792,2.912l-2.91,1.793c-1.121,0.672-1.568,1.119-1.568,1.791c0,0.448,0.225,0.672,0.447,0.896
			c0.226,0.225,0.672,0.448,0.896,0.448c0.446,0.224,0.446,0.224,0.672,0.672c0.226,0.448,0,0.672-0.226,0.896
			c-0.446,0.674-1.566,0.896-2.017,0.226C51.1,24.453,51.1,24.453,51.1,24.004c0-0.225,0-0.673,0-0.896
			c0-0.672-0.448-0.896-1.12-0.896c-0.446,0-0.896,0.225-1.792,0.672l-2.912,1.793l-1.566-3.36
			c-0.226-0.448-0.447-0.673-0.447-0.896c0.224,0,0.224,0,0.447,0c0.672,0,1.345,0,2.017-0.448c0.896-0.672,1.12-1.791,0.672-2.688
			c-0.446-1.344-2.017-2.24-3.358-1.568c-0.896,0.448-1.121,0.896-1.346,1.568c0,0.225,0,0.225-0.224,0.448
			c-0.224-0.226-0.224-0.449-0.447-0.673l-1.792-2.912L42.367,11.908z M32.061,28.036c-0.224-0.448-0.448-0.672-0.448-0.896
			c0.224,0,0.224,0,0.448,0c0.672,0.224,1.344,0,2.016-0.448c0.896-0.673,1.12-1.792,0.672-2.688
			c-0.448-1.344-2.016-2.24-3.36-1.568c-0.896,0.449-1.12,0.896-1.344,1.568c0,0.225,0,0.225-0.224,0.448
			c-0.224-0.224-0.224-0.448-0.448-0.672l-1.792-2.912l2.912-1.792c1.12-0.672,1.568-1.12,1.568-1.792
			c0-0.448-0.224-0.672-0.448-0.896c-0.224-0.225-0.672-0.449-0.896-0.449c-0.448-0.223-0.448-0.223-0.672-0.672
			c-0.224-0.447,0-0.672,0.224-0.896c0.448-0.672,1.568-0.896,2.016-0.224c0.224,0.447,0.224,0.447,0.224,0.896
			c0,0.224,0,0.673,0,0.896c0.224,1.121,1.12,1.345,2.912,0.449l2.912-1.793l1.792,2.912c0.672,1.12,1.119,1.568,1.791,1.568
			c0.449,0,0.672-0.225,0.896-0.448c0.225-0.224,0.448-0.672,0.448-0.896c0.224-0.448,0.224-0.448,0.672-0.672
			c0.672-0.225,1.344,0.224,1.566,0.896c0,0.224,0.226,0.896-0.225,1.345c-0.224,0.224-0.447,0.224-0.672,0.224s-0.225,0-0.448,0
			c-0.223,0-0.672,0-0.896,0c-0.448,0-0.674,0.224-0.896,0.448c-0.225,0.447-0.225,1.119,0.447,2.239l1.792,2.912l-3.137,1.568
			c-0.444,0.224-0.668,0.448-0.894,0.448c0-0.226,0-0.226,0-0.448c0-0.448,0.226-1.12-0.446-2.017
			c-1.122-1.345-3.138-1.119-4.256,0.447c-0.448,0.672-0.448,1.344-0.224,2.24c0.448,0.896,0.896,1.12,1.568,1.344
			c0.224,0,0.224,0,0.448,0.225c-0.224,0.225-0.448,0.225-0.672,0.447l-2.912,1.792L32.061,28.036z"/>
	</g>
</g>
<g>
</g>
<g>
</g>
<g>
</g>
<g>
</g>
<g>
</g>
<g>
</g>
<g>
</g>
<g>
</g>
<g>
</g>
<g>
</g>
<g>
</g>
<g>
</g>
<g>
</g>
<g>
</g>
<g>
</g>
</svg>
