<svg id="Layer_5" enable-background="new 0 0 64 64" viewBox="0 0 64 64" xmlns="http://www.w3.org/2000/svg"><g><path d="m60 43c-1.302 0-2.402.839-2.816 2h-8.184v2h8.184c.414 1.161 1.514 2 2.816 2 1.654 0 3-1.346 3-3s-1.346-3-3-3z"/><path d="m56 34c-1.302 0-2.402.839-2.816 2h-4.184v2h4.184c.414 1.161 1.514 2 2.816 2 1.654 0 3-1.346 3-3s-1.346-3-3-3z"/><path d="m56 52c-1.302 0-2.402.839-2.816 2h-4.184v2h4.184c.414 1.161 1.514 2 2.816 2 1.654 0 3-1.346 3-3s-1.346-3-3-3z"/><path d="m44 17h-24c-1.654 0-3 1.346-3 3v38c0 1.654 1.346 3 3 3h24c1.654 0 3-1.346 3-3v-38c0-1.654-1.346-3-3-3zm0 40c0 .552-.448 1-1 1h-22c-.552 0-1-.448-1-1v-8c0-.552.448-1 1-1h22c.552 0 1 .448 1 1zm0-14c0 .552-.448 1-1 1h-22c-.552 0-1-.448-1-1v-8c0-.552.448-1 1-1h22c.552 0 1 .448 1 1zm0-14c0 .552-.448 1-1 1h-22c-.552 0-1-.448-1-1v-8c0-.552.448-1 1-1h22c.552 0 1 .448 1 1z"/><path d="m13.217 36.393-.459.156c-.382.13-.767.291-1.145.477l-.436.214-1.335-.639-3.242 3.242.639 1.335-.214.436c-.186.378-.347.763-.477 1.145l-.156.459-1.392.49v4.584l1.393.491.156.459c.13.382.291.767.477 1.145l.214.436-.639 1.335 3.242 3.242 1.335-.639.436.214c.378.186.763.347 1.145.477l.459.156.49 1.392h1.292v-4.08c-3.391-.486-6-3.395-6-6.92 0-3.526 2.609-6.434 6-6.92v-4.08h-1.292z"/><path d="m49 27h4c4.411 0 8-3.589 8-8s-3.589-8-8-8c-1.371 0-2.729.357-3.926 1.034l-.824.467-.511-.798c-1.481-2.319-4.001-3.703-6.739-3.703-2.069 0-4.035.793-5.535 2.233l-1.008.967-.591-1.266c-1.968-4.212-6.232-6.934-10.866-6.934-6.269 0-11.521 4.9-11.956 11.156l-.076 1.082-1.071-.163c-.341-.051-.626-.075-.897-.075-3.309 0-6 2.691-6 6s2.691 6 6 6h6v-7c0-2.757 2.243-5 5-5h24c2.757 0 5 2.243 5 5zm4-14c3.309 0 6 2.691 6 6h-2c0-2.206-1.794-4-4-4zm-30-6c-4.411 0-8 3.589-8 8h-2c0-5.514 4.486-10 10-10z"/><path d="m23 23h2v4h-2z"/><path d="m27 23h2v4h-2z"/><path d="m39 37h2v4h-2z"/><path d="m35 37h2v4h-2z"/><path d="m23 51h2v4h-2z"/><path d="m27 51h2v4h-2z"/><path d="m31 23h2v4h-2z"/><path d="m31 37h2v4h-2z"/><path d="m31 51h2v4h-2z"/></g></svg>