<?xml version="1.0" encoding="iso-8859-1"?>
<!-- Generator: Adobe Illustrator 19.0.0, SVG Export Plug-In . SVG Version: 6.00 Build 0)  -->
<svg version="1.1" id="Capa_1" xmlns="http://www.w3.org/2000/svg" xmlns:xlink="http://www.w3.org/1999/xlink" x="0px" y="0px"
	 viewBox="0 0 480 480" style="enable-background:new 0 0 480 480;" xml:space="preserve">
<g>
	<g>
		<path d="M448,0H32C14.327,0,0,14.327,0,32v416c0,17.673,14.327,32,32,32h416c17.673,0,32-14.327,32-32V32
			C480,14.327,465.673,0,448,0z M344,464h-80v-16h80V464z M344,432h-80v-16h80V432z M344,384.168V400h-80v-15.832
			c0.001-3.445-2.204-6.503-5.472-7.592C212.935,362.527,182.401,319.682,184,272c0-37.912,14.4-69.672,40-89.248V192v96
			c0.002,2.906,1.579,5.583,4.12,6.992l72,40c2.414,1.339,5.346,1.339,7.76,0l72-40c2.541-1.409,4.119-4.086,4.12-6.992V182.752
			c25.6,19.576,40,51.336,40,89.248c1.599,47.682-28.935,90.527-74.528,104.576C346.204,377.665,343.999,380.723,344,384.168z
			 M240,283.288v-86.576l64-35.56l64,35.56v86.576l-64,35.56L240,283.288z M464,448c0,8.837-7.163,16-16,16h-88v-74.192
			c49.106-18.134,81.254-65.476,80-117.808c0-49.432-21.912-89.888-60.136-111c-2.472-1.385-5.496-1.342-7.928,0.112
			c-2.438,1.438-3.935,4.057-3.936,6.888v10.4L307.88,145c-2.414-1.339-5.346-1.339-7.76,0L240,178.4V168
			c-0.003-4.418-3.587-7.998-8.005-7.995c-1.35,0.001-2.677,0.343-3.859,0.995C189.912,182.112,168,222.568,168,272
			c-1.254,52.332,30.894,99.674,80,117.808V464H32c-8.837,0-16-7.163-16-16V80h448V448z M464,64H16V32c0-8.837,7.163-16,16-16h416
			c8.837,0,16,7.163,16,16V64z"/>
	</g>
</g>
<g>
	<g>
		<rect x="32" y="32" width="16" height="16"/>
	</g>
</g>
<g>
	<g>
		<rect x="64" y="32" width="16" height="16"/>
	</g>
</g>
<g>
	<g>
		<rect x="96" y="32" width="16" height="16"/>
	</g>
</g>
<g>
	<g>
		<path d="M337.926,206.054c-18.748-18.742-49.14-18.738-67.882,0.01c-18.742,18.748-18.738,49.14,0.01,67.882
			c9.004,9.001,21.215,14.056,33.946,14.054c12.737,0.036,24.958-5.029,33.936-14.064
			C356.678,255.188,356.674,224.796,337.926,206.054z M281.376,217.376c10.267-10.364,26.287-12.369,38.792-4.856l-43.648,43.648
			C269.007,243.663,271.012,227.643,281.376,217.376z M326.624,262.632v-0.008c-10.45,9.941-26.167,11.889-38.728,4.8l43.584-43.584
			C338.993,236.345,336.988,252.365,326.624,262.632z"/>
	</g>
</g>
<g>
	<g>
		<path d="M69.656,117.656l-11.312-11.312l-16,16c-3.123,3.124-3.123,8.188,0,11.312l16,16l11.312-11.312L59.312,128L69.656,117.656
			z"/>
	</g>
</g>
<g>
	<g>
		<path d="M133.656,122.344l-16-16l-11.312,11.312L116.688,128l-10.344,10.344l11.312,11.312l16-16
			C136.779,130.532,136.779,125.468,133.656,122.344z"/>
	</g>
</g>
<g>
	<g>
		<rect x="62.7" y="119.999" transform="matrix(0.3165 -0.9486 0.9486 0.3165 -61.2684 170.9559)" width="50.6" height="15.992"/>
	</g>
</g>
<g>
	<g>
		<rect x="152" y="120" width="16" height="16"/>
	</g>
</g>
<g>
	<g>
		<rect x="40" y="168" width="16" height="16"/>
	</g>
</g>
<g>
	<g>
		<rect x="72" y="168" width="96" height="16"/>
	</g>
</g>
<g>
	<g>
		<rect x="184" y="120" width="16" height="16"/>
	</g>
</g>
<g>
	<g>
		<rect x="216" y="120" width="16" height="16"/>
	</g>
</g>
<g>
	<g>
		<rect x="40" y="200" width="96" height="16"/>
	</g>
</g>
<g>
	<g>
		<rect x="40" y="328" width="16" height="16"/>
	</g>
</g>
<g>
	<g>
		<rect x="72" y="328" width="80" height="16"/>
	</g>
</g>
<g>
	<g>
		<rect x="40" y="360" width="80" height="16"/>
	</g>
</g>
<g>
	<g>
		<rect x="40" y="232" width="24" height="16"/>
	</g>
</g>
<g>
	<g>
		<rect x="40" y="264" width="24" height="16"/>
	</g>
</g>
<g>
	<g>
		<rect x="40" y="296" width="24" height="16"/>
	</g>
</g>
<g>
	<g>
		<rect x="80" y="232" width="24" height="16"/>
	</g>
</g>
<g>
	<g>
		<rect x="120" y="232" width="24" height="16"/>
	</g>
</g>
<g>
	<g>
		<rect x="80" y="264" width="24" height="16"/>
	</g>
</g>
<g>
	<g>
		<rect x="40" y="392" width="24" height="16"/>
	</g>
</g>
<g>
	<g>
		<rect x="40" y="424" width="24" height="16"/>
	</g>
</g>
<g>
	<g>
		<rect x="80" y="392" width="24" height="16"/>
	</g>
</g>
<g>
</g>
<g>
</g>
<g>
</g>
<g>
</g>
<g>
</g>
<g>
</g>
<g>
</g>
<g>
</g>
<g>
</g>
<g>
</g>
<g>
</g>
<g>
</g>
<g>
</g>
<g>
</g>
<g>
</g>
</svg>
