<svg id="Capa_1" enable-background="new 0 0 512 512" viewBox="0 0 512 512" xmlns="http://www.w3.org/2000/svg"><g><path d="m114.323 112.41c10.148 1.049 19.304 5.642 26.164 12.473 7.824 7.852 12.7 18.652 12.7 30.559v77.301c0 4.139-3.373 7.512-7.512 7.512-46.063 0-92.127 0-138.162 0-4.139 0-7.512-3.373-7.512-7.512v-77.301c0-11.906 4.876-22.707 12.699-30.559 6.86-6.83 15.988-11.424 26.136-12.473-4.819-7.199-7.625-15.846-7.625-25.143v-28.374-12.217c0-7.908 3.203-15.08 8.419-20.297 5.187-5.188 12.387-8.418 20.268-8.418h54.596c4.138 0 7.483 3.373 7.483 7.512v33.42 28.375c0 9.296-2.807 17.943-7.654 25.142zm351.499-35.461-36.822-12.472-23.98 11.736v11.055c0 8.361 3.43 15.959 8.957 21.459 5.499 5.527 13.097 8.928 21.458 8.928 8.334 0 15.932-3.4 21.459-8.928 5.499-5.5 8.929-13.098 8.929-21.459v-10.319zm-60.802-17.347 19.757-9.666c1.786-1.049 4.025-1.332 6.123-.623l34.923 11.82v-14.457c0-3.77-1.559-7.201-4.054-9.666-2.466-2.494-5.896-4.055-9.666-4.055h-33.363c-3.77 0-7.172 1.56-9.666 4.055-2.495 2.465-4.054 5.896-4.054 9.666zm-358.814-8.192h60.775v-18.455h-47.084c-3.742 0-7.172 1.56-9.666 4.055-2.495 2.465-4.025 5.896-4.025 9.666zm60.775 14.994h-60.775v20.863c0 8.361 3.401 15.959 8.929 21.459 5.499 5.527 13.097 8.928 21.458 8.928 8.334 0 15.931-3.4 21.459-8.928 5.499-5.5 8.929-13.098 8.929-21.459zm179.407 9.866c-10.148 1.389-26.306 1.049-39.799-10.715-4.762 2.721-12.104 5.668-20.977 5.074v16.639c0 8.361 3.43 15.959 8.93 21.459 5.527 5.527 13.124 8.928 21.458 8.928 8.362 0 15.959-3.4 21.458-8.928 5.527-5.5 8.93-13.098 8.93-21.459zm-60.776-20.637c6.179.766 12.303-1.361 16.952-5.385 3.118-2.723 7.852-2.383 10.544.764 10.744 12.332 25.625 11.623 33.279 10.178v-14.514c0-3.77-1.531-7.201-4.025-9.666-2.494-2.494-5.925-4.055-9.666-4.055h-33.364c-3.77 0-7.2 1.56-9.695 4.055-2.466 2.465-4.025 5.896-4.025 9.666zm-170.563 71.574h-11.82c-7.738 0-14.797 3.176-19.928 8.307-5.131 5.102-8.306 12.16-8.306 19.928v69.816h13.975v-56.041c0-4.139 3.374-7.512 7.512-7.512s7.483 3.373 7.483 7.512v56.041h65.226v-56.041c0-4.139 3.373-7.512 7.512-7.512s7.512 3.373 7.512 7.512v56.041h13.947v-69.816c0-7.768-3.175-14.826-8.277-19.928-5.131-5.131-12.189-8.307-19.956-8.307h-11.792c-6.435 3.488-13.776 5.443-21.543 5.443-7.796 0-15.11-1.955-21.545-5.443zm425.769-39.939c0 9.297-2.834 17.943-7.653 25.143 10.148 1.049 19.304 5.642 26.136 12.473 7.852 7.852 12.699 18.652 12.699 30.559v77.301c0 4.139-3.345 7.512-7.483 7.512-46.065 0-92.127 0-138.191 0-4.139 0-7.483-3.373-7.483-7.512v-77.301c0-11.906 4.848-22.707 12.699-30.559 6.86-6.83 15.988-11.424 26.137-12.473-4.819-7.199-7.653-15.846-7.653-25.143v-40.592c0-7.908 3.231-15.08 8.447-20.297 5.188-5.188 12.358-8.418 20.268-8.418h33.363c7.909 0 15.08 3.231 20.297 8.418 5.188 5.217 8.419 12.389 8.419 20.297v40.592zm-23.868 39.939c-6.406 3.488-13.748 5.443-21.516 5.443-7.795 0-15.137-1.984-21.571-5.471l-11.792.027c-7.767 0-14.825 3.176-19.928 8.307-5.132 5.102-8.307 12.16-8.307 19.928v69.816h13.977v-56.041c0-4.139 3.345-7.512 7.482-7.512 4.139 0 7.513 3.373 7.513 7.512v56.041h65.226v-56.041c0-4.139 3.373-7.512 7.512-7.512s7.483 3.373 7.483 7.512v56.041h13.976v-69.816c0-7.768-3.175-14.826-8.306-19.928-5.102-5.131-12.161-8.307-19.929-8.307h-11.82zm-155.566-39.939c0 9.297-2.807 17.943-7.626 25.143 10.148 1.049 19.276 5.642 26.136 12.473 7.824 7.852 12.699 18.652 12.699 30.559v77.301c0 4.139-3.373 7.512-7.512 7.512-46.035 0-92.099 0-138.162 0-4.139 0-7.512-3.373-7.512-7.512v-77.301c0-11.906 4.875-22.707 12.699-30.559 6.86-6.83 16.016-11.424 26.164-12.473-4.819-7.199-7.654-15.846-7.654-25.143v-40.592c0-7.908 3.231-15.08 8.419-20.297 5.216-5.188 12.388-8.418 20.296-8.418h33.364c7.908 0 15.08 3.231 20.268 8.418 5.217 5.217 8.42 12.389 8.42 20.297v40.592zm-23.841 39.939c-6.406 3.488-13.748 5.443-21.543 5.443-7.767 0-15.108-1.955-21.515-5.443h-11.821c-7.767 0-14.825 3.176-19.956 8.307-5.102 5.102-8.277 12.16-8.277 19.928v69.816h13.946v-56.041c0-4.139 3.373-7.512 7.512-7.512s7.512 3.373 7.512 7.512v56.041h65.226v-56.041c0-4.139 3.345-7.512 7.483-7.512 4.168 0 7.513 3.373 7.513 7.512v56.041h13.975v-69.816c0-7.768-3.175-14.826-8.306-19.928-5.13-5.131-12.189-8.307-19.928-8.307zm134.647 247.438c-4.138 0-7.512-3.346-7.512-7.484 0-4.139 3.374-7.512 7.512-7.512h46.46c4.139 0 7.513 3.373 7.513 7.512s-3.374 7.484-7.513 7.484zm-14.91-27.497c-4.166 0-7.512-3.346-7.512-7.484 0-4.166 3.346-7.512 7.512-7.512h76.31c4.139 0 7.484 3.346 7.484 7.512 0 4.139-3.346 7.484-7.484 7.484zm-164.525 27.497c-4.139 0-7.483-3.346-7.483-7.484 0-4.139 3.345-7.512 7.483-7.512h46.489c4.139 0 7.512 3.373 7.512 7.512s-3.373 7.484-7.512 7.484zm-14.91-27.497c-4.139 0-7.483-3.346-7.483-7.484 0-4.166 3.345-7.512 7.483-7.512h76.309c4.14 0 7.513 3.346 7.513 7.512 0 4.139-3.373 7.484-7.513 7.484zm-164.496 27.497c-4.138 0-7.483-3.346-7.483-7.484 0-4.139 3.345-7.512 7.483-7.512h46.489c4.139 0 7.484 3.373 7.484 7.512s-3.345 7.484-7.484 7.484zm-14.911-27.497c-4.139 0-7.512-3.346-7.512-7.484 0-4.166 3.373-7.512 7.512-7.512h76.31c4.139 0 7.484 3.346 7.484 7.512 0 4.139-3.345 7.484-7.484 7.484zm367.772 43.143h58.422c4.139 0 7.513 3.373 7.513 7.512v58.422c0 4.139-3.374 7.512-7.513 7.512h-58.422c-4.139 0-7.512-3.373-7.512-7.512v-58.422c0-4.139 3.373-7.512 7.512-7.512zm50.938 14.996h-43.455v43.455h43.455zm-380.555-19.305c11.31 0 21.572 4.592 28.998 12.02 7.427 7.426 12.02 17.688 12.02 28.998 0 11.338-4.592 21.6-12.02 29.027-7.427 7.426-17.688 12.018-28.998 12.018-11.338 0-21.601-4.592-28.999-12.018-7.427-7.427-12.018-17.689-12.018-29.027 0-11.31 4.592-21.572 12.019-28.998 7.398-7.428 17.66-12.02 28.998-12.02zm18.397 22.621c-4.705-4.705-11.225-7.625-18.397-7.625-7.2 0-13.692 2.92-18.397 7.625s-7.625 11.225-7.625 18.397c0 7.199 2.92 13.691 7.625 18.426 4.706 4.705 11.198 7.596 18.397 7.596 7.172 0 13.691-2.891 18.397-7.596 4.706-4.734 7.625-11.227 7.625-18.426 0-7.172-2.919-13.691-7.625-18.397zm167.53-16.47c12.019 20.807 24.01 41.557 36.001 62.363 2.068 3.572.85 8.135-2.721 10.205-1.135.68-2.411 1.02-3.743 1.02h-72.114c-4.139 0-7.483-3.344-7.483-7.482 0-1.561.482-3.006 1.275-4.195 11.934-20.666 23.868-41.301 35.802-61.967 2.041-3.57 6.605-4.818 10.176-2.748 1.22.679 2.184 1.671 2.807 2.804zm-6.52 18.595c-7.682 13.324-15.364 26.674-23.075 39.998h46.149c-7.682-13.324-15.364-26.646-23.074-39.998zm141.28-136.828h13.635v-9.523c0-4.139 3.346-7.512 7.483-7.512h34.044c4.139 0 7.513 3.373 7.513 7.512v9.523h13.635c4.139 0 7.484 3.346 7.484 7.484v7.879h23.442c4.139 0 7.483 3.373 7.483 7.512v189.752c0 4.139-3.345 7.512-7.483 7.512h-138.191c-4.139 0-7.483-3.373-7.483-7.512v-77.896c0-4.139 3.345-7.482 7.483-7.482 4.167 0 7.512 3.344 7.512 7.482v70.412h123.168v-174.783h-15.931v7.881c0 4.139-3.346 7.512-7.484 7.512h-76.31c-4.166 0-7.512-3.373-7.512-7.512v-7.881h-15.932v70.412c0 4.139-3.345 7.484-7.512 7.484-4.139 0-7.483-3.346-7.483-7.484v-77.897c0-4.139 3.345-7.512 7.483-7.512h23.443v-7.879c.002-4.138 3.347-7.484 7.513-7.484zm21.118 14.997h-13.634v15.76h61.312c0-5.272 0-10.516 0-15.76h-13.635c-4.138 0-7.512-3.373-7.512-7.512v-9.525h-19.02v9.525c.002 4.138-3.372 7.512-7.511 7.512zm-200.553-14.997h13.635v-9.523c0-4.139 3.374-7.512 7.512-7.512h34.044c4.139 0 7.483 3.373 7.483 7.512v9.523h13.635c4.14 0 7.513 3.346 7.513 7.484v7.879h23.414c4.139 0 7.512 3.373 7.512 7.512v189.752c0 4.139-3.373 7.512-7.512 7.512h-138.162c-4.139 0-7.512-3.373-7.512-7.512v-77.896c0-4.139 3.373-7.482 7.512-7.482s7.512 3.344 7.512 7.482v70.412h123.166v-174.783h-15.931v7.881c0 4.139-3.373 7.512-7.513 7.512h-76.309c-4.139 0-7.483-3.373-7.483-7.512v-7.881h-15.931v70.412c0 4.139-3.374 7.484-7.512 7.484-4.139 0-7.512-3.346-7.512-7.484v-77.897c0-4.139 3.373-7.512 7.512-7.512h23.443v-7.879c.001-4.138 3.345-7.484 7.484-7.484zm21.147 14.997h-13.635v15.76h61.314v-15.76h-13.635c-4.167 0-7.512-3.373-7.512-7.512v-9.525h-19.049v9.525c.001 4.138-3.344 7.512-7.483 7.512zm-200.554-14.997h13.635v-9.523c0-4.139 3.345-7.512 7.483-7.512h34.044c4.139 0 7.512 3.373 7.512 7.512v9.523h13.635c4.139 0 7.484 3.346 7.484 7.484v7.879h23.442c4.139 0 7.512 3.373 7.512 7.512v189.752c0 4.139-3.373 7.512-7.512 7.512h-138.161c-4.139 0-7.512-3.373-7.512-7.512v-77.896c0-4.139 3.374-7.482 7.512-7.482s7.483 3.344 7.483 7.482v70.412h123.167v-174.783h-15.931v7.881c0 4.139-3.345 7.512-7.484 7.512h-76.31c-4.139 0-7.512-3.373-7.512-7.512v-7.881h-15.929v70.412c0 4.139-3.345 7.484-7.483 7.484-4.139 0-7.512-3.346-7.512-7.484v-77.897c0-4.139 3.374-7.512 7.512-7.512h23.415v-7.879c-.001-4.138 3.372-7.484 7.51-7.484zm21.119 14.997h-13.635v15.76h61.314c0-5.272 0-10.516 0-15.76h-13.635c-4.138 0-7.483-3.373-7.483-7.512v-9.525h-19.049v9.525c0 4.138-3.345 7.512-7.512 7.512z"/></g></svg>