<?xml version="1.0" encoding="iso-8859-1"?>
<!-- Generator: Adobe Illustrator 19.0.0, SVG Export Plug-In . SVG Version: 6.00 Build 0)  -->
<svg version="1.1" id="Layer_1" xmlns="http://www.w3.org/2000/svg" xmlns:xlink="http://www.w3.org/1999/xlink" x="0px" y="0px"
	 viewBox="0 0 485 485" style="enable-background:new 0 0 485 485;" xml:space="preserve">
<g>
	<path d="M427.271,133.15l-21.213,21.213c62.384,62.384,62.384,163.89,0,226.274l21.213,21.213
		C501.352,327.769,501.352,207.231,427.271,133.15z"/>
	<path d="M377.774,182.647l-21.213,21.213c16.967,16.967,26.312,39.568,26.312,63.64s-9.345,46.672-26.312,63.64l21.213,21.213
		C424.562,305.565,424.562,229.435,377.774,182.647z"/>
	<path d="M2.168,485h310V0h-310V485z M32.168,455v-90h250v90H32.168z M32.168,335V100h250v235H32.168z M282.168,30v40h-250V30
		H282.168z"/>
	<rect x="117.168" y="395" width="80" height="30"/>
</g>
<g>
</g>
<g>
</g>
<g>
</g>
<g>
</g>
<g>
</g>
<g>
</g>
<g>
</g>
<g>
</g>
<g>
</g>
<g>
</g>
<g>
</g>
<g>
</g>
<g>
</g>
<g>
</g>
<g>
</g>
</svg>
