<?xml version="1.0" encoding="iso-8859-1"?>
<!-- Generator: Adobe Illustrator 19.0.0, SVG Export Plug-In . SVG Version: 6.00 Build 0)  -->
<svg version="1.1" id="Layer_1" xmlns="http://www.w3.org/2000/svg" xmlns:xlink="http://www.w3.org/1999/xlink" x="0px" y="0px"
	 viewBox="0 0 489.057 489.057" style="enable-background:new 0 0 489.057 489.057;" xml:space="preserve">
<g>
	<path d="M461.171,404.385c16.939-27.268,25.857-58.525,25.857-90.871c0-42.898-15.851-84.018-44.633-115.783
		c-25.908-28.594-60.347-47.542-97.969-54.125C330.224,62.695,259.447,1.014,174.528,1.014c-95.117,0-172.5,77.383-172.5,172.5
		c0,32.345,8.918,63.603,25.857,90.871L0,348.042l83.657-27.885c18.75,11.648,39.386,19.503,60.966,23.274
		c6.586,37.614,25.532,72.046,54.121,97.95c31.766,28.782,72.886,44.633,115.784,44.633c32.347,0,63.604-8.918,90.871-25.857
		l83.657,27.885L461.171,404.385z M88.098,287.054l-40.664,13.554l13.555-40.662l-4.199-6.146
		c-16.198-23.706-24.761-51.468-24.761-80.286c0-78.575,63.925-142.5,142.5-142.5s142.5,63.925,142.5,142.5
		c0,78.575-63.925,142.5-142.5,142.5c-28.82,0-56.582-8.562-80.286-24.76L88.098,287.054z M441.623,440.609l-40.663-13.554
		l-6.146,4.199c-23.704,16.199-51.467,24.761-80.286,24.761c-67.188,0-124.045-46.204-138.79-110.015
		c94.158-0.652,170.623-77.118,171.275-171.275c63.811,14.746,110.015,71.603,110.015,138.79c0,28.818-8.563,56.581-24.761,80.286
		l-4.199,6.146L441.623,440.609z"/>
</g>
<g>
</g>
<g>
</g>
<g>
</g>
<g>
</g>
<g>
</g>
<g>
</g>
<g>
</g>
<g>
</g>
<g>
</g>
<g>
</g>
<g>
</g>
<g>
</g>
<g>
</g>
<g>
</g>
<g>
</g>
</svg>
