<?xml version="1.0" encoding="iso-8859-1"?>
<!-- Generator: Adobe Illustrator 19.0.0, SVG Export Plug-In . SVG Version: 6.00 Build 0)  -->
<svg version="1.1" id="Layer_1" xmlns="http://www.w3.org/2000/svg" xmlns:xlink="http://www.w3.org/1999/xlink" x="0px" y="0px"
	 viewBox="0 0 485 485" style="enable-background:new 0 0 485 485;" xml:space="preserve">
<g>
	<path d="M413.974,71.027C368.171,25.225,307.274,0,242.5,0C177.726,0,116.829,25.225,71.027,71.027S0,177.726,0,242.5
		c0,46.517,13.117,91.428,38.005,130.373L0.944,484.055l111.184-37.06C151.071,471.883,195.982,485,242.5,485
		c64.773,0,125.671-25.225,171.474-71.026C459.775,368.171,485,307.274,485,242.5C485,177.726,459.775,116.829,413.974,71.027z
		 M242.5,455c-42.976,0-84.377-12.77-119.729-36.928l-6.146-4.2l-68.247,22.749l22.749-68.245l-4.199-6.146
		C42.77,326.877,30,285.475,30,242.5C30,125.327,125.327,30,242.5,30S455,125.327,455,242.5C455,359.673,359.673,455,242.5,455z"/>
	<rect x="125.238" y="192.5" width="234.562" height="30"/>
	<rect x="125.2" y="262.5" width="234.601" height="30"/>
</g>
<g>
</g>
<g>
</g>
<g>
</g>
<g>
</g>
<g>
</g>
<g>
</g>
<g>
</g>
<g>
</g>
<g>
</g>
<g>
</g>
<g>
</g>
<g>
</g>
<g>
</g>
<g>
</g>
<g>
</g>
</svg>
