<?xml version="1.0" encoding="iso-8859-1"?>
<!-- Generator: Adobe Illustrator 19.0.0, SVG Export Plug-In . SVG Version: 6.00 Build 0)  -->
<svg version="1.1" id="Layer_1" xmlns="http://www.w3.org/2000/svg" xmlns:xlink="http://www.w3.org/1999/xlink" x="0px" y="0px"
	 viewBox="0 0 489.057 489.057" style="enable-background:new 0 0 489.057 489.057;" xml:space="preserve">
<g>
	<path d="M461.171,404.385c16.939-27.268,25.857-58.525,25.857-90.87c0-84.919-61.681-155.696-142.592-169.899
		c-6.583-37.622-25.531-72.061-54.125-97.969C258.546,16.865,217.427,1.014,174.528,1.014c-95.117,0-172.5,77.383-172.5,172.5
		c0,32.346,8.918,63.603,25.857,90.87L0,348.042l83.662-27.887c18.624,11.547,39.402,19.45,60.963,23.242
		c14.192,80.923,84.975,142.617,169.903,142.617c32.347,0,63.604-8.918,90.871-25.857l83.657,27.885L461.171,404.385z
		 M88.097,287.054l-40.663,13.554l13.555-40.663l-4.199-6.146c-16.198-23.705-24.761-51.467-24.761-80.286
		c0-78.575,63.925-142.5,142.5-142.5c67.187,0,124.044,46.205,138.79,110.015c-94.147,0.652-170.606,77.101-171.274,171.245
		c-17.039-3.989-33.314-11.12-47.802-21.021L88.097,287.054z M441.623,440.609l-40.663-13.554l-6.146,4.199
		c-23.704,16.199-51.467,24.761-80.286,24.761c-78.575,0-142.5-63.925-142.5-142.5c0-78.575,63.925-142.5,142.5-142.5
		s142.5,63.925,142.5,142.5c0,28.818-8.563,56.581-24.761,80.286l-4.199,6.145L441.623,440.609z"/>
</g>
<g>
</g>
<g>
</g>
<g>
</g>
<g>
</g>
<g>
</g>
<g>
</g>
<g>
</g>
<g>
</g>
<g>
</g>
<g>
</g>
<g>
</g>
<g>
</g>
<g>
</g>
<g>
</g>
<g>
</g>
</svg>
