<svg id="Capa_1" enable-background="new 0 0 512 512" viewBox="0 0 512 512" xmlns="http://www.w3.org/2000/svg"><g><path d="m247.5 225h-210c-4.142 0-7.5 3.358-7.5 7.5v182c0 4.142 3.358 7.5 7.5 7.5h210c4.142 0 7.5-3.358 7.5-7.5v-182c0-4.142-3.358-7.5-7.5-7.5zm-7.5 15v45h-195v-45zm-195 167v-107h195v107z"/><path d="m217.5 315h-150c-4.142 0-7.5 3.358-7.5 7.5v30c0 4.142 3.358 7.5 7.5 7.5h150c4.142 0 7.5-3.358 7.5-7.5v-30c0-4.142-3.358-7.5-7.5-7.5zm-7.5 30h-135v-15h135z"/><path d="m240 135.544v-15.544h7.5c4.142 0 7.5-3.358 7.5-7.5v-105c0-4.142-3.358-7.5-7.5-7.5h-210c-4.142 0-7.5 3.358-7.5 7.5v105c0 4.142 3.358 7.5 7.5 7.5h7.5v15.534c-25.409 3.65-45 25.563-45 51.966v272c0 28.949 23.551 52.5 52.5 52.5h180c28.948 0 52.5-23.551 52.5-52.5v-272c0-26.402-19.593-48.304-45-51.956zm-195-30.544v-15h195v15zm150-30v-60h15v60zm-15 0h-15v-60h15zm-30 0h-15v-60h15zm-30 0h-15v-60h15zm-30 0h-15v-60h15zm150 0h-15v-60h15zm-180-60v60h-15v-60zm210 444.5c0 20.678-16.822 37.5-37.5 37.5h-180c-20.678 0-37.5-16.822-37.5-37.5v-272c0-20.678 16.822-37.5 37.5-37.5 4.142 0 7.5-3.358 7.5-7.5v-22.5h165v15h-142.5c-4.142 0-7.5 3.358-7.5 7.5s3.358 7.5 7.5 7.5h150c20.678 0 37.5 16.822 37.5 37.5z"/><path d="m509.987 287.387c-1.419-1.522-3.406-2.387-5.487-2.387h-197c-2.081 0-4.068.865-5.487 2.387s-2.141 3.566-1.994 5.642l13.027 184.117c1.383 19.544 17.813 34.854 37.406 34.854h111.096c19.593 0 36.023-15.31 37.406-34.854l13.027-184.117c.147-2.075-.575-4.119-1.994-5.642zm-25.996 188.701c-.829 11.726-10.687 20.912-22.443 20.912h-111.096c-11.756 0-21.614-9.186-22.443-20.912l-12.459-176.088h180.9z"/><path d="m342.971 475.029c.278 3.927 3.545 6.971 7.481 6.971h111.096c3.937 0 7.203-3.044 7.481-6.971l8.632-122c.146-2.076-.575-4.12-1.994-5.642s-3.406-2.387-5.487-2.387h-128.36c-2.081 0-4.068.865-5.487 2.387s-2.141 3.566-1.994 5.642zm119.159-115.029-7.57 107h-97.12l-7.57-107z"/></g></svg>