<svg id="_x31__x2C_5" enable-background="new 0 0 24 24" viewBox="0 0 24 24" xmlns="http://www.w3.org/2000/svg"><g><path d="m16.25 13h-2.5c-.414 0-.75-.336-.75-.75s.336-.75.75-.75h1.75v-1.75c0-.414.336-.75.75-.75s.75.336.75.75v2.5c0 .414-.336.75-.75.75z"/></g><g><path d="m7.861 13.67c-.062 0-.123-.007-.185-.022-.401-.102-.646-.51-.544-.911.557-2.201 2.538-3.737 4.818-3.737 1.136 0 2.235.387 3.095 1.089.623.482 1.122 1.135 1.429 1.874.158.382-.023.821-.406.979-.381.159-.82-.023-.98-.406-.206-.498-.544-.939-.976-1.274-.608-.496-1.37-.763-2.161-.763-1.593 0-2.976 1.071-3.362 2.604-.087.34-.393.567-.728.567z"/></g><g><path d="m12.05 19c-1.136 0-2.235-.387-3.095-1.089-.623-.482-1.122-1.135-1.429-1.874-.158-.383.023-.821.406-.98.382-.153.821.023.98.406.206.499.544.939.976 1.274.608.496 1.37.763 2.161.763 1.593 0 2.976-1.07 3.362-2.604.102-.402.517-.645.911-.544.401.102.646.51.544.911-.555 2.201-2.536 3.737-4.816 3.737z"/></g><g><path d="m7.75 19c-.414 0-.75-.336-.75-.75v-2.5c0-.414.336-.75.75-.75h2.5c.414 0 .75.336.75.75s-.336.75-.75.75h-1.75v1.75c0 .414-.336.75-.75.75z"/></g><g><path d="m21.25 23h-18.5c-1.517 0-2.75-1.233-2.75-2.75v-16.5c0-1.517 1.233-2.75 2.75-2.75h18.5c1.517 0 2.75 1.233 2.75 2.75v16.5c0 1.517-1.233 2.75-2.75 2.75zm-18.5-20.5c-.689 0-1.25.561-1.25 1.25v16.5c0 .689.561 1.25 1.25 1.25h18.5c.689 0 1.25-.561 1.25-1.25v-16.5c0-.689-.561-1.25-1.25-1.25z"/></g><g><path d="m23.25 6h-22.5c-.414 0-.75-.336-.75-.75s.336-.75.75-.75h22.5c.414 0 .75.336.75.75s-.336.75-.75.75z"/></g></svg>