<svg id="Layer_3" enable-background="new 0 0 64 64" viewBox="0 0 64 64" xmlns="http://www.w3.org/2000/svg"><g><path d="m57.93 30.074c.047.633.07 1.28.07 1.926h2c0-.694-.025-1.392-.076-2.074z"/><path d="m32 1c-7.946 0-15.436 2.969-21.202 8.384l-1.091-1.091c-.27-.27-.672-.364-1.031-.239-.362.124-.621.443-.668.822l-1 8c-.042.333.087.665.342.883.255.219.605.295.925.202l7-2c.341-.097.604-.368.693-.71.089-.343-.01-.708-.261-.958l-1.371-1.372c4.819-4.47 11.054-6.921 17.664-6.921 12.785 0 23.841 9.521 25.717 22.147l1.979-.294c-2.021-13.599-13.927-23.853-27.696-23.853-7.479 0-14.511 2.913-19.799 8.201-.391.391-.391 1.023 0 1.414l.89.89-3.911 1.118.559-4.471.342.341c.391.391 1.023.391 1.414 0 5.477-5.476 12.759-8.493 20.505-8.493 15.99 0 29 13.009 29 29h2c0-17.093-13.906-31-31-31z"/><path d="m55.726 46.039-7 2c-.341.097-.604.368-.693.71-.089.343.01.708.261.958l1.371 1.372c-4.82 4.47-11.055 6.921-17.665 6.921-12.785 0-23.841-9.521-25.717-22.147l-1.979.294c2.021 13.599 13.927 23.853 27.696 23.853 7.479 0 14.511-2.913 19.799-8.201.391-.391.391-1.023 0-1.414l-.89-.89 3.911-1.118-.559 4.471-.342-.341c-.391-.391-1.023-.391-1.414 0-5.477 5.476-12.759 8.493-20.505 8.493-15.99 0-29-13.009-29-29h-2c0 17.093 13.906 31 31 31 7.946 0 15.436-2.969 21.202-8.384l1.091 1.091c.27.27.672.363 1.031.239.361-.124.621-.443.668-.822l1-8c.042-.333-.087-.665-.342-.883-.255-.219-.604-.294-.924-.202z"/><path d="m6.07 33.926c-.047-.633-.07-1.28-.07-1.926h-2c0 .694.025 1.392.076 2.074z"/><path d="m11 34v10c0 .552.447 1 1 1h40c.553 0 1-.448 1-1v-10c0-.552-.447-1-1-1h-40c-.553 0-1 .448-1 1zm2 1h38v8h-38z"/><path d="m14 36h2v6h-2z"/><path d="m17 36h2v6h-2z"/><path d="m20 36h2v6h-2z"/><path d="m23 36h2v6h-2z"/><path d="m26 36h2v6h-2z"/><path d="m29 36h2v6h-2z"/><path d="m32 36h2v6h-2z"/><path d="m35 36h2v6h-2z"/><path d="m16 17c-.553 0-1 .448-1 1v4c0 .552.447 1 1 1h1.466c.176.558.4 1.099.673 1.619l-1.038 1.038c-.391.391-.391 1.023 0 1.414l2.828 2.829c.188.188.441.293.707.293s.52-.105.707-.293l1.038-1.038c.52.272 1.062.497 1.619.672v1.466c0 .552.447 1 1 1h4c.553 0 1-.448 1-1v-1.466c.558-.176 1.1-.4 1.619-.672l1.038 1.038c.375.375 1.039.375 1.414 0l2.828-2.829c.391-.391.391-1.023 0-1.414l-1.038-1.038c.272-.52.497-1.061.673-1.619h1.466c.553 0 1-.448 1-1v-4c0-.552-.447-1-1-1h-1.466c-.176-.558-.4-1.099-.673-1.619l1.038-1.038c.391-.391.391-1.023 0-1.414l-2.828-2.829c-.188-.188-.441-.293-.707-.293s-.52.105-.707.293l-1.038 1.038c-.52-.272-1.062-.497-1.619-.672v-1.466c0-.552-.447-1-1-1h-4c-.553 0-1 .448-1 1v1.466c-.558.176-1.1.4-1.619.672l-1.038-1.038c-.375-.375-1.039-.375-1.414 0l-2.828 2.829c-.391.391-.391 1.023 0 1.414l1.038 1.038c-.272.52-.497 1.061-.673 1.619zm2.23 2c.467 0 .871-.323.975-.778.2-.876.546-1.709 1.027-2.474.249-.395.191-.91-.139-1.24l-.872-.872 1.414-1.415.872.872c.331.331.846.388 1.24.139.766-.482 1.598-.828 2.474-1.027.456-.103.779-.508.779-.975v-1.23h2v1.23c0 .467.323.872.778.975.876.199 1.708.545 2.474 1.027.394.249.909.191 1.24-.139l.872-.872 1.414 1.415-.872.872c-.33.33-.388.845-.139 1.24.481.765.827 1.597 1.027 2.474.104.455.509.778.976.778h1.23v2h-1.23c-.467 0-.871.323-.975.778-.2.876-.546 1.709-1.027 2.474-.249.395-.191.91.139 1.24l.872.872-1.414 1.415-.872-.872c-.331-.33-.847-.388-1.24-.139-.766.482-1.598.828-2.474 1.027-.456.103-.779.508-.779.975v1.23h-2v-1.23c0-.467-.323-.872-.778-.975-.876-.199-1.708-.545-2.474-1.027-.395-.249-.909-.191-1.24.139l-.872.872-1.414-1.415.872-.872c.33-.33.388-.845.139-1.24-.481-.765-.827-1.597-1.027-2.474-.104-.455-.509-.778-.976-.778h-1.23v-2z"/><path d="m27 27c3.859 0 7-3.14 7-7s-3.141-7-7-7-7 3.14-7 7 3.141 7 7 7zm0-12c2.757 0 5 2.243 5 5s-2.243 5-5 5-5-2.243-5-5 2.243-5 5-5z"/><path d="m39 23v2h1.08c.17 1.183.636 2.269 1.322 3.184l-.766.766 1.414 1.414.766-.766c.915.686 2.001 1.151 3.184 1.322v1.08h2v-1.08c1.183-.17 2.269-.636 3.184-1.322l.766.766 1.414-1.414-.766-.766c.686-.915 1.151-2.001 1.322-3.184h1.08v-2h-1.08c-.17-1.183-.636-2.269-1.322-3.184l.766-.766-1.414-1.414-.766.766c-.915-.686-2.001-1.152-3.184-1.322v-1.08h-2v1.08c-1.183.17-2.269.636-3.184 1.322l-.766-.766-1.414 1.414.766.766c-.686.915-1.152 2.001-1.322 3.184zm3 1c0-2.757 2.243-5 5-5s5 2.243 5 5-2.243 5-5 5-5-2.243-5-5z"/><path d="m47 28c2.206 0 4-1.794 4-4s-1.794-4-4-4-4 1.794-4 4 1.794 4 4 4zm0-6c1.103 0 2 .897 2 2s-.897 2-2 2-2-.897-2-2 .897-2 2-2z"/></g></svg>