<svg enable-background="new 0 0 36 60" viewBox="0 0 36 60" xmlns="http://www.w3.org/2000/svg"><path d="m30 14h-16c-.552 0-1-.448-1-1s.448-1 1-1h16c.552 0 1 .448 1 1s-.448 1-1 1z"/><path d="m35 18h-34c-.552 0-1-.448-1-1v-8c0-.552.448-1 1-1h34c.552 0 1 .448 1 1v8c0 .552-.448 1-1 1zm-33-2h32v-6h-32z"/><path d="m9 18h-8c-.552 0-1-.448-1-1v-8c0-.552.448-1 1-1h8c.552 0 1 .448 1 1v8c0 .552-.448 1-1 1zm-7-2h6v-6h-6z"/><path d="m30 22h-16c-.552 0-1-.448-1-1s.448-1 1-1h16c.552 0 1 .448 1 1s-.448 1-1 1z"/><path d="m35 26h-34c-.552 0-1-.448-1-1v-8c0-.552.448-1 1-1h34c.552 0 1 .448 1 1v8c0 .552-.448 1-1 1zm-33-2h32v-6h-32z"/><path d="m9 26h-8c-.552 0-1-.448-1-1v-8c0-.552.448-1 1-1h8c.552 0 1 .448 1 1v8c0 .552-.448 1-1 1zm-7-2h6v-6h-6z"/><path d="m30 30h-16c-.552 0-1-.448-1-1s.448-1 1-1h16c.552 0 1 .448 1 1s-.448 1-1 1z"/><path d="m35 34h-34c-.552 0-1-.448-1-1v-8c0-.552.448-1 1-1h34c.552 0 1 .448 1 1v8c0 .552-.448 1-1 1zm-33-2h32v-6h-32z"/><path d="m9 34h-8c-.552 0-1-.448-1-1v-8c0-.552.448-1 1-1h8c.552 0 1 .448 1 1v8c0 .552-.448 1-1 1zm-7-2h6v-6h-6z"/><path d="m30 38h-16c-.552 0-1-.448-1-1s.448-1 1-1h16c.552 0 1 .448 1 1s-.448 1-1 1z"/><path d="m35 42h-34c-.552 0-1-.448-1-1v-8c0-.552.448-1 1-1h34c.552 0 1 .448 1 1v8c0 .552-.448 1-1 1zm-33-2h32v-6h-32z"/><path d="m9 42h-8c-.552 0-1-.448-1-1v-8c0-.552.448-1 1-1h8c.552 0 1 .448 1 1v8c0 .552-.448 1-1 1zm-7-2h6v-6h-6z"/><path d="m21 6h-6c-.552 0-1-.448-1-1s.448-1 1-1h6c.552 0 1 .448 1 1s-.448 1-1 1z"/><path d="m33.002 60h-30.004c-1.653 0-2.998-1.345-2.998-2.998v-10.002c0-.552.448-1 1-1h34c.552 0 1 .448 1 1v10.002c0 1.653-1.345 2.998-2.998 2.998zm-31.002-12v9.002c0 .551.447.998.998.998h30.005c.55 0 .997-.447.997-.998v-9.002z"/><path d="m18 57c-2.206 0-4-1.794-4-4s1.794-4 4-4 4 1.794 4 4-1.794 4-4 4zm0-6c-1.103 0-2 .897-2 2s.897 2 2 2 2-.897 2-2-.897-2-2-2z"/><path d="m33.002 60h-30.004c-1.653 0-2.998-1.345-2.998-2.998v-54.001c0-1.654 1.347-3.001 3.001-3.001h29.997c1.655 0 3.002 1.347 3.002 3.001v54.001c0 1.653-1.345 2.998-2.998 2.998zm-30.001-58c-.552 0-1.001.449-1.001 1.001v54.001c0 .551.447.998.998.998h30.005c.55 0 .997-.447.997-.998v-54.001c0-.552-.449-1.001-1.001-1.001z"/></svg>