<svg id="Capa_1" enable-background="new 0 0 344 344" viewBox="0 0 344 344" xmlns="http://www.w3.org/2000/svg"><path d="m270.286 335.056v-52.485h-24.571-147.429-24.572v52.485c0 4.933 4.011 8.944 8.944 8.944h178.69c4.92 0 8.938-4.011 8.938-8.944zm-98.286 2.801c-13.551 0-24.571-11.02-24.571-24.571s11.02-24.571 24.571-24.571 24.571 11.02 24.571 24.571-11.026 24.571-24.571 24.571z"/><circle cx="172" cy="313.286" r="12.286"/><path d="m122.857 135.143h147.429v-36.857h-147.429zm24.572-24.572h98.286c3.391 0 6.143 2.752 6.143 6.143s-2.752 6.143-6.143 6.143h-98.286c-3.391 0-6.143-2.752-6.143-6.143s2.752-6.143 6.143-6.143z"/><path d="m270.286 86v-36.857h-147.429v36.857zm-122.857-24.571h98.286c3.391 0 6.143 2.752 6.143 6.143s-2.752 6.143-6.143 6.143h-98.286c-3.391 0-6.143-2.752-6.143-6.143s2.752-6.143 6.143-6.143z"/><path d="m73.714 98.286h36.857v36.857h-36.857z"/><path d="m122.857 233.429h147.429v-36.857h-147.429zm24.572-24.572h98.286c3.391 0 6.143 2.752 6.143 6.143s-2.752 6.143-6.143 6.143h-98.286c-3.391 0-6.143-2.752-6.143-6.143s2.752-6.143 6.143-6.143z"/><path d="m73.714 49.143h36.857v36.857h-36.857z"/><path d="m73.714 147.429h36.857v36.857h-36.857z"/><path d="m73.714 196.571h36.857v36.857h-36.857z"/><path d="m116.714 245.714h-43v24.572h18.429 159.714 18.429v-24.572z"/><path d="m270.286 147.429h-147.429v36.857h147.429zm-24.572 24.571h-98.286c-3.391 0-6.143-2.752-6.143-6.143s2.752-6.143 6.143-6.143h98.286c3.391 0 6.143 2.752 6.143 6.143s-2.752 6.143-6.143 6.143z"/><path d="m116.714 36.857h153.571v-30.708c0-3.391-2.758-6.149-6.155-6.149h-184.267c-3.391 0-6.149 2.758-6.149 6.149v30.708zm36.857-24.571h36.857c3.391 0 6.143 2.752 6.143 6.143s-2.752 6.143-6.143 6.143h-36.857c-3.391 0-6.143-2.752-6.143-6.143s2.753-6.143 6.143-6.143z"/></svg>