<svg viewBox="-6 0 483 483.69552" xmlns="http://www.w3.org/2000/svg"><path d="m390.515625 295.949219c0 4.417969 3.582031 8 8 8s8-3.582031 8-8v-23.523438c0-4.417969-3.902344-7.578125-8.320313-7.578125h-153.679687v-33.945312l17.410156 17.398437c3.121094 3.125 8.1875 3.128907 11.316407.003907 3.125-3.125 3.125-8.191407 0-11.316407l-30-30c-3.121094-3.125-8.1875-3.125-11.3125 0l-30 30c-2.113282 2-2.972657 4.988281-2.246094 7.804688.726562 2.820312 2.925781 5.019531 5.742187 5.75 2.816407.730469 5.808594-.128907 7.808594-2.242188l15.28125-15.285156v31.832031h-153.652344c-4.417969 0-8.347656 3.160156-8.347656 7.578125v23.523438c0 4.417969 3.582031 8 8 8s8-3.582031 8-8v-15.101563h146v11.542969c0 4.417969 3.582031 8 8 8s8-3.582031 8-8v-11.542969h146zm0 0"/><path d="m108.515625 343.847656c0-19.882812-16.121094-36-36-36h-2c-19.882813 0-36 16.117188-36 36v13c0 19.882813 16.117187 36 36 36h2c19.878906 0 36-16.117187 36-36zm-16 13c0 11.046875-8.957031 20-20 20h-2c-11.046875 0-20-8.953125-20-20v-13c0-11.046875 8.953125-20 20-20h2c11.042969 0 20 8.953125 20 20zm0 0"/><path d="m2.742188 481.351562c1.476562 1.5 3.496093 2.34375 5.601562 2.34375l127.242188-.015624c2.113281-.003907 4.136718-.847657 5.625-2.351563 1.492187-1.5 2.320312-3.535156 2.304687-5.648437v-36.714844c.960937-10.585938-2.589844-21.089844-9.78125-28.921875-7.191406-7.828125-17.355469-12.257813-27.984375-12.195313h-7.292969c-1.90625-.050781-3.769531.589844-5.238281 1.808594l-21.183594 18.292969-20.332031-18.160157c-1.476563-1.289062-3.382813-1.980468-5.34375-1.941406h-8.222656c-10.617188-.058594-20.765625 4.378906-27.933594 12.210938-7.167969 7.835937-10.6875 18.335937-9.6875 28.90625v36.730468c-.042969 2.109376.757813 4.144532 2.226563 5.65625zm19.066406-60.398437c4.167968-4.605469 10.117187-7.195313 16.328125-7.105469h5.15625l23.300781 20.789063c.804688.699219 1.746094 1.226562 2.761719 1.546875 2.671875.957031 5.652343.417968 7.824219-1.414063l24.261718-20.921875h4.308594c6.199219-.074218 12.136719 2.507813 16.308594 7.09375 4.175781 4.585938 6.191406 10.738282 5.535156 16.90625-.039062.242188-.066406.488282-.078125.734375v29.101563l-111 .011718v-29.113281c-.039063-.246093-.09375-.492187-.15625-.734375-.703125-6.152344 1.285156-12.308594 5.453125-16.894531zm0 0"/><path d="m274.515625 343.847656c0-19.882812-16.121094-36-36-36h-2c-19.882813 0-36 16.117188-36 36v13c0 19.882813 16.117187 36 36 36h2c19.878906 0 36-16.117187 36-36zm-16 13c0 11.046875-8.957031 20-20 20h-2c-11.046875 0-20-8.953125-20-20v-13c0-11.046875 8.953125-20 20-20h2c11.042969 0 20 8.953125 20 20zm0 0"/><path d="m168.933594 481.351562c1.515625 1.503907 3.566406 2.34375 5.699218 2.34375l127.101563-.015624c2.097656-.007813 4.105469-.859376 5.570313-2.367188 1.464843-1.503906 2.261718-3.53125 2.214843-5.632812v-36.714844c1.050781-10.542969-2.417969-21.039063-9.546875-28.875-7.125-7.839844-17.246094-12.289063-27.839844-12.242188h-7.289062c-1.910156-.054687-3.773438.589844-5.242188 1.808594l-21.1875 18.292969-20.328124-18.160157c-1.480469-1.285156-3.386719-1.976562-5.347657-1.9375h-8.222656c-10.75-.046874-21.019531 4.449219-28.277344 12.378907-7.132812 7.785156-10.664062 18.214843-9.722656 28.734375v36.730468c.027344 2.132813.898437 4.164063 2.417969 5.65625zm19.257812-60.398437c4.167969-4.605469 10.117188-7.191406 16.328125-7.105469h5.15625l23.300781 20.789063c.804688.699219 1.746094 1.226562 2.761719 1.546875 2.671875.957031 5.652344.417968 7.824219-1.414063l24.261719-20.921875h4.308593c6.195313-.109375 12.136719 2.46875 16.289063 7.070313 4.152344 4.601562 6.109375 10.777343 5.363281 16.929687-.023437.269532-.269531.464844-.269531.734375v29.101563l-111 .011718v-29.113281c.023437-.242187.035156-.488281.035156-.734375-.632812-6.179687 1.421875-12.332031 5.640625-16.894531zm0 0"/><path d="m437.515625 343.847656c0-19.882812-16.121094-36-36-36h-2c-19.882813 0-36 16.117188-36 36v13c0 19.882813 16.117187 36 36 36h2c19.878906 0 36-16.117187 36-36zm-16 13c0 11.046875-8.957031 20-20 20h-2c-11.046875 0-20-8.953125-20-20v-13c0-11.046875 8.953125-20 20-20h2c11.042969 0 20 8.953125 20 20zm0 0"/><path d="m331.8125 481.351562c1.492188 1.5 3.523438 2.34375 5.636719 2.34375l127.1875-.015624c2.109375-.003907 4.128906-.851563 5.605469-2.355469 1.480468-1.503907 2.296874-3.535157 2.269531-5.644531v-36.714844c.996093-10.570313-2.523438-21.066406-9.6875-28.902344-7.164063-7.832031-17.308594-12.269531-27.925781-12.214844h-7.292969c-1.90625-.054687-3.769531.589844-5.238281 1.808594l-21.183594 18.292969-20.328125-18.160157c-1.480469-1.289062-3.386719-1.980468-5.347657-1.941406h-8.222656c-10.632812-.0625-20.796875 4.363282-27.988281 12.195313-7.195313 7.828125-10.746094 18.332031-9.78125 28.921875v36.730468c-.019531 2.117188.808594 4.152344 2.296875 5.65625zm19.140625-60.398437c4.171875-4.605469 10.121094-7.195313 16.332031-7.105469h5.15625l23.300782 20.789063c.800781.699219 1.742187 1.222656 2.753906 1.546875 2.675781.957031 5.660156.417968 7.832031-1.414063l24.265625-20.921875h4.304688c6.199218-.089844 12.136718 2.492188 16.304687 7.085938 4.164063 4.589844 6.15625 10.753906 5.46875 16.914062-.066406.242188-.121094.488282-.15625.734375v29.101563l-111 .011718v-29.113281c-.015625-.246093-.042969-.488281-.082031-.734375-.675782-6.164062 1.335937-12.320312 5.523437-16.894531zm0 0"/><path d="m238.96875.386719c-1.59375-.515625-3.3125-.515625-4.910156 0l-92.070313 29.714843c-3.289062 1.074219-5.503906 4.152344-5.472656 7.613282v125.761718c-.03125 3.460938 2.183594 6.542969 5.472656 7.617188l92.101563 29.714844c1.585937.511718 3.296875.511718 4.882812 0l92.066406-29.714844c3.289063-1.074219 5.503907-4.15625 5.472657-7.617188v-125.761718c.027343-3.460938-2.1875-6.539063-5.476563-7.613282zm-2.453125 16.019531 66.074219 21.308594-66.074219 21.308594-66.078125-21.308594zm-84 32.300781 75 24.230469v108.949219l-75-24.234375zm91 133.828125v-108.957031l77-24.878906v108.953125zm0 0"/></svg>