<svg id="Capa_1" enable-background="new 0 0 512 512" viewBox="0 0 512 512" xmlns="http://www.w3.org/2000/svg"><g><path d="m384 63c35.841 0 65 29.159 65 65 0 8.284 6.716 15 15 15s15-6.716 15-15c0-52.383-42.617-95-95-95-8.284 0-15 6.716-15 15s6.716 15 15 15z"/><path d="m128 449c-35.841 0-65-29.159-65-65 0-8.284-6.716-15-15-15s-15 6.716-15 15c0 52.383 42.617 95 95 95 8.284 0 15-6.716 15-15s-6.716-15-15-15z"/><path d="m149.48 231-7.25 21.74c-2.09 6.29-7.95 10.26-14.23 10.26-10.193 0-17.474-10.007-14.23-19.74l48-144c2.04-6.13 7.77-10.26 14.23-10.26s12.19 4.13 14.23 10.26l24.59 73.78c37.821-28.244 83.558-42.232 129.98-40.44-19-76.08-87.92-132.6-169.8-132.6-96.5 0-175 78.5-175 175 0 81.88 56.52 150.8 132.6 169.8-1.526-39.522 8.378-79.054 29.52-113.8z"/><path d="m337.416 162.831c-96.42 0-174.584 78.164-174.584 174.584s78.163 174.585 174.584 174.585 174.584-78.164 174.584-174.584-78.164-174.585-174.584-174.585zm-55.596 241.329c-6.46 5.2-15.92 4.11-21.08-2.34-5.18-6.47-4.13-15.91 2.34-21.08 22.86-18.29 31.25-59.54 33.6-85.29h-24.23c-8.28 0-15-6.72-15-15s6.72-15 15-15h40c8.28 0 15 6.72 15 15 0 3.56-.52 87.62-45.63 123.71zm118.63-68.71h-17v73c0 8.28-6.72 15-15 15s-15-6.72-15-15v-144c0-8.28 6.72-15 15-15s15 6.72 15 15v41h17c8.28 0 15 6.72 15 15s-6.72 15-15 15z"/><path d="m159.48 201h33.04c-2.791-8.36.261.797-16.52-49.57z"/></g></svg>