<svg id="Capa_1" enable-background="new 0 0 512 512" viewBox="0 0 512 512" xmlns="http://www.w3.org/2000/svg"><g><path d="m496 0h-240c-8.284 0-15 6.716-15 15v147h-225c-8.284 0-15 6.716-15 15v320c0 6.067 3.654 11.537 9.26 13.858 1.855.769 3.805 1.142 5.737 1.142 3.903 0 7.74-1.524 10.609-4.394l55.607-55.606h173.787c8.284 0 15-6.716 15-15v-147h158.787l55.606 55.606c2.869 2.87 6.706 4.394 10.609 4.394 1.933 0 3.882-.374 5.737-1.142 5.605-2.322 9.26-7.792 9.26-13.858v-320c.001-8.284-6.715-15-14.999-15zm-255 422h-165c-3.979 0-7.794 1.581-10.606 4.394l-34.394 34.393v-268.787h210zm240-123.213-34.394-34.393c-2.812-2.813-6.627-4.394-10.606-4.394h-165v-230h210z"/><path d="m311 130h10.978c3.123 23.867 13.59 45.455 29.054 62.414-10.69 4.857-22.545 7.586-35.032 7.586-8.284 0-15 6.716-15 15s6.716 15 15 15c21.972 0 42.521-6.198 60-16.931 17.479 10.733 38.029 16.931 60 16.931 8.284 0 15-6.716 15-15s-6.716-15-15-15c-12.487 0-24.342-2.729-35.032-7.586 15.464-16.959 25.932-38.547 29.054-62.414h10.978c8.284 0 15-6.716 15-15s-6.716-15-15-15h-50v-25c0-8.284-6.716-15-15-15s-15 6.716-15 15v25h-50c-8.284 0-15 6.716-15 15s6.716 15 15 15zm65 45.148c-12.068-12.039-20.523-27.681-23.648-45.148h47.295c-3.124 17.467-11.579 33.11-23.647 45.148z"/><path d="m153.209 233.669c-.053-.138-.106-.276-.163-.413-2.815-6.84-9.41-11.256-16.806-11.256-.006 0-.014 0-.021 0-7.402.008-13.997 4.44-16.8 11.292-.047.113-.092.227-.135.34l-52.568 138.029c-2.948 7.742.938 16.408 8.679 19.356 7.746 2.95 16.408-.938 19.356-8.679l9.413-24.715h63.757l9.311 24.673c2.268 6.007 7.975 9.708 14.037 9.708 1.759 0 3.55-.312 5.293-.97 7.751-2.925 11.663-11.579 8.738-19.33zm-37.619 93.955 20.599-54.086 20.411 54.086z"/></g></svg>