<svg id="Capa_1" enable-background="new 0 0 512 512"  viewBox="0 0 512 512"  xmlns="http://www.w3.org/2000/svg"><g><path d="m488.468 88.178h-464.936c-12.975 0-23.532 10.556-23.532 23.532v288.58c0 12.976 10.557 23.532 23.532 23.532h464.936c12.976 0 23.532-10.556 23.532-23.532v-288.58c0-12.976-10.557-23.532-23.532-23.532zm-473.468 244.032h24.565c4.142 0 7.5-3.358 7.5-7.5 0-4.143-3.358-7.5-7.5-7.5h-24.565v-30.807h482v30.807h-425.375c-4.142 0-7.5 3.357-7.5 7.5 0 4.142 3.358 7.5 7.5 7.5h425.375v30.806h-482zm256.516-137.42h225.484v30.807h-225.484zm0 45.807h225.484v30.807h-225.484zm225.484-128.887v22.274h-16.548c-4.142 0-7.5 3.358-7.5 7.5s3.358 7.5 7.5 7.5h16.548v30.806h-225.484v-30.806h176.869c4.142 0 7.5-3.358 7.5-7.5s-3.358-7.5-7.5-7.5h-176.869v-30.806h216.952c4.704 0 8.532 3.827 8.532 8.532zm-473.468-8.532h232.984v168.226h-241.516v-159.694c0-4.705 3.828-8.532 8.532-8.532zm464.936 305.644h-464.936c-4.705 0-8.532-3.827-8.532-8.532v-22.274h482v22.274c0 4.705-3.828 8.532-8.532 8.532z"/><path d="m39.645 130.9c4.142 0 7.5-3.358 7.5-7.5s-3.358-7.5-7.5-7.5h-.08c-4.142 0-7.46 3.358-7.46 7.5s3.397 7.5 7.54 7.5z"/><path d="m39.645 195.029c4.142 0 7.5-3.358 7.5-7.5s-3.358-7.5-7.5-7.5h-.08c-4.142 0-7.46 3.358-7.46 7.5s3.397 7.5 7.54 7.5z"/><path d="m39.645 259.158c4.142 0 7.5-3.358 7.5-7.5 0-4.143-3.358-7.5-7.5-7.5h-.08c-4.142 0-7.46 3.357-7.46 7.5-.001 4.142 3.397 7.5 7.54 7.5z"/><path d="m39.645 162.964c4.142 0 7.5-3.358 7.5-7.5s-3.358-7.5-7.5-7.5h-.08c-4.142 0-7.46 3.358-7.46 7.5s3.397 7.5 7.54 7.5z"/><path d="m39.645 227.094c4.142 0 7.5-3.358 7.5-7.5 0-4.143-3.358-7.5-7.5-7.5h-.08c-4.142 0-7.46 3.357-7.46 7.5-.001 4.141 3.397 7.5 7.54 7.5z"/><path d="m232.032 130.9c4.142 0 7.5-3.358 7.5-7.5s-3.358-7.5-7.5-7.5h-.08c-4.142 0-7.46 3.358-7.46 7.5s3.398 7.5 7.54 7.5z"/><path d="m232.032 195.029c4.142 0 7.5-3.358 7.5-7.5s-3.358-7.5-7.5-7.5h-.08c-4.142 0-7.46 3.358-7.46 7.5s3.398 7.5 7.54 7.5z"/><path d="m232.032 259.158c4.142 0 7.5-3.358 7.5-7.5 0-4.143-3.358-7.5-7.5-7.5h-.08c-4.142 0-7.46 3.357-7.46 7.5 0 4.142 3.398 7.5 7.54 7.5z"/><path d="m232.032 162.964c4.142 0 7.5-3.358 7.5-7.5s-3.358-7.5-7.5-7.5h-.08c-4.142 0-7.46 3.358-7.46 7.5s3.398 7.5 7.54 7.5z"/><path d="m232.032 227.094c4.142 0 7.5-3.358 7.5-7.5 0-4.143-3.358-7.5-7.5-7.5h-.08c-4.142 0-7.46 3.357-7.46 7.5 0 4.141 3.398 7.5 7.54 7.5z"/><path d="m87.741 130.9c4.142 0 7.5-3.358 7.5-7.5s-3.358-7.5-7.5-7.5h-.08c-4.142 0-7.46 3.358-7.46 7.5s3.398 7.5 7.54 7.5z"/><path d="m87.741 195.029c4.142 0 7.5-3.358 7.5-7.5s-3.358-7.5-7.5-7.5h-.08c-4.142 0-7.46 3.358-7.46 7.5s3.398 7.5 7.54 7.5z"/><path d="m87.741 259.158c4.142 0 7.5-3.358 7.5-7.5 0-4.143-3.358-7.5-7.5-7.5h-.08c-4.142 0-7.46 3.357-7.46 7.5 0 4.142 3.398 7.5 7.54 7.5z"/><path d="m87.741 162.964c4.142 0 7.5-3.358 7.5-7.5s-3.358-7.5-7.5-7.5h-.08c-4.142 0-7.46 3.358-7.46 7.5s3.398 7.5 7.54 7.5z"/><path d="m87.741 227.094c4.142 0 7.5-3.358 7.5-7.5 0-4.143-3.358-7.5-7.5-7.5h-.08c-4.142 0-7.46 3.357-7.46 7.5 0 4.141 3.398 7.5 7.54 7.5z"/><path d="m63.693 146.932c4.142 0 7.5-3.358 7.5-7.5s-3.358-7.5-7.5-7.5h-.08c-4.142 0-7.46 3.358-7.46 7.5s3.398 7.5 7.54 7.5z"/><path d="m63.693 211.061c4.142 0 7.5-3.358 7.5-7.5s-3.358-7.5-7.5-7.5h-.08c-4.142 0-7.46 3.358-7.46 7.5s3.398 7.5 7.54 7.5z"/><path d="m63.693 178.997c4.142 0 7.5-3.358 7.5-7.5s-3.358-7.5-7.5-7.5h-.08c-4.142 0-7.46 3.358-7.46 7.5s3.398 7.5 7.54 7.5z"/><path d="m63.693 243.126c4.142 0 7.5-3.358 7.5-7.5 0-4.143-3.358-7.5-7.5-7.5h-.08c-4.142 0-7.46 3.357-7.46 7.5 0 4.142 3.398 7.5 7.54 7.5z"/><path d="m135.838 130.9c4.142 0 7.5-3.358 7.5-7.5s-3.358-7.5-7.5-7.5h-.08c-4.142 0-7.46 3.358-7.46 7.5s3.398 7.5 7.54 7.5z"/><path d="m135.838 195.029c4.142 0 7.5-3.358 7.5-7.5s-3.358-7.5-7.5-7.5h-.08c-4.142 0-7.46 3.358-7.46 7.5s3.398 7.5 7.54 7.5z"/><path d="m135.838 259.158c4.142 0 7.5-3.358 7.5-7.5 0-4.143-3.358-7.5-7.5-7.5h-.08c-4.142 0-7.46 3.357-7.46 7.5 0 4.142 3.398 7.5 7.54 7.5z"/><path d="m135.838 162.964c4.142 0 7.5-3.358 7.5-7.5s-3.358-7.5-7.5-7.5h-.08c-4.142 0-7.46 3.358-7.46 7.5s3.398 7.5 7.54 7.5z"/><path d="m135.838 227.094c4.142 0 7.5-3.358 7.5-7.5 0-4.143-3.358-7.5-7.5-7.5h-.08c-4.142 0-7.46 3.357-7.46 7.5 0 4.141 3.398 7.5 7.54 7.5z"/><path d="m111.79 146.932c4.142 0 7.5-3.358 7.5-7.5s-3.358-7.5-7.5-7.5h-.081c-4.142 0-7.459 3.358-7.459 7.5s3.398 7.5 7.54 7.5z"/><path d="m111.79 211.061c4.142 0 7.5-3.358 7.5-7.5s-3.358-7.5-7.5-7.5h-.081c-4.142 0-7.459 3.358-7.459 7.5s3.398 7.5 7.54 7.5z"/><path d="m111.79 178.997c4.142 0 7.5-3.358 7.5-7.5s-3.358-7.5-7.5-7.5h-.081c-4.142 0-7.459 3.358-7.459 7.5s3.398 7.5 7.54 7.5z"/><path d="m111.79 243.126c4.142 0 7.5-3.358 7.5-7.5 0-4.143-3.358-7.5-7.5-7.5h-.081c-4.142 0-7.459 3.357-7.459 7.5 0 4.142 3.398 7.5 7.54 7.5z"/><path d="m183.855 130.9c4.142 0 7.5-3.358 7.5-7.5s-3.358-7.5-7.5-7.5h-.08c-4.142 0-7.46 3.358-7.46 7.5s3.398 7.5 7.54 7.5z"/><path d="m183.855 195.029c4.142 0 7.5-3.358 7.5-7.5s-3.358-7.5-7.5-7.5h-.08c-4.142 0-7.46 3.358-7.46 7.5s3.398 7.5 7.54 7.5z"/><path d="m183.855 259.158c4.142 0 7.5-3.358 7.5-7.5 0-4.143-3.358-7.5-7.5-7.5h-.08c-4.142 0-7.46 3.357-7.46 7.5 0 4.142 3.398 7.5 7.54 7.5z"/><path d="m183.855 162.964c4.142 0 7.5-3.358 7.5-7.5s-3.358-7.5-7.5-7.5h-.08c-4.142 0-7.46 3.358-7.46 7.5s3.398 7.5 7.54 7.5z"/><path d="m183.855 227.094c4.142 0 7.5-3.358 7.5-7.5 0-4.143-3.358-7.5-7.5-7.5h-.08c-4.142 0-7.46 3.357-7.46 7.5 0 4.141 3.398 7.5 7.54 7.5z"/><path d="m159.807 146.932c4.142 0 7.5-3.358 7.5-7.5s-3.358-7.5-7.5-7.5h-.081c-4.142 0-7.459 3.358-7.459 7.5s3.398 7.5 7.54 7.5z"/><path d="m159.807 211.061c4.142 0 7.5-3.358 7.5-7.5s-3.358-7.5-7.5-7.5h-.081c-4.142 0-7.459 3.358-7.459 7.5s3.398 7.5 7.54 7.5z"/><path d="m159.807 178.997c4.142 0 7.5-3.358 7.5-7.5s-3.358-7.5-7.5-7.5h-.081c-4.142 0-7.459 3.358-7.459 7.5s3.398 7.5 7.54 7.5z"/><path d="m159.807 243.126c4.142 0 7.5-3.358 7.5-7.5 0-4.143-3.358-7.5-7.5-7.5h-.081c-4.142 0-7.459 3.357-7.459 7.5 0 4.142 3.398 7.5 7.54 7.5z"/><path d="m207.983 146.932c4.142 0 7.5-3.358 7.5-7.5s-3.358-7.5-7.5-7.5h-.08c-4.142 0-7.46 3.358-7.46 7.5s3.398 7.5 7.54 7.5z"/><path d="m207.983 211.061c4.142 0 7.5-3.358 7.5-7.5s-3.358-7.5-7.5-7.5h-.08c-4.142 0-7.46 3.358-7.46 7.5s3.398 7.5 7.54 7.5z"/><path d="m207.983 178.997c4.142 0 7.5-3.358 7.5-7.5s-3.358-7.5-7.5-7.5h-.08c-4.142 0-7.46 3.358-7.46 7.5s3.398 7.5 7.54 7.5z"/><path d="m207.983 243.126c4.142 0 7.5-3.358 7.5-7.5 0-4.143-3.358-7.5-7.5-7.5h-.08c-4.142 0-7.46 3.357-7.46 7.5 0 4.142 3.398 7.5 7.54 7.5z"/></g></svg>