<svg id="Out_line" viewBox="0 0 512 512" xmlns="http://www.w3.org/2000/svg" data-name="Out line"><path d="m312 16h-288a7.99977 7.99977 0 0 0 -8 8v367.66455a7.99977 7.99977 0 0 0 8 8h192v-16h-184v-287.66455h256v-16h-256v-48h272v239.66455h16v-247.66455a7.99977 7.99977 0 0 0 -8-8z"/><circle cx="56" cy="56" r="8"/><circle cx="88" cy="56" r="8"/><circle cx="120" cy="56" r="8"/><path d="m152 319.66455a71.82425 71.82425 0 0 0 35.89111-9.59717l-8.00488-13.85351a55.84875 55.84875 0 0 1 -83.71823-48.38187c0-1.45654.05981-2.90625.17053-4.348l10.00476 10.00476 11.31348-11.31348-24-24a8 8 0 0 0 -11.31348 0l-24 24 11.31348 11.31348 10.69772-10.69776c-.11621 1.67346-.18652 3.35339-.18652 5.041a71.91369 71.91369 0 0 0 71.83203 71.83255z"/><path d="m216 279.832a7.97507 7.97507 0 0 0 5.65674-2.34326l24-24-11.31348-11.31348-10.69775 10.69776c.11621-1.67347.18652-3.3534.18652-5.041a71.84826 71.84826 0 0 0 -107.84863-62.1621l8.0332 13.83692a55.84864 55.84864 0 0 1 83.8154 48.32516c0 1.45654-.05981 2.90625-.17053 4.348l-10.00476-10.00476-11.31348 11.31348 24 24a7.97507 7.97507 0 0 0 5.65677 2.34328z"/><path d="m272 112h16v159.665h-16z"/><path d="m240 431.66455h144a7.99977 7.99977 0 0 0 8-8v-128a7.99977 7.99977 0 0 0 -8-8h-144a7.99977 7.99977 0 0 0 -8 8v128a7.99977 7.99977 0 0 0 8 8zm136-16h-128v-48h128zm-128-112h128v48h-128z"/><path d="m264 383.665h16v16h-16z"/><path d="m296 383.665h16v16h-16z"/><path d="m328 383.665h32v16h-32z"/><path d="m264 319.665h16v16h-16z"/><path d="m296 319.665h16v16h-16z"/><path d="m328 319.665h32v16h-32z"/><path d="m487.62646 239.98633a23.98149 23.98149 0 0 0 -18.17138-8.32178h-133.45508v16h103.99658a7.99984 7.99984 0 0 1 7.91406 9.17236l-27.25927 183.99952a8.04776 8.04776 0 0 1 -7.91407 6.82812h-234.19238a7.99984 7.99984 0 0 1 -7.91357-9.17236l3.208-21.65528-15.82715-2.34472-3.208 21.65527a23.985 23.985 0 0 0 1.114 11.51709h-115.9182a24 24 0 0 0 0 48h400a23.98033 23.98033 0 0 0 18.85913-38.81714 23.8859 23.8859 0 0 0 7.07739-13.66577l27.25928-184a23.98249 23.98249 0 0 0 -5.56934-19.19531zm-455.62646 231.67822a8.00917 8.00917 0 0 1 8-8h177.3761a23.94217 23.94217 0 0 0 0 16h-177.3761a8.00917 8.00917 0 0 1 -8-8zm408 8h-200a8 8 0 1 1 0-16h200a8 8 0 0 1 0 16zm37.36865-222.82764-27.25927 184a8.04683 8.04683 0 0 1 -7.91358 6.82764h-6.84912a23.59835 23.59835 0 0 0 1.13184-4.48291l27.25927-184a23.98535 23.98535 0 0 0 -1.11425-11.51709h6.83154a7.99984 7.99984 0 0 1 7.91357 9.17236z"/></svg>