<svg id="Capa_1" enable-background="new 0 0 467.765 467.765" viewBox="0 0 467.765 467.765" xmlns="http://www.w3.org/2000/svg"><path d="m423.555 167.475c28.093-23.411 44.21-57.814 44.21-94.387 0-40.298-32.79-73.088-73.089-73.088-35.345 0-64.891 25.233-71.625 58.622h-67.337l-93.348 149.356-93.348-149.356h-68.952l127.824 204.519-127.89 204.624h68.952l93.414-149.463 93.414 149.463h68.952l-127.89-204.624 125.897-201.437c-.591 3.735-1.151 7.485-1.151 11.384v14.618h58.471v-14.618c0-8.065 6.552-14.618 14.618-14.618s14.618 6.552 14.618 14.618c0 19.171-8.451 37.201-23.168 49.477l-64.537 53.774v57.543l146.176-.029v-58.471l-53.703.014z"/></svg>