<?xml version="1.0" encoding="UTF-8"?>
<!DOCTYPE svg PUBLIC "-//W3C//DTD SVG 1.1//EN" "http://www.w3.org/Graphics/SVG/1.1/DTD/svg11.dtd">
<svg xmlns="http://www.w3.org/2000/svg" version="1.1" enable-background="new 0 0 508 508" viewBox="0 0 508 508" style="shape-rendering:geometricPrecision; text-rendering:geometricPrecision; image-rendering:optimizeQuality; fill-rule:evenodd; clip-rule:evenodd" xmlns:xlink="http://www.w3.org/1999/xlink">
<g><path style="opacity:0.982" fill="#000000" d="M 196.5,20.5 C 236.642,18.9719 261.475,37.6386 271,76.5C 273.948,109.78 260.448,133.614 230.5,148C 195.756,158.951 168.256,149.451 148,119.5C 133.071,87.5675 138.238,59.4008 163.5,35C 173.438,27.5291 184.438,22.6957 196.5,20.5 Z"/></g>
<g><path style="opacity:0.979" fill="#000000" d="M 404.5,81.5 C 432.688,81.6642 452.854,94.3308 465,119.5C 475.074,150.735 466.908,175.901 440.5,195C 422.031,204.878 403.031,206.045 383.5,198.5C 379.493,174.809 367.66,156.142 348,142.5C 350.445,106.921 369.278,86.5879 404.5,81.5 Z"/></g>
<g><path style="opacity:0.979" fill="#000000" d="M 95.5,142.5 C 125.2,141.254 146.367,153.921 159,180.5C 162.612,189.171 163.945,198.171 163,207.5C 147.869,220.137 138.369,236.137 134.5,255.5C 109.908,268.632 86.2411,267.132 63.5,251C 44.5066,233.348 38.0066,211.848 44,186.5C 52.7462,161.917 69.9128,147.25 95.5,142.5 Z"/></g>
<g><path style="opacity:0.979" fill="#000000" d="M 302.5,142.5 C 328.32,141.658 348.153,151.991 362,173.5C 373.316,197.154 371.649,219.82 357,241.5C 336.517,264.079 312.017,269.912 283.5,259C 280.841,243.004 274.341,228.837 264,216.5C 258.299,211.628 252.799,206.628 247.5,201.5C 249.779,176.06 262.445,157.893 285.5,147C 291.175,145 296.842,143.5 302.5,142.5 Z"/></g>
<g><path style="opacity:0.962" fill="#000000" d="M 165.5,156.5 C 192.169,156.333 218.835,156.5 245.5,157C 247.577,157.192 249.577,157.692 251.5,158.5C 243.545,170.365 238.545,183.365 236.5,197.5C 215.385,188.747 194.718,189.747 174.5,200.5C 173.431,192.751 171.931,185.084 170,177.5C 167.057,170.618 163.89,163.951 160.5,157.5C 162.415,157.784 164.081,157.451 165.5,156.5 Z"/></g>
<g><path style="opacity:0.982" fill="#000000" d="M 198.5,205.5 C 229.225,202.775 251.392,215.108 265,242.5C 274.947,271.218 268.447,295.384 245.5,315C 222.211,330.231 198.545,330.898 174.5,317C 150.086,297.753 142.586,273.253 152,243.5C 161.087,222.887 176.587,210.22 198.5,205.5 Z"/></g>
<g><path style="opacity:0.983" fill="#000000" d="M 511.5,272.5 C 511.5,297.833 511.5,323.167 511.5,348.5C 484.066,360.188 455.399,366.521 425.5,367.5C 430.209,323.762 414.209,290.262 377.5,267C 371.47,264.316 365.47,261.65 359.5,259C 374.121,244.587 381.788,227.087 382.5,206.5C 403.861,206.124 425.195,206.624 446.5,208C 481.999,215.666 503.665,237.166 511.5,272.5 Z"/></g>
<g><path style="opacity:0.984" fill="#000000" d="M -0.5,410.5 C -0.5,384.833 -0.5,359.167 -0.5,333.5C 8.36857,295.135 32.3686,273.302 71.5,268C 92.4974,267.5 113.497,267.333 134.5,267.5C 135.22,288.101 142.887,305.601 157.5,320C 122.6,332.234 101.1,356.4 93,392.5C 91.699,404.127 91.199,415.794 91.5,427.5C 60.1568,425.431 29.4901,419.765 -0.5,410.5 Z"/></g>
<g><path style="opacity:0.981" fill="#000000" d="M 282.5,267.5 C 304.53,267.106 326.53,267.606 348.5,269C 375.368,274.544 394.535,289.711 406,314.5C 409.4,322.5 411.4,330.833 412,339.5C 412.667,362.5 412.667,385.5 412,408.5C 392.541,417.825 372.041,423.658 350.5,426C 342.198,427.053 333.865,427.553 325.5,427.5C 329.852,375.495 308.185,339.495 260.5,319.5C 274.969,305.224 282.302,287.891 282.5,267.5 Z"/></g>
<g><path style="opacity:0.989" fill="#000000" d="M 171.5,330.5 C 282.385,313.719 329.052,360.719 311.5,471.5C 281.116,484.871 249.282,491.204 216,490.5C 178.539,490.284 142.039,484.284 106.5,472.5C 105.334,447.173 105.167,421.84 106,396.5C 113.341,359.993 135.174,337.993 171.5,330.5 Z"/></g>
</svg>
