<?xml version="1.0" encoding="iso-8859-1"?>
<!-- Generator: Adobe Illustrator 19.0.0, SVG Export Plug-In . SVG Version: 6.00 Build 0)  -->
<svg version="1.1" id="Capa_1" xmlns="http://www.w3.org/2000/svg" xmlns:xlink="http://www.w3.org/1999/xlink" x="0px" y="0px"
	 viewBox="0 0 480 480" style="enable-background:new 0 0 480 480;" xml:space="preserve">
<g>
	<g>
		<rect x="48" y="176" width="32" height="16"/>
	</g>
</g>
<g>
	<g>
		<rect x="96" y="176" width="32" height="16"/>
	</g>
</g>
<g>
	<g>
		<rect x="144" y="176" width="32" height="16"/>
	</g>
</g>
<g>
	<g>
		<rect x="192" y="176" width="32" height="16"/>
	</g>
</g>
<g>
	<g>
		<rect x="240" y="176" width="32" height="16"/>
	</g>
</g>
<g>
	<g>
		<rect x="288" y="176" width="32" height="16"/>
	</g>
</g>
<g>
	<g>
		<rect x="336" y="176" width="32" height="16"/>
	</g>
</g>
<g>
	<g>
		<rect x="384" y="176" width="32" height="16"/>
	</g>
</g>
<g>
	<g>
		<rect x="48" y="432" width="32" height="16"/>
	</g>
</g>
<g>
	<g>
		<rect x="96" y="432" width="32" height="16"/>
	</g>
</g>
<g>
	<g>
		<rect x="144" y="432" width="32" height="16"/>
	</g>
</g>
<g>
	<g>
		<rect x="192" y="432" width="32" height="16"/>
	</g>
</g>
<g>
	<g>
		<rect x="240" y="432" width="32" height="16"/>
	</g>
</g>
<g>
	<g>
		<rect x="288" y="432" width="32" height="16"/>
	</g>
</g>
<g>
	<g>
		<rect x="336" y="432" width="32" height="16"/>
	</g>
</g>
<g>
	<g>
		<rect x="384" y="432" width="32" height="16"/>
	</g>
</g>
<g>
	<g>
		<rect x="432" y="176" width="16" height="32"/>
	</g>
</g>
<g>
	<g>
		<rect x="432" y="224" width="16" height="32"/>
	</g>
</g>
<g>
	<g>
		<rect x="432" y="272" width="16" height="32"/>
	</g>
</g>
<g>
	<g>
		<rect x="432" y="320" width="16" height="32"/>
	</g>
</g>
<g>
	<g>
		<rect x="432" y="368" width="16" height="32"/>
	</g>
</g>
<g>
	<g>
		<rect x="432" y="416" width="16" height="32"/>
	</g>
</g>
<g>
	<g>
		<path d="M240,208c-57.438,0-104,46.562-104,104c0.066,57.41,46.59,103.934,104,104c57.438,0,104-46.562,104-104
			S297.438,208,240,208z M240,400c-48.601,0-88-39.399-88-88c0.057-48.577,39.423-87.943,88-88c48.601,0,88,39.399,88,88
			C328,360.601,288.601,400,240,400z"/>
	</g>
</g>
<g>
	<g>
		<path d="M416,64V0H128v32H96v32H48C21.501,64.026,0.026,85.501,0,112v320c0.026,26.499,21.501,47.974,48,48h432V64H416z M144,16
			h256v128h-16V32H144V16z M112,48h256v96H112V48z M48,80h48v64H48c-17.673,0-32-14.327-32-32S30.327,80,48,80z M464,464H48
			c-17.673,0-32-14.327-32-32V147.752c0.144,0.12,0.312,0.216,0.456,0.336c1.87,1.636,3.862,3.125,5.96,4.456l1.016,0.616
			c2.167,1.309,4.435,2.44,6.784,3.384l0.984,0.36c2.468,0.941,5.01,1.674,7.6,2.192l0.712,0.104c2.8,0.519,5.641,0.786,8.488,0.8
			h416V464z M464,144h-48V80h48V144z"/>
	</g>
</g>
<g>
	<g>
		<polygon points="280,272 280,256 248,256 248,240 232,240 232,256 200,256 200,320 264,320 264,352 200,352 200,368 232,368 
			232,384 248,384 248,368 280,368 280,304 216,304 216,272 		"/>
	</g>
</g>
<g>
	<g>
		<polygon points="128,64 128,128 144,128 144,80 192,80 192,64 		"/>
	</g>
</g>
<g>
	<g>
		<polygon points="288,64 288,80 336,80 336,128 352,128 352,64 		"/>
	</g>
</g>
<g>
	<g>
		<path d="M40,208c-4.418,0-8,3.582-8,8v104c0,4.418,3.582,8,8,8s8-3.582,8-8V216C48,211.582,44.418,208,40,208z"/>
	</g>
</g>
<g>
	<g>
		<path d="M40,344c-4.418,0-8,3.582-8,8v24c0,4.418,3.582,8,8,8s8-3.582,8-8v-24C48,347.582,44.418,344,40,344z"/>
	</g>
</g>
<g>
</g>
<g>
</g>
<g>
</g>
<g>
</g>
<g>
</g>
<g>
</g>
<g>
</g>
<g>
</g>
<g>
</g>
<g>
</g>
<g>
</g>
<g>
</g>
<g>
</g>
<g>
</g>
<g>
</g>
</svg>
