<svg id="Layer_5" enable-background="new 0 0 64 64" viewBox="0 0 64 64" xmlns="http://www.w3.org/2000/svg"><g><path d="m58.753 17.057c-.879-3.505-4.078-6.057-7.753-6.057-1.407 0-2.79.375-3.999 1.073-1.65-3.079-5.113-5.073-9.001-5.073-.192 0-.379.016-.568.026-1.402-3.612-5.157-6.026-9.432-6.026-5.514 0-10 4.037-10 9 0 .453.041.913.123 1.374-1.859.748-3.123 2.555-3.123 4.626 0 2.757 2.243 5 5 5h5.113c-.066.325-.113.657-.113 1 0 .521.103 1.014.251 1.487-1.403-.311-2.823-.487-4.251-.487-11.028 0-20 8.972-20 20s8.972 20 20 20 20-8.972 20-20c0-6.422-3.01-12.27-8.037-16h25.037c2.757 0 5-2.243 5-5 0-2.501-1.846-4.579-4.247-4.943zm-38.753 1.943c-1.654 0-3-1.346-3-3 0-1.457 1.045-2.695 2.486-2.945l1.111-.192-.325-1.081c-.18-.602-.272-1.202-.272-1.782 0-3.859 3.589-7 8-7 3.244 0 6.086 1.693 7.363 4.328-.66.163-1.293.383-1.892.658-.955-1.782-3.099-2.986-5.471-2.986-3.309 0-6 2.243-6 5h2c0-1.654 1.794-3 4-3 1.649 0 3.159.826 3.74 1.992-2.277 1.651-3.74 4.177-3.74 7.008 0 .453.041.913.123 1.374-.852.343-1.569.915-2.107 1.626zm5.414 12.116-1.105.276c-.5.125-.959.334-1.368.607h-6.616c1.184-4.363 2.984-7 4.674-7 1.568.001 3.256 2.371 4.415 6.117zm4.194 5.574.673-2.69h6.309c1.388 2.399 2.219 5.123 2.375 8h-2.684l1.094-4.374-7.065 1.767c-.514.128-.984.349-1.402.634-.032-.568-.075-1.131-.125-1.688.377-.477.67-1.028.825-1.649zm-8.608 24.31c-1.69 0-3.491-2.637-4.674-7h9.349c-1.184 4.363-2.985 7-4.675 7zm-5.152-9c-.474-2.326-.772-5.029-.829-8h11.963c-.057 2.971-.356 5.674-.829 8zm-12.797-8h9.96c.054 2.729.327 5.475.811 8h-8.386c-1.381-2.378-2.225-5.097-2.385-8zm22.318-4c.529 0 1.037-.099 1.512-.274.049.751.08 1.508.095 2.274h-11.957c.057-2.971.356-5.674.829-8h5.479c-.205.508-.327 1.056-.327 1.631 0 2.409 1.96 4.369 4.369 4.369zm-12.358 2h-9.96c.161-2.903 1.004-5.622 2.385-8h8.386c-.484 2.525-.757 5.271-.811 8zm15.816 5.169c.718.518 1.592.831 2.542.831 2.009 0 3.752-1.36 4.239-3.31l.173-.69h3.168c-.161 2.903-1.004 5.622-2.385 8h-8.386c.296-1.545.512-3.174.649-4.831zm1.968-5.837 3.831-.958-.958 3.832c-.264 1.056-1.21 1.794-2.299 1.794-1.306 0-2.369-1.062-2.369-2.369 0-1.089.738-2.034 1.795-2.299zm-3.127-5.126c-.264 1.056-1.21 1.794-2.299 1.794-1.306 0-2.369-1.062-2.369-2.369 0-1.089.738-2.034 1.795-2.299l3.831-.958zm-10.664-10.743c-1.16 1.608-2.078 3.895-2.74 6.537h-7.48c2.512-3.239 6.094-5.597 10.22-6.537zm-10.22 28.537h7.48c.662 2.643 1.579 4.93 2.74 6.537-4.126-.94-7.708-3.298-10.22-6.537zm18.212 6.537c1.16-1.608 2.078-3.895 2.74-6.537h7.48c-2.512 3.239-6.094 5.597-10.22 6.537zm10.247-28.537h-4.462l.594-2.374-4.015 1.004c-.654-2.152-1.469-3.887-2.397-5.159.742.171 1.479.377 2.206.643.543.375 1.16.648 1.828.785 2.502 1.244 4.613 2.999 6.246 5.101zm22.757-7h-28c-1.654 0-3-1.346-3-3 0-1.457 1.045-2.695 2.486-2.945l1.111-.192-.325-1.081c-.18-.602-.272-1.202-.272-1.782 0-3.859 3.589-7 8-7 3.517 0 6.585 1.975 7.635 4.913l.477 1.334 1.097-.896c1.083-.884 2.394-1.351 3.791-1.351 2.964 0 5.514 2.214 5.932 5.148l.123.859h.868l.136-.007c1.626.031 2.941 1.365 2.941 3 0 1.654-1.346 3-3 3z"/><path d="m38 11c-3.309 0-6 2.243-6 5h2c0-1.654 1.794-3 4-3 1.774 0 3.401.95 3.896 2.334l.942-.334.914-.414c-.755-2.111-3.12-3.586-5.752-3.586z"/><path d="m46 34.631c0 2.409 1.96 4.369 4.369 4.369 2.009 0 3.752-1.36 4.239-3.31l1.766-7.064-7.065 1.767c-1.948.486-3.309 2.229-3.309 4.238zm7.625-3.257-.958 3.832c-.263 1.056-1.209 1.794-2.298 1.794-1.306 0-2.369-1.062-2.369-2.369 0-1.089.738-2.034 1.795-2.299z"/><path d="m42 48.631c0 2.409 1.96 4.369 4.369 4.369 2.009 0 3.752-1.36 4.239-3.31l1.766-7.064-7.065 1.767c-1.948.486-3.309 2.229-3.309 4.238zm7.625-3.257-.958 3.832c-.263 1.056-1.209 1.794-2.298 1.794-1.306 0-2.369-1.062-2.369-2.369 0-1.089.738-2.034 1.795-2.299z"/></g></svg>