<svg id="_x31__x2C_5" enable-background="new 0 0 24 24" viewBox="0 0 24 24" xmlns="http://www.w3.org/2000/svg"><path d="m21.25 23h-18.5c-1.517 0-2.75-1.233-2.75-2.75v-16.5c0-1.517 1.233-2.75 2.75-2.75h18.5c1.517 0 2.75 1.233 2.75 2.75v16.5c0 1.517-1.233 2.75-2.75 2.75zm-18.5-20.5c-.689 0-1.25.561-1.25 1.25v16.5c0 .689.561 1.25 1.25 1.25h18.5c.689 0 1.25-.561 1.25-1.25v-16.5c0-.689-.561-1.25-1.25-1.25z"/><path d="m23.25 6h-22.5c-.414 0-.75-.336-.75-.75s.336-.75.75-.75h22.5c.414 0 .75.336.75.75s-.336.75-.75.75z"/><path d="m11.742 16.399c-.804 0-1.605-.311-2.217-.925l-3.107-3.126c-.591-.585-.918-1.373-.918-2.214s.327-1.629.922-2.219c1.145-1.17 3.238-1.185 4.422.003l.534.535c.292.293.292.768-.001 1.061-.293.292-.769.292-1.061-.002l-.534-.535c-.613-.616-1.7-.613-2.296-.005-.316.314-.486.724-.486 1.162s.17.848.479 1.154l3.109 3.129c.596.596 1.535.646 2.184.11.32-.262.794-.216 1.056.104.263.32.216.792-.104 1.056-.581.477-1.283.712-1.982.712z"/><path d="m15.368 20c-.839 0-1.626-.328-2.215-.926l-.512-.514c-.292-.293-.292-.769.002-1.061s.768-.292 1.061.002l.515.517c.615.623 1.688.62 2.298.003.313-.312.483-.722.483-1.16s-.17-.848-.479-1.154l-3.109-3.129c-.306-.306-.717-.476-1.155-.476-.269 0-.666.063-1.026.362-.32.265-.792.22-1.056-.099s-.221-.791.098-1.056c1.185-.982 3.098-.895 4.202.209l3.107 3.127c.591.586.918 1.374.918 2.215s-.327 1.629-.922 2.219c-.583.593-1.37.921-2.21.921z"/></svg>