<svg id="Capa_1" enable-background="new 0 0 512.038 512.038" viewBox="0 0 512.038 512.038" xmlns="http://www.w3.org/2000/svg"><g><path d="m471.935 13.227c-11.365-11.365-27.459-15.772-43.053-11.789-15.488 3.957-27.412 15.451-31.896 30.747-7.86 26.816-17.358 48.35-61.2 61.2-15.296 4.484-26.791 16.407-30.748 31.896-3.984 15.593.423 31.688 11.789 43.055l2.831 2.831-21.213 21.213c-.032-.031-19.277-19.277-95.459-95.459-29.242-29.243-76.824-29.243-106.066-.001s-29.242 76.823 0 106.065c.85.871 94.599 94.599 95.46 95.46l-21.213 21.213-2.831-2.831c-11.366-11.365-27.46-15.771-43.054-11.789-15.488 3.957-27.411 15.451-31.895 30.747-7.86 26.816-17.358 48.35-61.2 61.2-15.296 4.484-26.791 16.408-30.748 31.896-3.984 15.593.423 31.688 11.789 43.054l26.875 26.875c11.414 11.415 27.528 15.757 43.054 11.789 15.488-3.957 27.412-15.452 31.896-30.748 12.877-43.932 33.488-53.077 61.199-61.2 15.296-4.484 26.791-16.407 30.748-31.896 3.984-15.593-.423-31.688-11.789-43.054l-2.831-2.831c29.308-12.858 24.213-33.112 116.673 74.247 29.242 29.241 76.823 29.242 106.066-.001 29.242-29.242 29.242-76.823 0-106.065-21.09-21.09-77.979-77.979-95.46-95.46l21.213-21.213 2.831 2.831c11.415 11.416 27.527 15.757 43.053 11.789 15.488-3.957 27.412-15.452 31.896-30.748 12.877-43.932 33.488-53.077 61.2-61.2 15.296-4.484 26.791-16.408 30.748-31.896 3.984-15.593-.423-31.687-11.789-43.054zm-294.003 366.103c-.628 2.459-2.872 8.408-10.12 10.532-31.91 9.354-64.492 23.356-81.55 81.55-2.125 7.248-8.074 9.492-10.533 10.12-2.508.642-8.938 1.541-14.415-3.936l-26.874-26.874c-5.477-5.477-4.577-11.905-3.936-14.415.628-2.459 2.872-8.409 10.12-10.533 25.628-7.512 44.546-18.595 57.835-33.883 12.918-14.861 19.032-31.692 23.715-47.667 2.124-7.247 8.073-9.491 10.532-10.119 4.93-1.258 10.297-.181 14.415 3.936l26.875 26.874c5.478 5.477 4.578 11.906 3.936 14.415zm142.087-87.311c8.284 0 15-6.716 15-15v-5.64l12 12v36.64c0 8.284 6.716 15 15 15s15-6.716 15-15v-6.64l16.886 16.886c17.545 17.546 17.545 46.094 0 63.64-17.545 17.545-46.094 17.545-63.64 0l-16.886-16.886h6.64c8.284 0 15-6.716 15-15s-6.716-15-15-15h-36.64l-12-12h5.64c8.284 0 15-6.716 15-15s-6.716-15-15-15h-35.64c-10.115-10.115-23.966-23.966-34-34h5.64c8.284 0 15-6.716 15-15s-6.716-15-15-15h-35.64l-12-12h5.787c8.284 0 15-6.716 15-15s-6.716-15-15-15h-35.787l-17.246-17.246c-17.545-17.546-17.545-46.094 0-63.64 17.545-17.543 46.092-17.547 63.64 0l17.246 17.246v35.64c0 8.284 6.716 15 15 15s15-6.716 15-15v-5.64l12 12v35.64c0 8.284 6.716 15 15 15s15-6.716 15-15v-5.64l34 34v35.64c0 8.284 6.716 15 15 15zm161.514-216.29c-.628 2.459-2.872 8.408-10.12 10.533-31.911 9.354-64.493 23.356-81.55 81.55-2.125 7.248-8.074 9.492-10.533 10.12-2.51.642-8.939 1.542-14.415-3.936l-26.875-26.875c-5.477-5.477-4.577-11.905-3.936-14.415.628-2.459 2.872-8.408 10.12-10.533 25.629-7.512 44.547-18.595 57.836-33.883 12.918-14.861 19.032-31.692 23.715-47.667 2.125-7.247 8.073-9.491 10.532-10.119 4.955-1.264 10.314-.165 14.415 3.936l26.875 26.875c5.477 5.477 4.577 11.905 3.936 14.414z"/></g></svg>