<svg viewBox="0 0 512 512" xmlns="http://www.w3.org/2000/svg"><path d="m63.929688 512c-17.066407 0-33.128907-6.65625-45.226563-18.773438-24.9375-24.9375-24.9375-65.515624 0-90.453124l203.265625-203.265626c-5.78125-15.914062-8.703125-32.746093-8.703125-50.175781 0-82.324219 66.984375-149.332031 149.332031-149.332031 21.269532 0 41.664063 4.351562 60.585938 12.949219 4.777344 2.175781 8.191406 6.550781 9.132812 11.710937.9375 5.164063-.726562 10.453125-4.4375 14.167969l-57.410156 57.386719 6.125 39.101562 39.101562 6.101563 57.386719-57.386719c3.710938-3.691406 9.046875-5.332031 14.164063-4.4375 5.164062.941406 9.539062 4.351562 11.714844 9.132812 8.617187 18.921876 12.96875 39.316407 12.96875 60.605469 0 82.328125-66.984376 149.335938-149.332032 149.335938-17.410156 0-34.242187-2.925781-50.175781-8.707031l-203.265625 203.265624c-12.09375 12.117188-28.160156 18.773438-45.226562 18.773438zm298.667968-480c-64.703125 0-117.332031 52.628906-117.332031 117.332031 0 16.683594 3.390625 32.621094 10.089844 47.359375 2.75 6.082032 1.472656 13.230469-3.242188 17.941406l-210.773437 210.773438c-12.460938 12.460938-12.460938 32.75 0 45.207031 12.117187 12.117188 33.085937 12.117188 45.203125 0l210.773437-210.773437c4.695313-4.714844 11.863282-6.058594 17.921875-3.242188 14.742188 6.675782 30.675781 10.070313 47.359375 10.070313 64.703125 0 117.332032-52.628907 117.332032-117.335938 0-8.339843-.851563-16.445312-2.515626-24.363281l-44.84375 44.84375c-3.605468 3.605469-8.789062 5.25-13.78125 4.503906l-58.667968-9.175781c-6.867188-1.085937-12.265625-6.464844-13.332032-13.332031l-9.171874-58.667969c-.789063-5.054687.875-10.175781 4.5-13.78125l44.84375-44.84375c-7.914063-1.664063-16.042969-2.515625-24.363282-2.515625zm0 0"/></svg>